G75*
G70*
%OFA0B0*%
%FSLAX24Y24*%
%IPPOS*%
%LPD*%
%AMOC8*
5,1,8,0,0,1.08239X$1,22.5*
%
%ADD10C,0.0000*%
%ADD11OC8,0.0640*%
%ADD12C,0.0516*%
%ADD13R,0.0748X0.0551*%
%ADD14R,0.0551X0.0709*%
%ADD15R,0.0591X0.0276*%
%ADD16R,0.0236X0.0866*%
%ADD17C,0.0660*%
%ADD18R,0.0630X0.0512*%
%ADD19R,0.0512X0.0630*%
%ADD20R,0.0500X0.0500*%
%ADD21C,0.0100*%
%ADD22C,0.0160*%
%ADD23C,0.0120*%
%ADD24C,0.0436*%
D10*
X000651Y002151D02*
X000651Y021651D01*
X000653Y021727D01*
X000659Y021803D01*
X000668Y021878D01*
X000682Y021953D01*
X000699Y022027D01*
X000720Y022100D01*
X000744Y022172D01*
X000773Y022243D01*
X000804Y022312D01*
X000839Y022379D01*
X000878Y022444D01*
X000920Y022508D01*
X000965Y022569D01*
X001013Y022628D01*
X001064Y022684D01*
X001118Y022738D01*
X001174Y022789D01*
X001233Y022837D01*
X001294Y022882D01*
X001358Y022924D01*
X001423Y022963D01*
X001490Y022998D01*
X001559Y023029D01*
X001630Y023058D01*
X001702Y023082D01*
X001775Y023103D01*
X001849Y023120D01*
X001924Y023134D01*
X001999Y023143D01*
X002075Y023149D01*
X002151Y023151D01*
X010151Y023151D01*
X010227Y023149D01*
X010303Y023143D01*
X010378Y023134D01*
X010453Y023120D01*
X010527Y023103D01*
X010600Y023082D01*
X010672Y023058D01*
X010743Y023029D01*
X010812Y022998D01*
X010879Y022963D01*
X010944Y022924D01*
X011008Y022882D01*
X011069Y022837D01*
X011128Y022789D01*
X011184Y022738D01*
X011238Y022684D01*
X011289Y022628D01*
X011337Y022569D01*
X011382Y022508D01*
X011424Y022444D01*
X011463Y022379D01*
X011498Y022312D01*
X011529Y022243D01*
X011558Y022172D01*
X011582Y022100D01*
X011603Y022027D01*
X011620Y021953D01*
X011634Y021878D01*
X011643Y021803D01*
X011649Y021727D01*
X011651Y021651D01*
X011651Y002151D01*
X011649Y002075D01*
X011643Y001999D01*
X011634Y001924D01*
X011620Y001849D01*
X011603Y001775D01*
X011582Y001702D01*
X011558Y001630D01*
X011529Y001559D01*
X011498Y001490D01*
X011463Y001423D01*
X011424Y001358D01*
X011382Y001294D01*
X011337Y001233D01*
X011289Y001174D01*
X011238Y001118D01*
X011184Y001064D01*
X011128Y001013D01*
X011069Y000965D01*
X011008Y000920D01*
X010944Y000878D01*
X010879Y000839D01*
X010812Y000804D01*
X010743Y000773D01*
X010672Y000744D01*
X010600Y000720D01*
X010527Y000699D01*
X010453Y000682D01*
X010378Y000668D01*
X010303Y000659D01*
X010227Y000653D01*
X010151Y000651D01*
X002151Y000651D01*
X002075Y000653D01*
X001999Y000659D01*
X001924Y000668D01*
X001849Y000682D01*
X001775Y000699D01*
X001702Y000720D01*
X001630Y000744D01*
X001559Y000773D01*
X001490Y000804D01*
X001423Y000839D01*
X001358Y000878D01*
X001294Y000920D01*
X001233Y000965D01*
X001174Y001013D01*
X001118Y001064D01*
X001064Y001118D01*
X001013Y001174D01*
X000965Y001233D01*
X000920Y001294D01*
X000878Y001358D01*
X000839Y001423D01*
X000804Y001490D01*
X000773Y001559D01*
X000744Y001630D01*
X000720Y001702D01*
X000699Y001775D01*
X000682Y001849D01*
X000668Y001924D01*
X000659Y001999D01*
X000653Y002075D01*
X000651Y002151D01*
D11*
X002651Y001651D03*
X002651Y002651D03*
X003651Y002651D03*
X003651Y001651D03*
X004651Y001651D03*
X004651Y002651D03*
X005651Y002651D03*
X005651Y001651D03*
X006651Y001651D03*
X006651Y002651D03*
X007651Y002651D03*
X007651Y001651D03*
X008651Y001651D03*
X008651Y002651D03*
X009651Y002651D03*
X009651Y001651D03*
X009151Y021331D03*
X009151Y022331D03*
X008151Y022331D03*
X008151Y021331D03*
X007151Y021331D03*
X007151Y022331D03*
X006151Y022331D03*
X006151Y021331D03*
X005151Y021331D03*
X005151Y022331D03*
X004151Y022331D03*
X004151Y021331D03*
X003151Y021331D03*
X003151Y022331D03*
D12*
X001820Y017694D03*
X001820Y016907D03*
X001820Y016120D03*
X001820Y015332D03*
X001820Y014545D03*
X001820Y013757D03*
X001820Y012970D03*
X001820Y012183D03*
X001820Y011395D03*
X001820Y010608D03*
X010482Y010608D03*
X010482Y011395D03*
X010482Y012183D03*
X010482Y012970D03*
X010482Y013757D03*
X010482Y014545D03*
X010482Y015332D03*
X010482Y016120D03*
X010482Y016907D03*
X010482Y017694D03*
D13*
X010336Y009006D03*
X009982Y003809D03*
D14*
X004824Y004439D03*
X004824Y006801D03*
D15*
X008683Y006761D03*
X008840Y006328D03*
X008998Y005895D03*
X008840Y005462D03*
X008998Y005029D03*
X008840Y004596D03*
X008840Y004163D03*
X008840Y007194D03*
D16*
X008151Y014128D03*
X007651Y014128D03*
X007151Y014128D03*
X006651Y014128D03*
X006151Y014128D03*
X005651Y014128D03*
X005151Y014128D03*
X005151Y016175D03*
X005651Y016175D03*
X006151Y016175D03*
X006651Y016175D03*
X007151Y016175D03*
X007651Y016175D03*
X008151Y016175D03*
D17*
X004651Y013151D03*
X003651Y013151D03*
D18*
X003151Y014777D03*
X003151Y015525D03*
X005151Y017257D03*
X005151Y018045D03*
X007651Y013025D03*
X007651Y012277D03*
X009151Y017277D03*
X009151Y018025D03*
X010651Y002795D03*
X010651Y002007D03*
D19*
X003525Y003651D03*
X002777Y003651D03*
D20*
X002051Y019151D03*
X002051Y020151D03*
X001251Y020151D03*
X001251Y019151D03*
D21*
X000904Y001635D02*
X001080Y001329D01*
X001329Y001080D01*
X001635Y000904D01*
X001975Y000813D01*
X002151Y000801D01*
X010089Y000801D01*
X010100Y000801D01*
X010151Y000801D01*
X010327Y000813D01*
X010668Y000904D01*
X010973Y001080D01*
X011222Y001329D01*
X011398Y001635D01*
X011490Y001975D01*
X011501Y002151D01*
X011501Y002213D01*
X011501Y021589D01*
X011501Y021651D01*
X011490Y021827D01*
X011398Y022168D01*
X011222Y022473D01*
X010973Y022722D01*
X010668Y022898D01*
X010327Y022990D01*
X010151Y023001D01*
X010089Y023001D01*
X002151Y023001D01*
X001975Y022990D01*
X001635Y022898D01*
X001329Y022722D01*
X001080Y022473D01*
X000904Y022168D01*
X000813Y021827D01*
X000801Y021651D01*
X000801Y002151D01*
X000813Y001975D01*
X000904Y001635D01*
X000907Y001629D02*
X002201Y001629D01*
X002201Y001531D02*
X000964Y001531D01*
X001021Y001432D02*
X002234Y001432D01*
X002201Y001465D02*
X002465Y001201D01*
X002804Y001201D01*
X003189Y000816D01*
X003363Y000816D01*
X009814Y000816D01*
X009988Y000816D01*
X010238Y001066D01*
X010238Y001066D01*
X010361Y001189D01*
X010361Y001602D01*
X010601Y001602D01*
X010601Y001957D01*
X010701Y001957D01*
X010701Y001602D01*
X010986Y001602D01*
X011024Y001612D01*
X011058Y001632D01*
X011086Y001659D01*
X011106Y001694D01*
X011116Y001732D01*
X011116Y001958D01*
X010701Y001958D01*
X010701Y002057D01*
X011116Y002057D01*
X011116Y002283D01*
X011106Y002321D01*
X011086Y002355D01*
X011058Y002383D01*
X011024Y002403D01*
X011002Y002409D01*
X011020Y002409D01*
X011096Y002485D01*
X011096Y003105D01*
X011020Y003181D01*
X010861Y003181D01*
X010861Y005564D01*
X010861Y005738D01*
X010494Y006105D01*
X010320Y006105D01*
X009404Y006105D01*
X009347Y006163D01*
X009335Y006163D01*
X009488Y006316D01*
X009611Y006439D01*
X009611Y007593D01*
X009707Y007553D01*
X009845Y007553D01*
X009973Y007606D01*
X010071Y007704D01*
X010124Y007832D01*
X010124Y007970D01*
X010071Y008098D01*
X009973Y008196D01*
X009845Y008249D01*
X009725Y008249D01*
X009361Y008613D01*
X009361Y015189D01*
X009361Y015363D01*
X008399Y016325D01*
X008399Y016662D01*
X008323Y016738D01*
X007979Y016738D01*
X007903Y016662D01*
X007903Y015696D01*
X007899Y015700D01*
X007899Y016662D01*
X007823Y016738D01*
X007479Y016738D01*
X007403Y016662D01*
X007403Y015696D01*
X007399Y015700D01*
X007399Y016662D01*
X007323Y016738D01*
X006979Y016738D01*
X006903Y016662D01*
X006903Y015688D01*
X006941Y015650D01*
X006941Y015564D01*
X007441Y015064D01*
X007564Y014941D01*
X008314Y014941D01*
X008441Y014814D01*
X008441Y007988D01*
X008202Y007749D01*
X008082Y007749D01*
X007954Y007696D01*
X007856Y007598D01*
X007803Y007470D01*
X007803Y007332D01*
X007856Y007204D01*
X007954Y007106D01*
X008082Y007053D01*
X008220Y007053D01*
X008348Y007106D01*
X008415Y007173D01*
X008415Y007029D01*
X008334Y007029D01*
X008276Y006971D01*
X008098Y006971D01*
X007924Y006971D01*
X007599Y006646D01*
X007624Y006707D01*
X007624Y006827D01*
X007736Y006939D01*
X007736Y011369D01*
X007821Y011454D01*
X007874Y011582D01*
X007874Y011720D01*
X007821Y011848D01*
X007778Y011891D01*
X008020Y011891D01*
X008096Y011967D01*
X008096Y012587D01*
X008032Y012651D01*
X008096Y012715D01*
X008096Y013335D01*
X008020Y013411D01*
X007861Y013411D01*
X007861Y013603D01*
X007894Y013635D01*
X007913Y013602D01*
X007941Y013574D01*
X007975Y013555D01*
X008013Y013544D01*
X008142Y013544D01*
X008142Y014118D01*
X008160Y014118D01*
X008160Y013544D01*
X008289Y013544D01*
X008327Y013555D01*
X008361Y013574D01*
X008389Y013602D01*
X008409Y013637D01*
X008419Y013675D01*
X008419Y014118D01*
X008160Y014118D01*
X008160Y014137D01*
X008142Y014137D01*
X008142Y014711D01*
X008013Y014711D01*
X007975Y014700D01*
X007941Y014681D01*
X007913Y014653D01*
X007894Y014620D01*
X007823Y014691D01*
X007479Y014691D01*
X007403Y014614D01*
X007403Y013641D01*
X007441Y013603D01*
X007441Y013411D01*
X007282Y013411D01*
X007206Y013335D01*
X007206Y013235D01*
X006987Y013235D01*
X006813Y013235D01*
X006564Y012986D01*
X006441Y012863D01*
X006441Y006308D01*
X006356Y006223D01*
X006303Y006095D01*
X006303Y005957D01*
X006356Y005829D01*
X006454Y005731D01*
X006582Y005678D01*
X006631Y005678D01*
X005230Y004277D01*
X005230Y004847D01*
X005154Y004923D01*
X004495Y004923D01*
X004419Y004847D01*
X004419Y004030D01*
X004450Y003999D01*
X004332Y003999D01*
X004204Y003946D01*
X004119Y003861D01*
X003911Y003861D01*
X003911Y004020D01*
X003835Y004096D01*
X003215Y004096D01*
X003151Y004032D01*
X003087Y004096D01*
X002467Y004096D01*
X002391Y004020D01*
X002391Y003861D01*
X002238Y003861D01*
X002064Y003861D01*
X001814Y003611D01*
X001691Y003488D01*
X001691Y002488D01*
X001691Y002314D01*
X002201Y001804D01*
X002201Y001465D01*
X002332Y001334D02*
X001078Y001334D01*
X001174Y001235D02*
X002431Y001235D01*
X002201Y001728D02*
X000879Y001728D01*
X000852Y001826D02*
X002179Y001826D01*
X002080Y001925D02*
X000826Y001925D01*
X000810Y002024D02*
X001982Y002024D01*
X001883Y002122D02*
X000803Y002122D01*
X000801Y002221D02*
X001785Y002221D01*
X001691Y002319D02*
X000801Y002319D01*
X000801Y002418D02*
X001691Y002418D01*
X001691Y002516D02*
X000801Y002516D01*
X000801Y002615D02*
X001691Y002615D01*
X001691Y002713D02*
X000801Y002713D01*
X000801Y002812D02*
X001691Y002812D01*
X001691Y002910D02*
X000801Y002910D01*
X000801Y003009D02*
X001691Y003009D01*
X001691Y003107D02*
X000801Y003107D01*
X000801Y003206D02*
X001691Y003206D01*
X001691Y003305D02*
X000801Y003305D01*
X000801Y003403D02*
X001691Y003403D01*
X001705Y003502D02*
X000801Y003502D01*
X000801Y003600D02*
X001803Y003600D01*
X001902Y003699D02*
X000801Y003699D01*
X000801Y003797D02*
X002000Y003797D01*
X002238Y003441D02*
X002111Y003314D01*
X002111Y002488D01*
X002498Y002101D01*
X002838Y002101D01*
X003101Y001838D01*
X003101Y001498D01*
X003363Y001236D01*
X003430Y001236D01*
X003201Y001465D01*
X003201Y001838D01*
X003465Y002101D01*
X003838Y002101D01*
X004101Y001838D01*
X004101Y001465D01*
X003872Y001236D01*
X004430Y001236D01*
X004201Y001465D01*
X004201Y001838D01*
X004465Y002101D01*
X004838Y002101D01*
X005101Y001838D01*
X005101Y001465D01*
X004872Y001236D01*
X005430Y001236D01*
X005201Y001465D01*
X005201Y001838D01*
X005465Y002101D01*
X005804Y002101D01*
X005941Y002238D01*
X005941Y002305D01*
X005838Y002201D01*
X005465Y002201D01*
X005201Y002465D01*
X005201Y002838D01*
X005441Y003078D01*
X005441Y003894D01*
X005111Y003564D01*
X004988Y003441D01*
X004683Y003441D01*
X004598Y003356D01*
X004470Y003303D01*
X004332Y003303D01*
X004204Y003356D01*
X004119Y003441D01*
X003911Y003441D01*
X003911Y003282D01*
X003835Y003206D01*
X003215Y003206D01*
X003151Y003271D01*
X003087Y003206D01*
X002467Y003206D01*
X002391Y003282D01*
X002391Y003441D01*
X002238Y003441D01*
X002200Y003403D02*
X002391Y003403D01*
X002391Y003305D02*
X002111Y003305D01*
X002111Y003206D02*
X005441Y003206D01*
X005441Y003107D02*
X004859Y003107D01*
X004846Y003121D02*
X004701Y003121D01*
X004701Y002701D01*
X005121Y002701D01*
X005121Y002846D01*
X004846Y003121D01*
X004701Y003107D02*
X004601Y003107D01*
X004601Y003121D02*
X004456Y003121D01*
X004181Y002846D01*
X004181Y002701D01*
X004601Y002701D01*
X004601Y002601D01*
X004701Y002601D01*
X004701Y002181D01*
X004846Y002181D01*
X005121Y002456D01*
X005121Y002601D01*
X004701Y002601D01*
X004701Y002701D01*
X004601Y002701D01*
X004601Y003121D01*
X004601Y003009D02*
X004701Y003009D01*
X004701Y002910D02*
X004601Y002910D01*
X004601Y002812D02*
X004701Y002812D01*
X004701Y002713D02*
X004601Y002713D01*
X004601Y002615D02*
X003701Y002615D01*
X003701Y002601D02*
X003701Y002701D01*
X004121Y002701D01*
X004121Y002846D01*
X003846Y003121D01*
X003701Y003121D01*
X003701Y002701D01*
X003601Y002701D01*
X003601Y002601D01*
X003701Y002601D01*
X003701Y002181D01*
X003846Y002181D01*
X004121Y002456D01*
X004121Y002601D01*
X003701Y002601D01*
X003701Y002516D02*
X003601Y002516D01*
X003601Y002601D02*
X003601Y002181D01*
X003456Y002181D01*
X003181Y002456D01*
X003181Y002601D01*
X003601Y002601D01*
X003601Y002615D02*
X003101Y002615D01*
X003101Y002713D02*
X003181Y002713D01*
X003181Y002701D02*
X003601Y002701D01*
X003601Y003121D01*
X003456Y003121D01*
X003181Y002846D01*
X003181Y002701D01*
X003181Y002812D02*
X003101Y002812D01*
X003101Y002838D02*
X002838Y003101D01*
X002465Y003101D01*
X002201Y002838D01*
X002201Y002465D01*
X002465Y002201D01*
X002838Y002201D01*
X003101Y002465D01*
X003101Y002838D01*
X003028Y002910D02*
X003246Y002910D01*
X003344Y003009D02*
X002930Y003009D01*
X003101Y002516D02*
X003181Y002516D01*
X003220Y002418D02*
X003054Y002418D01*
X002956Y002319D02*
X003319Y002319D01*
X003417Y002221D02*
X002857Y002221D01*
X002915Y002024D02*
X003387Y002024D01*
X003289Y001925D02*
X003014Y001925D01*
X003101Y001826D02*
X003201Y001826D01*
X003201Y001728D02*
X003101Y001728D01*
X003101Y001629D02*
X003201Y001629D01*
X003201Y001531D02*
X003101Y001531D01*
X003167Y001432D02*
X003234Y001432D01*
X003266Y001334D02*
X003332Y001334D01*
X002967Y001038D02*
X001402Y001038D01*
X001273Y001137D02*
X002869Y001137D01*
X003066Y000940D02*
X001573Y000940D01*
X001869Y000841D02*
X003164Y000841D01*
X002477Y002122D02*
X005825Y002122D01*
X005857Y002221D02*
X005924Y002221D01*
X005445Y002221D02*
X004885Y002221D01*
X004984Y002319D02*
X005347Y002319D01*
X005248Y002418D02*
X005082Y002418D01*
X005121Y002516D02*
X005201Y002516D01*
X005201Y002615D02*
X004701Y002615D01*
X004701Y002516D02*
X004601Y002516D01*
X004601Y002601D02*
X004601Y002181D01*
X004456Y002181D01*
X004181Y002456D01*
X004181Y002601D01*
X004601Y002601D01*
X004601Y002418D02*
X004701Y002418D01*
X004701Y002319D02*
X004601Y002319D01*
X004601Y002221D02*
X004701Y002221D01*
X004417Y002221D02*
X003885Y002221D01*
X003984Y002319D02*
X004319Y002319D01*
X004220Y002418D02*
X004082Y002418D01*
X004121Y002516D02*
X004181Y002516D01*
X004181Y002713D02*
X004121Y002713D01*
X004121Y002812D02*
X004181Y002812D01*
X004246Y002910D02*
X004057Y002910D01*
X003958Y003009D02*
X004344Y003009D01*
X004443Y003107D02*
X003859Y003107D01*
X003701Y003107D02*
X003601Y003107D01*
X003601Y003009D02*
X003701Y003009D01*
X003701Y002910D02*
X003601Y002910D01*
X003601Y002812D02*
X003701Y002812D01*
X003701Y002713D02*
X003601Y002713D01*
X003601Y002418D02*
X003701Y002418D01*
X003701Y002319D02*
X003601Y002319D01*
X003601Y002221D02*
X003701Y002221D01*
X003915Y002024D02*
X004387Y002024D01*
X004289Y001925D02*
X004014Y001925D01*
X004101Y001826D02*
X004201Y001826D01*
X004201Y001728D02*
X004101Y001728D01*
X004101Y001629D02*
X004201Y001629D01*
X004201Y001531D02*
X004101Y001531D01*
X004069Y001432D02*
X004234Y001432D01*
X004332Y001334D02*
X003970Y001334D01*
X004970Y001334D02*
X005332Y001334D01*
X005234Y001432D02*
X005069Y001432D01*
X005101Y001531D02*
X005201Y001531D01*
X005201Y001629D02*
X005101Y001629D01*
X005101Y001728D02*
X005201Y001728D01*
X005201Y001826D02*
X005101Y001826D01*
X005014Y001925D02*
X005289Y001925D01*
X005387Y002024D02*
X004915Y002024D01*
X005121Y002713D02*
X005201Y002713D01*
X005201Y002812D02*
X005121Y002812D01*
X005057Y002910D02*
X005274Y002910D01*
X005373Y003009D02*
X004958Y003009D01*
X005049Y003502D02*
X005441Y003502D01*
X005441Y003600D02*
X005147Y003600D01*
X005246Y003699D02*
X005441Y003699D01*
X005441Y003797D02*
X005344Y003797D01*
X005441Y003403D02*
X004645Y003403D01*
X004474Y003305D02*
X005441Y003305D01*
X005243Y004290D02*
X005230Y004290D01*
X005230Y004389D02*
X005342Y004389D01*
X005440Y004487D02*
X005230Y004487D01*
X005230Y004586D02*
X005539Y004586D01*
X005637Y004684D02*
X005230Y004684D01*
X005230Y004783D02*
X005736Y004783D01*
X005834Y004881D02*
X005195Y004881D01*
X005933Y004980D02*
X000801Y004980D01*
X000801Y005078D02*
X006031Y005078D01*
X006130Y005177D02*
X000801Y005177D01*
X000801Y005275D02*
X006229Y005275D01*
X006327Y005374D02*
X000801Y005374D01*
X000801Y005473D02*
X006426Y005473D01*
X006524Y005571D02*
X000801Y005571D01*
X000801Y005670D02*
X006623Y005670D01*
X006417Y005768D02*
X000801Y005768D01*
X000801Y005867D02*
X006340Y005867D01*
X006303Y005965D02*
X000801Y005965D01*
X000801Y006064D02*
X006303Y006064D01*
X006331Y006162D02*
X000801Y006162D01*
X000801Y006261D02*
X006394Y006261D01*
X006441Y006359D02*
X005197Y006359D01*
X005230Y006393D02*
X005230Y007209D01*
X005154Y007285D01*
X004495Y007285D01*
X004419Y007209D01*
X004419Y006393D01*
X004495Y006316D01*
X005154Y006316D01*
X005230Y006393D01*
X005230Y006458D02*
X006441Y006458D01*
X006441Y006556D02*
X005230Y006556D01*
X005230Y006655D02*
X006441Y006655D01*
X006441Y006754D02*
X005230Y006754D01*
X005230Y006852D02*
X006441Y006852D01*
X006441Y006951D02*
X005230Y006951D01*
X005230Y007049D02*
X006441Y007049D01*
X006441Y007148D02*
X005230Y007148D01*
X005193Y007246D02*
X006441Y007246D01*
X006441Y007345D02*
X000801Y007345D01*
X000801Y007443D02*
X006441Y007443D01*
X006441Y007542D02*
X000801Y007542D01*
X000801Y007640D02*
X006441Y007640D01*
X006441Y007739D02*
X000801Y007739D01*
X000801Y007838D02*
X006441Y007838D01*
X006441Y007936D02*
X000801Y007936D01*
X000801Y008035D02*
X006441Y008035D01*
X006441Y008133D02*
X000801Y008133D01*
X000801Y008232D02*
X006441Y008232D01*
X006441Y008330D02*
X000801Y008330D01*
X000801Y008429D02*
X006441Y008429D01*
X006441Y008527D02*
X000801Y008527D01*
X000801Y008626D02*
X006441Y008626D01*
X006441Y008724D02*
X000801Y008724D01*
X000801Y008823D02*
X006441Y008823D01*
X006441Y008922D02*
X000801Y008922D01*
X000801Y009020D02*
X006441Y009020D01*
X006441Y009119D02*
X000801Y009119D01*
X000801Y009217D02*
X006441Y009217D01*
X006441Y009316D02*
X000801Y009316D01*
X000801Y009414D02*
X006441Y009414D01*
X006441Y009513D02*
X000801Y009513D01*
X000801Y009611D02*
X006441Y009611D01*
X006441Y009710D02*
X000801Y009710D01*
X000801Y009808D02*
X006441Y009808D01*
X006441Y009907D02*
X000801Y009907D01*
X000801Y010006D02*
X006441Y010006D01*
X006441Y010104D02*
X000801Y010104D01*
X000801Y010203D02*
X001772Y010203D01*
X001788Y010200D02*
X001725Y010210D01*
X001664Y010230D01*
X001607Y010259D01*
X001555Y010297D01*
X001509Y010342D01*
X001472Y010394D01*
X001443Y010451D01*
X001423Y010512D01*
X001413Y010576D01*
X001413Y010589D01*
X001801Y010589D01*
X001801Y010627D01*
X001413Y010627D01*
X001413Y010640D01*
X001423Y010703D01*
X001443Y010764D01*
X001472Y010822D01*
X001509Y010874D01*
X001555Y010919D01*
X001607Y010957D01*
X001664Y010986D01*
X001725Y011006D01*
X001742Y011008D01*
X001601Y011066D01*
X001492Y011176D01*
X001433Y011318D01*
X001433Y011472D01*
X001492Y011615D01*
X001601Y011724D01*
X001743Y011783D01*
X001898Y011783D01*
X002040Y011724D01*
X002149Y011615D01*
X002208Y011472D01*
X002208Y011318D01*
X002149Y011176D01*
X002040Y011066D01*
X001899Y011008D01*
X001916Y011006D01*
X001977Y010986D01*
X002034Y010957D01*
X002086Y010919D01*
X002131Y010874D01*
X002169Y010822D01*
X002198Y010764D01*
X002218Y010703D01*
X002228Y010640D01*
X002228Y010627D01*
X001840Y010627D01*
X001840Y010589D01*
X002228Y010589D01*
X002228Y010576D01*
X002218Y010512D01*
X002198Y010451D01*
X002169Y010394D01*
X002131Y010342D01*
X002086Y010297D01*
X002034Y010259D01*
X001977Y010230D01*
X001916Y010210D01*
X001853Y010200D01*
X001839Y010200D01*
X001839Y010589D01*
X001801Y010589D01*
X001801Y010200D01*
X001788Y010200D01*
X001801Y010203D02*
X001839Y010203D01*
X001868Y010203D02*
X006441Y010203D01*
X006441Y010301D02*
X002090Y010301D01*
X002172Y010400D02*
X006441Y010400D01*
X006441Y010498D02*
X002214Y010498D01*
X002219Y010695D02*
X006441Y010695D01*
X006441Y010597D02*
X001840Y010597D01*
X001801Y010597D02*
X000801Y010597D01*
X000801Y010695D02*
X001421Y010695D01*
X001458Y010794D02*
X000801Y010794D01*
X000801Y010892D02*
X001528Y010892D01*
X001578Y011089D02*
X000801Y011089D01*
X000801Y010991D02*
X001680Y010991D01*
X001487Y011188D02*
X000801Y011188D01*
X000801Y011287D02*
X001446Y011287D01*
X001433Y011385D02*
X000801Y011385D01*
X000801Y011484D02*
X001437Y011484D01*
X001478Y011582D02*
X000801Y011582D01*
X000801Y011681D02*
X001558Y011681D01*
X001601Y011854D02*
X001743Y011795D01*
X001898Y011795D01*
X002040Y011854D01*
X002149Y011963D01*
X002208Y012106D01*
X002208Y012260D01*
X002149Y012402D01*
X002040Y012511D01*
X001898Y012570D01*
X001743Y012570D01*
X001601Y012511D01*
X001492Y012402D01*
X001433Y012260D01*
X001433Y012106D01*
X001492Y011963D01*
X001601Y011854D01*
X001577Y011878D02*
X000801Y011878D01*
X000801Y011976D02*
X001486Y011976D01*
X001445Y012075D02*
X000801Y012075D01*
X000801Y012173D02*
X001433Y012173D01*
X001438Y012272D02*
X000801Y012272D01*
X000801Y012371D02*
X001479Y012371D01*
X001558Y012469D02*
X000801Y012469D01*
X000801Y012568D02*
X001737Y012568D01*
X001743Y012582D02*
X001898Y012582D01*
X002040Y012641D01*
X002149Y012750D01*
X002208Y012893D01*
X002208Y013047D01*
X002149Y013190D01*
X002040Y013299D01*
X001898Y013358D01*
X001743Y013358D01*
X001601Y013299D01*
X001492Y013190D01*
X001433Y013047D01*
X001433Y012893D01*
X001492Y012750D01*
X001601Y012641D01*
X001743Y012582D01*
X001904Y012568D02*
X006441Y012568D01*
X006441Y012666D02*
X002065Y012666D01*
X002155Y012765D02*
X003387Y012765D01*
X003391Y012761D02*
X003560Y012691D01*
X003743Y012691D01*
X003912Y012761D01*
X004041Y012891D01*
X004111Y013060D01*
X004191Y013060D01*
X004261Y012891D01*
X004391Y012761D01*
X004560Y012691D01*
X004743Y012691D01*
X004912Y012761D01*
X005041Y012891D01*
X005111Y013060D01*
X005812Y013060D01*
X005803Y013082D02*
X005856Y012954D01*
X005954Y012856D01*
X006082Y012803D01*
X006220Y012803D01*
X006348Y012856D01*
X006446Y012954D01*
X006499Y013082D01*
X006499Y013220D01*
X006446Y013348D01*
X006361Y013433D01*
X006361Y013603D01*
X006399Y013641D01*
X006399Y014614D01*
X006323Y014691D01*
X005979Y014691D01*
X005903Y014614D01*
X005903Y013641D01*
X005941Y013603D01*
X005941Y013433D01*
X005856Y013348D01*
X005803Y013220D01*
X005803Y013082D01*
X005803Y013159D02*
X005111Y013159D01*
X005111Y013243D02*
X005041Y013412D01*
X004912Y013541D01*
X004861Y013562D01*
X004861Y013564D01*
X004920Y013623D01*
X004979Y013564D01*
X005323Y013564D01*
X005399Y013641D01*
X005399Y014614D01*
X005323Y014691D01*
X004979Y014691D01*
X004903Y014614D01*
X004903Y014200D01*
X004441Y013738D01*
X004441Y013564D01*
X004441Y013562D01*
X004391Y013541D01*
X004261Y013412D01*
X004191Y013243D01*
X004191Y013060D01*
X004111Y013060D02*
X004111Y013243D01*
X004041Y013412D01*
X003912Y013541D01*
X003861Y013562D01*
X003861Y013939D01*
X004613Y014691D01*
X005439Y014691D01*
X005441Y014689D01*
X005441Y014653D01*
X005403Y014614D01*
X005403Y013641D01*
X005479Y013564D01*
X005823Y013564D01*
X005899Y013641D01*
X005899Y014614D01*
X005861Y014653D01*
X005861Y014689D01*
X005861Y014863D01*
X005736Y014988D01*
X005613Y015111D01*
X005353Y015111D01*
X005446Y015204D01*
X005499Y015332D01*
X005499Y015470D01*
X005446Y015598D01*
X005378Y015667D01*
X005399Y015688D01*
X005399Y016662D01*
X005361Y016700D01*
X005361Y016872D01*
X005520Y016872D01*
X005596Y016948D01*
X005596Y017567D01*
X005520Y017643D01*
X005502Y017643D01*
X005524Y017649D01*
X005558Y017669D01*
X005586Y017697D01*
X005606Y017731D01*
X005616Y017769D01*
X005616Y017995D01*
X005201Y017995D01*
X005201Y018095D01*
X005101Y018095D01*
X005101Y017995D01*
X004686Y017995D01*
X004686Y017769D01*
X004696Y017731D01*
X004716Y017697D01*
X004744Y017669D01*
X004778Y017649D01*
X004800Y017643D01*
X004782Y017643D01*
X004706Y017567D01*
X004706Y017467D01*
X004425Y017467D01*
X004249Y017643D01*
X004249Y017764D01*
X004196Y017892D01*
X004098Y017990D01*
X003970Y018043D01*
X003832Y018043D01*
X003704Y017990D01*
X003606Y017892D01*
X003553Y017764D01*
X003553Y017625D01*
X003606Y017497D01*
X003704Y017399D01*
X003832Y017346D01*
X003952Y017346D01*
X004251Y017047D01*
X004425Y017047D01*
X004706Y017047D01*
X004706Y016948D01*
X004782Y016872D01*
X004941Y016872D01*
X004941Y016700D01*
X004903Y016662D01*
X004903Y015688D01*
X004924Y015667D01*
X004856Y015598D01*
X004803Y015470D01*
X004803Y015332D01*
X004856Y015204D01*
X004949Y015111D01*
X004613Y015111D01*
X004439Y015111D01*
X003564Y014236D01*
X003441Y014113D01*
X003441Y013562D01*
X003391Y013541D01*
X003261Y013412D01*
X003191Y013243D01*
X003191Y013060D01*
X002203Y013060D01*
X002208Y012962D02*
X003232Y012962D01*
X003261Y012891D02*
X003391Y012761D01*
X003289Y012863D02*
X002196Y012863D01*
X002162Y013159D02*
X003191Y013159D01*
X003197Y013257D02*
X002081Y013257D01*
X002040Y013429D02*
X002149Y013538D01*
X002153Y013547D01*
X002670Y013547D01*
X002844Y013547D01*
X003238Y013941D01*
X003361Y014064D01*
X003361Y014391D01*
X003520Y014391D01*
X003596Y014467D01*
X003596Y015087D01*
X003532Y015151D01*
X003596Y015215D01*
X003596Y015835D01*
X003520Y015911D01*
X003361Y015911D01*
X003361Y017363D01*
X003238Y017486D01*
X002261Y018463D01*
X002261Y018771D01*
X002355Y018771D01*
X002431Y018847D01*
X002431Y019455D01*
X002355Y019531D01*
X001747Y019531D01*
X001671Y019455D01*
X001671Y018847D01*
X001747Y018771D01*
X001841Y018771D01*
X001841Y018463D01*
X001841Y018289D01*
X002941Y017189D01*
X002941Y015911D01*
X002782Y015911D01*
X002706Y015835D01*
X002706Y015215D01*
X002771Y015151D01*
X002706Y015087D01*
X002706Y014467D01*
X002782Y014391D01*
X002941Y014391D01*
X002941Y014238D01*
X002670Y013967D01*
X002153Y013967D01*
X002149Y013977D01*
X002040Y014086D01*
X001898Y014145D01*
X001743Y014145D01*
X001601Y014086D01*
X001492Y013977D01*
X001433Y013835D01*
X001433Y013680D01*
X001492Y013538D01*
X001601Y013429D01*
X001743Y013370D01*
X001898Y013370D01*
X002040Y013429D01*
X002066Y013455D02*
X003304Y013455D01*
X003238Y013356D02*
X001902Y013356D01*
X001739Y013356D02*
X000801Y013356D01*
X000801Y013455D02*
X001575Y013455D01*
X001485Y013553D02*
X000801Y013553D01*
X000801Y013652D02*
X001445Y013652D01*
X001433Y013750D02*
X000801Y013750D01*
X000801Y013849D02*
X001439Y013849D01*
X001479Y013947D02*
X000801Y013947D01*
X000801Y014046D02*
X001560Y014046D01*
X001601Y014216D02*
X001743Y014157D01*
X001898Y014157D01*
X002040Y014216D01*
X002149Y014325D01*
X002208Y014468D01*
X002208Y014622D01*
X002149Y014765D01*
X002040Y014874D01*
X001898Y014933D01*
X001743Y014933D01*
X001601Y014874D01*
X001492Y014765D01*
X001433Y014622D01*
X001433Y014468D01*
X001492Y014325D01*
X001601Y014216D01*
X001574Y014243D02*
X000801Y014243D01*
X000801Y014341D02*
X001485Y014341D01*
X001444Y014440D02*
X000801Y014440D01*
X000801Y014539D02*
X001433Y014539D01*
X001439Y014637D02*
X000801Y014637D01*
X000801Y014736D02*
X001480Y014736D01*
X001561Y014834D02*
X000801Y014834D01*
X000801Y014933D02*
X002706Y014933D01*
X002706Y015031D02*
X002068Y015031D01*
X002040Y015004D02*
X002149Y015113D01*
X002208Y015255D01*
X002208Y015409D01*
X002149Y015552D01*
X002040Y015661D01*
X001898Y015720D01*
X001743Y015720D01*
X001601Y015661D01*
X001492Y015552D01*
X001433Y015409D01*
X001433Y015255D01*
X001492Y015113D01*
X001601Y015004D01*
X001743Y014944D01*
X001898Y014944D01*
X002040Y015004D01*
X002156Y015130D02*
X002749Y015130D01*
X002706Y015228D02*
X002197Y015228D01*
X002208Y015327D02*
X002706Y015327D01*
X002706Y015425D02*
X002202Y015425D01*
X002161Y015524D02*
X002706Y015524D01*
X002706Y015622D02*
X002079Y015622D01*
X002040Y015791D02*
X002149Y015900D01*
X002208Y016043D01*
X002208Y016197D01*
X002149Y016339D01*
X002040Y016448D01*
X001898Y016507D01*
X001743Y016507D01*
X001601Y016448D01*
X001492Y016339D01*
X001433Y016197D01*
X001433Y016043D01*
X001492Y015900D01*
X001601Y015791D01*
X001743Y015732D01*
X001898Y015732D01*
X002040Y015791D01*
X002069Y015820D02*
X002706Y015820D01*
X002706Y015721D02*
X000801Y015721D01*
X000801Y015622D02*
X001562Y015622D01*
X001480Y015524D02*
X000801Y015524D01*
X000801Y015425D02*
X001439Y015425D01*
X001433Y015327D02*
X000801Y015327D01*
X000801Y015228D02*
X001444Y015228D01*
X001485Y015130D02*
X000801Y015130D01*
X000801Y015031D02*
X001573Y015031D01*
X001572Y015820D02*
X000801Y015820D01*
X000801Y015918D02*
X001484Y015918D01*
X001443Y016017D02*
X000801Y016017D01*
X000801Y016115D02*
X001433Y016115D01*
X001440Y016214D02*
X000801Y016214D01*
X000801Y016312D02*
X001481Y016312D01*
X001563Y016411D02*
X000801Y016411D01*
X000801Y016509D02*
X002941Y016509D01*
X002941Y016411D02*
X002078Y016411D01*
X002160Y016312D02*
X002941Y016312D01*
X002941Y016214D02*
X002201Y016214D01*
X002208Y016115D02*
X002941Y016115D01*
X002941Y016017D02*
X002197Y016017D01*
X002157Y015918D02*
X002941Y015918D01*
X002941Y016608D02*
X002070Y016608D01*
X002040Y016578D02*
X002149Y016687D01*
X002208Y016830D01*
X002208Y016984D01*
X002149Y017127D01*
X002040Y017236D01*
X001898Y017295D01*
X001743Y017295D01*
X001601Y017236D01*
X001492Y017127D01*
X001433Y016984D01*
X001433Y016830D01*
X001492Y016687D01*
X001601Y016578D01*
X001743Y016519D01*
X001898Y016519D01*
X002040Y016578D01*
X002157Y016706D02*
X002941Y016706D01*
X002941Y016805D02*
X002198Y016805D01*
X002208Y016904D02*
X002941Y016904D01*
X002941Y017002D02*
X002201Y017002D01*
X002160Y017101D02*
X002941Y017101D01*
X002931Y017199D02*
X002077Y017199D01*
X002040Y017366D02*
X002149Y017475D01*
X002208Y017617D01*
X002208Y017772D01*
X002149Y017914D01*
X002040Y018023D01*
X001898Y018082D01*
X001743Y018082D01*
X001601Y018023D01*
X001492Y017914D01*
X001433Y017772D01*
X001433Y017617D01*
X001492Y017475D01*
X001601Y017366D01*
X001743Y017307D01*
X001898Y017307D01*
X002040Y017366D01*
X002071Y017396D02*
X002734Y017396D01*
X002833Y017298D02*
X000801Y017298D01*
X000801Y017396D02*
X001570Y017396D01*
X001483Y017495D02*
X000801Y017495D01*
X000801Y017593D02*
X001443Y017593D01*
X001433Y017692D02*
X000801Y017692D01*
X000801Y017790D02*
X001440Y017790D01*
X001481Y017889D02*
X000801Y017889D01*
X000801Y017988D02*
X001565Y017988D01*
X001847Y018283D02*
X000801Y018283D01*
X000801Y018185D02*
X001946Y018185D01*
X002044Y018086D02*
X000801Y018086D01*
X000801Y018382D02*
X001841Y018382D01*
X001841Y018480D02*
X000801Y018480D01*
X000801Y018579D02*
X001841Y018579D01*
X001841Y018677D02*
X000801Y018677D01*
X000801Y018776D02*
X000918Y018776D01*
X000909Y018781D02*
X000943Y018761D01*
X000981Y018751D01*
X001201Y018751D01*
X001201Y019101D01*
X000851Y019101D01*
X000851Y018881D01*
X000861Y018843D01*
X000881Y018809D01*
X000909Y018781D01*
X000853Y018874D02*
X000801Y018874D01*
X000801Y018973D02*
X000851Y018973D01*
X000851Y019071D02*
X000801Y019071D01*
X000801Y019170D02*
X001201Y019170D01*
X001201Y019201D02*
X001201Y019101D01*
X001301Y019101D01*
X001301Y018751D01*
X001521Y018751D01*
X001559Y018761D01*
X001593Y018781D01*
X001621Y018809D01*
X001641Y018843D01*
X001651Y018881D01*
X001651Y019101D01*
X001301Y019101D01*
X001301Y019201D01*
X001201Y019201D01*
X000851Y019201D01*
X000851Y019421D01*
X000861Y019459D01*
X000881Y019493D01*
X000909Y019521D01*
X000943Y019541D01*
X000981Y019551D01*
X001201Y019551D01*
X001201Y019201D01*
X001201Y019269D02*
X001301Y019269D01*
X001301Y019201D02*
X001301Y019551D01*
X001521Y019551D01*
X001559Y019541D01*
X001593Y019521D01*
X001621Y019493D01*
X001641Y019459D01*
X001651Y019421D01*
X001651Y019201D01*
X001301Y019201D01*
X001301Y019170D02*
X001671Y019170D01*
X001671Y019071D02*
X001651Y019071D01*
X001651Y018973D02*
X001671Y018973D01*
X001671Y018874D02*
X001649Y018874D01*
X001584Y018776D02*
X001743Y018776D01*
X001671Y019269D02*
X001651Y019269D01*
X001651Y019367D02*
X001671Y019367D01*
X001682Y019466D02*
X001637Y019466D01*
X001559Y019761D02*
X001521Y019751D01*
X001301Y019751D01*
X001301Y020101D01*
X001201Y020101D01*
X000851Y020101D01*
X000851Y019881D01*
X000861Y019843D01*
X000881Y019809D01*
X000909Y019781D01*
X000943Y019761D01*
X000981Y019751D01*
X001201Y019751D01*
X001201Y020101D01*
X001201Y020201D01*
X000851Y020201D01*
X000851Y020421D01*
X000861Y020459D01*
X000881Y020493D01*
X000909Y020521D01*
X000943Y020541D01*
X000981Y020551D01*
X001201Y020551D01*
X001201Y020201D01*
X001301Y020201D01*
X001301Y020551D01*
X001521Y020551D01*
X001559Y020541D01*
X001593Y020521D01*
X001621Y020493D01*
X001641Y020459D01*
X001651Y020421D01*
X001651Y020201D01*
X001301Y020201D01*
X001301Y020101D01*
X001651Y020101D01*
X001651Y019881D01*
X001641Y019843D01*
X001621Y019809D01*
X001593Y019781D01*
X001559Y019761D01*
X002744Y019761D01*
X002843Y019663D02*
X000801Y019663D01*
X000801Y019761D02*
X000944Y019761D01*
X000857Y019860D02*
X000801Y019860D01*
X000801Y019958D02*
X000851Y019958D01*
X000851Y020057D02*
X000801Y020057D01*
X000801Y020155D02*
X001201Y020155D01*
X001201Y020057D02*
X001301Y020057D01*
X001301Y020155D02*
X001671Y020155D01*
X001671Y020057D02*
X001651Y020057D01*
X001651Y019958D02*
X001671Y019958D01*
X001671Y019860D02*
X001645Y019860D01*
X001671Y019847D02*
X001747Y019771D01*
X002355Y019771D01*
X002431Y019847D01*
X002431Y019941D01*
X002564Y019941D01*
X003441Y019064D01*
X003564Y018941D01*
X005064Y018941D01*
X006190Y017815D01*
X006364Y017815D01*
X008706Y017815D01*
X008706Y017715D01*
X008771Y017651D01*
X008706Y017587D01*
X008706Y016967D01*
X008782Y016891D01*
X008941Y016891D01*
X008941Y016738D01*
X008941Y016564D01*
X009441Y016064D01*
X009441Y014675D01*
X009441Y014501D01*
X010098Y013844D01*
X010094Y013835D01*
X010094Y013680D01*
X010153Y013538D01*
X010262Y013429D01*
X010405Y013370D01*
X010559Y013370D01*
X010702Y013429D01*
X010811Y013538D01*
X010870Y013680D01*
X010870Y013835D01*
X010811Y013977D01*
X010702Y014086D01*
X010559Y014145D01*
X010405Y014145D01*
X010395Y014141D01*
X010361Y014175D01*
X010405Y014157D01*
X010559Y014157D01*
X010702Y014216D01*
X010811Y014325D01*
X010870Y014468D01*
X010870Y014622D01*
X010811Y014765D01*
X010702Y014874D01*
X010559Y014933D01*
X010405Y014933D01*
X010262Y014874D01*
X010153Y014765D01*
X010094Y014622D01*
X010094Y014468D01*
X010112Y014424D01*
X009861Y014675D01*
X009861Y016238D01*
X009738Y016361D01*
X009361Y016738D01*
X009361Y016891D01*
X009520Y016891D01*
X009596Y016967D01*
X009596Y017587D01*
X009532Y017651D01*
X009596Y017715D01*
X009596Y018335D01*
X009520Y018411D01*
X008782Y018411D01*
X008706Y018335D01*
X008706Y018235D01*
X006364Y018235D01*
X005361Y019238D01*
X005238Y019361D01*
X003738Y019361D01*
X002738Y020361D01*
X002564Y020361D01*
X002431Y020361D01*
X002431Y020455D01*
X002355Y020531D01*
X001747Y020531D01*
X001671Y020455D01*
X001671Y019847D01*
X001301Y019860D02*
X001201Y019860D01*
X001201Y019958D02*
X001301Y019958D01*
X001301Y019761D02*
X001201Y019761D01*
X001201Y019466D02*
X001301Y019466D01*
X001301Y019367D02*
X001201Y019367D01*
X001201Y019071D02*
X001301Y019071D01*
X001301Y018973D02*
X001201Y018973D01*
X001201Y018874D02*
X001301Y018874D01*
X001301Y018776D02*
X001201Y018776D01*
X000851Y019269D02*
X000801Y019269D01*
X000801Y019367D02*
X000851Y019367D01*
X000865Y019466D02*
X000801Y019466D01*
X000801Y019564D02*
X002941Y019564D01*
X003040Y019466D02*
X002420Y019466D01*
X002431Y019367D02*
X003138Y019367D01*
X003237Y019269D02*
X002431Y019269D01*
X002431Y019170D02*
X003335Y019170D01*
X003434Y019071D02*
X002431Y019071D01*
X002431Y018973D02*
X003532Y018973D01*
X003732Y019367D02*
X011501Y019367D01*
X011501Y019269D02*
X005331Y019269D01*
X005429Y019170D02*
X011501Y019170D01*
X011501Y019071D02*
X005528Y019071D01*
X005626Y018973D02*
X011501Y018973D01*
X011501Y018874D02*
X005725Y018874D01*
X005823Y018776D02*
X011501Y018776D01*
X011501Y018677D02*
X005922Y018677D01*
X006021Y018579D02*
X011501Y018579D01*
X011501Y018480D02*
X006119Y018480D01*
X006218Y018382D02*
X008753Y018382D01*
X008706Y018283D02*
X006316Y018283D01*
X006116Y017889D02*
X005616Y017889D01*
X005616Y017988D02*
X006018Y017988D01*
X005919Y018086D02*
X005201Y018086D01*
X005201Y018095D02*
X005616Y018095D01*
X005616Y018321D01*
X005606Y018359D01*
X005586Y018393D01*
X005558Y018421D01*
X005524Y018441D01*
X005486Y018451D01*
X005201Y018451D01*
X005201Y018095D01*
X005201Y018185D02*
X005101Y018185D01*
X005101Y018095D02*
X005101Y018451D01*
X004816Y018451D01*
X004778Y018441D01*
X004744Y018421D01*
X004716Y018393D01*
X004696Y018359D01*
X004686Y018321D01*
X004686Y018095D01*
X005101Y018095D01*
X005101Y018086D02*
X002638Y018086D01*
X002540Y018185D02*
X004686Y018185D01*
X004686Y018283D02*
X002441Y018283D01*
X002343Y018382D02*
X004710Y018382D01*
X004686Y017988D02*
X004100Y017988D01*
X004197Y017889D02*
X004686Y017889D01*
X004686Y017790D02*
X004238Y017790D01*
X004249Y017692D02*
X004721Y017692D01*
X004732Y017593D02*
X004299Y017593D01*
X004398Y017495D02*
X004706Y017495D01*
X004706Y017002D02*
X003361Y017002D01*
X003361Y016904D02*
X004750Y016904D01*
X004941Y016805D02*
X003361Y016805D01*
X003361Y016706D02*
X004941Y016706D01*
X004903Y016608D02*
X003361Y016608D01*
X003361Y016509D02*
X004903Y016509D01*
X004903Y016411D02*
X003361Y016411D01*
X003361Y016312D02*
X004903Y016312D01*
X004903Y016214D02*
X003361Y016214D01*
X003361Y016115D02*
X004903Y016115D01*
X004903Y016017D02*
X003361Y016017D01*
X003361Y015918D02*
X004903Y015918D01*
X004903Y015820D02*
X003596Y015820D01*
X003596Y015721D02*
X004903Y015721D01*
X004880Y015622D02*
X003596Y015622D01*
X003596Y015524D02*
X004825Y015524D01*
X004803Y015425D02*
X003596Y015425D01*
X003596Y015327D02*
X004805Y015327D01*
X004846Y015228D02*
X003596Y015228D01*
X003553Y015130D02*
X004930Y015130D01*
X004926Y014637D02*
X004559Y014637D01*
X004460Y014539D02*
X004903Y014539D01*
X004903Y014440D02*
X004362Y014440D01*
X004263Y014341D02*
X004903Y014341D01*
X004903Y014243D02*
X004165Y014243D01*
X004066Y014144D02*
X004847Y014144D01*
X004749Y014046D02*
X003968Y014046D01*
X003869Y013947D02*
X004650Y013947D01*
X004552Y013849D02*
X003861Y013849D01*
X003861Y013750D02*
X004453Y013750D01*
X004441Y013652D02*
X003861Y013652D01*
X003883Y013553D02*
X004420Y013553D01*
X004304Y013455D02*
X003998Y013455D01*
X004064Y013356D02*
X004238Y013356D01*
X004197Y013257D02*
X004105Y013257D01*
X004111Y013159D02*
X004191Y013159D01*
X004232Y012962D02*
X004071Y012962D01*
X004014Y012863D02*
X004289Y012863D01*
X004387Y012765D02*
X003915Y012765D01*
X003420Y013553D02*
X002850Y013553D01*
X002949Y013652D02*
X003441Y013652D01*
X003441Y013750D02*
X003047Y013750D01*
X003146Y013849D02*
X003441Y013849D01*
X003441Y013947D02*
X003244Y013947D01*
X003343Y014046D02*
X003441Y014046D01*
X003472Y014144D02*
X003361Y014144D01*
X003361Y014243D02*
X003571Y014243D01*
X003669Y014341D02*
X003361Y014341D01*
X003569Y014440D02*
X003768Y014440D01*
X003867Y014539D02*
X003596Y014539D01*
X003596Y014637D02*
X003965Y014637D01*
X004064Y014736D02*
X003596Y014736D01*
X003596Y014834D02*
X004162Y014834D01*
X004261Y014933D02*
X003596Y014933D01*
X003596Y015031D02*
X004359Y015031D01*
X004883Y013553D02*
X005941Y013553D01*
X005941Y013455D02*
X004998Y013455D01*
X005064Y013356D02*
X005864Y013356D01*
X005818Y013257D02*
X005105Y013257D01*
X005111Y013243D02*
X005111Y013060D01*
X005071Y012962D02*
X005853Y012962D01*
X005947Y012863D02*
X005014Y012863D01*
X004915Y012765D02*
X006441Y012765D01*
X006441Y012863D02*
X006356Y012863D01*
X006449Y012962D02*
X006540Y012962D01*
X006490Y013060D02*
X006638Y013060D01*
X006737Y013159D02*
X006499Y013159D01*
X006484Y013257D02*
X007206Y013257D01*
X007227Y013356D02*
X006439Y013356D01*
X006361Y013455D02*
X007441Y013455D01*
X007441Y013553D02*
X006361Y013553D01*
X006403Y013641D02*
X006479Y013564D01*
X006823Y013564D01*
X006899Y013641D01*
X006899Y014614D01*
X006823Y014691D01*
X006479Y014691D01*
X006403Y014614D01*
X006403Y013641D01*
X006399Y013652D02*
X006403Y013652D01*
X006399Y013750D02*
X006403Y013750D01*
X006399Y013849D02*
X006403Y013849D01*
X006399Y013947D02*
X006403Y013947D01*
X006399Y014046D02*
X006403Y014046D01*
X006399Y014144D02*
X006403Y014144D01*
X006399Y014243D02*
X006403Y014243D01*
X006399Y014341D02*
X006403Y014341D01*
X006399Y014440D02*
X006403Y014440D01*
X006399Y014539D02*
X006403Y014539D01*
X006426Y014637D02*
X006377Y014637D01*
X005926Y014637D02*
X005877Y014637D01*
X005861Y014736D02*
X008441Y014736D01*
X008389Y014653D02*
X008361Y014681D01*
X008327Y014700D01*
X008289Y014711D01*
X008160Y014711D01*
X008160Y014137D01*
X008419Y014137D01*
X008419Y014580D01*
X008409Y014619D01*
X008389Y014653D01*
X008398Y014637D02*
X008441Y014637D01*
X008441Y014539D02*
X008419Y014539D01*
X008419Y014440D02*
X008441Y014440D01*
X008441Y014341D02*
X008419Y014341D01*
X008419Y014243D02*
X008441Y014243D01*
X008441Y014144D02*
X008419Y014144D01*
X008419Y014046D02*
X008441Y014046D01*
X008441Y013947D02*
X008419Y013947D01*
X008419Y013849D02*
X008441Y013849D01*
X008441Y013750D02*
X008419Y013750D01*
X008413Y013652D02*
X008441Y013652D01*
X008441Y013553D02*
X008321Y013553D01*
X008441Y013455D02*
X007861Y013455D01*
X007861Y013553D02*
X007981Y013553D01*
X008075Y013356D02*
X008441Y013356D01*
X008441Y013257D02*
X008096Y013257D01*
X008096Y013159D02*
X008441Y013159D01*
X008441Y013060D02*
X008096Y013060D01*
X008096Y012962D02*
X008441Y012962D01*
X008441Y012863D02*
X008096Y012863D01*
X008096Y012765D02*
X008441Y012765D01*
X008441Y012666D02*
X008047Y012666D01*
X008096Y012568D02*
X008441Y012568D01*
X008441Y012469D02*
X008096Y012469D01*
X008096Y012371D02*
X008441Y012371D01*
X008441Y012272D02*
X008096Y012272D01*
X008096Y012173D02*
X008441Y012173D01*
X008441Y012075D02*
X008096Y012075D01*
X008096Y011976D02*
X008441Y011976D01*
X008441Y011878D02*
X007792Y011878D01*
X007850Y011779D02*
X008441Y011779D01*
X008441Y011681D02*
X007874Y011681D01*
X007874Y011582D02*
X008441Y011582D01*
X008441Y011484D02*
X007834Y011484D01*
X007752Y011385D02*
X008441Y011385D01*
X008441Y011287D02*
X007736Y011287D01*
X007736Y011188D02*
X008441Y011188D01*
X008441Y011089D02*
X007736Y011089D01*
X007736Y010991D02*
X008441Y010991D01*
X008441Y010892D02*
X007736Y010892D01*
X007736Y010794D02*
X008441Y010794D01*
X008441Y010695D02*
X007736Y010695D01*
X007736Y010597D02*
X008441Y010597D01*
X008441Y010498D02*
X007736Y010498D01*
X007736Y010400D02*
X008441Y010400D01*
X008441Y010301D02*
X007736Y010301D01*
X007736Y010203D02*
X008441Y010203D01*
X008441Y010104D02*
X007736Y010104D01*
X007736Y010006D02*
X008441Y010006D01*
X008441Y009907D02*
X007736Y009907D01*
X007736Y009808D02*
X008441Y009808D01*
X008441Y009710D02*
X007736Y009710D01*
X007736Y009611D02*
X008441Y009611D01*
X008441Y009513D02*
X007736Y009513D01*
X007736Y009414D02*
X008441Y009414D01*
X008441Y009316D02*
X007736Y009316D01*
X007736Y009217D02*
X008441Y009217D01*
X008441Y009119D02*
X007736Y009119D01*
X007736Y009020D02*
X008441Y009020D01*
X008441Y008922D02*
X007736Y008922D01*
X007736Y008823D02*
X008441Y008823D01*
X008441Y008724D02*
X007736Y008724D01*
X007736Y008626D02*
X008441Y008626D01*
X008441Y008527D02*
X007736Y008527D01*
X007736Y008429D02*
X008441Y008429D01*
X008441Y008330D02*
X007736Y008330D01*
X007736Y008232D02*
X008441Y008232D01*
X008441Y008133D02*
X007736Y008133D01*
X007736Y008035D02*
X008441Y008035D01*
X008389Y007936D02*
X007736Y007936D01*
X007736Y007838D02*
X008291Y007838D01*
X008057Y007739D02*
X007736Y007739D01*
X007736Y007640D02*
X007898Y007640D01*
X007833Y007542D02*
X007736Y007542D01*
X007736Y007443D02*
X007803Y007443D01*
X007803Y007345D02*
X007736Y007345D01*
X007736Y007246D02*
X007839Y007246D01*
X007912Y007148D02*
X007736Y007148D01*
X007736Y007049D02*
X008415Y007049D01*
X008415Y007148D02*
X008390Y007148D01*
X007904Y006951D02*
X007736Y006951D01*
X007805Y006852D02*
X007649Y006852D01*
X007624Y006754D02*
X007707Y006754D01*
X007608Y006655D02*
X007603Y006655D01*
X008049Y005252D02*
X008433Y005252D01*
X008491Y005194D01*
X008554Y005194D01*
X008552Y005187D01*
X008552Y005048D01*
X008978Y005048D01*
X008978Y005010D01*
X008552Y005010D01*
X008552Y004872D01*
X008554Y004864D01*
X008491Y004864D01*
X008433Y004806D01*
X008348Y004891D01*
X008220Y004944D01*
X008082Y004944D01*
X007954Y004891D01*
X007856Y004793D01*
X007803Y004665D01*
X007803Y004527D01*
X007856Y004399D01*
X007954Y004301D01*
X008082Y004248D01*
X008220Y004248D01*
X008348Y004301D01*
X008433Y004386D01*
X008440Y004379D01*
X008415Y004355D01*
X008415Y003971D01*
X008491Y003895D01*
X009189Y003895D01*
X009265Y003971D01*
X009265Y004355D01*
X009240Y004379D01*
X009247Y004386D01*
X009509Y004386D01*
X009683Y004386D01*
X009863Y004566D01*
X009986Y004689D01*
X009986Y005119D01*
X010071Y005204D01*
X010124Y005332D01*
X010124Y005470D01*
X010071Y005598D01*
X009984Y005685D01*
X010320Y005685D01*
X010441Y005564D01*
X010441Y004208D01*
X010414Y004224D01*
X010376Y004234D01*
X010032Y004234D01*
X010032Y003859D01*
X009932Y003859D01*
X009932Y004234D01*
X009588Y004234D01*
X009550Y004224D01*
X009516Y004204D01*
X009488Y004176D01*
X009468Y004142D01*
X009458Y004104D01*
X009458Y003859D01*
X009932Y003859D01*
X009932Y003759D01*
X009458Y003759D01*
X009458Y003513D01*
X009468Y003475D01*
X009488Y003441D01*
X009516Y003413D01*
X009550Y003393D01*
X009588Y003383D01*
X009932Y003383D01*
X009932Y003759D01*
X010032Y003759D01*
X010032Y003383D01*
X010376Y003383D01*
X010414Y003393D01*
X010441Y003409D01*
X010441Y003181D01*
X010282Y003181D01*
X010206Y003105D01*
X010206Y002861D01*
X010078Y002861D01*
X009838Y003101D01*
X009465Y003101D01*
X009201Y002838D01*
X009201Y002465D01*
X009465Y002201D01*
X009804Y002201D01*
X009941Y002064D01*
X009941Y001997D01*
X009838Y002101D01*
X009465Y002101D01*
X009201Y001838D01*
X009201Y001465D01*
X009430Y001236D01*
X008872Y001236D01*
X009101Y001465D01*
X009101Y001838D01*
X008838Y002101D01*
X008465Y002101D01*
X008201Y001838D01*
X008201Y001465D01*
X008430Y001236D01*
X007901Y001236D01*
X008121Y001456D01*
X008121Y001601D01*
X007701Y001601D01*
X007701Y001701D01*
X007601Y001701D01*
X007601Y001601D01*
X007181Y001601D01*
X007181Y001456D01*
X007402Y001236D01*
X006872Y001236D01*
X007101Y001465D01*
X007101Y001804D01*
X007238Y001941D01*
X007361Y002064D01*
X007361Y002277D01*
X007456Y002181D01*
X007601Y002181D01*
X007601Y002601D01*
X007701Y002601D01*
X007701Y002181D01*
X007846Y002181D01*
X008121Y002456D01*
X008121Y002601D01*
X007701Y002601D01*
X007701Y002701D01*
X007601Y002701D01*
X007601Y003121D01*
X007456Y003121D01*
X007361Y003026D01*
X007361Y003369D01*
X007446Y003454D01*
X007499Y003582D01*
X007499Y003720D01*
X007446Y003848D01*
X007348Y003946D01*
X007220Y003999D01*
X007082Y003999D01*
X006954Y003946D01*
X006856Y003848D01*
X006803Y003720D01*
X006803Y003582D01*
X006856Y003454D01*
X006941Y003369D01*
X006941Y002997D01*
X006838Y003101D01*
X006465Y003101D01*
X006361Y002997D01*
X006361Y003564D01*
X007600Y004803D01*
X007720Y004803D01*
X007848Y004856D01*
X007946Y004954D01*
X007999Y005082D01*
X007999Y005202D01*
X008049Y005252D01*
X007999Y005177D02*
X008552Y005177D01*
X008552Y005078D02*
X007998Y005078D01*
X007957Y004980D02*
X008552Y004980D01*
X008552Y004881D02*
X008358Y004881D01*
X008322Y004290D02*
X008415Y004290D01*
X008415Y004191D02*
X006988Y004191D01*
X006890Y004093D02*
X008415Y004093D01*
X008415Y003994D02*
X007232Y003994D01*
X007399Y003896D02*
X008490Y003896D01*
X008465Y003101D02*
X008201Y002838D01*
X008201Y002465D01*
X008465Y002201D01*
X008838Y002201D01*
X009101Y002465D01*
X009101Y002838D01*
X008838Y003101D01*
X008465Y003101D01*
X008373Y003009D02*
X007958Y003009D01*
X007859Y003107D02*
X010209Y003107D01*
X010206Y003009D02*
X009930Y003009D01*
X010028Y002910D02*
X010206Y002910D01*
X010441Y003206D02*
X007361Y003206D01*
X007361Y003107D02*
X007443Y003107D01*
X007601Y003107D02*
X007701Y003107D01*
X007701Y003121D02*
X007701Y002701D01*
X008121Y002701D01*
X008121Y002846D01*
X007846Y003121D01*
X007701Y003121D01*
X007701Y003009D02*
X007601Y003009D01*
X007601Y002910D02*
X007701Y002910D01*
X007701Y002812D02*
X007601Y002812D01*
X007601Y002713D02*
X007701Y002713D01*
X007701Y002615D02*
X008201Y002615D01*
X008201Y002713D02*
X008121Y002713D01*
X008121Y002812D02*
X008201Y002812D01*
X008274Y002910D02*
X008057Y002910D01*
X008121Y002516D02*
X008201Y002516D01*
X008248Y002418D02*
X008082Y002418D01*
X007984Y002319D02*
X008347Y002319D01*
X008445Y002221D02*
X007885Y002221D01*
X007846Y002121D02*
X007701Y002121D01*
X007701Y001701D01*
X008121Y001701D01*
X008121Y001846D01*
X007846Y002121D01*
X007943Y002024D02*
X008387Y002024D01*
X008289Y001925D02*
X008042Y001925D01*
X008121Y001826D02*
X008201Y001826D01*
X008201Y001728D02*
X008121Y001728D01*
X008201Y001629D02*
X007701Y001629D01*
X007701Y001728D02*
X007601Y001728D01*
X007601Y001701D02*
X007601Y002121D01*
X007456Y002121D01*
X007181Y001846D01*
X007181Y001701D01*
X007601Y001701D01*
X007601Y001629D02*
X007101Y001629D01*
X007101Y001531D02*
X007181Y001531D01*
X007205Y001432D02*
X007069Y001432D01*
X006970Y001334D02*
X007304Y001334D01*
X007181Y001728D02*
X007101Y001728D01*
X007123Y001826D02*
X007181Y001826D01*
X007222Y001925D02*
X007260Y001925D01*
X007320Y002024D02*
X007359Y002024D01*
X007361Y002122D02*
X009883Y002122D01*
X009915Y002024D02*
X009941Y002024D01*
X010361Y001531D02*
X011339Y001531D01*
X011395Y001629D02*
X011054Y001629D01*
X011115Y001728D02*
X011424Y001728D01*
X011398Y001635D02*
X011398Y001635D01*
X011450Y001826D02*
X011116Y001826D01*
X011116Y001925D02*
X011476Y001925D01*
X011493Y002024D02*
X010701Y002024D01*
X010701Y001925D02*
X010601Y001925D01*
X010601Y001826D02*
X010701Y001826D01*
X010701Y001728D02*
X010601Y001728D01*
X010601Y001629D02*
X010701Y001629D01*
X010361Y001432D02*
X011282Y001432D01*
X011225Y001334D02*
X010361Y001334D01*
X010361Y001235D02*
X011128Y001235D01*
X011029Y001137D02*
X010309Y001137D01*
X010210Y001038D02*
X010900Y001038D01*
X010730Y000940D02*
X010111Y000940D01*
X010013Y000841D02*
X010433Y000841D01*
X011116Y002122D02*
X011499Y002122D01*
X011501Y002221D02*
X011116Y002221D01*
X011106Y002319D02*
X011501Y002319D01*
X011501Y002418D02*
X011029Y002418D01*
X011096Y002516D02*
X011501Y002516D01*
X011501Y002615D02*
X011096Y002615D01*
X011096Y002713D02*
X011501Y002713D01*
X011501Y002812D02*
X011096Y002812D01*
X011096Y002910D02*
X011501Y002910D01*
X011501Y003009D02*
X011096Y003009D01*
X011093Y003107D02*
X011501Y003107D01*
X011501Y003206D02*
X010861Y003206D01*
X010861Y003305D02*
X011501Y003305D01*
X011501Y003403D02*
X010861Y003403D01*
X010861Y003502D02*
X011501Y003502D01*
X011501Y003600D02*
X010861Y003600D01*
X010861Y003699D02*
X011501Y003699D01*
X011501Y003797D02*
X010861Y003797D01*
X010861Y003896D02*
X011501Y003896D01*
X011501Y003994D02*
X010861Y003994D01*
X010861Y004093D02*
X011501Y004093D01*
X011501Y004191D02*
X010861Y004191D01*
X010861Y004290D02*
X011501Y004290D01*
X011501Y004389D02*
X010861Y004389D01*
X010861Y004487D02*
X011501Y004487D01*
X011501Y004586D02*
X010861Y004586D01*
X010861Y004684D02*
X011501Y004684D01*
X011501Y004783D02*
X010861Y004783D01*
X010861Y004881D02*
X011501Y004881D01*
X011501Y004980D02*
X010861Y004980D01*
X010861Y005078D02*
X011501Y005078D01*
X011501Y005177D02*
X010861Y005177D01*
X010861Y005275D02*
X011501Y005275D01*
X011501Y005374D02*
X010861Y005374D01*
X010861Y005473D02*
X011501Y005473D01*
X011501Y005571D02*
X010861Y005571D01*
X010861Y005670D02*
X011501Y005670D01*
X011501Y005768D02*
X010831Y005768D01*
X010733Y005867D02*
X011501Y005867D01*
X011501Y005965D02*
X010634Y005965D01*
X010536Y006064D02*
X011501Y006064D01*
X011501Y006162D02*
X009347Y006162D01*
X009433Y006261D02*
X011501Y006261D01*
X011501Y006359D02*
X009531Y006359D01*
X009611Y006458D02*
X011501Y006458D01*
X011501Y006556D02*
X009611Y006556D01*
X009611Y006655D02*
X011501Y006655D01*
X011501Y006754D02*
X009611Y006754D01*
X009611Y006852D02*
X011501Y006852D01*
X011501Y006951D02*
X009611Y006951D01*
X009611Y007049D02*
X011501Y007049D01*
X011501Y007148D02*
X009611Y007148D01*
X009611Y007246D02*
X011501Y007246D01*
X011501Y007345D02*
X009611Y007345D01*
X009611Y007443D02*
X011501Y007443D01*
X011501Y007542D02*
X009611Y007542D01*
X010008Y007640D02*
X011501Y007640D01*
X011501Y007739D02*
X010086Y007739D01*
X010124Y007838D02*
X011501Y007838D01*
X011501Y007936D02*
X010124Y007936D01*
X010098Y008035D02*
X011501Y008035D01*
X011501Y008133D02*
X010036Y008133D01*
X009888Y008232D02*
X011501Y008232D01*
X011501Y008330D02*
X009644Y008330D01*
X009545Y008429D02*
X011501Y008429D01*
X011501Y008527D02*
X009447Y008527D01*
X009361Y008626D02*
X009854Y008626D01*
X009842Y008638D02*
X009870Y008610D01*
X009904Y008590D01*
X009942Y008580D01*
X010286Y008580D01*
X010286Y008955D01*
X010386Y008955D01*
X010386Y008580D01*
X010730Y008580D01*
X010768Y008590D01*
X010802Y008610D01*
X010830Y008638D01*
X010850Y008672D01*
X010860Y008710D01*
X010860Y008956D01*
X010386Y008956D01*
X010386Y009055D01*
X010860Y009055D01*
X010860Y009301D01*
X010850Y009339D01*
X010830Y009373D01*
X010802Y009401D01*
X010768Y009421D01*
X010730Y009431D01*
X010386Y009431D01*
X010386Y009056D01*
X010286Y009056D01*
X010286Y009431D01*
X009942Y009431D01*
X009904Y009421D01*
X009870Y009401D01*
X009842Y009373D01*
X009822Y009339D01*
X009812Y009301D01*
X009812Y009055D01*
X010286Y009055D01*
X010286Y008956D01*
X009812Y008956D01*
X009812Y008710D01*
X009822Y008672D01*
X009842Y008638D01*
X009812Y008724D02*
X009361Y008724D01*
X009361Y008823D02*
X009812Y008823D01*
X009812Y008922D02*
X009361Y008922D01*
X009361Y009020D02*
X010286Y009020D01*
X010286Y008922D02*
X010386Y008922D01*
X010386Y009020D02*
X011501Y009020D01*
X011501Y008922D02*
X010860Y008922D01*
X010860Y008823D02*
X011501Y008823D01*
X011501Y008724D02*
X010860Y008724D01*
X010818Y008626D02*
X011501Y008626D01*
X011501Y009119D02*
X010860Y009119D01*
X010860Y009217D02*
X011501Y009217D01*
X011501Y009316D02*
X010856Y009316D01*
X010780Y009414D02*
X011501Y009414D01*
X011501Y009513D02*
X009361Y009513D01*
X009361Y009611D02*
X011501Y009611D01*
X011501Y009710D02*
X009361Y009710D01*
X009361Y009808D02*
X011501Y009808D01*
X011501Y009907D02*
X009361Y009907D01*
X009361Y010006D02*
X011501Y010006D01*
X011501Y010104D02*
X009361Y010104D01*
X009361Y010203D02*
X011501Y010203D01*
X011501Y010301D02*
X010724Y010301D01*
X010702Y010279D02*
X010811Y010388D01*
X010870Y010531D01*
X010870Y010685D01*
X010811Y010828D01*
X010702Y010937D01*
X010559Y010996D01*
X010405Y010996D01*
X010262Y010937D01*
X010153Y010828D01*
X010094Y010685D01*
X010094Y010531D01*
X010153Y010388D01*
X010262Y010279D01*
X010405Y010220D01*
X010559Y010220D01*
X010702Y010279D01*
X010815Y010400D02*
X011501Y010400D01*
X011501Y010498D02*
X010856Y010498D01*
X010870Y010597D02*
X011501Y010597D01*
X011501Y010695D02*
X010865Y010695D01*
X010825Y010794D02*
X011501Y010794D01*
X011501Y010892D02*
X010746Y010892D01*
X010702Y011066D02*
X010811Y011176D01*
X010870Y011318D01*
X010870Y011472D01*
X010811Y011615D01*
X010702Y011724D01*
X010559Y011783D01*
X010405Y011783D01*
X010262Y011724D01*
X010153Y011615D01*
X010094Y011472D01*
X010094Y011318D01*
X010153Y011176D01*
X010262Y011066D01*
X010405Y011007D01*
X010559Y011007D01*
X010702Y011066D01*
X010725Y011089D02*
X011501Y011089D01*
X011501Y010991D02*
X010570Y010991D01*
X010393Y010991D02*
X009361Y010991D01*
X009361Y011089D02*
X010239Y011089D01*
X010148Y011188D02*
X009361Y011188D01*
X009361Y011287D02*
X010107Y011287D01*
X010094Y011385D02*
X009361Y011385D01*
X009361Y011484D02*
X010099Y011484D01*
X010140Y011582D02*
X009361Y011582D01*
X009361Y011681D02*
X010219Y011681D01*
X010262Y011854D02*
X010405Y011795D01*
X010559Y011795D01*
X010702Y011854D01*
X010811Y011963D01*
X010870Y012106D01*
X010870Y012260D01*
X010811Y012402D01*
X010702Y012511D01*
X010559Y012570D01*
X010405Y012570D01*
X010262Y012511D01*
X010153Y012402D01*
X010094Y012260D01*
X010094Y012106D01*
X010153Y011963D01*
X010262Y011854D01*
X010238Y011878D02*
X009361Y011878D01*
X009361Y011976D02*
X010148Y011976D01*
X010107Y012075D02*
X009361Y012075D01*
X009361Y012173D02*
X010094Y012173D01*
X010099Y012272D02*
X009361Y012272D01*
X009361Y012371D02*
X010140Y012371D01*
X010220Y012469D02*
X009361Y012469D01*
X009361Y012568D02*
X010398Y012568D01*
X010405Y012582D02*
X010559Y012582D01*
X010702Y012641D01*
X010811Y012750D01*
X010870Y012893D01*
X010870Y013047D01*
X010811Y013190D01*
X010702Y013299D01*
X010559Y013358D01*
X010405Y013358D01*
X010262Y013299D01*
X010153Y013190D01*
X010094Y013047D01*
X010094Y012893D01*
X010153Y012750D01*
X010262Y012641D01*
X010405Y012582D01*
X010566Y012568D02*
X011501Y012568D01*
X011501Y012666D02*
X010726Y012666D01*
X010817Y012765D02*
X011501Y012765D01*
X011501Y012863D02*
X010857Y012863D01*
X010870Y012962D02*
X011501Y012962D01*
X011501Y013060D02*
X010864Y013060D01*
X010823Y013159D02*
X011501Y013159D01*
X011501Y013257D02*
X010743Y013257D01*
X010727Y013455D02*
X011501Y013455D01*
X011501Y013553D02*
X010817Y013553D01*
X010858Y013652D02*
X011501Y013652D01*
X011501Y013750D02*
X010870Y013750D01*
X010864Y013849D02*
X011501Y013849D01*
X011501Y013947D02*
X010823Y013947D01*
X010742Y014046D02*
X011501Y014046D01*
X011501Y014144D02*
X010561Y014144D01*
X010403Y014144D02*
X010392Y014144D01*
X010106Y014440D02*
X010096Y014440D01*
X010094Y014539D02*
X009998Y014539D01*
X009899Y014637D02*
X010100Y014637D01*
X010141Y014736D02*
X009861Y014736D01*
X009861Y014834D02*
X010223Y014834D01*
X010262Y015004D02*
X010153Y015113D01*
X010094Y015255D01*
X010094Y015409D01*
X010153Y015552D01*
X010262Y015661D01*
X010405Y015720D01*
X010559Y015720D01*
X010702Y015661D01*
X010811Y015552D01*
X010870Y015409D01*
X010870Y015255D01*
X010811Y015113D01*
X010702Y015004D01*
X010559Y014944D01*
X010405Y014944D01*
X010262Y015004D01*
X010234Y015031D02*
X009861Y015031D01*
X009861Y014933D02*
X011501Y014933D01*
X011501Y015031D02*
X010729Y015031D01*
X010818Y015130D02*
X011501Y015130D01*
X011501Y015228D02*
X010859Y015228D01*
X010870Y015327D02*
X011501Y015327D01*
X011501Y015425D02*
X010863Y015425D01*
X010822Y015524D02*
X011501Y015524D01*
X011501Y015622D02*
X010740Y015622D01*
X010702Y015791D02*
X010811Y015900D01*
X010870Y016043D01*
X010870Y016197D01*
X010811Y016339D01*
X010702Y016448D01*
X010559Y016507D01*
X010405Y016507D01*
X010262Y016448D01*
X010153Y016339D01*
X010094Y016197D01*
X010094Y016043D01*
X010153Y015900D01*
X010262Y015791D01*
X010405Y015732D01*
X010559Y015732D01*
X010702Y015791D01*
X010730Y015820D02*
X011501Y015820D01*
X011501Y015918D02*
X010818Y015918D01*
X010859Y016017D02*
X011501Y016017D01*
X011501Y016115D02*
X010870Y016115D01*
X010863Y016214D02*
X011501Y016214D01*
X011501Y016312D02*
X010822Y016312D01*
X010739Y016411D02*
X011501Y016411D01*
X011501Y016509D02*
X009590Y016509D01*
X009688Y016411D02*
X010225Y016411D01*
X010142Y016312D02*
X009787Y016312D01*
X009861Y016214D02*
X010101Y016214D01*
X010094Y016115D02*
X009861Y016115D01*
X009861Y016017D02*
X010105Y016017D01*
X010146Y015918D02*
X009861Y015918D01*
X009861Y015820D02*
X010234Y015820D01*
X010224Y015622D02*
X009861Y015622D01*
X009861Y015524D02*
X010142Y015524D01*
X010101Y015425D02*
X009861Y015425D01*
X009861Y015327D02*
X010094Y015327D01*
X010105Y015228D02*
X009861Y015228D01*
X009861Y015130D02*
X010146Y015130D01*
X009861Y015721D02*
X011501Y015721D01*
X011501Y016608D02*
X010731Y016608D01*
X010702Y016578D02*
X010811Y016687D01*
X010870Y016830D01*
X010870Y016984D01*
X010811Y017127D01*
X010702Y017236D01*
X010559Y017295D01*
X010405Y017295D01*
X010262Y017236D01*
X010153Y017127D01*
X010094Y016984D01*
X010094Y016830D01*
X010153Y016687D01*
X010262Y016578D01*
X010405Y016519D01*
X010559Y016519D01*
X010702Y016578D01*
X010819Y016706D02*
X011501Y016706D01*
X011501Y016805D02*
X010859Y016805D01*
X010870Y016904D02*
X011501Y016904D01*
X011501Y017002D02*
X010862Y017002D01*
X010821Y017101D02*
X011501Y017101D01*
X011501Y017199D02*
X010738Y017199D01*
X010702Y017366D02*
X010811Y017475D01*
X010870Y017617D01*
X010870Y017772D01*
X010811Y017914D01*
X010702Y018023D01*
X010559Y018082D01*
X010405Y018082D01*
X010262Y018023D01*
X010153Y017914D01*
X010094Y017772D01*
X010094Y017617D01*
X010153Y017475D01*
X010262Y017366D01*
X010405Y017307D01*
X010559Y017307D01*
X010702Y017366D01*
X010732Y017396D02*
X011501Y017396D01*
X011501Y017298D02*
X009596Y017298D01*
X009596Y017396D02*
X010232Y017396D01*
X010145Y017495D02*
X009596Y017495D01*
X009590Y017593D02*
X010104Y017593D01*
X010094Y017692D02*
X009573Y017692D01*
X009596Y017790D02*
X010102Y017790D01*
X010143Y017889D02*
X009596Y017889D01*
X009596Y017988D02*
X010226Y017988D01*
X010226Y017199D02*
X009596Y017199D01*
X009596Y017101D02*
X010142Y017101D01*
X010101Y017002D02*
X009596Y017002D01*
X009532Y016904D02*
X010094Y016904D01*
X010104Y016805D02*
X009361Y016805D01*
X009393Y016706D02*
X010145Y016706D01*
X010233Y016608D02*
X009491Y016608D01*
X009292Y016214D02*
X008511Y016214D01*
X008609Y016115D02*
X009390Y016115D01*
X009441Y016017D02*
X008708Y016017D01*
X008806Y015918D02*
X009441Y015918D01*
X009441Y015820D02*
X008905Y015820D01*
X009003Y015721D02*
X009441Y015721D01*
X009441Y015622D02*
X009102Y015622D01*
X009200Y015524D02*
X009441Y015524D01*
X009441Y015425D02*
X009299Y015425D01*
X009361Y015327D02*
X009441Y015327D01*
X009441Y015228D02*
X009361Y015228D01*
X009361Y015130D02*
X009441Y015130D01*
X009441Y015031D02*
X009361Y015031D01*
X009361Y014933D02*
X009441Y014933D01*
X009441Y014834D02*
X009361Y014834D01*
X009361Y014736D02*
X009441Y014736D01*
X009441Y014637D02*
X009361Y014637D01*
X009361Y014539D02*
X009441Y014539D01*
X009502Y014440D02*
X009361Y014440D01*
X009361Y014341D02*
X009601Y014341D01*
X009699Y014243D02*
X009361Y014243D01*
X009361Y014144D02*
X009798Y014144D01*
X009897Y014046D02*
X009361Y014046D01*
X009361Y013947D02*
X009995Y013947D01*
X010094Y013849D02*
X009361Y013849D01*
X009361Y013750D02*
X010094Y013750D01*
X010106Y013652D02*
X009361Y013652D01*
X009361Y013553D02*
X010147Y013553D01*
X010236Y013455D02*
X009361Y013455D01*
X009361Y013356D02*
X010400Y013356D01*
X010564Y013356D02*
X011501Y013356D01*
X011501Y014243D02*
X010728Y014243D01*
X010817Y014341D02*
X011501Y014341D01*
X011501Y014440D02*
X010858Y014440D01*
X010870Y014539D02*
X011501Y014539D01*
X011501Y014637D02*
X010863Y014637D01*
X010823Y014736D02*
X011501Y014736D01*
X011501Y014834D02*
X010741Y014834D01*
X010221Y013257D02*
X009361Y013257D01*
X009361Y013159D02*
X010140Y013159D01*
X010100Y013060D02*
X009361Y013060D01*
X009361Y012962D02*
X010094Y012962D01*
X010106Y012863D02*
X009361Y012863D01*
X009361Y012765D02*
X010147Y012765D01*
X010237Y012666D02*
X009361Y012666D01*
X009361Y011779D02*
X010396Y011779D01*
X010568Y011779D02*
X011501Y011779D01*
X011501Y011681D02*
X010745Y011681D01*
X010824Y011582D02*
X011501Y011582D01*
X011501Y011484D02*
X010865Y011484D01*
X010870Y011385D02*
X011501Y011385D01*
X011501Y011287D02*
X010857Y011287D01*
X010816Y011188D02*
X011501Y011188D01*
X011501Y011878D02*
X010725Y011878D01*
X010816Y011976D02*
X011501Y011976D01*
X011501Y012075D02*
X010857Y012075D01*
X010870Y012173D02*
X011501Y012173D01*
X011501Y012272D02*
X010865Y012272D01*
X010824Y012371D02*
X011501Y012371D01*
X011501Y012469D02*
X010744Y012469D01*
X010218Y010892D02*
X009361Y010892D01*
X009361Y010794D02*
X010139Y010794D01*
X010098Y010695D02*
X009361Y010695D01*
X009361Y010597D02*
X010094Y010597D01*
X010108Y010498D02*
X009361Y010498D01*
X009361Y010400D02*
X010148Y010400D01*
X010240Y010301D02*
X009361Y010301D01*
X009361Y009414D02*
X009893Y009414D01*
X009816Y009316D02*
X009361Y009316D01*
X009361Y009217D02*
X009812Y009217D01*
X009812Y009119D02*
X009361Y009119D01*
X010286Y009119D02*
X010386Y009119D01*
X010386Y009217D02*
X010286Y009217D01*
X010286Y009316D02*
X010386Y009316D01*
X010386Y009414D02*
X010286Y009414D01*
X010286Y008823D02*
X010386Y008823D01*
X010386Y008724D02*
X010286Y008724D01*
X010286Y008626D02*
X010386Y008626D01*
X010336Y005670D02*
X010000Y005670D01*
X010083Y005571D02*
X010434Y005571D01*
X010441Y005473D02*
X010123Y005473D01*
X010124Y005374D02*
X010441Y005374D01*
X010441Y005275D02*
X010101Y005275D01*
X010044Y005177D02*
X010441Y005177D01*
X010441Y005078D02*
X009986Y005078D01*
X009986Y004980D02*
X010441Y004980D01*
X010441Y004881D02*
X009986Y004881D01*
X009986Y004783D02*
X010441Y004783D01*
X010441Y004684D02*
X009981Y004684D01*
X009883Y004586D02*
X010441Y004586D01*
X010441Y004487D02*
X009784Y004487D01*
X009686Y004389D02*
X010441Y004389D01*
X010441Y004290D02*
X009265Y004290D01*
X009265Y004191D02*
X009503Y004191D01*
X009458Y004093D02*
X009265Y004093D01*
X009265Y003994D02*
X009458Y003994D01*
X009458Y003896D02*
X009190Y003896D01*
X009458Y003699D02*
X007499Y003699D01*
X007499Y003600D02*
X009458Y003600D01*
X009461Y003502D02*
X007466Y003502D01*
X007395Y003403D02*
X009533Y003403D01*
X009373Y003009D02*
X008930Y003009D01*
X009028Y002910D02*
X009274Y002910D01*
X009201Y002812D02*
X009101Y002812D01*
X009101Y002713D02*
X009201Y002713D01*
X009201Y002615D02*
X009101Y002615D01*
X009101Y002516D02*
X009201Y002516D01*
X009248Y002418D02*
X009054Y002418D01*
X008956Y002319D02*
X009347Y002319D01*
X009445Y002221D02*
X008857Y002221D01*
X008915Y002024D02*
X009387Y002024D01*
X009289Y001925D02*
X009014Y001925D01*
X009101Y001826D02*
X009201Y001826D01*
X009201Y001728D02*
X009101Y001728D01*
X009101Y001629D02*
X009201Y001629D01*
X009201Y001531D02*
X009101Y001531D01*
X009069Y001432D02*
X009234Y001432D01*
X009332Y001334D02*
X008970Y001334D01*
X008332Y001334D02*
X007998Y001334D01*
X008097Y001432D02*
X008234Y001432D01*
X008201Y001531D02*
X008121Y001531D01*
X007701Y001826D02*
X007601Y001826D01*
X007601Y001925D02*
X007701Y001925D01*
X007701Y002024D02*
X007601Y002024D01*
X007601Y002221D02*
X007701Y002221D01*
X007701Y002319D02*
X007601Y002319D01*
X007601Y002418D02*
X007701Y002418D01*
X007701Y002516D02*
X007601Y002516D01*
X007417Y002221D02*
X007361Y002221D01*
X006941Y003009D02*
X006930Y003009D01*
X006941Y003107D02*
X006361Y003107D01*
X006361Y003009D02*
X006373Y003009D01*
X006361Y003206D02*
X006941Y003206D01*
X006941Y003305D02*
X006361Y003305D01*
X006361Y003403D02*
X006907Y003403D01*
X006836Y003502D02*
X006361Y003502D01*
X006397Y003600D02*
X006803Y003600D01*
X006803Y003699D02*
X006496Y003699D01*
X006594Y003797D02*
X006835Y003797D01*
X006904Y003896D02*
X006693Y003896D01*
X006791Y003994D02*
X007070Y003994D01*
X007087Y004290D02*
X007980Y004290D01*
X007866Y004389D02*
X007186Y004389D01*
X007284Y004487D02*
X007819Y004487D01*
X007803Y004586D02*
X007383Y004586D01*
X007481Y004684D02*
X007811Y004684D01*
X007852Y004783D02*
X007580Y004783D01*
X007874Y004881D02*
X007944Y004881D01*
X007467Y003797D02*
X009932Y003797D01*
X009932Y003699D02*
X010032Y003699D01*
X010032Y003600D02*
X009932Y003600D01*
X009932Y003502D02*
X010032Y003502D01*
X010032Y003403D02*
X009932Y003403D01*
X009932Y003896D02*
X010032Y003896D01*
X010032Y003994D02*
X009932Y003994D01*
X009932Y004093D02*
X010032Y004093D01*
X010032Y004191D02*
X009932Y004191D01*
X009509Y004806D02*
X009566Y004863D01*
X009566Y005119D01*
X009481Y005204D01*
X009428Y005332D01*
X009428Y005470D01*
X009481Y005598D01*
X009568Y005685D01*
X009404Y005685D01*
X009347Y005627D01*
X009265Y005627D01*
X009265Y005317D01*
X009313Y005317D01*
X009351Y005307D01*
X009385Y005287D01*
X009413Y005259D01*
X009433Y005225D01*
X009443Y005187D01*
X009443Y005048D01*
X009017Y005048D01*
X009017Y005010D01*
X009443Y005010D01*
X009443Y004872D01*
X009433Y004833D01*
X009417Y004806D01*
X009509Y004806D01*
X009566Y004881D02*
X009443Y004881D01*
X009443Y004980D02*
X009566Y004980D01*
X009566Y005078D02*
X009443Y005078D01*
X009443Y005177D02*
X009508Y005177D01*
X009451Y005275D02*
X009396Y005275D01*
X009428Y005374D02*
X009265Y005374D01*
X009265Y005473D02*
X009429Y005473D01*
X009470Y005571D02*
X009265Y005571D01*
X009389Y005670D02*
X009552Y005670D01*
X010431Y003403D02*
X010441Y003403D01*
X010441Y003305D02*
X007361Y003305D01*
X004419Y004093D02*
X003838Y004093D01*
X003911Y003994D02*
X004320Y003994D01*
X004154Y003896D02*
X003911Y003896D01*
X003911Y003403D02*
X004157Y003403D01*
X004328Y003305D02*
X003911Y003305D01*
X003443Y003107D02*
X002111Y003107D01*
X002111Y003009D02*
X002373Y003009D01*
X002274Y002910D02*
X002111Y002910D01*
X002111Y002812D02*
X002201Y002812D01*
X002201Y002713D02*
X002111Y002713D01*
X002111Y002615D02*
X002201Y002615D01*
X002201Y002516D02*
X002111Y002516D01*
X002182Y002418D02*
X002248Y002418D01*
X002280Y002319D02*
X002347Y002319D01*
X002379Y002221D02*
X002445Y002221D01*
X002391Y003896D02*
X000801Y003896D01*
X000801Y003994D02*
X002391Y003994D01*
X002464Y004093D02*
X000801Y004093D01*
X000801Y004191D02*
X004419Y004191D01*
X004419Y004290D02*
X000801Y004290D01*
X000801Y004389D02*
X004419Y004389D01*
X004419Y004487D02*
X000801Y004487D01*
X000801Y004586D02*
X004419Y004586D01*
X004419Y004684D02*
X000801Y004684D01*
X000801Y004783D02*
X004419Y004783D01*
X004453Y004881D02*
X000801Y004881D01*
X000801Y006359D02*
X004452Y006359D01*
X004419Y006458D02*
X000801Y006458D01*
X000801Y006556D02*
X004419Y006556D01*
X004419Y006655D02*
X000801Y006655D01*
X000801Y006754D02*
X004419Y006754D01*
X004419Y006852D02*
X000801Y006852D01*
X000801Y006951D02*
X004419Y006951D01*
X004419Y007049D02*
X000801Y007049D01*
X000801Y007148D02*
X004419Y007148D01*
X004456Y007246D02*
X000801Y007246D01*
X000801Y010301D02*
X001550Y010301D01*
X001469Y010400D02*
X000801Y010400D01*
X000801Y010498D02*
X001427Y010498D01*
X001801Y010498D02*
X001839Y010498D01*
X001839Y010400D02*
X001801Y010400D01*
X001801Y010301D02*
X001839Y010301D01*
X002183Y010794D02*
X006441Y010794D01*
X006441Y010892D02*
X002113Y010892D01*
X001961Y010991D02*
X006441Y010991D01*
X006441Y011089D02*
X002063Y011089D01*
X002154Y011188D02*
X006441Y011188D01*
X006441Y011287D02*
X002195Y011287D01*
X002208Y011385D02*
X006441Y011385D01*
X006441Y011484D02*
X002204Y011484D01*
X002163Y011582D02*
X006441Y011582D01*
X006441Y011681D02*
X002083Y011681D01*
X002064Y011878D02*
X006441Y011878D01*
X006441Y011976D02*
X002155Y011976D01*
X002196Y012075D02*
X006441Y012075D01*
X006441Y012173D02*
X002208Y012173D01*
X002203Y012272D02*
X006441Y012272D01*
X006441Y012371D02*
X002162Y012371D01*
X002082Y012469D02*
X006441Y012469D01*
X006441Y011779D02*
X001907Y011779D01*
X001734Y011779D02*
X000801Y011779D01*
X000801Y012666D02*
X001576Y012666D01*
X001486Y012765D02*
X000801Y012765D01*
X000801Y012863D02*
X001445Y012863D01*
X001433Y012962D02*
X000801Y012962D01*
X000801Y013060D02*
X001438Y013060D01*
X001479Y013159D02*
X000801Y013159D01*
X000801Y013257D02*
X001559Y013257D01*
X001741Y014144D02*
X000801Y014144D01*
X001900Y014144D02*
X002847Y014144D01*
X002941Y014243D02*
X002067Y014243D01*
X002156Y014341D02*
X002941Y014341D01*
X002734Y014440D02*
X002197Y014440D01*
X002208Y014539D02*
X002706Y014539D01*
X002706Y014637D02*
X002202Y014637D01*
X002161Y014736D02*
X002706Y014736D01*
X002706Y014834D02*
X002080Y014834D01*
X002081Y014046D02*
X002749Y014046D01*
X003191Y013060D02*
X003261Y012891D01*
X001571Y016608D02*
X000801Y016608D01*
X000801Y016706D02*
X001484Y016706D01*
X001443Y016805D02*
X000801Y016805D01*
X000801Y016904D02*
X001433Y016904D01*
X001440Y017002D02*
X000801Y017002D01*
X000801Y017101D02*
X001481Y017101D01*
X001564Y017199D02*
X000801Y017199D01*
X002157Y017495D02*
X002636Y017495D01*
X002537Y017593D02*
X002198Y017593D01*
X002208Y017692D02*
X002438Y017692D01*
X002340Y017790D02*
X002200Y017790D01*
X002160Y017889D02*
X002241Y017889D01*
X002143Y017988D02*
X002076Y017988D01*
X002261Y018480D02*
X005525Y018480D01*
X005593Y018382D02*
X005624Y018382D01*
X005616Y018283D02*
X005722Y018283D01*
X005821Y018185D02*
X005616Y018185D01*
X005616Y017790D02*
X008706Y017790D01*
X008730Y017692D02*
X005581Y017692D01*
X005570Y017593D02*
X008713Y017593D01*
X008706Y017495D02*
X005596Y017495D01*
X005596Y017396D02*
X008706Y017396D01*
X008706Y017298D02*
X005596Y017298D01*
X005596Y017199D02*
X008706Y017199D01*
X008706Y017101D02*
X005596Y017101D01*
X005596Y017002D02*
X008706Y017002D01*
X008770Y016904D02*
X005552Y016904D01*
X005479Y016738D02*
X005403Y016662D01*
X005403Y015688D01*
X005479Y015612D01*
X005823Y015612D01*
X005899Y015688D01*
X005899Y016662D01*
X005823Y016738D01*
X005479Y016738D01*
X005448Y016706D02*
X005361Y016706D01*
X005361Y016805D02*
X008941Y016805D01*
X008941Y016706D02*
X008354Y016706D01*
X008399Y016608D02*
X008941Y016608D01*
X008996Y016509D02*
X008399Y016509D01*
X008399Y016411D02*
X009095Y016411D01*
X009193Y016312D02*
X008412Y016312D01*
X007903Y016312D02*
X007899Y016312D01*
X007899Y016214D02*
X007903Y016214D01*
X007899Y016115D02*
X007903Y016115D01*
X007899Y016017D02*
X007903Y016017D01*
X007899Y015918D02*
X007903Y015918D01*
X007899Y015820D02*
X007903Y015820D01*
X007899Y015721D02*
X007903Y015721D01*
X007899Y016411D02*
X007903Y016411D01*
X007899Y016509D02*
X007903Y016509D01*
X007899Y016608D02*
X007903Y016608D01*
X007948Y016706D02*
X007854Y016706D01*
X007448Y016706D02*
X007354Y016706D01*
X007399Y016608D02*
X007403Y016608D01*
X007399Y016509D02*
X007403Y016509D01*
X007399Y016411D02*
X007403Y016411D01*
X007399Y016312D02*
X007403Y016312D01*
X007399Y016214D02*
X007403Y016214D01*
X007399Y016115D02*
X007403Y016115D01*
X007399Y016017D02*
X007403Y016017D01*
X007399Y015918D02*
X007403Y015918D01*
X007399Y015820D02*
X007403Y015820D01*
X007399Y015721D02*
X007403Y015721D01*
X007179Y015327D02*
X005497Y015327D01*
X005499Y015425D02*
X007080Y015425D01*
X006981Y015524D02*
X005477Y015524D01*
X005468Y015622D02*
X005422Y015622D01*
X005403Y015721D02*
X005399Y015721D01*
X005399Y015820D02*
X005403Y015820D01*
X005399Y015918D02*
X005403Y015918D01*
X005399Y016017D02*
X005403Y016017D01*
X005399Y016115D02*
X005403Y016115D01*
X005399Y016214D02*
X005403Y016214D01*
X005399Y016312D02*
X005403Y016312D01*
X005399Y016411D02*
X005403Y016411D01*
X005399Y016509D02*
X005403Y016509D01*
X005399Y016608D02*
X005403Y016608D01*
X005854Y016706D02*
X005948Y016706D01*
X005979Y016738D02*
X005903Y016662D01*
X005903Y015688D01*
X005979Y015612D01*
X006323Y015612D01*
X006399Y015688D01*
X006399Y016662D01*
X006323Y016738D01*
X005979Y016738D01*
X005903Y016608D02*
X005899Y016608D01*
X005899Y016509D02*
X005903Y016509D01*
X005899Y016411D02*
X005903Y016411D01*
X005899Y016312D02*
X005903Y016312D01*
X005899Y016214D02*
X005903Y016214D01*
X005899Y016115D02*
X005903Y016115D01*
X005899Y016017D02*
X005903Y016017D01*
X005899Y015918D02*
X005903Y015918D01*
X005899Y015820D02*
X005903Y015820D01*
X005899Y015721D02*
X005903Y015721D01*
X005968Y015622D02*
X005834Y015622D01*
X005693Y015031D02*
X007474Y015031D01*
X007376Y015130D02*
X005372Y015130D01*
X005456Y015228D02*
X007277Y015228D01*
X007323Y014691D02*
X006979Y014691D01*
X006903Y014614D01*
X006903Y013641D01*
X006979Y013564D01*
X007323Y013564D01*
X007399Y013641D01*
X007399Y014614D01*
X007323Y014691D01*
X007377Y014637D02*
X007426Y014637D01*
X007403Y014539D02*
X007399Y014539D01*
X007399Y014440D02*
X007403Y014440D01*
X007399Y014341D02*
X007403Y014341D01*
X007399Y014243D02*
X007403Y014243D01*
X007399Y014144D02*
X007403Y014144D01*
X007399Y014046D02*
X007403Y014046D01*
X007399Y013947D02*
X007403Y013947D01*
X007399Y013849D02*
X007403Y013849D01*
X007399Y013750D02*
X007403Y013750D01*
X007399Y013652D02*
X007403Y013652D01*
X006903Y013652D02*
X006899Y013652D01*
X006899Y013750D02*
X006903Y013750D01*
X006899Y013849D02*
X006903Y013849D01*
X006899Y013947D02*
X006903Y013947D01*
X006899Y014046D02*
X006903Y014046D01*
X006899Y014144D02*
X006903Y014144D01*
X006899Y014243D02*
X006903Y014243D01*
X006899Y014341D02*
X006903Y014341D01*
X006899Y014440D02*
X006903Y014440D01*
X006899Y014539D02*
X006903Y014539D01*
X006926Y014637D02*
X006877Y014637D01*
X006823Y015612D02*
X006479Y015612D01*
X006403Y015688D01*
X006403Y016662D01*
X006479Y016738D01*
X006823Y016738D01*
X006899Y016662D01*
X006899Y015688D01*
X006823Y015612D01*
X006834Y015622D02*
X006941Y015622D01*
X006903Y015721D02*
X006899Y015721D01*
X006899Y015820D02*
X006903Y015820D01*
X006899Y015918D02*
X006903Y015918D01*
X006899Y016017D02*
X006903Y016017D01*
X006899Y016115D02*
X006903Y016115D01*
X006899Y016214D02*
X006903Y016214D01*
X006899Y016312D02*
X006903Y016312D01*
X006899Y016411D02*
X006903Y016411D01*
X006899Y016509D02*
X006903Y016509D01*
X006899Y016608D02*
X006903Y016608D01*
X006948Y016706D02*
X006854Y016706D01*
X006448Y016706D02*
X006354Y016706D01*
X006399Y016608D02*
X006403Y016608D01*
X006399Y016509D02*
X006403Y016509D01*
X006399Y016411D02*
X006403Y016411D01*
X006399Y016312D02*
X006403Y016312D01*
X006399Y016214D02*
X006403Y016214D01*
X006399Y016115D02*
X006403Y016115D01*
X006399Y016017D02*
X006403Y016017D01*
X006399Y015918D02*
X006403Y015918D01*
X006399Y015820D02*
X006403Y015820D01*
X006399Y015721D02*
X006403Y015721D01*
X006468Y015622D02*
X006334Y015622D01*
X005861Y014834D02*
X008421Y014834D01*
X008323Y014933D02*
X005792Y014933D01*
X005899Y014539D02*
X005903Y014539D01*
X005899Y014440D02*
X005903Y014440D01*
X005899Y014341D02*
X005903Y014341D01*
X005899Y014243D02*
X005903Y014243D01*
X005899Y014144D02*
X005903Y014144D01*
X005899Y014046D02*
X005903Y014046D01*
X005899Y013947D02*
X005903Y013947D01*
X005899Y013849D02*
X005903Y013849D01*
X005899Y013750D02*
X005903Y013750D01*
X005899Y013652D02*
X005903Y013652D01*
X005403Y013652D02*
X005399Y013652D01*
X005399Y013750D02*
X005403Y013750D01*
X005399Y013849D02*
X005403Y013849D01*
X005399Y013947D02*
X005403Y013947D01*
X005399Y014046D02*
X005403Y014046D01*
X005399Y014144D02*
X005403Y014144D01*
X005399Y014243D02*
X005403Y014243D01*
X005399Y014341D02*
X005403Y014341D01*
X005399Y014440D02*
X005403Y014440D01*
X005399Y014539D02*
X005403Y014539D01*
X005426Y014637D02*
X005377Y014637D01*
X004198Y017101D02*
X003361Y017101D01*
X003361Y017199D02*
X004099Y017199D01*
X004001Y017298D02*
X003361Y017298D01*
X003328Y017396D02*
X003711Y017396D01*
X003609Y017495D02*
X003229Y017495D01*
X003131Y017593D02*
X003566Y017593D01*
X003553Y017692D02*
X003032Y017692D01*
X002934Y017790D02*
X003564Y017790D01*
X003605Y017889D02*
X002835Y017889D01*
X002737Y017988D02*
X003702Y017988D01*
X003634Y019466D02*
X011501Y019466D01*
X011501Y019564D02*
X003535Y019564D01*
X003437Y019663D02*
X011501Y019663D01*
X011501Y019761D02*
X003338Y019761D01*
X003239Y019860D02*
X011501Y019860D01*
X011501Y019958D02*
X003141Y019958D01*
X003042Y020057D02*
X011501Y020057D01*
X011501Y020155D02*
X002944Y020155D01*
X002845Y020254D02*
X011501Y020254D01*
X011501Y020353D02*
X002747Y020353D01*
X002646Y019860D02*
X002431Y019860D01*
X002431Y020451D02*
X011501Y020451D01*
X011501Y020550D02*
X001526Y020550D01*
X001643Y020451D02*
X001671Y020451D01*
X001671Y020353D02*
X001651Y020353D01*
X001651Y020254D02*
X001671Y020254D01*
X001301Y020254D02*
X001201Y020254D01*
X001201Y020353D02*
X001301Y020353D01*
X001301Y020451D02*
X001201Y020451D01*
X001201Y020550D02*
X001301Y020550D01*
X000976Y020550D02*
X000801Y020550D01*
X000801Y020648D02*
X011501Y020648D01*
X011501Y020747D02*
X000801Y020747D01*
X000801Y020845D02*
X011501Y020845D01*
X011501Y020944D02*
X009428Y020944D01*
X009346Y020861D02*
X009621Y021136D01*
X009621Y021281D01*
X009201Y021281D01*
X009201Y020861D01*
X009346Y020861D01*
X009201Y020944D02*
X009101Y020944D01*
X009101Y020861D02*
X009101Y021281D01*
X009201Y021281D01*
X009201Y021381D01*
X009621Y021381D01*
X009621Y021526D01*
X009346Y021801D01*
X009201Y021801D01*
X009201Y021381D01*
X009101Y021381D01*
X009101Y021281D01*
X008681Y021281D01*
X008681Y021136D01*
X008956Y020861D01*
X009101Y020861D01*
X009101Y021042D02*
X009201Y021042D01*
X009201Y021141D02*
X009101Y021141D01*
X009101Y021239D02*
X009201Y021239D01*
X009201Y021338D02*
X011501Y021338D01*
X011501Y021239D02*
X009621Y021239D01*
X009621Y021141D02*
X011501Y021141D01*
X011501Y021042D02*
X009527Y021042D01*
X009621Y021437D02*
X011501Y021437D01*
X011501Y021535D02*
X009612Y021535D01*
X009513Y021634D02*
X011501Y021634D01*
X011496Y021732D02*
X009415Y021732D01*
X009338Y021881D02*
X009601Y022145D01*
X009601Y022518D01*
X009338Y022781D01*
X008965Y022781D01*
X008701Y022518D01*
X008701Y022145D01*
X008965Y021881D01*
X009338Y021881D01*
X009386Y021929D02*
X011462Y021929D01*
X011489Y021831D02*
X000814Y021831D01*
X000806Y021732D02*
X002888Y021732D01*
X002956Y021801D02*
X002681Y021526D01*
X002681Y021381D01*
X003101Y021381D01*
X003101Y021281D01*
X003201Y021281D01*
X003201Y020861D01*
X003346Y020861D01*
X003621Y021136D01*
X003621Y021281D01*
X003201Y021281D01*
X003201Y021381D01*
X003621Y021381D01*
X003621Y021526D01*
X003346Y021801D01*
X003201Y021801D01*
X003201Y021381D01*
X003101Y021381D01*
X003101Y021801D01*
X002956Y021801D01*
X002956Y021861D02*
X003101Y021861D01*
X003101Y022281D01*
X003201Y022281D01*
X003201Y021861D01*
X003346Y021861D01*
X003621Y022136D01*
X003621Y022281D01*
X003201Y022281D01*
X003201Y022381D01*
X003621Y022381D01*
X003621Y022526D01*
X003346Y022801D01*
X003201Y022801D01*
X003201Y022381D01*
X003101Y022381D01*
X003101Y022281D01*
X002681Y022281D01*
X002681Y022136D01*
X002956Y021861D01*
X002888Y021929D02*
X000840Y021929D01*
X000866Y022028D02*
X002790Y022028D01*
X002691Y022126D02*
X000893Y022126D01*
X000937Y022225D02*
X002681Y022225D01*
X002681Y022381D02*
X003101Y022381D01*
X003101Y022801D01*
X002956Y022801D01*
X002681Y022526D01*
X002681Y022381D01*
X002681Y022422D02*
X001051Y022422D01*
X000994Y022323D02*
X003101Y022323D01*
X003101Y022225D02*
X003201Y022225D01*
X003201Y022323D02*
X003701Y022323D01*
X003701Y022225D02*
X003621Y022225D01*
X003611Y022126D02*
X003720Y022126D01*
X003701Y022145D02*
X003965Y021881D01*
X004338Y021881D01*
X004601Y022145D01*
X004601Y022518D01*
X004338Y022781D01*
X003965Y022781D01*
X003701Y022518D01*
X003701Y022145D01*
X003818Y022028D02*
X003512Y022028D01*
X003414Y021929D02*
X003917Y021929D01*
X003965Y021781D02*
X003701Y021518D01*
X003701Y021145D01*
X003965Y020881D01*
X004338Y020881D01*
X004601Y021145D01*
X004601Y021518D01*
X004338Y021781D01*
X003965Y021781D01*
X003916Y021732D02*
X003415Y021732D01*
X003513Y021634D02*
X003817Y021634D01*
X003719Y021535D02*
X003612Y021535D01*
X003621Y021437D02*
X003701Y021437D01*
X003701Y021338D02*
X003201Y021338D01*
X003201Y021239D02*
X003101Y021239D01*
X003101Y021281D02*
X003101Y020861D01*
X002956Y020861D01*
X002681Y021136D01*
X002681Y021281D01*
X003101Y021281D01*
X003101Y021338D02*
X000801Y021338D01*
X000801Y021239D02*
X002681Y021239D01*
X002681Y021141D02*
X000801Y021141D01*
X000801Y021042D02*
X002775Y021042D01*
X002874Y020944D02*
X000801Y020944D01*
X000801Y020451D02*
X000859Y020451D01*
X000851Y020353D02*
X000801Y020353D01*
X000801Y020254D02*
X000851Y020254D01*
X000801Y021437D02*
X002681Y021437D01*
X002690Y021535D02*
X000801Y021535D01*
X000801Y021634D02*
X002789Y021634D01*
X003101Y021634D02*
X003201Y021634D01*
X003201Y021732D02*
X003101Y021732D01*
X003101Y021535D02*
X003201Y021535D01*
X003201Y021437D02*
X003101Y021437D01*
X003101Y021141D02*
X003201Y021141D01*
X003201Y021042D02*
X003101Y021042D01*
X003101Y020944D02*
X003201Y020944D01*
X003428Y020944D02*
X003902Y020944D01*
X003804Y021042D02*
X003527Y021042D01*
X003621Y021141D02*
X003705Y021141D01*
X003701Y021239D02*
X003621Y021239D01*
X003201Y021929D02*
X003101Y021929D01*
X003101Y022028D02*
X003201Y022028D01*
X003201Y022126D02*
X003101Y022126D01*
X003101Y022422D02*
X003201Y022422D01*
X003201Y022521D02*
X003101Y022521D01*
X003101Y022619D02*
X003201Y022619D01*
X003201Y022718D02*
X003101Y022718D01*
X002873Y022718D02*
X001325Y022718D01*
X001226Y022619D02*
X002774Y022619D01*
X002681Y022521D02*
X001128Y022521D01*
X001492Y022816D02*
X010810Y022816D01*
X010607Y022915D02*
X001695Y022915D01*
X003429Y022718D02*
X003901Y022718D01*
X003803Y022619D02*
X003528Y022619D01*
X003621Y022521D02*
X003704Y022521D01*
X003701Y022422D02*
X003621Y022422D01*
X004401Y022718D02*
X004901Y022718D01*
X004965Y022781D02*
X004701Y022518D01*
X004701Y022145D01*
X004965Y021881D01*
X005338Y021881D01*
X005601Y022145D01*
X005601Y022518D01*
X005338Y022781D01*
X004965Y022781D01*
X004803Y022619D02*
X004500Y022619D01*
X004598Y022521D02*
X004704Y022521D01*
X004701Y022422D02*
X004601Y022422D01*
X004601Y022323D02*
X004701Y022323D01*
X004701Y022225D02*
X004601Y022225D01*
X004583Y022126D02*
X004720Y022126D01*
X004818Y022028D02*
X004484Y022028D01*
X004386Y021929D02*
X004917Y021929D01*
X004956Y021801D02*
X004681Y021526D01*
X004681Y021381D01*
X005101Y021381D01*
X005101Y021281D01*
X005201Y021281D01*
X005201Y020861D01*
X005346Y020861D01*
X005621Y021136D01*
X005621Y021281D01*
X005201Y021281D01*
X005201Y021381D01*
X005621Y021381D01*
X005621Y021526D01*
X005346Y021801D01*
X005201Y021801D01*
X005201Y021381D01*
X005101Y021381D01*
X005101Y021801D01*
X004956Y021801D01*
X004888Y021732D02*
X004387Y021732D01*
X004485Y021634D02*
X004789Y021634D01*
X004690Y021535D02*
X004584Y021535D01*
X004601Y021437D02*
X004681Y021437D01*
X004601Y021338D02*
X005101Y021338D01*
X005101Y021281D02*
X004681Y021281D01*
X004681Y021136D01*
X004956Y020861D01*
X005101Y020861D01*
X005101Y021281D01*
X005101Y021239D02*
X005201Y021239D01*
X005201Y021141D02*
X005101Y021141D01*
X005101Y021042D02*
X005201Y021042D01*
X005201Y020944D02*
X005101Y020944D01*
X004874Y020944D02*
X004400Y020944D01*
X004499Y021042D02*
X004775Y021042D01*
X004681Y021141D02*
X004597Y021141D01*
X004601Y021239D02*
X004681Y021239D01*
X005101Y021437D02*
X005201Y021437D01*
X005201Y021535D02*
X005101Y021535D01*
X005101Y021634D02*
X005201Y021634D01*
X005201Y021732D02*
X005101Y021732D01*
X005415Y021732D02*
X005888Y021732D01*
X005956Y021801D02*
X005681Y021526D01*
X005681Y021381D01*
X006101Y021381D01*
X006101Y021281D01*
X006201Y021281D01*
X006201Y020861D01*
X006346Y020861D01*
X006621Y021136D01*
X006621Y021281D01*
X006201Y021281D01*
X006201Y021381D01*
X006621Y021381D01*
X006621Y021526D01*
X006346Y021801D01*
X006201Y021801D01*
X006201Y021381D01*
X006101Y021381D01*
X006101Y021801D01*
X005956Y021801D01*
X005965Y021881D02*
X006338Y021881D01*
X006601Y022145D01*
X006601Y022518D01*
X006338Y022781D01*
X005965Y022781D01*
X005701Y022518D01*
X005701Y022145D01*
X005965Y021881D01*
X005917Y021929D02*
X005386Y021929D01*
X005484Y022028D02*
X005818Y022028D01*
X005720Y022126D02*
X005583Y022126D01*
X005601Y022225D02*
X005701Y022225D01*
X005701Y022323D02*
X005601Y022323D01*
X005601Y022422D02*
X005701Y022422D01*
X005704Y022521D02*
X005598Y022521D01*
X005500Y022619D02*
X005803Y022619D01*
X005901Y022718D02*
X005401Y022718D01*
X005513Y021634D02*
X005789Y021634D01*
X005690Y021535D02*
X005612Y021535D01*
X005621Y021437D02*
X005681Y021437D01*
X005681Y021281D02*
X005681Y021136D01*
X005956Y020861D01*
X006101Y020861D01*
X006101Y021281D01*
X005681Y021281D01*
X005681Y021239D02*
X005621Y021239D01*
X005621Y021141D02*
X005681Y021141D01*
X005775Y021042D02*
X005527Y021042D01*
X005428Y020944D02*
X005874Y020944D01*
X006101Y020944D02*
X006201Y020944D01*
X006201Y021042D02*
X006101Y021042D01*
X006101Y021141D02*
X006201Y021141D01*
X006201Y021239D02*
X006101Y021239D01*
X006101Y021338D02*
X005201Y021338D01*
X006101Y021437D02*
X006201Y021437D01*
X006201Y021535D02*
X006101Y021535D01*
X006101Y021634D02*
X006201Y021634D01*
X006201Y021732D02*
X006101Y021732D01*
X006415Y021732D02*
X006888Y021732D01*
X006956Y021801D02*
X006681Y021526D01*
X006681Y021381D01*
X007101Y021381D01*
X007101Y021281D01*
X007201Y021281D01*
X007201Y020861D01*
X007346Y020861D01*
X007621Y021136D01*
X007621Y021281D01*
X007201Y021281D01*
X007201Y021381D01*
X007621Y021381D01*
X007621Y021526D01*
X007346Y021801D01*
X007201Y021801D01*
X007201Y021381D01*
X007101Y021381D01*
X007101Y021801D01*
X006956Y021801D01*
X006965Y021881D02*
X007338Y021881D01*
X007601Y022145D01*
X007601Y022518D01*
X007338Y022781D01*
X006965Y022781D01*
X006701Y022518D01*
X006701Y022145D01*
X006965Y021881D01*
X006917Y021929D02*
X006386Y021929D01*
X006484Y022028D02*
X006818Y022028D01*
X006720Y022126D02*
X006583Y022126D01*
X006601Y022225D02*
X006701Y022225D01*
X006701Y022323D02*
X006601Y022323D01*
X006601Y022422D02*
X006701Y022422D01*
X006704Y022521D02*
X006598Y022521D01*
X006500Y022619D02*
X006803Y022619D01*
X006901Y022718D02*
X006401Y022718D01*
X006513Y021634D02*
X006789Y021634D01*
X006690Y021535D02*
X006612Y021535D01*
X006621Y021437D02*
X006681Y021437D01*
X006681Y021281D02*
X006681Y021136D01*
X006956Y020861D01*
X007101Y020861D01*
X007101Y021281D01*
X006681Y021281D01*
X006681Y021239D02*
X006621Y021239D01*
X006621Y021141D02*
X006681Y021141D01*
X006775Y021042D02*
X006527Y021042D01*
X006428Y020944D02*
X006874Y020944D01*
X007101Y020944D02*
X007201Y020944D01*
X007201Y021042D02*
X007101Y021042D01*
X007101Y021141D02*
X007201Y021141D01*
X007201Y021239D02*
X007101Y021239D01*
X007101Y021338D02*
X006201Y021338D01*
X007101Y021437D02*
X007201Y021437D01*
X007201Y021535D02*
X007101Y021535D01*
X007101Y021634D02*
X007201Y021634D01*
X007201Y021732D02*
X007101Y021732D01*
X007415Y021732D02*
X007888Y021732D01*
X007956Y021801D02*
X007681Y021526D01*
X007681Y021381D01*
X008101Y021381D01*
X008101Y021281D01*
X008201Y021281D01*
X008201Y020861D01*
X008346Y020861D01*
X008621Y021136D01*
X008621Y021281D01*
X008201Y021281D01*
X008201Y021381D01*
X008621Y021381D01*
X008621Y021526D01*
X008346Y021801D01*
X008201Y021801D01*
X008201Y021381D01*
X008101Y021381D01*
X008101Y021801D01*
X007956Y021801D01*
X007965Y021881D02*
X008338Y021881D01*
X008601Y022145D01*
X008601Y022518D01*
X008338Y022781D01*
X007965Y022781D01*
X007701Y022518D01*
X007701Y022145D01*
X007965Y021881D01*
X007917Y021929D02*
X007386Y021929D01*
X007484Y022028D02*
X007818Y022028D01*
X007720Y022126D02*
X007583Y022126D01*
X007601Y022225D02*
X007701Y022225D01*
X007701Y022323D02*
X007601Y022323D01*
X007601Y022422D02*
X007701Y022422D01*
X007704Y022521D02*
X007598Y022521D01*
X007500Y022619D02*
X007803Y022619D01*
X007901Y022718D02*
X007401Y022718D01*
X007513Y021634D02*
X007789Y021634D01*
X007690Y021535D02*
X007612Y021535D01*
X007621Y021437D02*
X007681Y021437D01*
X007681Y021281D02*
X007681Y021136D01*
X007956Y020861D01*
X008101Y020861D01*
X008101Y021281D01*
X007681Y021281D01*
X007681Y021239D02*
X007621Y021239D01*
X007621Y021141D02*
X007681Y021141D01*
X007775Y021042D02*
X007527Y021042D01*
X007428Y020944D02*
X007874Y020944D01*
X008101Y020944D02*
X008201Y020944D01*
X008201Y021042D02*
X008101Y021042D01*
X008101Y021141D02*
X008201Y021141D01*
X008201Y021239D02*
X008101Y021239D01*
X008101Y021338D02*
X007201Y021338D01*
X008101Y021437D02*
X008201Y021437D01*
X008201Y021535D02*
X008101Y021535D01*
X008101Y021634D02*
X008201Y021634D01*
X008201Y021732D02*
X008101Y021732D01*
X008201Y021338D02*
X009101Y021338D01*
X009101Y021381D02*
X008681Y021381D01*
X008681Y021526D01*
X008956Y021801D01*
X009101Y021801D01*
X009101Y021381D01*
X009101Y021437D02*
X009201Y021437D01*
X009201Y021535D02*
X009101Y021535D01*
X009101Y021634D02*
X009201Y021634D01*
X009201Y021732D02*
X009101Y021732D01*
X008917Y021929D02*
X008386Y021929D01*
X008484Y022028D02*
X008818Y022028D01*
X008720Y022126D02*
X008583Y022126D01*
X008601Y022225D02*
X008701Y022225D01*
X008701Y022323D02*
X008601Y022323D01*
X008601Y022422D02*
X008701Y022422D01*
X008704Y022521D02*
X008598Y022521D01*
X008500Y022619D02*
X008803Y022619D01*
X008901Y022718D02*
X008401Y022718D01*
X008415Y021732D02*
X008888Y021732D01*
X008789Y021634D02*
X008513Y021634D01*
X008612Y021535D02*
X008690Y021535D01*
X008681Y021437D02*
X008621Y021437D01*
X008621Y021239D02*
X008681Y021239D01*
X008681Y021141D02*
X008621Y021141D01*
X008527Y021042D02*
X008775Y021042D01*
X008874Y020944D02*
X008428Y020944D01*
X009484Y022028D02*
X011436Y022028D01*
X011410Y022126D02*
X009583Y022126D01*
X009601Y022225D02*
X011365Y022225D01*
X011309Y022323D02*
X009601Y022323D01*
X009601Y022422D02*
X011252Y022422D01*
X011175Y022521D02*
X009598Y022521D01*
X009500Y022619D02*
X011076Y022619D01*
X010978Y022718D02*
X009401Y022718D01*
X009549Y018382D02*
X011501Y018382D01*
X011501Y018283D02*
X009596Y018283D01*
X009596Y018185D02*
X011501Y018185D01*
X011501Y018086D02*
X009596Y018086D01*
X010737Y017988D02*
X011501Y017988D01*
X011501Y017889D02*
X010821Y017889D01*
X010862Y017790D02*
X011501Y017790D01*
X011501Y017692D02*
X010870Y017692D01*
X010860Y017593D02*
X011501Y017593D01*
X011501Y017495D02*
X010819Y017495D01*
X008160Y014637D02*
X008142Y014637D01*
X008142Y014539D02*
X008160Y014539D01*
X008160Y014440D02*
X008142Y014440D01*
X008142Y014341D02*
X008160Y014341D01*
X008160Y014243D02*
X008142Y014243D01*
X008142Y014144D02*
X008160Y014144D01*
X008160Y014046D02*
X008142Y014046D01*
X008142Y013947D02*
X008160Y013947D01*
X008160Y013849D02*
X008142Y013849D01*
X008142Y013750D02*
X008160Y013750D01*
X008160Y013652D02*
X008142Y013652D01*
X008142Y013553D02*
X008160Y013553D01*
X007904Y014637D02*
X007877Y014637D01*
X005427Y018579D02*
X002261Y018579D01*
X002261Y018677D02*
X005328Y018677D01*
X005229Y018776D02*
X002360Y018776D01*
X002431Y018874D02*
X005131Y018874D01*
X005101Y018382D02*
X005201Y018382D01*
X005201Y018283D02*
X005101Y018283D01*
X003212Y004093D02*
X003090Y004093D01*
D22*
X002777Y003651D02*
X002151Y003651D01*
X001901Y003401D01*
X001901Y002401D01*
X002651Y001651D01*
X003276Y001026D01*
X009901Y001026D01*
X010151Y001276D01*
X010151Y002151D01*
X009651Y002651D01*
X010507Y002651D01*
X010651Y002795D02*
X010651Y005651D01*
X010407Y005895D01*
X008998Y005895D01*
X008282Y005895D01*
X008151Y005901D01*
X007953Y006328D02*
X005651Y004026D01*
X005651Y002651D01*
X006151Y002151D02*
X006151Y003651D01*
X007651Y005151D01*
X007962Y005462D01*
X008840Y005462D01*
X008840Y004596D02*
X009596Y004596D01*
X009776Y004776D01*
X009776Y005401D01*
X009203Y006328D02*
X009401Y006526D01*
X009401Y007526D01*
X008901Y008026D01*
X008901Y015026D01*
X008526Y015401D01*
X007901Y015401D01*
X007651Y015651D01*
X007651Y016175D01*
X007151Y016175D02*
X007151Y015651D01*
X007651Y015151D01*
X008401Y015151D01*
X008651Y014901D01*
X008651Y007901D01*
X008151Y007401D01*
X008011Y006761D02*
X004901Y003651D01*
X004401Y003651D01*
X003525Y003651D01*
X005651Y001651D02*
X006151Y002151D01*
X006651Y001651D02*
X007151Y002151D01*
X007151Y003651D01*
X008151Y004596D02*
X008840Y004596D01*
X008840Y006328D02*
X007953Y006328D01*
X008011Y006761D02*
X008683Y006761D01*
X008840Y006328D02*
X009203Y006328D01*
X009776Y007901D02*
X009151Y008526D01*
X009151Y015276D01*
X008253Y016175D01*
X009151Y016651D02*
X009651Y016151D01*
X009651Y014588D01*
X010482Y013757D01*
X009151Y016651D02*
X009151Y017277D01*
X009151Y018025D02*
X006277Y018025D01*
X005151Y019151D01*
X003651Y019151D01*
X002651Y020151D01*
X002051Y020151D01*
X002051Y019151D02*
X002051Y018376D01*
X003151Y017276D01*
X003151Y015525D01*
X003151Y014777D02*
X003151Y014151D01*
X002757Y013757D01*
X001820Y013757D01*
X003651Y014026D02*
X003651Y013151D01*
X003651Y014026D02*
X004526Y014901D01*
X005526Y014901D01*
X005651Y014776D01*
X005651Y014128D01*
X005151Y014128D02*
X005128Y014128D01*
X004651Y013651D01*
X004651Y013151D01*
X005151Y015401D02*
X005151Y016175D01*
X005151Y017257D01*
X004338Y017257D01*
X003901Y017694D01*
X006151Y014128D02*
X006151Y013151D01*
X006651Y012776D02*
X006651Y006026D01*
X007276Y006776D02*
X007526Y007026D01*
X007526Y011651D01*
X007526Y012152D01*
X007651Y013025D02*
X006900Y013025D01*
X006651Y012776D01*
X007651Y013025D02*
X007651Y014128D01*
D23*
X007651Y012277D02*
X007526Y012152D01*
X008151Y016175D02*
X008253Y016175D01*
X010651Y002795D02*
X010507Y002651D01*
D24*
X009776Y005401D03*
X009776Y007901D03*
X008151Y007401D03*
X007276Y006776D03*
X006651Y006026D03*
X007651Y005151D03*
X008151Y004596D03*
X008151Y005901D03*
X007151Y003651D03*
X004401Y003651D03*
X007526Y011651D03*
X006151Y013151D03*
X005151Y015401D03*
X003901Y017694D03*
M02*
