G75*
G70*
%OFA0B0*%
%FSLAX24Y24*%
%IPPOS*%
%LPD*%
%AMOC8*
5,1,8,0,0,1.08239X$1,22.5*
%
%ADD10OC8,0.0640*%
%ADD11C,0.0516*%
%ADD12C,0.0660*%
%ADD13R,0.1560X0.1560*%
%ADD14R,0.1250X0.1250*%
%ADD15C,0.0100*%
%ADD16C,0.0436*%
%ADD17C,0.0160*%
%ADD18C,0.0120*%
D10*
X002651Y001651D03*
X002651Y002651D03*
X003651Y002651D03*
X003651Y001651D03*
X004651Y001651D03*
X004651Y002651D03*
X005651Y002651D03*
X005651Y001651D03*
X006651Y001651D03*
X006651Y002651D03*
X007651Y002651D03*
X007651Y001651D03*
X008651Y001651D03*
X008651Y002651D03*
X009651Y002651D03*
X009651Y001651D03*
X009151Y021331D03*
X009151Y022331D03*
X008151Y022331D03*
X008151Y021331D03*
X007151Y021331D03*
X007151Y022331D03*
X006151Y022331D03*
X006151Y021331D03*
X005151Y021331D03*
X005151Y022331D03*
X004151Y022331D03*
X004151Y021331D03*
X003151Y021331D03*
X003151Y022331D03*
D11*
X001820Y017694D03*
X001820Y016907D03*
X001820Y016120D03*
X001820Y015332D03*
X001820Y014545D03*
X001820Y013757D03*
X001820Y012970D03*
X001820Y012183D03*
X001820Y011395D03*
X001820Y010608D03*
X010482Y010608D03*
X010482Y011395D03*
X010482Y012183D03*
X010482Y012970D03*
X010482Y013757D03*
X010482Y014545D03*
X010482Y015332D03*
X010482Y016120D03*
X010482Y016907D03*
X010482Y017694D03*
D12*
X004651Y013151D03*
X003651Y013151D03*
D13*
X003401Y007151D03*
D14*
X003401Y004051D03*
X003401Y010251D03*
D15*
X000904Y001635D02*
X001080Y001329D01*
X001329Y001080D01*
X001635Y000904D01*
X001975Y000813D01*
X002151Y000801D01*
X010089Y000801D01*
X010100Y000801D01*
X010151Y000801D01*
X010327Y000813D01*
X010668Y000904D01*
X010973Y001080D01*
X011222Y001329D01*
X011398Y001635D01*
X011490Y001975D01*
X011501Y002151D01*
X011501Y002213D01*
X011501Y021589D01*
X011501Y021651D01*
X011490Y021827D01*
X011398Y022168D01*
X011222Y022473D01*
X010973Y022722D01*
X010668Y022898D01*
X010327Y022990D01*
X010151Y023001D01*
X010089Y023001D01*
X002151Y023001D01*
X001975Y022990D01*
X001635Y022898D01*
X001329Y022722D01*
X001080Y022473D01*
X000904Y022168D01*
X000813Y021827D01*
X000801Y021651D01*
X000801Y002151D01*
X000813Y001975D01*
X000904Y001635D01*
X000907Y001629D02*
X002201Y001629D01*
X002201Y001531D02*
X000964Y001531D01*
X001021Y001432D02*
X002234Y001432D01*
X002201Y001465D02*
X002465Y001201D01*
X002838Y001201D01*
X003101Y001465D01*
X003101Y001838D01*
X002838Y002101D01*
X002465Y002101D01*
X002201Y001838D01*
X002201Y001465D01*
X002332Y001334D02*
X001078Y001334D01*
X001174Y001235D02*
X002431Y001235D01*
X002201Y001728D02*
X000879Y001728D01*
X000852Y001826D02*
X002201Y001826D01*
X002289Y001925D02*
X000826Y001925D01*
X000810Y002024D02*
X002387Y002024D01*
X002465Y002201D02*
X002838Y002201D01*
X003101Y002465D01*
X003101Y002838D01*
X002838Y003101D01*
X002465Y003101D01*
X002201Y002838D01*
X002201Y002465D01*
X002465Y002201D01*
X002445Y002221D02*
X000801Y002221D01*
X000801Y002319D02*
X002347Y002319D01*
X002248Y002418D02*
X000801Y002418D01*
X000801Y002516D02*
X002201Y002516D01*
X002201Y002615D02*
X000801Y002615D01*
X000801Y002713D02*
X002201Y002713D01*
X002201Y002812D02*
X000801Y002812D01*
X000801Y002910D02*
X002274Y002910D01*
X002373Y003009D02*
X000801Y003009D01*
X000801Y003107D02*
X003443Y003107D01*
X003456Y003121D02*
X003181Y002846D01*
X003181Y002701D01*
X003601Y002701D01*
X003601Y002601D01*
X003701Y002601D01*
X003701Y002181D01*
X003846Y002181D01*
X004121Y002456D01*
X004121Y002601D01*
X003701Y002601D01*
X003701Y002701D01*
X004121Y002701D01*
X004121Y002846D01*
X003846Y003121D01*
X003701Y003121D01*
X003701Y002701D01*
X003601Y002701D01*
X003601Y003121D01*
X003456Y003121D01*
X003601Y003107D02*
X003701Y003107D01*
X003701Y003009D02*
X003601Y003009D01*
X003601Y002910D02*
X003701Y002910D01*
X003701Y002812D02*
X003601Y002812D01*
X003601Y002713D02*
X003701Y002713D01*
X003701Y002615D02*
X004601Y002615D01*
X004601Y002601D02*
X004181Y002601D01*
X004181Y002456D01*
X004456Y002181D01*
X004601Y002181D01*
X004601Y002601D01*
X004701Y002601D01*
X004701Y002181D01*
X004846Y002181D01*
X005121Y002456D01*
X005121Y002601D01*
X004701Y002601D01*
X004701Y002701D01*
X005121Y002701D01*
X005121Y002846D01*
X004846Y003121D01*
X004701Y003121D01*
X004701Y002701D01*
X004601Y002701D01*
X004601Y002601D01*
X004601Y002516D02*
X004701Y002516D01*
X004701Y002418D02*
X004601Y002418D01*
X004601Y002319D02*
X004701Y002319D01*
X004701Y002221D02*
X004601Y002221D01*
X004465Y002101D02*
X004201Y001838D01*
X004201Y001465D01*
X004465Y001201D01*
X004838Y001201D01*
X005101Y001465D01*
X005101Y001832D01*
X005230Y001961D01*
X005325Y001961D01*
X005201Y001838D01*
X005201Y001465D01*
X005465Y001201D01*
X005838Y001201D01*
X006101Y001465D01*
X006101Y001838D01*
X005977Y001961D01*
X006325Y001961D01*
X006201Y001838D01*
X006201Y001465D01*
X006465Y001201D01*
X006838Y001201D01*
X007101Y001465D01*
X007101Y001838D01*
X006977Y001961D01*
X006980Y001961D01*
X007230Y002211D01*
X007328Y002310D01*
X007456Y002181D01*
X007601Y002181D01*
X007601Y002601D01*
X007701Y002601D01*
X007701Y002181D01*
X007846Y002181D01*
X008121Y002456D01*
X008121Y002601D01*
X007701Y002601D01*
X007701Y002701D01*
X008121Y002701D01*
X008121Y002846D01*
X007881Y003086D01*
X007980Y003086D01*
X008230Y003336D01*
X008341Y003447D01*
X008341Y004298D01*
X008348Y004301D01*
X008441Y004394D01*
X008441Y003078D01*
X008201Y002838D01*
X008201Y002465D01*
X008465Y002201D01*
X008838Y002201D01*
X008941Y002305D01*
X008941Y002238D01*
X008804Y002101D01*
X008465Y002101D01*
X008201Y001838D01*
X008201Y001465D01*
X008465Y001201D01*
X008838Y001201D01*
X009101Y001465D01*
X009101Y001804D01*
X009361Y002064D01*
X009361Y002238D01*
X009361Y002305D01*
X009465Y002201D01*
X009838Y002201D01*
X010101Y002465D01*
X010101Y002838D01*
X009838Y003101D01*
X009465Y003101D01*
X009361Y002997D01*
X009361Y013738D01*
X009238Y013861D01*
X006105Y016994D01*
X005982Y017117D01*
X002153Y017117D01*
X002149Y017127D01*
X002040Y017236D01*
X001898Y017295D01*
X001743Y017295D01*
X001601Y017236D01*
X001492Y017127D01*
X001433Y016984D01*
X001433Y016830D01*
X001492Y016687D01*
X001601Y016578D01*
X001743Y016519D01*
X001898Y016519D01*
X002040Y016578D01*
X002149Y016687D01*
X002153Y016697D01*
X005808Y016697D01*
X008941Y013564D01*
X008941Y002997D01*
X008861Y003078D01*
X008861Y013238D01*
X008738Y013361D01*
X005893Y016207D01*
X005770Y016330D01*
X002153Y016330D01*
X002149Y016339D01*
X002040Y016448D01*
X001898Y016507D01*
X001743Y016507D01*
X001601Y016448D01*
X001492Y016339D01*
X001433Y016197D01*
X001433Y016043D01*
X001492Y015900D01*
X001601Y015791D01*
X001743Y015732D01*
X001898Y015732D01*
X002040Y015791D01*
X002149Y015900D01*
X002153Y015910D01*
X005596Y015910D01*
X008441Y013064D01*
X008441Y007603D01*
X008348Y007696D01*
X008220Y007749D01*
X008082Y007749D01*
X007954Y007696D01*
X007869Y007611D01*
X007113Y007611D01*
X006939Y007611D01*
X006689Y007361D01*
X006566Y007238D01*
X006566Y006738D01*
X006566Y006564D01*
X006781Y006349D01*
X006720Y006374D01*
X006582Y006374D01*
X006454Y006321D01*
X006356Y006223D01*
X006303Y006095D01*
X006303Y005957D01*
X006356Y005829D01*
X006441Y005744D01*
X006441Y004064D01*
X006564Y003941D01*
X006803Y003702D01*
X006803Y003582D01*
X006856Y003454D01*
X006954Y003356D01*
X007082Y003303D01*
X007220Y003303D01*
X007330Y003348D01*
X006961Y002980D01*
X006961Y002977D01*
X006838Y003101D01*
X006498Y003101D01*
X005738Y003861D01*
X005564Y003861D01*
X004683Y003861D01*
X004598Y003946D01*
X004470Y003999D01*
X004332Y003999D01*
X004204Y003946D01*
X004156Y003898D01*
X004156Y004730D01*
X004080Y004806D01*
X002722Y004806D01*
X002646Y004730D01*
X002646Y003372D01*
X002722Y003296D01*
X004080Y003296D01*
X004156Y003372D01*
X004156Y003404D01*
X004204Y003356D01*
X004332Y003303D01*
X004470Y003303D01*
X004598Y003356D01*
X004683Y003441D01*
X005564Y003441D01*
X006201Y002804D01*
X006201Y002465D01*
X006325Y002341D01*
X005977Y002341D01*
X006101Y002465D01*
X006101Y002838D01*
X005838Y003101D01*
X005465Y003101D01*
X005201Y002838D01*
X005201Y002465D01*
X005325Y002341D01*
X005072Y002341D01*
X004961Y002230D01*
X004832Y002101D01*
X004465Y002101D01*
X004387Y002024D02*
X003915Y002024D01*
X003838Y002101D02*
X004101Y001838D01*
X004101Y001465D01*
X003838Y001201D01*
X003465Y001201D01*
X003201Y001465D01*
X003201Y001838D01*
X003465Y002101D01*
X003838Y002101D01*
X003885Y002221D02*
X004417Y002221D01*
X004319Y002319D02*
X003984Y002319D01*
X004082Y002418D02*
X004220Y002418D01*
X004181Y002516D02*
X004121Y002516D01*
X004181Y002701D02*
X004601Y002701D01*
X004601Y003121D01*
X004456Y003121D01*
X004181Y002846D01*
X004181Y002701D01*
X004181Y002713D02*
X004121Y002713D01*
X004121Y002812D02*
X004181Y002812D01*
X004246Y002910D02*
X004057Y002910D01*
X003958Y003009D02*
X004344Y003009D01*
X004443Y003107D02*
X003859Y003107D01*
X004088Y003305D02*
X004328Y003305D01*
X004474Y003305D02*
X005701Y003305D01*
X005602Y003403D02*
X004645Y003403D01*
X004601Y003107D02*
X004701Y003107D01*
X004701Y003009D02*
X004601Y003009D01*
X004601Y002910D02*
X004701Y002910D01*
X004701Y002812D02*
X004601Y002812D01*
X004601Y002713D02*
X004701Y002713D01*
X004701Y002615D02*
X005201Y002615D01*
X005201Y002713D02*
X005121Y002713D01*
X005121Y002812D02*
X005201Y002812D01*
X005274Y002910D02*
X005057Y002910D01*
X004958Y003009D02*
X005373Y003009D01*
X005201Y002516D02*
X005121Y002516D01*
X005082Y002418D02*
X005248Y002418D01*
X005050Y002319D02*
X004984Y002319D01*
X004952Y002221D02*
X004885Y002221D01*
X004853Y002122D02*
X000803Y002122D01*
X001273Y001137D02*
X011029Y001137D01*
X011128Y001235D02*
X009872Y001235D01*
X009838Y001201D02*
X010101Y001465D01*
X010101Y001838D01*
X009838Y002101D01*
X009465Y002101D01*
X009201Y001838D01*
X009201Y001465D01*
X009465Y001201D01*
X009838Y001201D01*
X009970Y001334D02*
X011225Y001334D01*
X011282Y001432D02*
X010069Y001432D01*
X010101Y001531D02*
X011339Y001531D01*
X011395Y001629D02*
X010101Y001629D01*
X010101Y001728D02*
X011424Y001728D01*
X011398Y001635D02*
X011398Y001635D01*
X011450Y001826D02*
X010101Y001826D01*
X010014Y001925D02*
X011476Y001925D01*
X011493Y002024D02*
X009915Y002024D01*
X009857Y002221D02*
X011501Y002221D01*
X011501Y002319D02*
X009956Y002319D01*
X010054Y002418D02*
X011501Y002418D01*
X011501Y002516D02*
X010101Y002516D01*
X010101Y002615D02*
X011501Y002615D01*
X011501Y002713D02*
X010101Y002713D01*
X010101Y002812D02*
X011501Y002812D01*
X011501Y002910D02*
X010028Y002910D01*
X009930Y003009D02*
X011501Y003009D01*
X011501Y003107D02*
X009361Y003107D01*
X009361Y003009D02*
X009373Y003009D01*
X009361Y003206D02*
X011501Y003206D01*
X011501Y003305D02*
X009361Y003305D01*
X009361Y003403D02*
X011501Y003403D01*
X011501Y003502D02*
X009361Y003502D01*
X009361Y003600D02*
X011501Y003600D01*
X011501Y003699D02*
X009361Y003699D01*
X009361Y003797D02*
X011501Y003797D01*
X011501Y003896D02*
X009361Y003896D01*
X009361Y003994D02*
X011501Y003994D01*
X011501Y004093D02*
X009361Y004093D01*
X009361Y004191D02*
X011501Y004191D01*
X011501Y004290D02*
X009361Y004290D01*
X009361Y004389D02*
X011501Y004389D01*
X011501Y004487D02*
X009361Y004487D01*
X009361Y004586D02*
X011501Y004586D01*
X011501Y004684D02*
X009361Y004684D01*
X009361Y004783D02*
X011501Y004783D01*
X011501Y004881D02*
X009361Y004881D01*
X009361Y004980D02*
X011501Y004980D01*
X011501Y005078D02*
X009906Y005078D01*
X009845Y005053D02*
X009973Y005106D01*
X010071Y005204D01*
X010124Y005332D01*
X010124Y005470D01*
X010071Y005598D01*
X009986Y005683D01*
X009986Y007619D01*
X010071Y007704D01*
X010124Y007832D01*
X010124Y007970D01*
X010071Y008098D01*
X009973Y008196D01*
X009845Y008249D01*
X009707Y008249D01*
X009579Y008196D01*
X009481Y008098D01*
X009428Y007970D01*
X009428Y007832D01*
X009481Y007704D01*
X009566Y007619D01*
X009566Y005683D01*
X009481Y005598D01*
X009428Y005470D01*
X009428Y005332D01*
X009481Y005204D01*
X009579Y005106D01*
X009707Y005053D01*
X009845Y005053D01*
X010044Y005177D02*
X011501Y005177D01*
X011501Y005275D02*
X010101Y005275D01*
X010124Y005374D02*
X011501Y005374D01*
X011501Y005473D02*
X010123Y005473D01*
X010083Y005571D02*
X011501Y005571D01*
X011501Y005670D02*
X010000Y005670D01*
X009986Y005768D02*
X011501Y005768D01*
X011501Y005867D02*
X009986Y005867D01*
X009986Y005965D02*
X011501Y005965D01*
X011501Y006064D02*
X009986Y006064D01*
X009986Y006162D02*
X011501Y006162D01*
X011501Y006261D02*
X009986Y006261D01*
X009986Y006359D02*
X011501Y006359D01*
X011501Y006458D02*
X009986Y006458D01*
X009986Y006556D02*
X011501Y006556D01*
X011501Y006655D02*
X009986Y006655D01*
X009986Y006754D02*
X011501Y006754D01*
X011501Y006852D02*
X009986Y006852D01*
X009986Y006951D02*
X011501Y006951D01*
X011501Y007049D02*
X009986Y007049D01*
X009986Y007148D02*
X011501Y007148D01*
X011501Y007246D02*
X009986Y007246D01*
X009986Y007345D02*
X011501Y007345D01*
X011501Y007443D02*
X009986Y007443D01*
X009986Y007542D02*
X011501Y007542D01*
X011501Y007640D02*
X010008Y007640D01*
X010086Y007739D02*
X011501Y007739D01*
X011501Y007838D02*
X010124Y007838D01*
X010124Y007936D02*
X011501Y007936D01*
X011501Y008035D02*
X010098Y008035D01*
X010036Y008133D02*
X011501Y008133D01*
X011501Y008232D02*
X009888Y008232D01*
X009665Y008232D02*
X009361Y008232D01*
X009361Y008330D02*
X011501Y008330D01*
X011501Y008429D02*
X009361Y008429D01*
X009361Y008527D02*
X011501Y008527D01*
X011501Y008626D02*
X009361Y008626D01*
X009361Y008724D02*
X011501Y008724D01*
X011501Y008823D02*
X009361Y008823D01*
X009361Y008922D02*
X011501Y008922D01*
X011501Y009020D02*
X009361Y009020D01*
X009361Y009119D02*
X011501Y009119D01*
X011501Y009217D02*
X009361Y009217D01*
X009361Y009316D02*
X011501Y009316D01*
X011501Y009414D02*
X009361Y009414D01*
X009361Y009513D02*
X011501Y009513D01*
X011501Y009611D02*
X009361Y009611D01*
X009361Y009710D02*
X011501Y009710D01*
X011501Y009808D02*
X009361Y009808D01*
X009361Y009907D02*
X011501Y009907D01*
X011501Y010006D02*
X009361Y010006D01*
X009361Y010104D02*
X011501Y010104D01*
X011501Y010203D02*
X009361Y010203D01*
X009361Y010301D02*
X010240Y010301D01*
X010262Y010279D02*
X010405Y010220D01*
X010559Y010220D01*
X010702Y010279D01*
X010811Y010388D01*
X010870Y010531D01*
X010870Y010685D01*
X010811Y010828D01*
X010702Y010937D01*
X010559Y010996D01*
X010405Y010996D01*
X010262Y010937D01*
X010153Y010828D01*
X010094Y010685D01*
X010094Y010531D01*
X010153Y010388D01*
X010262Y010279D01*
X010148Y010400D02*
X009361Y010400D01*
X009361Y010498D02*
X010108Y010498D01*
X010094Y010597D02*
X009361Y010597D01*
X009361Y010695D02*
X010098Y010695D01*
X010139Y010794D02*
X009361Y010794D01*
X009361Y010892D02*
X010218Y010892D01*
X010262Y011066D02*
X010153Y011176D01*
X010094Y011318D01*
X010094Y011472D01*
X010153Y011615D01*
X010262Y011724D01*
X010405Y011783D01*
X010559Y011783D01*
X010702Y011724D01*
X010811Y011615D01*
X010870Y011472D01*
X010870Y011318D01*
X010811Y011176D01*
X010702Y011066D01*
X010559Y011007D01*
X010405Y011007D01*
X010262Y011066D01*
X010239Y011089D02*
X009361Y011089D01*
X009361Y010991D02*
X010393Y010991D01*
X010570Y010991D02*
X011501Y010991D01*
X011501Y011089D02*
X010725Y011089D01*
X010816Y011188D02*
X011501Y011188D01*
X011501Y011287D02*
X010857Y011287D01*
X010870Y011385D02*
X011501Y011385D01*
X011501Y011484D02*
X010865Y011484D01*
X010824Y011582D02*
X011501Y011582D01*
X011501Y011681D02*
X010745Y011681D01*
X010702Y011854D02*
X010811Y011963D01*
X010870Y012106D01*
X010870Y012260D01*
X010811Y012402D01*
X010702Y012511D01*
X010559Y012570D01*
X010405Y012570D01*
X010262Y012511D01*
X010153Y012402D01*
X010094Y012260D01*
X010094Y012106D01*
X010153Y011963D01*
X010262Y011854D01*
X010405Y011795D01*
X010559Y011795D01*
X010702Y011854D01*
X010725Y011878D02*
X011501Y011878D01*
X011501Y011976D02*
X010816Y011976D01*
X010857Y012075D02*
X011501Y012075D01*
X011501Y012173D02*
X010870Y012173D01*
X010865Y012272D02*
X011501Y012272D01*
X011501Y012371D02*
X010824Y012371D01*
X010744Y012469D02*
X011501Y012469D01*
X011501Y012568D02*
X010566Y012568D01*
X010559Y012582D02*
X010702Y012641D01*
X010811Y012750D01*
X010870Y012893D01*
X010870Y013047D01*
X010811Y013190D01*
X010702Y013299D01*
X010559Y013358D01*
X010405Y013358D01*
X010262Y013299D01*
X010153Y013190D01*
X010094Y013047D01*
X010094Y012893D01*
X010153Y012750D01*
X010262Y012641D01*
X010405Y012582D01*
X010559Y012582D01*
X010398Y012568D02*
X009361Y012568D01*
X009361Y012666D02*
X010237Y012666D01*
X010147Y012765D02*
X009361Y012765D01*
X009361Y012863D02*
X010106Y012863D01*
X010094Y012962D02*
X009361Y012962D01*
X009361Y013060D02*
X010100Y013060D01*
X010140Y013159D02*
X009361Y013159D01*
X009361Y013257D02*
X010221Y013257D01*
X010262Y013429D02*
X010153Y013538D01*
X010094Y013680D01*
X010094Y013835D01*
X010153Y013977D01*
X010262Y014086D01*
X010405Y014145D01*
X010559Y014145D01*
X010702Y014086D01*
X010811Y013977D01*
X010870Y013835D01*
X010870Y013680D01*
X010811Y013538D01*
X010702Y013429D01*
X010559Y013370D01*
X010405Y013370D01*
X010262Y013429D01*
X010236Y013455D02*
X009361Y013455D01*
X009361Y013553D02*
X010147Y013553D01*
X010106Y013652D02*
X009361Y013652D01*
X009349Y013750D02*
X010094Y013750D01*
X010100Y013849D02*
X009251Y013849D01*
X009152Y013947D02*
X010141Y013947D01*
X010222Y014046D02*
X009054Y014046D01*
X008955Y014144D02*
X010403Y014144D01*
X010405Y014157D02*
X010559Y014157D01*
X010702Y014216D01*
X010811Y014325D01*
X010870Y014468D01*
X010870Y014622D01*
X010811Y014765D01*
X010702Y014874D01*
X010559Y014933D01*
X010405Y014933D01*
X010262Y014874D01*
X010153Y014765D01*
X010094Y014622D01*
X010094Y014468D01*
X010153Y014325D01*
X010262Y014216D01*
X010405Y014157D01*
X010561Y014144D02*
X011501Y014144D01*
X011501Y014046D02*
X010742Y014046D01*
X010823Y013947D02*
X011501Y013947D01*
X011501Y013849D02*
X010864Y013849D01*
X010870Y013750D02*
X011501Y013750D01*
X011501Y013652D02*
X010858Y013652D01*
X010817Y013553D02*
X011501Y013553D01*
X011501Y013455D02*
X010727Y013455D01*
X010743Y013257D02*
X011501Y013257D01*
X011501Y013159D02*
X010823Y013159D01*
X010864Y013060D02*
X011501Y013060D01*
X011501Y012962D02*
X010870Y012962D01*
X010857Y012863D02*
X011501Y012863D01*
X011501Y012765D02*
X010817Y012765D01*
X010726Y012666D02*
X011501Y012666D01*
X011501Y013356D02*
X010564Y013356D01*
X010400Y013356D02*
X009361Y013356D01*
X008941Y013356D02*
X008743Y013356D01*
X008645Y013455D02*
X008941Y013455D01*
X008941Y013553D02*
X008546Y013553D01*
X008448Y013652D02*
X008854Y013652D01*
X008755Y013750D02*
X008349Y013750D01*
X008251Y013849D02*
X008657Y013849D01*
X008558Y013947D02*
X008152Y013947D01*
X008054Y014046D02*
X008460Y014046D01*
X008361Y014144D02*
X007955Y014144D01*
X007856Y014243D02*
X008262Y014243D01*
X008164Y014341D02*
X007758Y014341D01*
X007659Y014440D02*
X008065Y014440D01*
X007967Y014539D02*
X007561Y014539D01*
X007462Y014637D02*
X007868Y014637D01*
X007770Y014736D02*
X007364Y014736D01*
X007265Y014834D02*
X007671Y014834D01*
X007573Y014933D02*
X007167Y014933D01*
X007068Y015031D02*
X007474Y015031D01*
X007376Y015130D02*
X006970Y015130D01*
X006871Y015228D02*
X007277Y015228D01*
X007179Y015327D02*
X006772Y015327D01*
X006674Y015425D02*
X007080Y015425D01*
X006981Y015524D02*
X006575Y015524D01*
X006477Y015622D02*
X006883Y015622D01*
X006784Y015721D02*
X006378Y015721D01*
X006280Y015820D02*
X006686Y015820D01*
X006587Y015918D02*
X006181Y015918D01*
X006083Y016017D02*
X006489Y016017D01*
X006390Y016115D02*
X005984Y016115D01*
X005886Y016214D02*
X006292Y016214D01*
X006193Y016312D02*
X005787Y016312D01*
X005897Y016608D02*
X002070Y016608D01*
X002078Y016411D02*
X006095Y016411D01*
X005996Y016509D02*
X000801Y016509D01*
X000801Y016411D02*
X001563Y016411D01*
X001481Y016312D02*
X000801Y016312D01*
X000801Y016214D02*
X001440Y016214D01*
X001433Y016115D02*
X000801Y016115D01*
X000801Y016017D02*
X001443Y016017D01*
X001484Y015918D02*
X000801Y015918D01*
X000801Y015820D02*
X001572Y015820D01*
X001601Y015661D02*
X001492Y015552D01*
X001433Y015409D01*
X001433Y015255D01*
X001492Y015113D01*
X001601Y015004D01*
X001743Y014944D01*
X001898Y014944D01*
X002040Y015004D01*
X002149Y015113D01*
X002208Y015255D01*
X002208Y015409D01*
X002149Y015552D01*
X002040Y015661D01*
X001898Y015720D01*
X001743Y015720D01*
X001601Y015661D01*
X001562Y015622D02*
X000801Y015622D01*
X000801Y015524D02*
X001480Y015524D01*
X001439Y015425D02*
X000801Y015425D01*
X000801Y015327D02*
X001433Y015327D01*
X001444Y015228D02*
X000801Y015228D01*
X000801Y015130D02*
X001485Y015130D01*
X001573Y015031D02*
X000801Y015031D01*
X000801Y014933D02*
X005323Y014933D01*
X005224Y015031D02*
X002068Y015031D01*
X002156Y015130D02*
X004930Y015130D01*
X004954Y015106D02*
X005082Y015053D01*
X005202Y015053D01*
X007316Y012939D01*
X007316Y011933D01*
X007231Y011848D01*
X007178Y011720D01*
X007178Y011582D01*
X007231Y011454D01*
X007329Y011356D01*
X007457Y011303D01*
X007595Y011303D01*
X007723Y011356D01*
X007821Y011454D01*
X007874Y011582D01*
X007874Y011720D01*
X007821Y011848D01*
X007736Y011933D01*
X007736Y013113D01*
X007613Y013236D01*
X005499Y015350D01*
X005499Y015470D01*
X005446Y015598D01*
X005348Y015696D01*
X005220Y015749D01*
X005082Y015749D01*
X004954Y015696D01*
X004856Y015598D01*
X004803Y015470D01*
X004803Y015332D01*
X004856Y015204D01*
X004954Y015106D01*
X004846Y015228D02*
X002197Y015228D01*
X002208Y015327D02*
X004805Y015327D01*
X004803Y015425D02*
X002202Y015425D01*
X002161Y015524D02*
X004825Y015524D01*
X004880Y015622D02*
X002079Y015622D01*
X002069Y015820D02*
X005686Y015820D01*
X005784Y015721D02*
X005289Y015721D01*
X005422Y015622D02*
X005883Y015622D01*
X005981Y015524D02*
X005477Y015524D01*
X005499Y015425D02*
X006080Y015425D01*
X006179Y015327D02*
X005522Y015327D01*
X005621Y015228D02*
X006277Y015228D01*
X006376Y015130D02*
X005720Y015130D01*
X005818Y015031D02*
X006474Y015031D01*
X006573Y014933D02*
X005917Y014933D01*
X006015Y014834D02*
X006671Y014834D01*
X006770Y014736D02*
X006114Y014736D01*
X006212Y014637D02*
X006868Y014637D01*
X006967Y014539D02*
X006311Y014539D01*
X006409Y014440D02*
X007065Y014440D01*
X007164Y014341D02*
X006508Y014341D01*
X006606Y014243D02*
X007262Y014243D01*
X007361Y014144D02*
X006705Y014144D01*
X006804Y014046D02*
X007460Y014046D01*
X007558Y013947D02*
X006902Y013947D01*
X007001Y013849D02*
X007657Y013849D01*
X007755Y013750D02*
X007099Y013750D01*
X007198Y013652D02*
X007854Y013652D01*
X007952Y013553D02*
X007296Y013553D01*
X007395Y013455D02*
X008051Y013455D01*
X008149Y013356D02*
X007493Y013356D01*
X007592Y013257D02*
X008248Y013257D01*
X008346Y013159D02*
X007690Y013159D01*
X007736Y013060D02*
X008441Y013060D01*
X008441Y012962D02*
X007736Y012962D01*
X007736Y012863D02*
X008441Y012863D01*
X008441Y012765D02*
X007736Y012765D01*
X007736Y012666D02*
X008441Y012666D01*
X008441Y012568D02*
X007736Y012568D01*
X007736Y012469D02*
X008441Y012469D01*
X008441Y012371D02*
X007736Y012371D01*
X007736Y012272D02*
X008441Y012272D01*
X008441Y012173D02*
X007736Y012173D01*
X007736Y012075D02*
X008441Y012075D01*
X008441Y011976D02*
X007736Y011976D01*
X007792Y011878D02*
X008441Y011878D01*
X008441Y011779D02*
X007850Y011779D01*
X007874Y011681D02*
X008441Y011681D01*
X008441Y011582D02*
X007874Y011582D01*
X007834Y011484D02*
X008441Y011484D01*
X008441Y011385D02*
X007752Y011385D01*
X007300Y011385D02*
X003611Y011385D01*
X003611Y011287D02*
X008441Y011287D01*
X008441Y011188D02*
X003611Y011188D01*
X003611Y011089D02*
X008441Y011089D01*
X008441Y010991D02*
X004095Y010991D01*
X004080Y011006D02*
X003611Y011006D01*
X003611Y012064D01*
X003738Y012191D01*
X004814Y012191D01*
X004988Y012191D01*
X005738Y012941D01*
X005869Y012941D01*
X005954Y012856D01*
X006082Y012803D01*
X006220Y012803D01*
X006348Y012856D01*
X006446Y012954D01*
X006499Y013082D01*
X006499Y013220D01*
X006446Y013348D01*
X006348Y013446D01*
X006220Y013499D01*
X006082Y013499D01*
X005954Y013446D01*
X005869Y013361D01*
X005564Y013361D01*
X005441Y013238D01*
X004814Y012611D01*
X003564Y012611D01*
X003441Y012488D01*
X003314Y012361D01*
X003191Y012238D01*
X003191Y011006D01*
X002722Y011006D01*
X002646Y010930D01*
X002646Y009572D01*
X002722Y009496D01*
X004080Y009496D01*
X004156Y009572D01*
X004156Y010930D01*
X004080Y011006D01*
X004156Y010892D02*
X008441Y010892D01*
X008441Y010794D02*
X004156Y010794D01*
X004156Y010695D02*
X008441Y010695D01*
X008441Y010597D02*
X004156Y010597D01*
X004156Y010498D02*
X008441Y010498D01*
X008441Y010400D02*
X004156Y010400D01*
X004156Y010301D02*
X008441Y010301D01*
X008441Y010203D02*
X004156Y010203D01*
X004156Y010104D02*
X008441Y010104D01*
X008441Y010006D02*
X004156Y010006D01*
X004156Y009907D02*
X008441Y009907D01*
X008441Y009808D02*
X004156Y009808D01*
X004156Y009710D02*
X008441Y009710D01*
X008441Y009611D02*
X004156Y009611D01*
X004097Y009513D02*
X008441Y009513D01*
X008441Y009414D02*
X000801Y009414D01*
X000801Y009316D02*
X008441Y009316D01*
X008441Y009217D02*
X000801Y009217D01*
X000801Y009119D02*
X008441Y009119D01*
X008441Y009020D02*
X000801Y009020D01*
X000801Y008922D02*
X008441Y008922D01*
X008441Y008823D02*
X000801Y008823D01*
X000801Y008724D02*
X008441Y008724D01*
X008441Y008626D02*
X000801Y008626D01*
X000801Y008527D02*
X008441Y008527D01*
X008441Y008429D02*
X000801Y008429D01*
X000801Y008330D02*
X008441Y008330D01*
X008441Y008232D02*
X000801Y008232D01*
X000801Y008133D02*
X008441Y008133D01*
X008441Y008035D02*
X004290Y008035D01*
X004301Y008023D02*
X004273Y008051D01*
X004239Y008071D01*
X004201Y008081D01*
X003451Y008081D01*
X003451Y007201D01*
X003351Y007201D01*
X003351Y007101D01*
X003451Y007101D01*
X003451Y006221D01*
X004201Y006221D01*
X004239Y006231D01*
X004273Y006251D01*
X004301Y006279D01*
X004321Y006313D01*
X004331Y006351D01*
X004331Y007101D01*
X003451Y007101D01*
X003451Y007201D01*
X004331Y007201D01*
X004331Y007951D01*
X004321Y007989D01*
X004301Y008023D01*
X004331Y007936D02*
X008441Y007936D01*
X008441Y007838D02*
X004331Y007838D01*
X004331Y007739D02*
X008057Y007739D01*
X007898Y007640D02*
X004331Y007640D01*
X004331Y007542D02*
X006870Y007542D01*
X006771Y007443D02*
X004331Y007443D01*
X004331Y007345D02*
X006673Y007345D01*
X006574Y007246D02*
X004331Y007246D01*
X004331Y007049D02*
X006566Y007049D01*
X006566Y006951D02*
X004331Y006951D01*
X004331Y006852D02*
X006566Y006852D01*
X006566Y006754D02*
X004331Y006754D01*
X004331Y006655D02*
X006566Y006655D01*
X006574Y006556D02*
X004331Y006556D01*
X004331Y006458D02*
X006672Y006458D01*
X006756Y006359D02*
X006771Y006359D01*
X006546Y006359D02*
X004331Y006359D01*
X004283Y006261D02*
X006394Y006261D01*
X006331Y006162D02*
X000801Y006162D01*
X000801Y006064D02*
X006303Y006064D01*
X006303Y005965D02*
X000801Y005965D01*
X000801Y005867D02*
X006340Y005867D01*
X006417Y005768D02*
X000801Y005768D01*
X000801Y005670D02*
X006441Y005670D01*
X006441Y005571D02*
X000801Y005571D01*
X000801Y005473D02*
X006441Y005473D01*
X006441Y005374D02*
X000801Y005374D01*
X000801Y005275D02*
X006441Y005275D01*
X006441Y005177D02*
X000801Y005177D01*
X000801Y005078D02*
X006441Y005078D01*
X006441Y004980D02*
X000801Y004980D01*
X000801Y004881D02*
X006441Y004881D01*
X006441Y004783D02*
X004103Y004783D01*
X004156Y004684D02*
X006441Y004684D01*
X006441Y004586D02*
X004156Y004586D01*
X004156Y004487D02*
X006441Y004487D01*
X006441Y004389D02*
X004156Y004389D01*
X004156Y004290D02*
X006441Y004290D01*
X006441Y004191D02*
X004156Y004191D01*
X004156Y004093D02*
X006441Y004093D01*
X006511Y003994D02*
X004482Y003994D01*
X004320Y003994D02*
X004156Y003994D01*
X004156Y003403D02*
X004157Y003403D01*
X004649Y003896D02*
X006610Y003896D01*
X006708Y003797D02*
X005802Y003797D01*
X005901Y003699D02*
X006803Y003699D01*
X006803Y003600D02*
X005999Y003600D01*
X006098Y003502D02*
X006836Y003502D01*
X006907Y003403D02*
X006196Y003403D01*
X006295Y003305D02*
X007078Y003305D01*
X007187Y003206D02*
X006393Y003206D01*
X006492Y003107D02*
X007089Y003107D01*
X006990Y003009D02*
X006930Y003009D01*
X007224Y003305D02*
X007286Y003305D01*
X007701Y002615D02*
X008201Y002615D01*
X008201Y002713D02*
X008121Y002713D01*
X008121Y002812D02*
X008201Y002812D01*
X008274Y002910D02*
X008057Y002910D01*
X007958Y003009D02*
X008373Y003009D01*
X008441Y003107D02*
X008001Y003107D01*
X008100Y003206D02*
X008441Y003206D01*
X008441Y003305D02*
X008198Y003305D01*
X008297Y003403D02*
X008441Y003403D01*
X008441Y003502D02*
X008341Y003502D01*
X008341Y003600D02*
X008441Y003600D01*
X008441Y003699D02*
X008341Y003699D01*
X008341Y003797D02*
X008441Y003797D01*
X008441Y003896D02*
X008341Y003896D01*
X008341Y003994D02*
X008441Y003994D01*
X008441Y004093D02*
X008341Y004093D01*
X008341Y004191D02*
X008441Y004191D01*
X008441Y004290D02*
X008341Y004290D01*
X008436Y004389D02*
X008441Y004389D01*
X008861Y004389D02*
X008941Y004389D01*
X008941Y004487D02*
X008861Y004487D01*
X008861Y004586D02*
X008941Y004586D01*
X008941Y004684D02*
X008861Y004684D01*
X008861Y004783D02*
X008941Y004783D01*
X008941Y004881D02*
X008861Y004881D01*
X008861Y004980D02*
X008941Y004980D01*
X008941Y005078D02*
X008861Y005078D01*
X008861Y005177D02*
X008941Y005177D01*
X008941Y005275D02*
X008861Y005275D01*
X008861Y005374D02*
X008941Y005374D01*
X008941Y005473D02*
X008861Y005473D01*
X008861Y005571D02*
X008941Y005571D01*
X008941Y005670D02*
X008861Y005670D01*
X008861Y005768D02*
X008941Y005768D01*
X008941Y005867D02*
X008861Y005867D01*
X008861Y005965D02*
X008941Y005965D01*
X008941Y006064D02*
X008861Y006064D01*
X008861Y006162D02*
X008941Y006162D01*
X008941Y006261D02*
X008861Y006261D01*
X008861Y006359D02*
X008941Y006359D01*
X008941Y006458D02*
X008861Y006458D01*
X008861Y006556D02*
X008941Y006556D01*
X008941Y006655D02*
X008861Y006655D01*
X008861Y006754D02*
X008941Y006754D01*
X008941Y006852D02*
X008861Y006852D01*
X008861Y006951D02*
X008941Y006951D01*
X008941Y007049D02*
X008861Y007049D01*
X008861Y007148D02*
X008941Y007148D01*
X008941Y007246D02*
X008861Y007246D01*
X008861Y007345D02*
X008941Y007345D01*
X008941Y007443D02*
X008861Y007443D01*
X008861Y007542D02*
X008941Y007542D01*
X008941Y007640D02*
X008861Y007640D01*
X008861Y007739D02*
X008941Y007739D01*
X008941Y007838D02*
X008861Y007838D01*
X008861Y007936D02*
X008941Y007936D01*
X008941Y008035D02*
X008861Y008035D01*
X008861Y008133D02*
X008941Y008133D01*
X008941Y008232D02*
X008861Y008232D01*
X008861Y008330D02*
X008941Y008330D01*
X008941Y008429D02*
X008861Y008429D01*
X008861Y008527D02*
X008941Y008527D01*
X008941Y008626D02*
X008861Y008626D01*
X008861Y008724D02*
X008941Y008724D01*
X008941Y008823D02*
X008861Y008823D01*
X008861Y008922D02*
X008941Y008922D01*
X008941Y009020D02*
X008861Y009020D01*
X008861Y009119D02*
X008941Y009119D01*
X008941Y009217D02*
X008861Y009217D01*
X008861Y009316D02*
X008941Y009316D01*
X008941Y009414D02*
X008861Y009414D01*
X008861Y009513D02*
X008941Y009513D01*
X008941Y009611D02*
X008861Y009611D01*
X008861Y009710D02*
X008941Y009710D01*
X008941Y009808D02*
X008861Y009808D01*
X008861Y009907D02*
X008941Y009907D01*
X008941Y010006D02*
X008861Y010006D01*
X008861Y010104D02*
X008941Y010104D01*
X008941Y010203D02*
X008861Y010203D01*
X008861Y010301D02*
X008941Y010301D01*
X008941Y010400D02*
X008861Y010400D01*
X008861Y010498D02*
X008941Y010498D01*
X008941Y010597D02*
X008861Y010597D01*
X008861Y010695D02*
X008941Y010695D01*
X008941Y010794D02*
X008861Y010794D01*
X008861Y010892D02*
X008941Y010892D01*
X008941Y010991D02*
X008861Y010991D01*
X008861Y011089D02*
X008941Y011089D01*
X008941Y011188D02*
X008861Y011188D01*
X008861Y011287D02*
X008941Y011287D01*
X008941Y011385D02*
X008861Y011385D01*
X008861Y011484D02*
X008941Y011484D01*
X008941Y011582D02*
X008861Y011582D01*
X008861Y011681D02*
X008941Y011681D01*
X008941Y011779D02*
X008861Y011779D01*
X008861Y011878D02*
X008941Y011878D01*
X008941Y011976D02*
X008861Y011976D01*
X008861Y012075D02*
X008941Y012075D01*
X008941Y012173D02*
X008861Y012173D01*
X008861Y012272D02*
X008941Y012272D01*
X008941Y012371D02*
X008861Y012371D01*
X008861Y012469D02*
X008941Y012469D01*
X008941Y012568D02*
X008861Y012568D01*
X008861Y012666D02*
X008941Y012666D01*
X008941Y012765D02*
X008861Y012765D01*
X008861Y012863D02*
X008941Y012863D01*
X008941Y012962D02*
X008861Y012962D01*
X008861Y013060D02*
X008941Y013060D01*
X008941Y013159D02*
X008861Y013159D01*
X008842Y013257D02*
X008941Y013257D01*
X009361Y012469D02*
X010220Y012469D01*
X010140Y012371D02*
X009361Y012371D01*
X009361Y012272D02*
X010099Y012272D01*
X010094Y012173D02*
X009361Y012173D01*
X009361Y012075D02*
X010107Y012075D01*
X010148Y011976D02*
X009361Y011976D01*
X009361Y011878D02*
X010238Y011878D01*
X010396Y011779D02*
X009361Y011779D01*
X009361Y011681D02*
X010219Y011681D01*
X010140Y011582D02*
X009361Y011582D01*
X009361Y011484D02*
X010099Y011484D01*
X010094Y011385D02*
X009361Y011385D01*
X009361Y011287D02*
X010107Y011287D01*
X010148Y011188D02*
X009361Y011188D01*
X010568Y011779D02*
X011501Y011779D01*
X011501Y010892D02*
X010746Y010892D01*
X010825Y010794D02*
X011501Y010794D01*
X011501Y010695D02*
X010865Y010695D01*
X010870Y010597D02*
X011501Y010597D01*
X011501Y010498D02*
X010856Y010498D01*
X010815Y010400D02*
X011501Y010400D01*
X011501Y010301D02*
X010724Y010301D01*
X009516Y008133D02*
X009361Y008133D01*
X009361Y008035D02*
X009455Y008035D01*
X009428Y007936D02*
X009361Y007936D01*
X009361Y007838D02*
X009428Y007838D01*
X009467Y007739D02*
X009361Y007739D01*
X009361Y007640D02*
X009545Y007640D01*
X009566Y007542D02*
X009361Y007542D01*
X009361Y007443D02*
X009566Y007443D01*
X009566Y007345D02*
X009361Y007345D01*
X009361Y007246D02*
X009566Y007246D01*
X009566Y007148D02*
X009361Y007148D01*
X009361Y007049D02*
X009566Y007049D01*
X009566Y006951D02*
X009361Y006951D01*
X009361Y006852D02*
X009566Y006852D01*
X009566Y006754D02*
X009361Y006754D01*
X009361Y006655D02*
X009566Y006655D01*
X009566Y006556D02*
X009361Y006556D01*
X009361Y006458D02*
X009566Y006458D01*
X009566Y006359D02*
X009361Y006359D01*
X009361Y006261D02*
X009566Y006261D01*
X009566Y006162D02*
X009361Y006162D01*
X009361Y006064D02*
X009566Y006064D01*
X009566Y005965D02*
X009361Y005965D01*
X009361Y005867D02*
X009566Y005867D01*
X009566Y005768D02*
X009361Y005768D01*
X009361Y005670D02*
X009552Y005670D01*
X009470Y005571D02*
X009361Y005571D01*
X009361Y005473D02*
X009429Y005473D01*
X009428Y005374D02*
X009361Y005374D01*
X009361Y005275D02*
X009451Y005275D01*
X009508Y005177D02*
X009361Y005177D01*
X009361Y005078D02*
X009646Y005078D01*
X008941Y004290D02*
X008861Y004290D01*
X008861Y004191D02*
X008941Y004191D01*
X008941Y004093D02*
X008861Y004093D01*
X008861Y003994D02*
X008941Y003994D01*
X008941Y003896D02*
X008861Y003896D01*
X008861Y003797D02*
X008941Y003797D01*
X008941Y003699D02*
X008861Y003699D01*
X008861Y003600D02*
X008941Y003600D01*
X008941Y003502D02*
X008861Y003502D01*
X008861Y003403D02*
X008941Y003403D01*
X008941Y003305D02*
X008861Y003305D01*
X008861Y003206D02*
X008941Y003206D01*
X008941Y003107D02*
X008861Y003107D01*
X008930Y003009D02*
X008941Y003009D01*
X008924Y002221D02*
X008857Y002221D01*
X008825Y002122D02*
X007141Y002122D01*
X007239Y002221D02*
X007417Y002221D01*
X007456Y002121D02*
X007181Y001846D01*
X007181Y001701D01*
X007601Y001701D01*
X007601Y001601D01*
X007701Y001601D01*
X007701Y001181D01*
X007846Y001181D01*
X008121Y001456D01*
X008121Y001601D01*
X007701Y001601D01*
X007701Y001701D01*
X008121Y001701D01*
X008121Y001846D01*
X007846Y002121D01*
X007701Y002121D01*
X007701Y001701D01*
X007601Y001701D01*
X007601Y002121D01*
X007456Y002121D01*
X007359Y002024D02*
X007042Y002024D01*
X007014Y001925D02*
X007260Y001925D01*
X007181Y001826D02*
X007101Y001826D01*
X007101Y001728D02*
X007181Y001728D01*
X007181Y001601D02*
X007181Y001456D01*
X007456Y001181D01*
X007601Y001181D01*
X007601Y001601D01*
X007181Y001601D01*
X007181Y001531D02*
X007101Y001531D01*
X007101Y001629D02*
X007601Y001629D01*
X007601Y001531D02*
X007701Y001531D01*
X007701Y001629D02*
X008201Y001629D01*
X008201Y001531D02*
X008121Y001531D01*
X008097Y001432D02*
X008234Y001432D01*
X008332Y001334D02*
X007998Y001334D01*
X007900Y001235D02*
X008431Y001235D01*
X008201Y001728D02*
X008121Y001728D01*
X008121Y001826D02*
X008201Y001826D01*
X008289Y001925D02*
X008042Y001925D01*
X007943Y002024D02*
X008387Y002024D01*
X008445Y002221D02*
X007885Y002221D01*
X007984Y002319D02*
X008347Y002319D01*
X008248Y002418D02*
X008082Y002418D01*
X008121Y002516D02*
X008201Y002516D01*
X007701Y002516D02*
X007601Y002516D01*
X007601Y002418D02*
X007701Y002418D01*
X007701Y002319D02*
X007601Y002319D01*
X007601Y002221D02*
X007701Y002221D01*
X007701Y002024D02*
X007601Y002024D01*
X007601Y001925D02*
X007701Y001925D01*
X007701Y001826D02*
X007601Y001826D01*
X007601Y001728D02*
X007701Y001728D01*
X007701Y001432D02*
X007601Y001432D01*
X007601Y001334D02*
X007701Y001334D01*
X007701Y001235D02*
X007601Y001235D01*
X007403Y001235D02*
X006872Y001235D01*
X006970Y001334D02*
X007304Y001334D01*
X007205Y001432D02*
X007069Y001432D01*
X006431Y001235D02*
X005872Y001235D01*
X005970Y001334D02*
X006332Y001334D01*
X006234Y001432D02*
X006069Y001432D01*
X006101Y001531D02*
X006201Y001531D01*
X006201Y001629D02*
X006101Y001629D01*
X006101Y001728D02*
X006201Y001728D01*
X006201Y001826D02*
X006101Y001826D01*
X006014Y001925D02*
X006289Y001925D01*
X006248Y002418D02*
X006054Y002418D01*
X006101Y002516D02*
X006201Y002516D01*
X006201Y002615D02*
X006101Y002615D01*
X006101Y002713D02*
X006201Y002713D01*
X006194Y002812D02*
X006101Y002812D01*
X006095Y002910D02*
X006028Y002910D01*
X005996Y003009D02*
X005930Y003009D01*
X005898Y003107D02*
X004859Y003107D01*
X005194Y001925D02*
X005289Y001925D01*
X005201Y001826D02*
X005101Y001826D01*
X005101Y001728D02*
X005201Y001728D01*
X005201Y001629D02*
X005101Y001629D01*
X005101Y001531D02*
X005201Y001531D01*
X005234Y001432D02*
X005069Y001432D01*
X004970Y001334D02*
X005332Y001334D01*
X005431Y001235D02*
X004872Y001235D01*
X004431Y001235D02*
X003872Y001235D01*
X003970Y001334D02*
X004332Y001334D01*
X004234Y001432D02*
X004069Y001432D01*
X004101Y001531D02*
X004201Y001531D01*
X004201Y001629D02*
X004101Y001629D01*
X004101Y001728D02*
X004201Y001728D01*
X004201Y001826D02*
X004101Y001826D01*
X004014Y001925D02*
X004289Y001925D01*
X003701Y002221D02*
X003601Y002221D01*
X003601Y002181D02*
X003601Y002601D01*
X003181Y002601D01*
X003181Y002456D01*
X003456Y002181D01*
X003601Y002181D01*
X003601Y002319D02*
X003701Y002319D01*
X003701Y002418D02*
X003601Y002418D01*
X003601Y002516D02*
X003701Y002516D01*
X003601Y002615D02*
X003101Y002615D01*
X003101Y002713D02*
X003181Y002713D01*
X003181Y002812D02*
X003101Y002812D01*
X003028Y002910D02*
X003246Y002910D01*
X003344Y003009D02*
X002930Y003009D01*
X002714Y003305D02*
X000801Y003305D01*
X000801Y003403D02*
X002646Y003403D01*
X002646Y003502D02*
X000801Y003502D01*
X000801Y003600D02*
X002646Y003600D01*
X002646Y003699D02*
X000801Y003699D01*
X000801Y003797D02*
X002646Y003797D01*
X002646Y003896D02*
X000801Y003896D01*
X000801Y003994D02*
X002646Y003994D01*
X002646Y004093D02*
X000801Y004093D01*
X000801Y004191D02*
X002646Y004191D01*
X002646Y004290D02*
X000801Y004290D01*
X000801Y004389D02*
X002646Y004389D01*
X002646Y004487D02*
X000801Y004487D01*
X000801Y004586D02*
X002646Y004586D01*
X002646Y004684D02*
X000801Y004684D01*
X000801Y004783D02*
X002699Y004783D01*
X002601Y006221D02*
X002563Y006231D01*
X002529Y006251D01*
X002501Y006279D01*
X002481Y006313D01*
X002471Y006351D01*
X002471Y007101D01*
X003351Y007101D01*
X003351Y006221D01*
X002601Y006221D01*
X002519Y006261D02*
X000801Y006261D01*
X000801Y006359D02*
X002471Y006359D01*
X002471Y006458D02*
X000801Y006458D01*
X000801Y006556D02*
X002471Y006556D01*
X002471Y006655D02*
X000801Y006655D01*
X000801Y006754D02*
X002471Y006754D01*
X002471Y006852D02*
X000801Y006852D01*
X000801Y006951D02*
X002471Y006951D01*
X002471Y007049D02*
X000801Y007049D01*
X000801Y007148D02*
X003351Y007148D01*
X003351Y007201D02*
X002471Y007201D01*
X002471Y007951D01*
X002481Y007989D01*
X002501Y008023D01*
X002529Y008051D01*
X002563Y008071D01*
X002601Y008081D01*
X003351Y008081D01*
X003351Y007201D01*
X003351Y007246D02*
X003451Y007246D01*
X003451Y007148D02*
X006566Y007148D01*
X008245Y007739D02*
X008441Y007739D01*
X008441Y007640D02*
X008404Y007640D01*
X007219Y011484D02*
X003611Y011484D01*
X003611Y011582D02*
X007178Y011582D01*
X007178Y011681D02*
X003611Y011681D01*
X003611Y011779D02*
X007202Y011779D01*
X007261Y011878D02*
X003611Y011878D01*
X003611Y011976D02*
X007316Y011976D01*
X007316Y012075D02*
X003622Y012075D01*
X003720Y012173D02*
X007316Y012173D01*
X007316Y012272D02*
X005069Y012272D01*
X005168Y012371D02*
X007316Y012371D01*
X007316Y012469D02*
X005266Y012469D01*
X005365Y012568D02*
X007316Y012568D01*
X007316Y012666D02*
X005463Y012666D01*
X005562Y012765D02*
X007316Y012765D01*
X007316Y012863D02*
X006356Y012863D01*
X006449Y012962D02*
X007294Y012962D01*
X007195Y013060D02*
X006490Y013060D01*
X006499Y013159D02*
X007096Y013159D01*
X006998Y013257D02*
X006484Y013257D01*
X006439Y013356D02*
X006899Y013356D01*
X006801Y013455D02*
X006328Y013455D01*
X006505Y013750D02*
X002208Y013750D01*
X002208Y013680D02*
X002149Y013538D01*
X002040Y013429D01*
X001898Y013370D01*
X001743Y013370D01*
X001601Y013429D01*
X001492Y013538D01*
X001433Y013680D01*
X001433Y013835D01*
X001492Y013977D01*
X001601Y014086D01*
X001743Y014145D01*
X001898Y014145D01*
X002040Y014086D01*
X002149Y013977D01*
X002208Y013835D01*
X002208Y013680D01*
X002196Y013652D02*
X006604Y013652D01*
X006702Y013553D02*
X004883Y013553D01*
X004912Y013541D02*
X004743Y013611D01*
X004560Y013611D01*
X004391Y013541D01*
X004261Y013412D01*
X004191Y013243D01*
X004191Y013060D01*
X004111Y013060D01*
X004041Y012891D01*
X003912Y012761D01*
X003743Y012691D01*
X003560Y012691D01*
X003391Y012761D01*
X003261Y012891D01*
X003191Y013060D01*
X002203Y013060D01*
X002208Y013047D02*
X002149Y013190D01*
X002040Y013299D01*
X001898Y013358D01*
X001743Y013358D01*
X001601Y013299D01*
X001492Y013190D01*
X001433Y013047D01*
X001433Y012893D01*
X001492Y012750D01*
X001601Y012641D01*
X001743Y012582D01*
X001898Y012582D01*
X002040Y012641D01*
X002149Y012750D01*
X002208Y012893D01*
X002208Y013047D01*
X002208Y012962D02*
X003232Y012962D01*
X003191Y013060D02*
X003191Y013243D01*
X003261Y013412D01*
X003391Y013541D01*
X003560Y013611D01*
X003743Y013611D01*
X003912Y013541D01*
X004041Y013412D01*
X004111Y013243D01*
X004111Y013060D01*
X004191Y013060D02*
X004261Y012891D01*
X004391Y012761D01*
X004560Y012691D01*
X004743Y012691D01*
X004912Y012761D01*
X005041Y012891D01*
X005111Y013060D01*
X005263Y013060D01*
X005165Y012962D02*
X005071Y012962D01*
X005066Y012863D02*
X005014Y012863D01*
X004968Y012765D02*
X004915Y012765D01*
X004869Y012666D02*
X002065Y012666D01*
X002155Y012765D02*
X003387Y012765D01*
X003289Y012863D02*
X002196Y012863D01*
X002162Y013159D02*
X003191Y013159D01*
X003197Y013257D02*
X002081Y013257D01*
X002066Y013455D02*
X003304Y013455D01*
X003238Y013356D02*
X001902Y013356D01*
X001739Y013356D02*
X000801Y013356D01*
X000801Y013455D02*
X001575Y013455D01*
X001485Y013553D02*
X000801Y013553D01*
X000801Y013652D02*
X001445Y013652D01*
X001433Y013750D02*
X000801Y013750D01*
X000801Y013849D02*
X001439Y013849D01*
X001479Y013947D02*
X000801Y013947D01*
X000801Y014046D02*
X001560Y014046D01*
X001601Y014216D02*
X001743Y014157D01*
X001898Y014157D01*
X002040Y014216D01*
X002149Y014325D01*
X002208Y014468D01*
X002208Y014622D01*
X002149Y014765D01*
X002040Y014874D01*
X001898Y014933D01*
X001743Y014933D01*
X001601Y014874D01*
X001492Y014765D01*
X001433Y014622D01*
X001433Y014468D01*
X001492Y014325D01*
X001601Y014216D01*
X001574Y014243D02*
X000801Y014243D01*
X000801Y014341D02*
X001485Y014341D01*
X001444Y014440D02*
X000801Y014440D01*
X000801Y014539D02*
X001433Y014539D01*
X001439Y014637D02*
X000801Y014637D01*
X000801Y014736D02*
X001480Y014736D01*
X001561Y014834D02*
X000801Y014834D01*
X000801Y014144D02*
X001741Y014144D01*
X001900Y014144D02*
X006111Y014144D01*
X006210Y014046D02*
X002081Y014046D01*
X002162Y013947D02*
X006308Y013947D01*
X006407Y013849D02*
X002202Y013849D01*
X002067Y014243D02*
X006012Y014243D01*
X005914Y014341D02*
X002156Y014341D01*
X002197Y014440D02*
X005815Y014440D01*
X005717Y014539D02*
X002208Y014539D01*
X002202Y014637D02*
X005618Y014637D01*
X005520Y014736D02*
X002161Y014736D01*
X002080Y014834D02*
X005421Y014834D01*
X005014Y015721D02*
X000801Y015721D01*
X000801Y016608D02*
X001571Y016608D01*
X001484Y016706D02*
X000801Y016706D01*
X000801Y016805D02*
X001443Y016805D01*
X001433Y016904D02*
X000801Y016904D01*
X000801Y017002D02*
X001440Y017002D01*
X001481Y017101D02*
X000801Y017101D01*
X000801Y017199D02*
X001564Y017199D01*
X001601Y017366D02*
X001743Y017307D01*
X001898Y017307D01*
X002040Y017366D01*
X002149Y017475D01*
X002153Y017484D01*
X003619Y017484D01*
X003704Y017399D01*
X003832Y017346D01*
X003970Y017346D01*
X004098Y017399D01*
X004196Y017497D01*
X004249Y017625D01*
X004249Y017764D01*
X004196Y017892D01*
X004098Y017990D01*
X003970Y018043D01*
X003832Y018043D01*
X003704Y017990D01*
X003619Y017904D01*
X002153Y017904D01*
X002149Y017914D01*
X002040Y018023D01*
X001898Y018082D01*
X001743Y018082D01*
X001601Y018023D01*
X001492Y017914D01*
X001433Y017772D01*
X001433Y017617D01*
X001492Y017475D01*
X001601Y017366D01*
X001570Y017396D02*
X000801Y017396D01*
X000801Y017298D02*
X011501Y017298D01*
X011501Y017396D02*
X010732Y017396D01*
X010702Y017366D02*
X010811Y017475D01*
X010870Y017617D01*
X010870Y017772D01*
X010811Y017914D01*
X010702Y018023D01*
X010559Y018082D01*
X010405Y018082D01*
X010262Y018023D01*
X010153Y017914D01*
X010094Y017772D01*
X010094Y017617D01*
X010153Y017475D01*
X010262Y017366D01*
X010405Y017307D01*
X010559Y017307D01*
X010702Y017366D01*
X010702Y017236D02*
X010559Y017295D01*
X010405Y017295D01*
X010262Y017236D01*
X010153Y017127D01*
X010094Y016984D01*
X010094Y016830D01*
X010153Y016687D01*
X010262Y016578D01*
X010405Y016519D01*
X010559Y016519D01*
X010702Y016578D01*
X010811Y016687D01*
X010870Y016830D01*
X010870Y016984D01*
X010811Y017127D01*
X010702Y017236D01*
X010738Y017199D02*
X011501Y017199D01*
X011501Y017101D02*
X010821Y017101D01*
X010862Y017002D02*
X011501Y017002D01*
X011501Y016904D02*
X010870Y016904D01*
X010859Y016805D02*
X011501Y016805D01*
X011501Y016706D02*
X010819Y016706D01*
X010731Y016608D02*
X011501Y016608D01*
X011501Y016509D02*
X006590Y016509D01*
X006688Y016411D02*
X010225Y016411D01*
X010262Y016448D02*
X010153Y016339D01*
X010094Y016197D01*
X010094Y016043D01*
X010153Y015900D01*
X010262Y015791D01*
X010405Y015732D01*
X010559Y015732D01*
X010702Y015791D01*
X010811Y015900D01*
X010870Y016043D01*
X010870Y016197D01*
X010811Y016339D01*
X010702Y016448D01*
X010559Y016507D01*
X010405Y016507D01*
X010262Y016448D01*
X010233Y016608D02*
X006491Y016608D01*
X006393Y016706D02*
X010145Y016706D01*
X010104Y016805D02*
X006294Y016805D01*
X006196Y016904D02*
X010094Y016904D01*
X010101Y017002D02*
X006097Y017002D01*
X005999Y017101D02*
X010142Y017101D01*
X010226Y017199D02*
X002077Y017199D01*
X002071Y017396D02*
X003711Y017396D01*
X003702Y017988D02*
X002076Y017988D01*
X001565Y017988D02*
X000801Y017988D01*
X000801Y018086D02*
X011501Y018086D01*
X011501Y017988D02*
X010737Y017988D01*
X010821Y017889D02*
X011501Y017889D01*
X011501Y017790D02*
X010862Y017790D01*
X010870Y017692D02*
X011501Y017692D01*
X011501Y017593D02*
X010860Y017593D01*
X010819Y017495D02*
X011501Y017495D01*
X011501Y018185D02*
X000801Y018185D01*
X000801Y018283D02*
X011501Y018283D01*
X011501Y018382D02*
X000801Y018382D01*
X000801Y018480D02*
X011501Y018480D01*
X011501Y018579D02*
X000801Y018579D01*
X000801Y018677D02*
X011501Y018677D01*
X011501Y018776D02*
X000801Y018776D01*
X000801Y018874D02*
X011501Y018874D01*
X011501Y018973D02*
X000801Y018973D01*
X000801Y019071D02*
X011501Y019071D01*
X011501Y019170D02*
X000801Y019170D01*
X000801Y019269D02*
X011501Y019269D01*
X011501Y019367D02*
X000801Y019367D01*
X000801Y019466D02*
X011501Y019466D01*
X011501Y019564D02*
X000801Y019564D01*
X000801Y019663D02*
X011501Y019663D01*
X011501Y019761D02*
X000801Y019761D01*
X000801Y019860D02*
X011501Y019860D01*
X011501Y019958D02*
X000801Y019958D01*
X000801Y020057D02*
X011501Y020057D01*
X011501Y020155D02*
X000801Y020155D01*
X000801Y020254D02*
X011501Y020254D01*
X011501Y020353D02*
X000801Y020353D01*
X000801Y020451D02*
X011501Y020451D01*
X011501Y020550D02*
X000801Y020550D01*
X000801Y020648D02*
X011501Y020648D01*
X011501Y020747D02*
X000801Y020747D01*
X000801Y020845D02*
X011501Y020845D01*
X011501Y020944D02*
X009428Y020944D01*
X009346Y020861D02*
X009621Y021136D01*
X009621Y021281D01*
X009201Y021281D01*
X009201Y020861D01*
X009346Y020861D01*
X009201Y020944D02*
X009101Y020944D01*
X009101Y020861D02*
X009101Y021281D01*
X009201Y021281D01*
X009201Y021381D01*
X009621Y021381D01*
X009621Y021526D01*
X009346Y021801D01*
X009201Y021801D01*
X009201Y021381D01*
X009101Y021381D01*
X009101Y021281D01*
X008681Y021281D01*
X008681Y021136D01*
X008956Y020861D01*
X009101Y020861D01*
X009101Y021042D02*
X009201Y021042D01*
X009201Y021141D02*
X009101Y021141D01*
X009101Y021239D02*
X009201Y021239D01*
X009201Y021338D02*
X011501Y021338D01*
X011501Y021239D02*
X009621Y021239D01*
X009621Y021141D02*
X011501Y021141D01*
X011501Y021042D02*
X009527Y021042D01*
X009621Y021437D02*
X011501Y021437D01*
X011501Y021535D02*
X009612Y021535D01*
X009513Y021634D02*
X011501Y021634D01*
X011496Y021732D02*
X009415Y021732D01*
X009338Y021881D02*
X009601Y022145D01*
X009601Y022518D01*
X009338Y022781D01*
X008965Y022781D01*
X008701Y022518D01*
X008701Y022145D01*
X008965Y021881D01*
X009338Y021881D01*
X009386Y021929D02*
X011462Y021929D01*
X011489Y021831D02*
X000814Y021831D01*
X000806Y021732D02*
X002888Y021732D01*
X002956Y021801D02*
X002681Y021526D01*
X002681Y021381D01*
X003101Y021381D01*
X003101Y021281D01*
X003201Y021281D01*
X003201Y020861D01*
X003346Y020861D01*
X003621Y021136D01*
X003621Y021281D01*
X003201Y021281D01*
X003201Y021381D01*
X003621Y021381D01*
X003621Y021526D01*
X003346Y021801D01*
X003201Y021801D01*
X003201Y021381D01*
X003101Y021381D01*
X003101Y021801D01*
X002956Y021801D01*
X002956Y021861D02*
X003101Y021861D01*
X003101Y022281D01*
X003201Y022281D01*
X003201Y021861D01*
X003346Y021861D01*
X003621Y022136D01*
X003621Y022281D01*
X003201Y022281D01*
X003201Y022381D01*
X003621Y022381D01*
X003621Y022526D01*
X003346Y022801D01*
X003201Y022801D01*
X003201Y022381D01*
X003101Y022381D01*
X003101Y022281D01*
X002681Y022281D01*
X002681Y022136D01*
X002956Y021861D01*
X002888Y021929D02*
X000840Y021929D01*
X000866Y022028D02*
X002790Y022028D01*
X002691Y022126D02*
X000893Y022126D01*
X000937Y022225D02*
X002681Y022225D01*
X002681Y022381D02*
X003101Y022381D01*
X003101Y022801D01*
X002956Y022801D01*
X002681Y022526D01*
X002681Y022381D01*
X002681Y022422D02*
X001051Y022422D01*
X000994Y022323D02*
X003101Y022323D01*
X003101Y022225D02*
X003201Y022225D01*
X003201Y022323D02*
X003701Y022323D01*
X003701Y022225D02*
X003621Y022225D01*
X003611Y022126D02*
X003720Y022126D01*
X003701Y022145D02*
X003965Y021881D01*
X004338Y021881D01*
X004601Y022145D01*
X004601Y022518D01*
X004338Y022781D01*
X003965Y022781D01*
X003701Y022518D01*
X003701Y022145D01*
X003818Y022028D02*
X003512Y022028D01*
X003414Y021929D02*
X003917Y021929D01*
X003965Y021781D02*
X003701Y021518D01*
X003701Y021145D01*
X003965Y020881D01*
X004338Y020881D01*
X004601Y021145D01*
X004601Y021518D01*
X004338Y021781D01*
X003965Y021781D01*
X003916Y021732D02*
X003415Y021732D01*
X003513Y021634D02*
X003817Y021634D01*
X003719Y021535D02*
X003612Y021535D01*
X003621Y021437D02*
X003701Y021437D01*
X003701Y021338D02*
X003201Y021338D01*
X003201Y021239D02*
X003101Y021239D01*
X003101Y021281D02*
X003101Y020861D01*
X002956Y020861D01*
X002681Y021136D01*
X002681Y021281D01*
X003101Y021281D01*
X003101Y021338D02*
X000801Y021338D01*
X000801Y021239D02*
X002681Y021239D01*
X002681Y021141D02*
X000801Y021141D01*
X000801Y021042D02*
X002775Y021042D01*
X002874Y020944D02*
X000801Y020944D01*
X000801Y021437D02*
X002681Y021437D01*
X002690Y021535D02*
X000801Y021535D01*
X000801Y021634D02*
X002789Y021634D01*
X003101Y021634D02*
X003201Y021634D01*
X003201Y021732D02*
X003101Y021732D01*
X003101Y021535D02*
X003201Y021535D01*
X003201Y021437D02*
X003101Y021437D01*
X003101Y021141D02*
X003201Y021141D01*
X003201Y021042D02*
X003101Y021042D01*
X003101Y020944D02*
X003201Y020944D01*
X003428Y020944D02*
X003902Y020944D01*
X003804Y021042D02*
X003527Y021042D01*
X003621Y021141D02*
X003705Y021141D01*
X003701Y021239D02*
X003621Y021239D01*
X003201Y021929D02*
X003101Y021929D01*
X003101Y022028D02*
X003201Y022028D01*
X003201Y022126D02*
X003101Y022126D01*
X003101Y022422D02*
X003201Y022422D01*
X003201Y022521D02*
X003101Y022521D01*
X003101Y022619D02*
X003201Y022619D01*
X003201Y022718D02*
X003101Y022718D01*
X002873Y022718D02*
X001325Y022718D01*
X001226Y022619D02*
X002774Y022619D01*
X002681Y022521D02*
X001128Y022521D01*
X001492Y022816D02*
X010810Y022816D01*
X010607Y022915D02*
X001695Y022915D01*
X003429Y022718D02*
X003901Y022718D01*
X003803Y022619D02*
X003528Y022619D01*
X003621Y022521D02*
X003704Y022521D01*
X003701Y022422D02*
X003621Y022422D01*
X004401Y022718D02*
X004901Y022718D01*
X004965Y022781D02*
X004701Y022518D01*
X004701Y022145D01*
X004965Y021881D01*
X005338Y021881D01*
X005601Y022145D01*
X005601Y022518D01*
X005338Y022781D01*
X004965Y022781D01*
X004803Y022619D02*
X004500Y022619D01*
X004598Y022521D02*
X004704Y022521D01*
X004701Y022422D02*
X004601Y022422D01*
X004601Y022323D02*
X004701Y022323D01*
X004701Y022225D02*
X004601Y022225D01*
X004583Y022126D02*
X004720Y022126D01*
X004818Y022028D02*
X004484Y022028D01*
X004386Y021929D02*
X004917Y021929D01*
X004956Y021801D02*
X004681Y021526D01*
X004681Y021381D01*
X005101Y021381D01*
X005101Y021281D01*
X005201Y021281D01*
X005201Y020861D01*
X005346Y020861D01*
X005621Y021136D01*
X005621Y021281D01*
X005201Y021281D01*
X005201Y021381D01*
X005621Y021381D01*
X005621Y021526D01*
X005346Y021801D01*
X005201Y021801D01*
X005201Y021381D01*
X005101Y021381D01*
X005101Y021801D01*
X004956Y021801D01*
X004888Y021732D02*
X004387Y021732D01*
X004485Y021634D02*
X004789Y021634D01*
X004690Y021535D02*
X004584Y021535D01*
X004601Y021437D02*
X004681Y021437D01*
X004601Y021338D02*
X005101Y021338D01*
X005101Y021281D02*
X004681Y021281D01*
X004681Y021136D01*
X004956Y020861D01*
X005101Y020861D01*
X005101Y021281D01*
X005101Y021239D02*
X005201Y021239D01*
X005201Y021141D02*
X005101Y021141D01*
X005101Y021042D02*
X005201Y021042D01*
X005201Y020944D02*
X005101Y020944D01*
X004874Y020944D02*
X004400Y020944D01*
X004499Y021042D02*
X004775Y021042D01*
X004681Y021141D02*
X004597Y021141D01*
X004601Y021239D02*
X004681Y021239D01*
X005101Y021437D02*
X005201Y021437D01*
X005201Y021535D02*
X005101Y021535D01*
X005101Y021634D02*
X005201Y021634D01*
X005201Y021732D02*
X005101Y021732D01*
X005415Y021732D02*
X005888Y021732D01*
X005956Y021801D02*
X005681Y021526D01*
X005681Y021381D01*
X006101Y021381D01*
X006101Y021281D01*
X006201Y021281D01*
X006201Y020861D01*
X006346Y020861D01*
X006621Y021136D01*
X006621Y021281D01*
X006201Y021281D01*
X006201Y021381D01*
X006621Y021381D01*
X006621Y021526D01*
X006346Y021801D01*
X006201Y021801D01*
X006201Y021381D01*
X006101Y021381D01*
X006101Y021801D01*
X005956Y021801D01*
X005965Y021881D02*
X006338Y021881D01*
X006601Y022145D01*
X006601Y022518D01*
X006338Y022781D01*
X005965Y022781D01*
X005701Y022518D01*
X005701Y022145D01*
X005965Y021881D01*
X005917Y021929D02*
X005386Y021929D01*
X005484Y022028D02*
X005818Y022028D01*
X005720Y022126D02*
X005583Y022126D01*
X005601Y022225D02*
X005701Y022225D01*
X005701Y022323D02*
X005601Y022323D01*
X005601Y022422D02*
X005701Y022422D01*
X005704Y022521D02*
X005598Y022521D01*
X005500Y022619D02*
X005803Y022619D01*
X005901Y022718D02*
X005401Y022718D01*
X005513Y021634D02*
X005789Y021634D01*
X005690Y021535D02*
X005612Y021535D01*
X005621Y021437D02*
X005681Y021437D01*
X005681Y021281D02*
X005681Y021136D01*
X005956Y020861D01*
X006101Y020861D01*
X006101Y021281D01*
X005681Y021281D01*
X005681Y021239D02*
X005621Y021239D01*
X005621Y021141D02*
X005681Y021141D01*
X005775Y021042D02*
X005527Y021042D01*
X005428Y020944D02*
X005874Y020944D01*
X006101Y020944D02*
X006201Y020944D01*
X006201Y021042D02*
X006101Y021042D01*
X006101Y021141D02*
X006201Y021141D01*
X006201Y021239D02*
X006101Y021239D01*
X006101Y021338D02*
X005201Y021338D01*
X006101Y021437D02*
X006201Y021437D01*
X006201Y021535D02*
X006101Y021535D01*
X006101Y021634D02*
X006201Y021634D01*
X006201Y021732D02*
X006101Y021732D01*
X006415Y021732D02*
X006888Y021732D01*
X006956Y021801D02*
X006681Y021526D01*
X006681Y021381D01*
X007101Y021381D01*
X007101Y021281D01*
X007201Y021281D01*
X007201Y020861D01*
X007346Y020861D01*
X007621Y021136D01*
X007621Y021281D01*
X007201Y021281D01*
X007201Y021381D01*
X007621Y021381D01*
X007621Y021526D01*
X007346Y021801D01*
X007201Y021801D01*
X007201Y021381D01*
X007101Y021381D01*
X007101Y021801D01*
X006956Y021801D01*
X006965Y021881D02*
X007338Y021881D01*
X007601Y022145D01*
X007601Y022518D01*
X007338Y022781D01*
X006965Y022781D01*
X006701Y022518D01*
X006701Y022145D01*
X006965Y021881D01*
X006917Y021929D02*
X006386Y021929D01*
X006484Y022028D02*
X006818Y022028D01*
X006720Y022126D02*
X006583Y022126D01*
X006601Y022225D02*
X006701Y022225D01*
X006701Y022323D02*
X006601Y022323D01*
X006601Y022422D02*
X006701Y022422D01*
X006704Y022521D02*
X006598Y022521D01*
X006500Y022619D02*
X006803Y022619D01*
X006901Y022718D02*
X006401Y022718D01*
X006513Y021634D02*
X006789Y021634D01*
X006690Y021535D02*
X006612Y021535D01*
X006621Y021437D02*
X006681Y021437D01*
X006681Y021281D02*
X006681Y021136D01*
X006956Y020861D01*
X007101Y020861D01*
X007101Y021281D01*
X006681Y021281D01*
X006681Y021239D02*
X006621Y021239D01*
X006621Y021141D02*
X006681Y021141D01*
X006775Y021042D02*
X006527Y021042D01*
X006428Y020944D02*
X006874Y020944D01*
X007101Y020944D02*
X007201Y020944D01*
X007201Y021042D02*
X007101Y021042D01*
X007101Y021141D02*
X007201Y021141D01*
X007201Y021239D02*
X007101Y021239D01*
X007101Y021338D02*
X006201Y021338D01*
X007101Y021437D02*
X007201Y021437D01*
X007201Y021535D02*
X007101Y021535D01*
X007101Y021634D02*
X007201Y021634D01*
X007201Y021732D02*
X007101Y021732D01*
X007415Y021732D02*
X007888Y021732D01*
X007956Y021801D02*
X007681Y021526D01*
X007681Y021381D01*
X008101Y021381D01*
X008101Y021281D01*
X008201Y021281D01*
X008201Y020861D01*
X008346Y020861D01*
X008621Y021136D01*
X008621Y021281D01*
X008201Y021281D01*
X008201Y021381D01*
X008621Y021381D01*
X008621Y021526D01*
X008346Y021801D01*
X008201Y021801D01*
X008201Y021381D01*
X008101Y021381D01*
X008101Y021801D01*
X007956Y021801D01*
X007965Y021881D02*
X008338Y021881D01*
X008601Y022145D01*
X008601Y022518D01*
X008338Y022781D01*
X007965Y022781D01*
X007701Y022518D01*
X007701Y022145D01*
X007965Y021881D01*
X007917Y021929D02*
X007386Y021929D01*
X007484Y022028D02*
X007818Y022028D01*
X007720Y022126D02*
X007583Y022126D01*
X007601Y022225D02*
X007701Y022225D01*
X007701Y022323D02*
X007601Y022323D01*
X007601Y022422D02*
X007701Y022422D01*
X007704Y022521D02*
X007598Y022521D01*
X007500Y022619D02*
X007803Y022619D01*
X007901Y022718D02*
X007401Y022718D01*
X007513Y021634D02*
X007789Y021634D01*
X007690Y021535D02*
X007612Y021535D01*
X007621Y021437D02*
X007681Y021437D01*
X007681Y021281D02*
X007681Y021136D01*
X007956Y020861D01*
X008101Y020861D01*
X008101Y021281D01*
X007681Y021281D01*
X007681Y021239D02*
X007621Y021239D01*
X007621Y021141D02*
X007681Y021141D01*
X007775Y021042D02*
X007527Y021042D01*
X007428Y020944D02*
X007874Y020944D01*
X008101Y020944D02*
X008201Y020944D01*
X008201Y021042D02*
X008101Y021042D01*
X008101Y021141D02*
X008201Y021141D01*
X008201Y021239D02*
X008101Y021239D01*
X008101Y021338D02*
X007201Y021338D01*
X008101Y021437D02*
X008201Y021437D01*
X008201Y021535D02*
X008101Y021535D01*
X008101Y021634D02*
X008201Y021634D01*
X008201Y021732D02*
X008101Y021732D01*
X008201Y021338D02*
X009101Y021338D01*
X009101Y021381D02*
X008681Y021381D01*
X008681Y021526D01*
X008956Y021801D01*
X009101Y021801D01*
X009101Y021381D01*
X009101Y021437D02*
X009201Y021437D01*
X009201Y021535D02*
X009101Y021535D01*
X009101Y021634D02*
X009201Y021634D01*
X009201Y021732D02*
X009101Y021732D01*
X008917Y021929D02*
X008386Y021929D01*
X008484Y022028D02*
X008818Y022028D01*
X008720Y022126D02*
X008583Y022126D01*
X008601Y022225D02*
X008701Y022225D01*
X008701Y022323D02*
X008601Y022323D01*
X008601Y022422D02*
X008701Y022422D01*
X008704Y022521D02*
X008598Y022521D01*
X008500Y022619D02*
X008803Y022619D01*
X008901Y022718D02*
X008401Y022718D01*
X008415Y021732D02*
X008888Y021732D01*
X008789Y021634D02*
X008513Y021634D01*
X008612Y021535D02*
X008690Y021535D01*
X008681Y021437D02*
X008621Y021437D01*
X008621Y021239D02*
X008681Y021239D01*
X008681Y021141D02*
X008621Y021141D01*
X008527Y021042D02*
X008775Y021042D01*
X008874Y020944D02*
X008428Y020944D01*
X009484Y022028D02*
X011436Y022028D01*
X011410Y022126D02*
X009583Y022126D01*
X009601Y022225D02*
X011365Y022225D01*
X011309Y022323D02*
X009601Y022323D01*
X009601Y022422D02*
X011252Y022422D01*
X011175Y022521D02*
X009598Y022521D01*
X009500Y022619D02*
X011076Y022619D01*
X010978Y022718D02*
X009401Y022718D01*
X010226Y017988D02*
X004100Y017988D01*
X004197Y017889D02*
X010143Y017889D01*
X010102Y017790D02*
X004238Y017790D01*
X004249Y017692D02*
X010094Y017692D01*
X010104Y017593D02*
X004236Y017593D01*
X004194Y017495D02*
X010145Y017495D01*
X010232Y017396D02*
X004091Y017396D01*
X003883Y013553D02*
X004419Y013553D01*
X004304Y013455D02*
X003998Y013455D01*
X004064Y013356D02*
X004238Y013356D01*
X004197Y013257D02*
X004105Y013257D01*
X004111Y013159D02*
X004191Y013159D01*
X004232Y012962D02*
X004071Y012962D01*
X004014Y012863D02*
X004289Y012863D01*
X004387Y012765D02*
X003915Y012765D01*
X003521Y012568D02*
X001904Y012568D01*
X001898Y012570D02*
X001743Y012570D01*
X001601Y012511D01*
X001492Y012402D01*
X001433Y012260D01*
X001433Y012106D01*
X001492Y011963D01*
X001601Y011854D01*
X001743Y011795D01*
X001898Y011795D01*
X002040Y011854D01*
X002149Y011963D01*
X002208Y012106D01*
X002208Y012260D01*
X002149Y012402D01*
X002040Y012511D01*
X001898Y012570D01*
X001737Y012568D02*
X000801Y012568D01*
X000801Y012666D02*
X001576Y012666D01*
X001486Y012765D02*
X000801Y012765D01*
X000801Y012863D02*
X001445Y012863D01*
X001433Y012962D02*
X000801Y012962D01*
X000801Y013060D02*
X001438Y013060D01*
X001479Y013159D02*
X000801Y013159D01*
X000801Y013257D02*
X001559Y013257D01*
X001558Y012469D02*
X000801Y012469D01*
X000801Y012371D02*
X001479Y012371D01*
X001438Y012272D02*
X000801Y012272D01*
X000801Y012173D02*
X001433Y012173D01*
X001445Y012075D02*
X000801Y012075D01*
X000801Y011976D02*
X001486Y011976D01*
X001577Y011878D02*
X000801Y011878D01*
X000801Y011779D02*
X001734Y011779D01*
X001743Y011783D02*
X001601Y011724D01*
X001492Y011615D01*
X001433Y011472D01*
X001433Y011318D01*
X001492Y011176D01*
X001601Y011066D01*
X001742Y011008D01*
X001725Y011006D01*
X001664Y010986D01*
X001607Y010957D01*
X001555Y010919D01*
X001509Y010874D01*
X001472Y010822D01*
X001443Y010764D01*
X001423Y010703D01*
X001413Y010640D01*
X001413Y010627D01*
X001801Y010627D01*
X001801Y010589D01*
X001413Y010589D01*
X001413Y010576D01*
X001423Y010512D01*
X001443Y010451D01*
X001472Y010394D01*
X001509Y010342D01*
X001555Y010297D01*
X001607Y010259D01*
X001664Y010230D01*
X001725Y010210D01*
X001788Y010200D01*
X001801Y010200D01*
X001801Y010589D01*
X001839Y010589D01*
X001839Y010200D01*
X001853Y010200D01*
X001916Y010210D01*
X001977Y010230D01*
X002034Y010259D01*
X002086Y010297D01*
X002131Y010342D01*
X002169Y010394D01*
X002198Y010451D01*
X002218Y010512D01*
X002228Y010576D01*
X002228Y010589D01*
X001840Y010589D01*
X001840Y010627D01*
X002228Y010627D01*
X002228Y010640D01*
X002218Y010703D01*
X002198Y010764D01*
X002169Y010822D01*
X002131Y010874D01*
X002086Y010919D01*
X002034Y010957D01*
X001977Y010986D01*
X001916Y011006D01*
X001899Y011008D01*
X002040Y011066D01*
X002149Y011176D01*
X002208Y011318D01*
X002208Y011472D01*
X002149Y011615D01*
X002040Y011724D01*
X001898Y011783D01*
X001743Y011783D01*
X001907Y011779D02*
X003191Y011779D01*
X003191Y011681D02*
X002083Y011681D01*
X002163Y011582D02*
X003191Y011582D01*
X003191Y011484D02*
X002204Y011484D01*
X002208Y011385D02*
X003191Y011385D01*
X003191Y011287D02*
X002195Y011287D01*
X002154Y011188D02*
X003191Y011188D01*
X003191Y011089D02*
X002063Y011089D01*
X001961Y010991D02*
X002707Y010991D01*
X002646Y010892D02*
X002113Y010892D01*
X002183Y010794D02*
X002646Y010794D01*
X002646Y010695D02*
X002219Y010695D01*
X002214Y010498D02*
X002646Y010498D01*
X002646Y010400D02*
X002172Y010400D01*
X002090Y010301D02*
X002646Y010301D01*
X002646Y010203D02*
X001868Y010203D01*
X001839Y010203D02*
X001801Y010203D01*
X001772Y010203D02*
X000801Y010203D01*
X000801Y010301D02*
X001550Y010301D01*
X001469Y010400D02*
X000801Y010400D01*
X000801Y010498D02*
X001427Y010498D01*
X001421Y010695D02*
X000801Y010695D01*
X000801Y010597D02*
X001801Y010597D01*
X001840Y010597D02*
X002646Y010597D01*
X002646Y010104D02*
X000801Y010104D01*
X000801Y010006D02*
X002646Y010006D01*
X002646Y009907D02*
X000801Y009907D01*
X000801Y009808D02*
X002646Y009808D01*
X002646Y009710D02*
X000801Y009710D01*
X000801Y009611D02*
X002646Y009611D01*
X002706Y009513D02*
X000801Y009513D01*
X000801Y010794D02*
X001458Y010794D01*
X001528Y010892D02*
X000801Y010892D01*
X000801Y010991D02*
X001680Y010991D01*
X001578Y011089D02*
X000801Y011089D01*
X000801Y011188D02*
X001487Y011188D01*
X001446Y011287D02*
X000801Y011287D01*
X000801Y011385D02*
X001433Y011385D01*
X001437Y011484D02*
X000801Y011484D01*
X000801Y011582D02*
X001478Y011582D01*
X001558Y011681D02*
X000801Y011681D01*
X001801Y010498D02*
X001839Y010498D01*
X001839Y010400D02*
X001801Y010400D01*
X001801Y010301D02*
X001839Y010301D01*
X002064Y011878D02*
X003191Y011878D01*
X003191Y011976D02*
X002155Y011976D01*
X002196Y012075D02*
X003191Y012075D01*
X003191Y012173D02*
X002208Y012173D01*
X002203Y012272D02*
X003225Y012272D01*
X003314Y012361D02*
X003314Y012361D01*
X003324Y012371D02*
X002162Y012371D01*
X002082Y012469D02*
X003422Y012469D01*
X003441Y012488D02*
X003441Y012488D01*
X003419Y013553D02*
X002156Y013553D01*
X001483Y017495D02*
X000801Y017495D01*
X000801Y017593D02*
X001443Y017593D01*
X001433Y017692D02*
X000801Y017692D01*
X000801Y017790D02*
X001440Y017790D01*
X001481Y017889D02*
X000801Y017889D01*
X004912Y013541D02*
X005041Y013412D01*
X005111Y013243D01*
X005111Y013060D01*
X005111Y013159D02*
X005362Y013159D01*
X005460Y013257D02*
X005105Y013257D01*
X005064Y013356D02*
X005559Y013356D01*
X005660Y012863D02*
X005947Y012863D01*
X005974Y013455D02*
X004998Y013455D01*
X006787Y016312D02*
X010142Y016312D01*
X010101Y016214D02*
X006886Y016214D01*
X006984Y016115D02*
X010094Y016115D01*
X010105Y016017D02*
X007083Y016017D01*
X007181Y015918D02*
X010146Y015918D01*
X010234Y015820D02*
X007280Y015820D01*
X007378Y015721D02*
X011501Y015721D01*
X011501Y015622D02*
X010740Y015622D01*
X010702Y015661D02*
X010811Y015552D01*
X010870Y015409D01*
X010870Y015255D01*
X010811Y015113D01*
X010702Y015004D01*
X010559Y014944D01*
X010405Y014944D01*
X010262Y015004D01*
X010153Y015113D01*
X010094Y015255D01*
X010094Y015409D01*
X010153Y015552D01*
X010262Y015661D01*
X010405Y015720D01*
X010559Y015720D01*
X010702Y015661D01*
X010730Y015820D02*
X011501Y015820D01*
X011501Y015918D02*
X010818Y015918D01*
X010859Y016017D02*
X011501Y016017D01*
X011501Y016115D02*
X010870Y016115D01*
X010863Y016214D02*
X011501Y016214D01*
X011501Y016312D02*
X010822Y016312D01*
X010739Y016411D02*
X011501Y016411D01*
X011501Y015524D02*
X010822Y015524D01*
X010863Y015425D02*
X011501Y015425D01*
X011501Y015327D02*
X010870Y015327D01*
X010859Y015228D02*
X011501Y015228D01*
X011501Y015130D02*
X010818Y015130D01*
X010729Y015031D02*
X011501Y015031D01*
X011501Y014933D02*
X008167Y014933D01*
X008265Y014834D02*
X010223Y014834D01*
X010141Y014736D02*
X008364Y014736D01*
X008462Y014637D02*
X010100Y014637D01*
X010094Y014539D02*
X008561Y014539D01*
X008659Y014440D02*
X010106Y014440D01*
X010146Y014341D02*
X008758Y014341D01*
X008856Y014243D02*
X010235Y014243D01*
X010728Y014243D02*
X011501Y014243D01*
X011501Y014341D02*
X010817Y014341D01*
X010858Y014440D02*
X011501Y014440D01*
X011501Y014539D02*
X010870Y014539D01*
X010863Y014637D02*
X011501Y014637D01*
X011501Y014736D02*
X010823Y014736D01*
X010741Y014834D02*
X011501Y014834D01*
X010234Y015031D02*
X008068Y015031D01*
X007970Y015130D02*
X010146Y015130D01*
X010105Y015228D02*
X007871Y015228D01*
X007772Y015327D02*
X010094Y015327D01*
X010101Y015425D02*
X007674Y015425D01*
X007575Y015524D02*
X010142Y015524D01*
X010224Y015622D02*
X007477Y015622D01*
X003451Y008035D02*
X003351Y008035D01*
X003351Y007936D02*
X003451Y007936D01*
X003451Y007838D02*
X003351Y007838D01*
X003351Y007739D02*
X003451Y007739D01*
X003451Y007640D02*
X003351Y007640D01*
X003351Y007542D02*
X003451Y007542D01*
X003451Y007443D02*
X003351Y007443D01*
X003351Y007345D02*
X003451Y007345D01*
X003451Y007049D02*
X003351Y007049D01*
X003351Y006951D02*
X003451Y006951D01*
X003451Y006852D02*
X003351Y006852D01*
X003351Y006754D02*
X003451Y006754D01*
X003451Y006655D02*
X003351Y006655D01*
X003351Y006556D02*
X003451Y006556D01*
X003451Y006458D02*
X003351Y006458D01*
X003351Y006359D02*
X003451Y006359D01*
X003451Y006261D02*
X003351Y006261D01*
X002471Y007246D02*
X000801Y007246D01*
X000801Y007345D02*
X002471Y007345D01*
X002471Y007443D02*
X000801Y007443D01*
X000801Y007542D02*
X002471Y007542D01*
X002471Y007640D02*
X000801Y007640D01*
X000801Y007739D02*
X002471Y007739D01*
X002471Y007838D02*
X000801Y007838D01*
X000801Y007936D02*
X002471Y007936D01*
X002513Y008035D02*
X000801Y008035D01*
X000801Y003206D02*
X005799Y003206D01*
X003417Y002221D02*
X002857Y002221D01*
X002956Y002319D02*
X003319Y002319D01*
X003220Y002418D02*
X003054Y002418D01*
X003101Y002516D02*
X003181Y002516D01*
X003387Y002024D02*
X002915Y002024D01*
X003014Y001925D02*
X003289Y001925D01*
X003201Y001826D02*
X003101Y001826D01*
X003101Y001728D02*
X003201Y001728D01*
X003201Y001629D02*
X003101Y001629D01*
X003101Y001531D02*
X003201Y001531D01*
X003234Y001432D02*
X003069Y001432D01*
X002970Y001334D02*
X003332Y001334D01*
X003431Y001235D02*
X002872Y001235D01*
X001869Y000841D02*
X010433Y000841D01*
X010730Y000940D02*
X001573Y000940D01*
X001402Y001038D02*
X010900Y001038D01*
X011499Y002122D02*
X009361Y002122D01*
X009361Y002221D02*
X009445Y002221D01*
X009387Y002024D02*
X009320Y002024D01*
X009289Y001925D02*
X009222Y001925D01*
X009201Y001826D02*
X009123Y001826D01*
X009101Y001728D02*
X009201Y001728D01*
X009201Y001629D02*
X009101Y001629D01*
X009101Y001531D02*
X009201Y001531D01*
X009234Y001432D02*
X009069Y001432D01*
X008970Y001334D02*
X009332Y001334D01*
X009431Y001235D02*
X008872Y001235D01*
D16*
X007151Y003651D03*
X007651Y005151D03*
X008151Y004596D03*
X008151Y005901D03*
X007276Y006776D03*
X006651Y006026D03*
X008151Y007401D03*
X009776Y007901D03*
X009776Y005401D03*
X007526Y011651D03*
X006151Y013151D03*
X005151Y015401D03*
X003901Y017694D03*
X004401Y003651D03*
D17*
X005651Y003651D01*
X006651Y002651D01*
X007151Y003651D02*
X006651Y004151D01*
X006651Y006026D01*
X006776Y006651D02*
X007651Y005776D01*
X007651Y005151D01*
X008151Y005901D02*
X007276Y006776D01*
X006776Y007151D02*
X007026Y007401D01*
X008151Y007401D01*
X006776Y007151D02*
X006776Y006651D01*
X008651Y002651D02*
X008651Y013151D01*
X005683Y016120D01*
X001820Y016120D01*
X001820Y016907D02*
X005895Y016907D01*
X009151Y013651D01*
X009151Y002151D01*
X008651Y001651D01*
X009776Y005401D02*
X009776Y007901D01*
X007526Y011651D02*
X007526Y013026D01*
X005151Y015401D01*
X005651Y013151D02*
X006151Y013151D01*
X005651Y013151D02*
X004901Y012401D01*
X003651Y012401D01*
X003401Y012151D01*
X003401Y010251D01*
X003901Y017694D02*
X001820Y017694D01*
D18*
X008151Y004596D02*
X008151Y003526D01*
X007901Y003276D01*
X007526Y003276D01*
X007151Y002901D01*
X007151Y002401D01*
X006901Y002151D01*
X005151Y002151D01*
X004651Y001651D01*
M02*
