G75*
G70*
%OFA0B0*%
%FSLAX24Y24*%
%IPPOS*%
%LPD*%
%AMOC8*
5,1,8,0,0,1.08239X$1,22.5*
%
%ADD10OC8,0.0640*%
%ADD11C,0.0516*%
%ADD12C,0.0660*%
%ADD13R,0.1560X0.1560*%
%ADD14R,0.1250X0.1250*%
%ADD15C,0.0760*%
%ADD16C,0.0100*%
%ADD17C,0.0436*%
%ADD18C,0.0160*%
%ADD19C,0.0080*%
%ADD20C,0.0120*%
D10*
X002651Y002651D03*
X002651Y003651D03*
X003651Y003651D03*
X003651Y002651D03*
X004651Y002651D03*
X004651Y003651D03*
X005651Y003651D03*
X005651Y002651D03*
X006651Y002651D03*
X006651Y003651D03*
X007651Y003651D03*
X007651Y002651D03*
X008651Y002651D03*
X008651Y003651D03*
X009651Y003651D03*
X009651Y002651D03*
X009151Y022331D03*
X009151Y023331D03*
X008151Y023331D03*
X008151Y022331D03*
X007151Y022331D03*
X007151Y023331D03*
X006151Y023331D03*
X006151Y022331D03*
X005151Y022331D03*
X005151Y023331D03*
X004151Y023331D03*
X004151Y022331D03*
X003151Y022331D03*
X003151Y023331D03*
D11*
X001820Y018694D03*
X001820Y017907D03*
X001820Y017120D03*
X001820Y016332D03*
X001820Y015545D03*
X001820Y014757D03*
X001820Y013970D03*
X001820Y013183D03*
X001820Y012395D03*
X001820Y011608D03*
X010482Y011608D03*
X010482Y012395D03*
X010482Y013183D03*
X010482Y013970D03*
X010482Y014757D03*
X010482Y015545D03*
X010482Y016332D03*
X010482Y017120D03*
X010482Y017907D03*
X010482Y018694D03*
D12*
X004526Y014526D03*
X003526Y014526D03*
D13*
X004901Y010151D03*
D14*
X004901Y007051D03*
X004901Y013251D03*
D15*
X004651Y001651D03*
X005651Y001651D03*
X006651Y001651D03*
X007651Y001651D03*
X008651Y001651D03*
X003651Y001651D03*
D16*
X002461Y001728D02*
X000879Y001728D01*
X000904Y001635D02*
X000813Y001975D01*
X000801Y002151D01*
X000801Y022651D01*
X000813Y022827D01*
X000904Y023168D01*
X001080Y023473D01*
X001329Y023722D01*
X001635Y023898D01*
X001975Y023990D01*
X002151Y024001D01*
X010089Y024001D01*
X010151Y024001D01*
X010327Y023990D01*
X010668Y023898D01*
X010973Y023722D01*
X011222Y023473D01*
X011398Y023168D01*
X011490Y022827D01*
X011501Y022651D01*
X011501Y022589D01*
X011501Y002213D01*
X011501Y002151D01*
X011490Y001975D01*
X011398Y001635D01*
X011222Y001329D01*
X010973Y001080D01*
X010668Y000904D01*
X010327Y000813D01*
X010151Y000801D01*
X010100Y000801D01*
X010089Y000801D01*
X002151Y000801D01*
X001975Y000813D01*
X001635Y000904D01*
X001329Y001080D01*
X001080Y001329D01*
X000904Y001635D01*
X000907Y001629D02*
X002461Y001629D01*
X002461Y001572D02*
X003086Y000947D01*
X003197Y000836D01*
X008947Y000836D01*
X009105Y000836D01*
X010230Y001961D01*
X010341Y002072D01*
X010341Y003072D01*
X010341Y003230D01*
X010101Y003470D01*
X010101Y003838D01*
X009838Y004101D01*
X009465Y004101D01*
X009361Y003997D01*
X009361Y014738D01*
X009238Y014861D01*
X006105Y017994D01*
X005982Y018117D01*
X002153Y018117D01*
X002149Y018127D01*
X002040Y018236D01*
X001898Y018295D01*
X001743Y018295D01*
X001601Y018236D01*
X001492Y018127D01*
X001433Y017984D01*
X001433Y017830D01*
X001492Y017687D01*
X001601Y017578D01*
X001743Y017519D01*
X001898Y017519D01*
X002040Y017578D01*
X002149Y017687D01*
X002153Y017697D01*
X005808Y017697D01*
X008941Y014564D01*
X008941Y003997D01*
X008861Y004078D01*
X008861Y014238D01*
X008738Y014361D01*
X005893Y017207D01*
X005770Y017330D01*
X002153Y017330D01*
X002149Y017339D01*
X002040Y017448D01*
X001898Y017507D01*
X001743Y017507D01*
X001601Y017448D01*
X001492Y017339D01*
X001433Y017197D01*
X001433Y017043D01*
X001492Y016900D01*
X001601Y016791D01*
X001743Y016732D01*
X001898Y016732D01*
X002040Y016791D01*
X002149Y016900D01*
X002153Y016910D01*
X005596Y016910D01*
X008441Y014064D01*
X008441Y008603D01*
X008348Y008696D01*
X008220Y008749D01*
X008082Y008749D01*
X007954Y008696D01*
X007869Y008611D01*
X007113Y008611D01*
X006939Y008611D01*
X006689Y008361D01*
X006566Y008238D01*
X006566Y007738D01*
X006566Y007564D01*
X006781Y007349D01*
X006720Y007374D01*
X006582Y007374D01*
X006454Y007321D01*
X006356Y007223D01*
X006303Y007095D01*
X006303Y006957D01*
X006356Y006829D01*
X006441Y006744D01*
X006441Y005064D01*
X006564Y004941D01*
X006803Y004702D01*
X006803Y004582D01*
X006856Y004454D01*
X006954Y004356D01*
X007082Y004303D01*
X007220Y004303D01*
X007330Y004348D01*
X006961Y003980D01*
X006961Y003977D01*
X006838Y004101D01*
X006498Y004101D01*
X005738Y004861D01*
X005564Y004861D01*
X004683Y004861D01*
X004598Y004946D01*
X004470Y004999D01*
X004332Y004999D01*
X004204Y004946D01*
X004106Y004848D01*
X004053Y004720D01*
X004053Y004582D01*
X004106Y004454D01*
X004204Y004356D01*
X004332Y004303D01*
X004470Y004303D01*
X004598Y004356D01*
X004683Y004441D01*
X005564Y004441D01*
X006201Y003804D01*
X006201Y003465D01*
X006325Y003341D01*
X005977Y003341D01*
X006101Y003465D01*
X006101Y003838D01*
X005838Y004101D01*
X005465Y004101D01*
X005201Y003838D01*
X005201Y003465D01*
X005325Y003341D01*
X005072Y003341D01*
X004961Y003230D01*
X004961Y003230D01*
X004832Y003101D01*
X004465Y003101D01*
X004201Y002838D01*
X004201Y002465D01*
X004345Y002321D01*
X003957Y002321D01*
X004101Y002465D01*
X004101Y002838D01*
X003838Y003101D01*
X003465Y003101D01*
X003361Y002997D01*
X003361Y003064D01*
X003361Y003238D01*
X003101Y003498D01*
X003101Y003838D01*
X002838Y004101D01*
X002465Y004101D01*
X002201Y003838D01*
X002201Y003465D01*
X002465Y003201D01*
X002804Y003201D01*
X002941Y003064D01*
X002941Y002997D01*
X002838Y003101D01*
X002465Y003101D01*
X002201Y002838D01*
X002201Y002465D01*
X002461Y002205D01*
X002461Y001730D01*
X002461Y001572D01*
X002503Y001531D02*
X000964Y001531D01*
X001021Y001432D02*
X002601Y001432D01*
X002700Y001334D02*
X001078Y001334D01*
X001174Y001235D02*
X002798Y001235D01*
X002897Y001137D02*
X001273Y001137D01*
X001402Y001038D02*
X002996Y001038D01*
X003094Y000940D02*
X001573Y000940D01*
X001869Y000841D02*
X003193Y000841D01*
X003199Y001372D02*
X002841Y001730D01*
X002841Y002205D01*
X002946Y002310D01*
X003064Y002191D01*
X003092Y002191D01*
X003267Y002017D01*
X003247Y001996D01*
X003198Y001929D01*
X003160Y001855D01*
X003134Y001775D01*
X003122Y001700D01*
X003602Y001700D01*
X003602Y001603D01*
X003122Y001603D01*
X003134Y001527D01*
X003160Y001448D01*
X003198Y001373D01*
X003199Y001372D01*
X003168Y001432D02*
X003139Y001432D01*
X003134Y001531D02*
X003040Y001531D01*
X002942Y001629D02*
X003602Y001629D01*
X003260Y002024D02*
X002841Y002024D01*
X002841Y002122D02*
X003162Y002122D01*
X003035Y002221D02*
X002857Y002221D01*
X002841Y001925D02*
X003196Y001925D01*
X003151Y001826D02*
X002841Y001826D01*
X002843Y001728D02*
X003127Y001728D01*
X002461Y001826D02*
X000852Y001826D01*
X000826Y001925D02*
X002461Y001925D01*
X002461Y002024D02*
X000810Y002024D01*
X000803Y002122D02*
X002461Y002122D01*
X002445Y002221D02*
X000801Y002221D01*
X000801Y002319D02*
X002347Y002319D01*
X002248Y002418D02*
X000801Y002418D01*
X000801Y002516D02*
X002201Y002516D01*
X002201Y002615D02*
X000801Y002615D01*
X000801Y002713D02*
X002201Y002713D01*
X002201Y002812D02*
X000801Y002812D01*
X000801Y002910D02*
X002274Y002910D01*
X002373Y003009D02*
X000801Y003009D01*
X000801Y003107D02*
X002898Y003107D01*
X002930Y003009D02*
X002941Y003009D01*
X003196Y003403D02*
X003235Y003403D01*
X003181Y003456D02*
X003181Y003601D01*
X003601Y003601D01*
X003701Y003601D01*
X003701Y003181D01*
X003846Y003181D01*
X004121Y003456D01*
X004121Y003601D01*
X003701Y003601D01*
X003701Y003701D01*
X004121Y003701D01*
X004121Y003846D01*
X003846Y004121D01*
X003701Y004121D01*
X003701Y003701D01*
X003601Y003701D01*
X003601Y003601D01*
X003601Y003181D01*
X003456Y003181D01*
X003181Y003456D01*
X003181Y003502D02*
X003101Y003502D01*
X003101Y003600D02*
X003181Y003600D01*
X003181Y003701D02*
X003601Y003701D01*
X003601Y004121D01*
X003456Y004121D01*
X003181Y003846D01*
X003181Y003701D01*
X003101Y003699D02*
X003601Y003699D01*
X003601Y003797D02*
X003701Y003797D01*
X003701Y003699D02*
X004601Y003699D01*
X004601Y003701D02*
X004601Y003601D01*
X004701Y003601D01*
X004701Y003181D01*
X004846Y003181D01*
X005121Y003456D01*
X005121Y003601D01*
X004701Y003601D01*
X004701Y003701D01*
X005121Y003701D01*
X005121Y003846D01*
X004846Y004121D01*
X004701Y004121D01*
X004701Y003701D01*
X004601Y003701D01*
X004181Y003701D01*
X004181Y003846D01*
X004456Y004121D01*
X004601Y004121D01*
X004601Y003701D01*
X004601Y003797D02*
X004701Y003797D01*
X004701Y003699D02*
X005201Y003699D01*
X005201Y003797D02*
X005121Y003797D01*
X005071Y003896D02*
X005259Y003896D01*
X005358Y003994D02*
X004973Y003994D01*
X004874Y004093D02*
X005457Y004093D01*
X005617Y004389D02*
X004631Y004389D01*
X004601Y004093D02*
X004701Y004093D01*
X004701Y003994D02*
X004601Y003994D01*
X004601Y003896D02*
X004701Y003896D01*
X004701Y003600D02*
X004601Y003600D01*
X004601Y003601D02*
X004601Y003181D01*
X004456Y003181D01*
X004181Y003456D01*
X004181Y003601D01*
X004601Y003601D01*
X004601Y003502D02*
X004701Y003502D01*
X004701Y003403D02*
X004601Y003403D01*
X004601Y003305D02*
X004701Y003305D01*
X004701Y003206D02*
X004601Y003206D01*
X004432Y003206D02*
X003871Y003206D01*
X003969Y003305D02*
X004333Y003305D01*
X004235Y003403D02*
X004068Y003403D01*
X004121Y003502D02*
X004181Y003502D01*
X004181Y003600D02*
X004121Y003600D01*
X004121Y003797D02*
X004181Y003797D01*
X004231Y003896D02*
X004071Y003896D01*
X003973Y003994D02*
X004330Y003994D01*
X004428Y004093D02*
X003874Y004093D01*
X003701Y004093D02*
X003601Y004093D01*
X003601Y003994D02*
X003701Y003994D01*
X003701Y003896D02*
X003601Y003896D01*
X003428Y004093D02*
X002846Y004093D01*
X002944Y003994D02*
X003330Y003994D01*
X003231Y003896D02*
X003043Y003896D01*
X003101Y003797D02*
X003181Y003797D01*
X003295Y003305D02*
X003333Y003305D01*
X003361Y003206D02*
X003432Y003206D01*
X003361Y003107D02*
X004839Y003107D01*
X004871Y003206D02*
X004937Y003206D01*
X004969Y003305D02*
X005036Y003305D01*
X005068Y003403D02*
X005263Y003403D01*
X005201Y003502D02*
X005121Y003502D01*
X005121Y003600D02*
X005201Y003600D01*
X005715Y004290D02*
X000801Y004290D01*
X000801Y004389D02*
X004171Y004389D01*
X004092Y004487D02*
X000801Y004487D01*
X000801Y004586D02*
X004053Y004586D01*
X004053Y004684D02*
X000801Y004684D01*
X000801Y004783D02*
X004079Y004783D01*
X004139Y004881D02*
X000801Y004881D01*
X000801Y004980D02*
X004285Y004980D01*
X004517Y004980D02*
X006526Y004980D01*
X006441Y005078D02*
X000801Y005078D01*
X000801Y005177D02*
X006441Y005177D01*
X006441Y005275D02*
X000801Y005275D01*
X000801Y005374D02*
X006441Y005374D01*
X006441Y005473D02*
X000801Y005473D01*
X000801Y005571D02*
X006441Y005571D01*
X006441Y005670D02*
X000801Y005670D01*
X000801Y005768D02*
X006441Y005768D01*
X006441Y005867D02*
X000801Y005867D01*
X000801Y005965D02*
X006441Y005965D01*
X006441Y006064D02*
X000801Y006064D01*
X000801Y006162D02*
X006441Y006162D01*
X006441Y006261D02*
X000801Y006261D01*
X000801Y006359D02*
X004159Y006359D01*
X004146Y006372D02*
X004222Y006296D01*
X005580Y006296D01*
X005656Y006372D01*
X005656Y007730D01*
X005580Y007806D01*
X004222Y007806D01*
X004146Y007730D01*
X004146Y006372D01*
X004146Y006458D02*
X000801Y006458D01*
X000801Y006556D02*
X004146Y006556D01*
X004146Y006655D02*
X000801Y006655D01*
X000801Y006754D02*
X004146Y006754D01*
X004146Y006852D02*
X000801Y006852D01*
X000801Y006951D02*
X004146Y006951D01*
X004146Y007049D02*
X000801Y007049D01*
X000801Y007148D02*
X004146Y007148D01*
X004146Y007246D02*
X000801Y007246D01*
X000801Y007345D02*
X004146Y007345D01*
X004146Y007443D02*
X000801Y007443D01*
X000801Y007542D02*
X004146Y007542D01*
X004146Y007640D02*
X000801Y007640D01*
X000801Y007739D02*
X004155Y007739D01*
X004101Y009221D02*
X004851Y009221D01*
X004851Y010101D01*
X004951Y010101D01*
X004951Y009221D01*
X005701Y009221D01*
X005739Y009231D01*
X005773Y009251D01*
X005801Y009279D01*
X005821Y009313D01*
X005831Y009351D01*
X005831Y010101D01*
X004951Y010101D01*
X004951Y010201D01*
X004851Y010201D01*
X004851Y010101D01*
X003971Y010101D01*
X003971Y009351D01*
X003981Y009313D01*
X004001Y009279D01*
X004029Y009251D01*
X004063Y009231D01*
X004101Y009221D01*
X003981Y009316D02*
X000801Y009316D01*
X000801Y009414D02*
X003971Y009414D01*
X003971Y009513D02*
X000801Y009513D01*
X000801Y009611D02*
X003971Y009611D01*
X003971Y009710D02*
X000801Y009710D01*
X000801Y009808D02*
X003971Y009808D01*
X003971Y009907D02*
X000801Y009907D01*
X000801Y010006D02*
X003971Y010006D01*
X003971Y010201D02*
X004851Y010201D01*
X004851Y011081D01*
X004101Y011081D01*
X004063Y011071D01*
X004029Y011051D01*
X004001Y011023D01*
X003981Y010989D01*
X003971Y010951D01*
X003971Y010201D01*
X003971Y010203D02*
X000801Y010203D01*
X000801Y010301D02*
X003971Y010301D01*
X003971Y010400D02*
X000801Y010400D01*
X000801Y010498D02*
X003971Y010498D01*
X003971Y010597D02*
X000801Y010597D01*
X000801Y010695D02*
X003971Y010695D01*
X003971Y010794D02*
X000801Y010794D01*
X000801Y010892D02*
X003971Y010892D01*
X003983Y010991D02*
X000801Y010991D01*
X000801Y011089D02*
X008441Y011089D01*
X008441Y010991D02*
X005820Y010991D01*
X005821Y010989D02*
X005801Y011023D01*
X005773Y011051D01*
X005739Y011071D01*
X005701Y011081D01*
X004951Y011081D01*
X004951Y010201D01*
X005831Y010201D01*
X005831Y010951D01*
X005821Y010989D01*
X005831Y010892D02*
X008441Y010892D01*
X008441Y010794D02*
X005831Y010794D01*
X005831Y010695D02*
X008441Y010695D01*
X008441Y010597D02*
X005831Y010597D01*
X005831Y010498D02*
X008441Y010498D01*
X008441Y010400D02*
X005831Y010400D01*
X005831Y010301D02*
X008441Y010301D01*
X008441Y010203D02*
X005831Y010203D01*
X005831Y010006D02*
X008441Y010006D01*
X008441Y010104D02*
X004951Y010104D01*
X004951Y010006D02*
X004851Y010006D01*
X004851Y010104D02*
X000801Y010104D01*
X000801Y009217D02*
X008441Y009217D01*
X008441Y009119D02*
X000801Y009119D01*
X000801Y009020D02*
X008441Y009020D01*
X008441Y008922D02*
X000801Y008922D01*
X000801Y008823D02*
X008441Y008823D01*
X008441Y008724D02*
X008280Y008724D01*
X008419Y008626D02*
X008441Y008626D01*
X008861Y008626D02*
X008941Y008626D01*
X008941Y008724D02*
X008861Y008724D01*
X008861Y008823D02*
X008941Y008823D01*
X008941Y008922D02*
X008861Y008922D01*
X008861Y009020D02*
X008941Y009020D01*
X008941Y009119D02*
X008861Y009119D01*
X008861Y009217D02*
X008941Y009217D01*
X008941Y009316D02*
X008861Y009316D01*
X008861Y009414D02*
X008941Y009414D01*
X008941Y009513D02*
X008861Y009513D01*
X008861Y009611D02*
X008941Y009611D01*
X008941Y009710D02*
X008861Y009710D01*
X008861Y009808D02*
X008941Y009808D01*
X008941Y009907D02*
X008861Y009907D01*
X008861Y010006D02*
X008941Y010006D01*
X008941Y010104D02*
X008861Y010104D01*
X008861Y010203D02*
X008941Y010203D01*
X008941Y010301D02*
X008861Y010301D01*
X008861Y010400D02*
X008941Y010400D01*
X008941Y010498D02*
X008861Y010498D01*
X008861Y010597D02*
X008941Y010597D01*
X008941Y010695D02*
X008861Y010695D01*
X008861Y010794D02*
X008941Y010794D01*
X008941Y010892D02*
X008861Y010892D01*
X008861Y010991D02*
X008941Y010991D01*
X008941Y011089D02*
X008861Y011089D01*
X008861Y011188D02*
X008941Y011188D01*
X008941Y011287D02*
X008861Y011287D01*
X008861Y011385D02*
X008941Y011385D01*
X008941Y011484D02*
X008861Y011484D01*
X008861Y011582D02*
X008941Y011582D01*
X008941Y011681D02*
X008861Y011681D01*
X008861Y011779D02*
X008941Y011779D01*
X008941Y011878D02*
X008861Y011878D01*
X008861Y011976D02*
X008941Y011976D01*
X008941Y012075D02*
X008861Y012075D01*
X008861Y012173D02*
X008941Y012173D01*
X008941Y012272D02*
X008861Y012272D01*
X008861Y012371D02*
X008941Y012371D01*
X008941Y012469D02*
X008861Y012469D01*
X008861Y012568D02*
X008941Y012568D01*
X008941Y012666D02*
X008861Y012666D01*
X008861Y012765D02*
X008941Y012765D01*
X008941Y012863D02*
X008861Y012863D01*
X008861Y012962D02*
X008941Y012962D01*
X008941Y013060D02*
X008861Y013060D01*
X008861Y013159D02*
X008941Y013159D01*
X008941Y013257D02*
X008861Y013257D01*
X008861Y013356D02*
X008941Y013356D01*
X008941Y013455D02*
X008861Y013455D01*
X008861Y013553D02*
X008941Y013553D01*
X008941Y013652D02*
X008861Y013652D01*
X008861Y013750D02*
X008941Y013750D01*
X008941Y013849D02*
X008861Y013849D01*
X008861Y013947D02*
X008941Y013947D01*
X008941Y014046D02*
X008861Y014046D01*
X008861Y014144D02*
X008941Y014144D01*
X008941Y014243D02*
X008856Y014243D01*
X008941Y014341D02*
X008758Y014341D01*
X008659Y014440D02*
X008941Y014440D01*
X008941Y014539D02*
X008561Y014539D01*
X008462Y014637D02*
X008868Y014637D01*
X008770Y014736D02*
X008364Y014736D01*
X008265Y014834D02*
X008671Y014834D01*
X008573Y014933D02*
X008167Y014933D01*
X008068Y015031D02*
X008474Y015031D01*
X008376Y015130D02*
X007970Y015130D01*
X007871Y015228D02*
X008277Y015228D01*
X008179Y015327D02*
X007772Y015327D01*
X007674Y015425D02*
X008080Y015425D01*
X007981Y015524D02*
X007575Y015524D01*
X007477Y015622D02*
X007883Y015622D01*
X007784Y015721D02*
X007378Y015721D01*
X007280Y015820D02*
X007686Y015820D01*
X007587Y015918D02*
X007181Y015918D01*
X007083Y016017D02*
X007489Y016017D01*
X007390Y016115D02*
X006984Y016115D01*
X006886Y016214D02*
X007292Y016214D01*
X007193Y016312D02*
X006787Y016312D01*
X006688Y016411D02*
X007095Y016411D01*
X006996Y016509D02*
X006590Y016509D01*
X006491Y016608D02*
X006897Y016608D01*
X006799Y016706D02*
X006393Y016706D01*
X006294Y016805D02*
X006700Y016805D01*
X006602Y016904D02*
X006196Y016904D01*
X006097Y017002D02*
X006503Y017002D01*
X006405Y017101D02*
X005999Y017101D01*
X005900Y017199D02*
X006306Y017199D01*
X006208Y017298D02*
X005802Y017298D01*
X005912Y017593D02*
X002055Y017593D01*
X002151Y017692D02*
X005814Y017692D01*
X006011Y017495D02*
X001928Y017495D01*
X001713Y017495D02*
X000801Y017495D01*
X000801Y017593D02*
X001586Y017593D01*
X001490Y017692D02*
X000801Y017692D01*
X000801Y017790D02*
X001449Y017790D01*
X001433Y017889D02*
X000801Y017889D01*
X000801Y017988D02*
X001434Y017988D01*
X001475Y018086D02*
X000801Y018086D01*
X000801Y018185D02*
X001550Y018185D01*
X001601Y018366D02*
X001492Y018475D01*
X001433Y018617D01*
X001433Y018772D01*
X001492Y018914D01*
X001601Y019023D01*
X001743Y019082D01*
X001898Y019082D01*
X002040Y019023D01*
X002149Y018914D01*
X002153Y018904D01*
X003619Y018904D01*
X003704Y018990D01*
X003832Y019043D01*
X003970Y019043D01*
X004098Y018990D01*
X004196Y018892D01*
X004249Y018764D01*
X004249Y018625D01*
X004196Y018497D01*
X004098Y018399D01*
X003970Y018346D01*
X003832Y018346D01*
X003704Y018399D01*
X003619Y018484D01*
X002153Y018484D01*
X002149Y018475D01*
X002040Y018366D01*
X001898Y018307D01*
X001743Y018307D01*
X001601Y018366D01*
X001585Y018382D02*
X000801Y018382D01*
X000801Y018480D02*
X001489Y018480D01*
X001449Y018579D02*
X000801Y018579D01*
X000801Y018677D02*
X001433Y018677D01*
X001434Y018776D02*
X000801Y018776D01*
X000801Y018874D02*
X001475Y018874D01*
X001551Y018973D02*
X000801Y018973D01*
X000801Y019071D02*
X001717Y019071D01*
X001924Y019071D02*
X010379Y019071D01*
X010405Y019082D02*
X010262Y019023D01*
X010153Y018914D01*
X010094Y018772D01*
X010094Y018617D01*
X010153Y018475D01*
X010262Y018366D01*
X010405Y018307D01*
X010559Y018307D01*
X010702Y018366D01*
X010811Y018475D01*
X010870Y018617D01*
X010870Y018772D01*
X010811Y018914D01*
X010702Y019023D01*
X010559Y019082D01*
X010405Y019082D01*
X010212Y018973D02*
X004115Y018973D01*
X004203Y018874D02*
X010137Y018874D01*
X010096Y018776D02*
X004244Y018776D01*
X004249Y018677D02*
X010094Y018677D01*
X010110Y018579D02*
X004230Y018579D01*
X004179Y018480D02*
X010151Y018480D01*
X010246Y018382D02*
X004056Y018382D01*
X003747Y018382D02*
X002056Y018382D01*
X002151Y018480D02*
X003623Y018480D01*
X003687Y018973D02*
X002090Y018973D01*
X001926Y018283D02*
X010376Y018283D01*
X010405Y018295D02*
X010262Y018236D01*
X010153Y018127D01*
X010094Y017984D01*
X010094Y017830D01*
X010153Y017687D01*
X010262Y017578D01*
X010405Y017519D01*
X010559Y017519D01*
X010702Y017578D01*
X010811Y017687D01*
X010870Y017830D01*
X010870Y017984D01*
X010811Y018127D01*
X010702Y018236D01*
X010559Y018295D01*
X010405Y018295D01*
X010211Y018185D02*
X002091Y018185D01*
X001715Y018283D02*
X000801Y018283D01*
X000801Y017396D02*
X001549Y017396D01*
X001474Y017298D02*
X000801Y017298D01*
X000801Y017199D02*
X001434Y017199D01*
X001433Y017101D02*
X000801Y017101D01*
X000801Y017002D02*
X001449Y017002D01*
X001490Y016904D02*
X000801Y016904D01*
X000801Y016805D02*
X001587Y016805D01*
X001601Y016661D02*
X001492Y016552D01*
X001433Y016409D01*
X001433Y016255D01*
X001492Y016113D01*
X001601Y016004D01*
X001743Y015944D01*
X001898Y015944D01*
X002040Y016004D01*
X002149Y016113D01*
X002208Y016255D01*
X002208Y016409D01*
X002149Y016552D01*
X002040Y016661D01*
X001898Y016720D01*
X001743Y016720D01*
X001601Y016661D01*
X001548Y016608D02*
X000801Y016608D01*
X000801Y016706D02*
X001711Y016706D01*
X001930Y016706D02*
X004979Y016706D01*
X004954Y016696D02*
X004856Y016598D01*
X004803Y016470D01*
X004803Y016332D01*
X004856Y016204D01*
X004954Y016106D01*
X005082Y016053D01*
X005202Y016053D01*
X007316Y013939D01*
X007316Y012933D01*
X007231Y012848D01*
X007178Y012720D01*
X007178Y012582D01*
X007231Y012454D01*
X007329Y012356D01*
X007457Y012303D01*
X007595Y012303D01*
X007723Y012356D01*
X007821Y012454D01*
X007874Y012582D01*
X007874Y012720D01*
X007821Y012848D01*
X007736Y012933D01*
X007736Y014113D01*
X007613Y014236D01*
X005499Y016350D01*
X005499Y016470D01*
X005446Y016598D01*
X005348Y016696D01*
X005220Y016749D01*
X005082Y016749D01*
X004954Y016696D01*
X004866Y016608D02*
X002093Y016608D01*
X002167Y016509D02*
X004819Y016509D01*
X004803Y016411D02*
X002208Y016411D01*
X002208Y016312D02*
X004811Y016312D01*
X004852Y016214D02*
X002191Y016214D01*
X002150Y016115D02*
X004945Y016115D01*
X005239Y016017D02*
X002053Y016017D01*
X002040Y015874D02*
X001898Y015933D01*
X001743Y015933D01*
X001601Y015874D01*
X001492Y015765D01*
X001433Y015622D01*
X001433Y015468D01*
X001492Y015325D01*
X001601Y015216D01*
X001743Y015157D01*
X001898Y015157D01*
X002040Y015216D01*
X002149Y015325D01*
X002208Y015468D01*
X002208Y015622D01*
X002149Y015765D01*
X002040Y015874D01*
X002094Y015820D02*
X005436Y015820D01*
X005337Y015918D02*
X001933Y015918D01*
X001708Y015918D02*
X000801Y015918D01*
X000801Y015820D02*
X001547Y015820D01*
X001474Y015721D02*
X000801Y015721D01*
X000801Y015622D02*
X001433Y015622D01*
X001433Y015524D02*
X000801Y015524D01*
X000801Y015425D02*
X001450Y015425D01*
X001491Y015327D02*
X000801Y015327D01*
X000801Y015228D02*
X001589Y015228D01*
X001601Y015086D02*
X001492Y014977D01*
X001433Y014835D01*
X001433Y014680D01*
X001492Y014538D01*
X001601Y014429D01*
X001743Y014370D01*
X001898Y014370D01*
X002040Y014429D01*
X002149Y014538D01*
X002208Y014680D01*
X002208Y014835D01*
X002149Y014977D01*
X002040Y015086D01*
X001898Y015145D01*
X001743Y015145D01*
X001601Y015086D01*
X001546Y015031D02*
X000801Y015031D01*
X000801Y014933D02*
X001473Y014933D01*
X001433Y014834D02*
X000801Y014834D01*
X000801Y014736D02*
X001433Y014736D01*
X001451Y014637D02*
X000801Y014637D01*
X000801Y014539D02*
X001491Y014539D01*
X001590Y014440D02*
X000801Y014440D01*
X000801Y014341D02*
X001704Y014341D01*
X001743Y014358D02*
X001601Y014299D01*
X001492Y014190D01*
X001433Y014047D01*
X001433Y013893D01*
X001492Y013750D01*
X000801Y013750D01*
X000801Y013652D02*
X001590Y013652D01*
X001601Y013641D02*
X001743Y013582D01*
X001898Y013582D01*
X002040Y013641D01*
X002149Y013750D01*
X004146Y013750D01*
X004146Y013652D02*
X002050Y013652D01*
X002149Y013750D02*
X002208Y013893D01*
X002208Y014047D01*
X002149Y014190D01*
X002040Y014299D01*
X001898Y014358D01*
X001743Y014358D01*
X001937Y014341D02*
X003105Y014341D01*
X003136Y014266D02*
X003266Y014136D01*
X003435Y014066D01*
X003618Y014066D01*
X003787Y014136D01*
X003916Y014266D01*
X003986Y014435D01*
X003986Y014618D01*
X003916Y014787D01*
X003787Y014916D01*
X003618Y014986D01*
X003435Y014986D01*
X003266Y014916D01*
X003136Y014787D01*
X003066Y014618D01*
X003066Y014435D01*
X003136Y014266D01*
X003159Y014243D02*
X002096Y014243D01*
X002168Y014144D02*
X003257Y014144D01*
X003066Y014440D02*
X002051Y014440D01*
X002149Y014539D02*
X003066Y014539D01*
X003074Y014637D02*
X002190Y014637D01*
X002208Y014736D02*
X003115Y014736D01*
X003184Y014834D02*
X002208Y014834D01*
X002168Y014933D02*
X003306Y014933D01*
X003747Y014933D02*
X004306Y014933D01*
X004266Y014916D02*
X004136Y014787D01*
X004066Y014618D01*
X004066Y014435D01*
X004136Y014266D01*
X004266Y014136D01*
X004435Y014066D01*
X004618Y014066D01*
X004787Y014136D01*
X004916Y014266D01*
X004986Y014435D01*
X004986Y014618D01*
X004916Y014787D01*
X004787Y014916D01*
X004618Y014986D01*
X004435Y014986D01*
X004266Y014916D01*
X004184Y014834D02*
X003869Y014834D01*
X003937Y014736D02*
X004115Y014736D01*
X004074Y014637D02*
X003978Y014637D01*
X003986Y014539D02*
X004066Y014539D01*
X004066Y014440D02*
X003986Y014440D01*
X003947Y014341D02*
X004105Y014341D01*
X004159Y014243D02*
X003893Y014243D01*
X003795Y014144D02*
X004257Y014144D01*
X004222Y014006D02*
X004146Y013930D01*
X004146Y012572D01*
X004222Y012496D01*
X005580Y012496D01*
X005656Y012572D01*
X005656Y013859D01*
X005738Y013941D01*
X005869Y013941D01*
X005954Y013856D01*
X006082Y013803D01*
X006220Y013803D01*
X006348Y013856D01*
X006446Y013954D01*
X006499Y014082D01*
X006499Y014220D01*
X006446Y014348D01*
X006348Y014446D01*
X006220Y014499D01*
X006082Y014499D01*
X005954Y014446D01*
X005869Y014361D01*
X005564Y014361D01*
X005441Y014238D01*
X005209Y014006D01*
X004222Y014006D01*
X004163Y013947D02*
X002208Y013947D01*
X002208Y014046D02*
X005249Y014046D01*
X005347Y014144D02*
X004795Y014144D01*
X004893Y014243D02*
X005446Y014243D01*
X005544Y014341D02*
X004947Y014341D01*
X004986Y014440D02*
X005948Y014440D01*
X006224Y015031D02*
X002095Y015031D01*
X001935Y015130D02*
X006126Y015130D01*
X006027Y015228D02*
X002052Y015228D01*
X002150Y015327D02*
X005929Y015327D01*
X005830Y015425D02*
X002191Y015425D01*
X002208Y015524D02*
X005731Y015524D01*
X005633Y015622D02*
X002208Y015622D01*
X002167Y015721D02*
X005534Y015721D01*
X005734Y016115D02*
X006390Y016115D01*
X006489Y016017D02*
X005833Y016017D01*
X005931Y015918D02*
X006587Y015918D01*
X006686Y015820D02*
X006030Y015820D01*
X006128Y015721D02*
X006784Y015721D01*
X006883Y015622D02*
X006227Y015622D01*
X006325Y015524D02*
X006981Y015524D01*
X007080Y015425D02*
X006424Y015425D01*
X006522Y015327D02*
X007179Y015327D01*
X007277Y015228D02*
X006621Y015228D01*
X006720Y015130D02*
X007376Y015130D01*
X007474Y015031D02*
X006818Y015031D01*
X006917Y014933D02*
X007573Y014933D01*
X007671Y014834D02*
X007015Y014834D01*
X007114Y014736D02*
X007770Y014736D01*
X007868Y014637D02*
X007212Y014637D01*
X007311Y014539D02*
X007967Y014539D01*
X008065Y014440D02*
X007409Y014440D01*
X007508Y014341D02*
X008164Y014341D01*
X008262Y014243D02*
X007606Y014243D01*
X007705Y014144D02*
X008361Y014144D01*
X008441Y014046D02*
X007736Y014046D01*
X007736Y013947D02*
X008441Y013947D01*
X008441Y013849D02*
X007736Y013849D01*
X007736Y013750D02*
X008441Y013750D01*
X008441Y013652D02*
X007736Y013652D01*
X007736Y013553D02*
X008441Y013553D01*
X008441Y013455D02*
X007736Y013455D01*
X007736Y013356D02*
X008441Y013356D01*
X008441Y013257D02*
X007736Y013257D01*
X007736Y013159D02*
X008441Y013159D01*
X008441Y013060D02*
X007736Y013060D01*
X007736Y012962D02*
X008441Y012962D01*
X008441Y012863D02*
X007806Y012863D01*
X007856Y012765D02*
X008441Y012765D01*
X008441Y012666D02*
X007874Y012666D01*
X007868Y012568D02*
X008441Y012568D01*
X008441Y012469D02*
X007828Y012469D01*
X007738Y012371D02*
X008441Y012371D01*
X008441Y012272D02*
X002189Y012272D01*
X002208Y012318D02*
X002149Y012176D01*
X002040Y012066D01*
X001899Y012008D01*
X001916Y012006D01*
X001977Y011986D01*
X002034Y011957D01*
X002086Y011919D01*
X002131Y011874D01*
X002169Y011822D01*
X002198Y011764D01*
X002218Y011703D01*
X002228Y011640D01*
X002228Y011627D01*
X001840Y011627D01*
X001840Y011589D01*
X002228Y011589D01*
X002228Y011576D01*
X002218Y011512D01*
X002198Y011451D01*
X002169Y011394D01*
X002131Y011342D01*
X002086Y011297D01*
X002034Y011259D01*
X001977Y011230D01*
X001916Y011210D01*
X001853Y011200D01*
X001839Y011200D01*
X001839Y011589D01*
X001801Y011589D01*
X001413Y011589D01*
X001413Y011576D01*
X001423Y011512D01*
X001443Y011451D01*
X001472Y011394D01*
X001509Y011342D01*
X001555Y011297D01*
X001607Y011259D01*
X001664Y011230D01*
X001725Y011210D01*
X001788Y011200D01*
X001801Y011200D01*
X001801Y011589D01*
X001801Y011627D01*
X001413Y011627D01*
X001413Y011640D01*
X001423Y011703D01*
X001443Y011764D01*
X001472Y011822D01*
X001509Y011874D01*
X001555Y011919D01*
X001607Y011957D01*
X001664Y011986D01*
X001725Y012006D01*
X001742Y012008D01*
X001601Y012066D01*
X001492Y012176D01*
X001433Y012318D01*
X001433Y012472D01*
X001492Y012615D01*
X001601Y012724D01*
X001743Y012783D01*
X001898Y012783D01*
X002040Y012724D01*
X002149Y012615D01*
X002208Y012472D01*
X002208Y012318D01*
X002208Y012371D02*
X007314Y012371D01*
X007225Y012469D02*
X002208Y012469D01*
X002169Y012568D02*
X004151Y012568D01*
X004146Y012666D02*
X002098Y012666D01*
X001942Y012765D02*
X004146Y012765D01*
X004146Y012863D02*
X002049Y012863D01*
X002040Y012854D02*
X002149Y012963D01*
X002208Y013106D01*
X002208Y013260D01*
X002149Y013402D01*
X002040Y013511D01*
X001898Y013570D01*
X001743Y013570D01*
X001601Y013511D01*
X001492Y013402D01*
X001433Y013260D01*
X001433Y013106D01*
X001492Y012963D01*
X001601Y012854D01*
X001743Y012795D01*
X001898Y012795D01*
X002040Y012854D01*
X002148Y012962D02*
X004146Y012962D01*
X004146Y013060D02*
X002190Y013060D01*
X002208Y013159D02*
X004146Y013159D01*
X004146Y013257D02*
X002208Y013257D01*
X002168Y013356D02*
X004146Y013356D01*
X004146Y013455D02*
X002097Y013455D01*
X001940Y013553D02*
X004146Y013553D01*
X004146Y013849D02*
X002190Y013849D01*
X001701Y013553D02*
X000801Y013553D01*
X000801Y013455D02*
X001544Y013455D01*
X001473Y013356D02*
X000801Y013356D01*
X000801Y013257D02*
X001433Y013257D01*
X001433Y013159D02*
X000801Y013159D01*
X000801Y013060D02*
X001451Y013060D01*
X001493Y012962D02*
X000801Y012962D01*
X000801Y012863D02*
X001591Y012863D01*
X001699Y012765D02*
X000801Y012765D01*
X000801Y012666D02*
X001543Y012666D01*
X001472Y012568D02*
X000801Y012568D01*
X000801Y012469D02*
X001433Y012469D01*
X001433Y012371D02*
X000801Y012371D01*
X000801Y012272D02*
X001452Y012272D01*
X001494Y012173D02*
X000801Y012173D01*
X000801Y012075D02*
X001592Y012075D01*
X001646Y011976D02*
X000801Y011976D01*
X000801Y011878D02*
X001514Y011878D01*
X001450Y011779D02*
X000801Y011779D01*
X000801Y011681D02*
X001419Y011681D01*
X001413Y011582D02*
X000801Y011582D01*
X000801Y011484D02*
X001432Y011484D01*
X001478Y011385D02*
X000801Y011385D01*
X000801Y011287D02*
X001569Y011287D01*
X001801Y011287D02*
X001839Y011287D01*
X001839Y011385D02*
X001801Y011385D01*
X001801Y011484D02*
X001839Y011484D01*
X001839Y011582D02*
X001801Y011582D01*
X001995Y011976D02*
X008441Y011976D01*
X008441Y011878D02*
X002127Y011878D01*
X002191Y011779D02*
X008441Y011779D01*
X008441Y011681D02*
X002222Y011681D01*
X002228Y011582D02*
X008441Y011582D01*
X008441Y011484D02*
X002209Y011484D01*
X002163Y011385D02*
X008441Y011385D01*
X008441Y011287D02*
X002072Y011287D01*
X002049Y012075D02*
X008441Y012075D01*
X008441Y012173D02*
X002147Y012173D01*
X001601Y013641D02*
X001492Y013750D01*
X001451Y013849D02*
X000801Y013849D01*
X000801Y013947D02*
X001433Y013947D01*
X001433Y014046D02*
X000801Y014046D01*
X000801Y014144D02*
X001473Y014144D01*
X001545Y014243D02*
X000801Y014243D01*
X000801Y015130D02*
X001706Y015130D01*
X001588Y016017D02*
X000801Y016017D01*
X000801Y016115D02*
X001491Y016115D01*
X001450Y016214D02*
X000801Y016214D01*
X000801Y016312D02*
X001433Y016312D01*
X001433Y016411D02*
X000801Y016411D01*
X000801Y016509D02*
X001474Y016509D01*
X002054Y016805D02*
X005700Y016805D01*
X005602Y016904D02*
X002151Y016904D01*
X002092Y017396D02*
X006109Y017396D01*
X006309Y017790D02*
X010110Y017790D01*
X010094Y017889D02*
X006210Y017889D01*
X006112Y017988D02*
X010095Y017988D01*
X010136Y018086D02*
X006013Y018086D01*
X006105Y017994D02*
X006105Y017994D01*
X006407Y017692D02*
X010151Y017692D01*
X010247Y017593D02*
X006506Y017593D01*
X006604Y017495D02*
X010374Y017495D01*
X010405Y017507D02*
X010262Y017448D01*
X010153Y017339D01*
X010094Y017197D01*
X010094Y017043D01*
X010153Y016900D01*
X010262Y016791D01*
X010405Y016732D01*
X010559Y016732D01*
X010702Y016791D01*
X010811Y016900D01*
X010870Y017043D01*
X010870Y017197D01*
X010811Y017339D01*
X010702Y017448D01*
X010559Y017507D01*
X010405Y017507D01*
X010210Y017396D02*
X006703Y017396D01*
X006802Y017298D02*
X010136Y017298D01*
X010095Y017199D02*
X006900Y017199D01*
X006999Y017101D02*
X010094Y017101D01*
X010111Y017002D02*
X007097Y017002D01*
X007196Y016904D02*
X010152Y016904D01*
X010248Y016805D02*
X007294Y016805D01*
X007393Y016706D02*
X010372Y016706D01*
X010405Y016720D02*
X010262Y016661D01*
X010153Y016552D01*
X010094Y016409D01*
X010094Y016255D01*
X010153Y016113D01*
X010262Y016004D01*
X010405Y015944D01*
X010559Y015944D01*
X010702Y016004D01*
X010811Y016113D01*
X010870Y016255D01*
X010870Y016409D01*
X010811Y016552D01*
X010702Y016661D01*
X010559Y016720D01*
X010405Y016720D01*
X010209Y016608D02*
X007491Y016608D01*
X007590Y016509D02*
X010136Y016509D01*
X010095Y016411D02*
X007688Y016411D01*
X007787Y016312D02*
X010094Y016312D01*
X010111Y016214D02*
X007886Y016214D01*
X007984Y016115D02*
X010152Y016115D01*
X010249Y016017D02*
X008083Y016017D01*
X008181Y015918D02*
X010370Y015918D01*
X010405Y015933D02*
X010262Y015874D01*
X010153Y015765D01*
X010094Y015622D01*
X010094Y015468D01*
X010153Y015325D01*
X010262Y015216D01*
X010405Y015157D01*
X010559Y015157D01*
X010702Y015216D01*
X010811Y015325D01*
X010870Y015468D01*
X010870Y015622D01*
X010811Y015765D01*
X010702Y015874D01*
X010559Y015933D01*
X010405Y015933D01*
X010208Y015820D02*
X008280Y015820D01*
X008378Y015721D02*
X010135Y015721D01*
X010094Y015622D02*
X008477Y015622D01*
X008575Y015524D02*
X010094Y015524D01*
X010112Y015425D02*
X008674Y015425D01*
X008772Y015327D02*
X010152Y015327D01*
X010250Y015228D02*
X008871Y015228D01*
X008969Y015130D02*
X010367Y015130D01*
X010405Y015145D02*
X010262Y015086D01*
X010153Y014977D01*
X010094Y014835D01*
X010094Y014680D01*
X010153Y014538D01*
X010262Y014429D01*
X010405Y014370D01*
X010559Y014370D01*
X010702Y014429D01*
X010811Y014538D01*
X010870Y014680D01*
X010870Y014835D01*
X010811Y014977D01*
X010702Y015086D01*
X010559Y015145D01*
X010405Y015145D01*
X010207Y015031D02*
X009068Y015031D01*
X009167Y014933D02*
X010135Y014933D01*
X010094Y014834D02*
X009265Y014834D01*
X009238Y014861D02*
X009238Y014861D01*
X009361Y014736D02*
X010094Y014736D01*
X010112Y014637D02*
X009361Y014637D01*
X009361Y014539D02*
X010153Y014539D01*
X010251Y014440D02*
X009361Y014440D01*
X009361Y014341D02*
X010365Y014341D01*
X010405Y014358D02*
X010262Y014299D01*
X010153Y014190D01*
X010094Y014047D01*
X010094Y013893D01*
X010153Y013750D01*
X009361Y013750D01*
X009361Y013652D02*
X010252Y013652D01*
X010262Y013641D02*
X010405Y013582D01*
X010559Y013582D01*
X010702Y013641D01*
X010811Y013750D01*
X010870Y013893D01*
X010870Y014047D01*
X010811Y014190D01*
X010702Y014299D01*
X010559Y014358D01*
X010405Y014358D01*
X010206Y014243D02*
X009361Y014243D01*
X009361Y014144D02*
X010134Y014144D01*
X010094Y014046D02*
X009361Y014046D01*
X009361Y013947D02*
X010094Y013947D01*
X010112Y013849D02*
X009361Y013849D01*
X009361Y013553D02*
X010363Y013553D01*
X010405Y013570D02*
X010262Y013511D01*
X010153Y013402D01*
X010094Y013260D01*
X010094Y013106D01*
X010153Y012963D01*
X010262Y012854D01*
X010405Y012795D01*
X010559Y012795D01*
X010702Y012854D01*
X010811Y012963D01*
X010870Y013106D01*
X010870Y013260D01*
X010811Y013402D01*
X010702Y013511D01*
X010559Y013570D01*
X010405Y013570D01*
X010262Y013641D02*
X010153Y013750D01*
X010205Y013455D02*
X009361Y013455D01*
X009361Y013356D02*
X010134Y013356D01*
X010094Y013257D02*
X009361Y013257D01*
X009361Y013159D02*
X010094Y013159D01*
X010113Y013060D02*
X009361Y013060D01*
X009361Y012962D02*
X010154Y012962D01*
X010253Y012863D02*
X009361Y012863D01*
X009361Y012765D02*
X010361Y012765D01*
X010405Y012783D02*
X010262Y012724D01*
X010153Y012615D01*
X010094Y012472D01*
X010094Y012318D01*
X010153Y012176D01*
X010262Y012066D01*
X010405Y012007D01*
X010559Y012007D01*
X010702Y012066D01*
X010811Y012176D01*
X010870Y012318D01*
X010870Y012472D01*
X010811Y012615D01*
X010702Y012724D01*
X010559Y012783D01*
X010405Y012783D01*
X010204Y012666D02*
X009361Y012666D01*
X009361Y012568D02*
X010134Y012568D01*
X010094Y012469D02*
X009361Y012469D01*
X009361Y012371D02*
X010094Y012371D01*
X010113Y012272D02*
X009361Y012272D01*
X009361Y012173D02*
X010155Y012173D01*
X010254Y012075D02*
X009361Y012075D01*
X009361Y011976D02*
X010358Y011976D01*
X010405Y011996D02*
X010262Y011937D01*
X010153Y011828D01*
X010094Y011685D01*
X010094Y011531D01*
X010153Y011388D01*
X010262Y011279D01*
X010405Y011220D01*
X010559Y011220D01*
X010702Y011279D01*
X010811Y011388D01*
X010870Y011531D01*
X010870Y011685D01*
X010811Y011828D01*
X010702Y011937D01*
X010559Y011996D01*
X010405Y011996D01*
X010203Y011878D02*
X009361Y011878D01*
X009361Y011779D02*
X010133Y011779D01*
X010094Y011681D02*
X009361Y011681D01*
X009361Y011582D02*
X010094Y011582D01*
X010114Y011484D02*
X009361Y011484D01*
X009361Y011385D02*
X010156Y011385D01*
X010255Y011287D02*
X009361Y011287D01*
X009361Y011188D02*
X011501Y011188D01*
X011501Y011089D02*
X009361Y011089D01*
X009361Y010991D02*
X011501Y010991D01*
X011501Y010892D02*
X009361Y010892D01*
X009361Y010794D02*
X011501Y010794D01*
X011501Y010695D02*
X009361Y010695D01*
X009361Y010597D02*
X011501Y010597D01*
X011501Y010498D02*
X009361Y010498D01*
X009361Y010400D02*
X011501Y010400D01*
X011501Y010301D02*
X009361Y010301D01*
X009361Y010203D02*
X011501Y010203D01*
X011501Y010104D02*
X009361Y010104D01*
X009361Y010006D02*
X011501Y010006D01*
X011501Y009907D02*
X009361Y009907D01*
X009361Y009808D02*
X011501Y009808D01*
X011501Y009710D02*
X009361Y009710D01*
X009361Y009611D02*
X011501Y009611D01*
X011501Y009513D02*
X009361Y009513D01*
X009361Y009414D02*
X011501Y009414D01*
X011501Y009316D02*
X009361Y009316D01*
X009361Y009217D02*
X009629Y009217D01*
X009579Y009196D02*
X009481Y009098D01*
X009428Y008970D01*
X009428Y008832D01*
X009481Y008704D01*
X009566Y008619D01*
X009566Y006683D01*
X009481Y006598D01*
X009428Y006470D01*
X009428Y006332D01*
X009481Y006204D01*
X009579Y006106D01*
X009707Y006053D01*
X009845Y006053D01*
X009973Y006106D01*
X010071Y006204D01*
X010124Y006332D01*
X010124Y006470D01*
X010071Y006598D01*
X009986Y006683D01*
X009986Y008619D01*
X010071Y008704D01*
X010124Y008832D01*
X010124Y008970D01*
X010071Y009098D01*
X009973Y009196D01*
X009845Y009249D01*
X009707Y009249D01*
X009579Y009196D01*
X009501Y009119D02*
X009361Y009119D01*
X009361Y009020D02*
X009449Y009020D01*
X009428Y008922D02*
X009361Y008922D01*
X009361Y008823D02*
X009432Y008823D01*
X009473Y008724D02*
X009361Y008724D01*
X009361Y008626D02*
X009559Y008626D01*
X009566Y008527D02*
X009361Y008527D01*
X009361Y008429D02*
X009566Y008429D01*
X009566Y008330D02*
X009361Y008330D01*
X009361Y008232D02*
X009566Y008232D01*
X009566Y008133D02*
X009361Y008133D01*
X009361Y008035D02*
X009566Y008035D01*
X009566Y007936D02*
X009361Y007936D01*
X009361Y007838D02*
X009566Y007838D01*
X009566Y007739D02*
X009361Y007739D01*
X009361Y007640D02*
X009566Y007640D01*
X009566Y007542D02*
X009361Y007542D01*
X009361Y007443D02*
X009566Y007443D01*
X009566Y007345D02*
X009361Y007345D01*
X009361Y007246D02*
X009566Y007246D01*
X009566Y007148D02*
X009361Y007148D01*
X009361Y007049D02*
X009566Y007049D01*
X009566Y006951D02*
X009361Y006951D01*
X009361Y006852D02*
X009566Y006852D01*
X009566Y006754D02*
X009361Y006754D01*
X009361Y006655D02*
X009538Y006655D01*
X009464Y006556D02*
X009361Y006556D01*
X009361Y006458D02*
X009428Y006458D01*
X009428Y006359D02*
X009361Y006359D01*
X009361Y006261D02*
X009457Y006261D01*
X009523Y006162D02*
X009361Y006162D01*
X009361Y006064D02*
X009681Y006064D01*
X009871Y006064D02*
X011501Y006064D01*
X011501Y006162D02*
X010030Y006162D01*
X010095Y006261D02*
X011501Y006261D01*
X011501Y006359D02*
X010124Y006359D01*
X010124Y006458D02*
X011501Y006458D01*
X011501Y006556D02*
X010089Y006556D01*
X010015Y006655D02*
X011501Y006655D01*
X011501Y006754D02*
X009986Y006754D01*
X009986Y006852D02*
X011501Y006852D01*
X011501Y006951D02*
X009986Y006951D01*
X009986Y007049D02*
X011501Y007049D01*
X011501Y007148D02*
X009986Y007148D01*
X009986Y007246D02*
X011501Y007246D01*
X011501Y007345D02*
X009986Y007345D01*
X009986Y007443D02*
X011501Y007443D01*
X011501Y007542D02*
X009986Y007542D01*
X009986Y007640D02*
X011501Y007640D01*
X011501Y007739D02*
X009986Y007739D01*
X009986Y007838D02*
X011501Y007838D01*
X011501Y007936D02*
X009986Y007936D01*
X009986Y008035D02*
X011501Y008035D01*
X011501Y008133D02*
X009986Y008133D01*
X009986Y008232D02*
X011501Y008232D01*
X011501Y008330D02*
X009986Y008330D01*
X009986Y008429D02*
X011501Y008429D01*
X011501Y008527D02*
X009986Y008527D01*
X009993Y008626D02*
X011501Y008626D01*
X011501Y008724D02*
X010080Y008724D01*
X010121Y008823D02*
X011501Y008823D01*
X011501Y008922D02*
X010124Y008922D01*
X010104Y009020D02*
X011501Y009020D01*
X011501Y009119D02*
X010051Y009119D01*
X009923Y009217D02*
X011501Y009217D01*
X011501Y011287D02*
X010709Y011287D01*
X010808Y011385D02*
X011501Y011385D01*
X011501Y011484D02*
X010850Y011484D01*
X010870Y011582D02*
X011501Y011582D01*
X011501Y011681D02*
X010870Y011681D01*
X010831Y011779D02*
X011501Y011779D01*
X011501Y011878D02*
X010760Y011878D01*
X010606Y011976D02*
X011501Y011976D01*
X011501Y012075D02*
X010710Y012075D01*
X010809Y012173D02*
X011501Y012173D01*
X011501Y012272D02*
X010851Y012272D01*
X010870Y012371D02*
X011501Y012371D01*
X011501Y012469D02*
X010870Y012469D01*
X010830Y012568D02*
X011501Y012568D01*
X011501Y012666D02*
X010759Y012666D01*
X010603Y012765D02*
X011501Y012765D01*
X011501Y012863D02*
X010711Y012863D01*
X010809Y012962D02*
X011501Y012962D01*
X011501Y013060D02*
X010851Y013060D01*
X010870Y013159D02*
X011501Y013159D01*
X011501Y013257D02*
X010870Y013257D01*
X010830Y013356D02*
X011501Y013356D01*
X011501Y013455D02*
X010758Y013455D01*
X010601Y013553D02*
X011501Y013553D01*
X011501Y013652D02*
X010712Y013652D01*
X010810Y013750D02*
X011501Y013750D01*
X011501Y013849D02*
X010851Y013849D01*
X010870Y013947D02*
X011501Y013947D01*
X011501Y014046D02*
X010870Y014046D01*
X010829Y014144D02*
X011501Y014144D01*
X011501Y014243D02*
X010757Y014243D01*
X010599Y014341D02*
X011501Y014341D01*
X011501Y014440D02*
X010713Y014440D01*
X010811Y014539D02*
X011501Y014539D01*
X011501Y014637D02*
X010852Y014637D01*
X010870Y014736D02*
X011501Y014736D01*
X011501Y014834D02*
X010870Y014834D01*
X010829Y014933D02*
X011501Y014933D01*
X011501Y015031D02*
X010757Y015031D01*
X010596Y015130D02*
X011501Y015130D01*
X011501Y015228D02*
X010714Y015228D01*
X010811Y015327D02*
X011501Y015327D01*
X011501Y015425D02*
X010852Y015425D01*
X010870Y015524D02*
X011501Y015524D01*
X011501Y015622D02*
X010869Y015622D01*
X010829Y015721D02*
X011501Y015721D01*
X011501Y015820D02*
X010756Y015820D01*
X010594Y015918D02*
X011501Y015918D01*
X011501Y016017D02*
X010715Y016017D01*
X010812Y016115D02*
X011501Y016115D01*
X011501Y016214D02*
X010852Y016214D01*
X010870Y016312D02*
X011501Y016312D01*
X011501Y016411D02*
X010869Y016411D01*
X010828Y016509D02*
X011501Y016509D01*
X011501Y016608D02*
X010755Y016608D01*
X010592Y016706D02*
X011501Y016706D01*
X011501Y016805D02*
X010716Y016805D01*
X010812Y016904D02*
X011501Y016904D01*
X011501Y017002D02*
X010853Y017002D01*
X010870Y017101D02*
X011501Y017101D01*
X011501Y017199D02*
X010869Y017199D01*
X010828Y017298D02*
X011501Y017298D01*
X011501Y017396D02*
X010754Y017396D01*
X010590Y017495D02*
X011501Y017495D01*
X011501Y017593D02*
X010717Y017593D01*
X010812Y017692D02*
X011501Y017692D01*
X011501Y017790D02*
X010853Y017790D01*
X010870Y017889D02*
X011501Y017889D01*
X011501Y017988D02*
X010868Y017988D01*
X010827Y018086D02*
X011501Y018086D01*
X011501Y018185D02*
X010753Y018185D01*
X010587Y018283D02*
X011501Y018283D01*
X011501Y018382D02*
X010718Y018382D01*
X010813Y018480D02*
X011501Y018480D01*
X011501Y018579D02*
X010854Y018579D01*
X010870Y018677D02*
X011501Y018677D01*
X011501Y018776D02*
X010868Y018776D01*
X010827Y018874D02*
X011501Y018874D01*
X011501Y018973D02*
X010752Y018973D01*
X010585Y019071D02*
X011501Y019071D01*
X011501Y019170D02*
X000801Y019170D01*
X000801Y019269D02*
X011501Y019269D01*
X011501Y019367D02*
X000801Y019367D01*
X000801Y019466D02*
X011501Y019466D01*
X011501Y019564D02*
X000801Y019564D01*
X000801Y019663D02*
X011501Y019663D01*
X011501Y019761D02*
X000801Y019761D01*
X000801Y019860D02*
X011501Y019860D01*
X011501Y019958D02*
X000801Y019958D01*
X000801Y020057D02*
X011501Y020057D01*
X011501Y020155D02*
X000801Y020155D01*
X000801Y020254D02*
X011501Y020254D01*
X011501Y020353D02*
X000801Y020353D01*
X000801Y020451D02*
X011501Y020451D01*
X011501Y020550D02*
X000801Y020550D01*
X000801Y020648D02*
X011501Y020648D01*
X011501Y020747D02*
X000801Y020747D01*
X000801Y020845D02*
X011501Y020845D01*
X011501Y020944D02*
X000801Y020944D01*
X000801Y021042D02*
X011501Y021042D01*
X011501Y021141D02*
X000801Y021141D01*
X000801Y021239D02*
X011501Y021239D01*
X011501Y021338D02*
X000801Y021338D01*
X000801Y021437D02*
X011501Y021437D01*
X011501Y021535D02*
X000801Y021535D01*
X000801Y021634D02*
X011501Y021634D01*
X011501Y021732D02*
X000801Y021732D01*
X000801Y021831D02*
X011501Y021831D01*
X011501Y021929D02*
X009414Y021929D01*
X009346Y021861D02*
X009621Y022136D01*
X009621Y022281D01*
X009201Y022281D01*
X009201Y021861D01*
X009346Y021861D01*
X009201Y021929D02*
X009101Y021929D01*
X009101Y021861D02*
X009101Y022281D01*
X009201Y022281D01*
X009201Y022381D01*
X009621Y022381D01*
X009621Y022526D01*
X009346Y022801D01*
X009201Y022801D01*
X009201Y022381D01*
X009101Y022381D01*
X009101Y022281D01*
X008681Y022281D01*
X008681Y022136D01*
X008956Y021861D01*
X009101Y021861D01*
X009101Y022028D02*
X009201Y022028D01*
X009201Y022126D02*
X009101Y022126D01*
X009101Y022225D02*
X009201Y022225D01*
X009201Y022323D02*
X011501Y022323D01*
X011501Y022225D02*
X009621Y022225D01*
X009611Y022126D02*
X011501Y022126D01*
X011501Y022028D02*
X009512Y022028D01*
X009621Y022422D02*
X011501Y022422D01*
X011501Y022521D02*
X009621Y022521D01*
X009528Y022619D02*
X011501Y022619D01*
X011497Y022718D02*
X009429Y022718D01*
X009338Y022881D02*
X009601Y023145D01*
X009601Y023518D01*
X009338Y023781D01*
X008965Y023781D01*
X008701Y023518D01*
X008701Y023145D01*
X008965Y022881D01*
X009338Y022881D01*
X009371Y022915D02*
X011466Y022915D01*
X011440Y023013D02*
X009470Y023013D01*
X009568Y023112D02*
X011413Y023112D01*
X011374Y023210D02*
X009601Y023210D01*
X009601Y023309D02*
X011317Y023309D01*
X011260Y023407D02*
X009601Y023407D01*
X009601Y023506D02*
X011189Y023506D01*
X011091Y023604D02*
X009514Y023604D01*
X009416Y023703D02*
X010992Y023703D01*
X010836Y023802D02*
X001467Y023802D01*
X001310Y023703D02*
X002858Y023703D01*
X002956Y023801D02*
X002681Y023526D01*
X002681Y023381D01*
X003101Y023381D01*
X003101Y023281D01*
X003201Y023281D01*
X003201Y022861D01*
X003346Y022861D01*
X003621Y023136D01*
X003621Y023281D01*
X003201Y023281D01*
X003201Y023381D01*
X003621Y023381D01*
X003621Y023526D01*
X003346Y023801D01*
X003201Y023801D01*
X003201Y023381D01*
X003101Y023381D01*
X003101Y023801D01*
X002956Y023801D01*
X002760Y023604D02*
X001212Y023604D01*
X001113Y023506D02*
X002681Y023506D01*
X002681Y023407D02*
X001042Y023407D01*
X000985Y023309D02*
X003101Y023309D01*
X003101Y023281D02*
X002681Y023281D01*
X002681Y023136D01*
X002956Y022861D01*
X003101Y022861D01*
X003101Y023281D01*
X003101Y023210D02*
X003201Y023210D01*
X003201Y023112D02*
X003101Y023112D01*
X003101Y023013D02*
X003201Y023013D01*
X003201Y022915D02*
X003101Y022915D01*
X003101Y022801D02*
X002956Y022801D01*
X002681Y022526D01*
X002681Y022381D01*
X003101Y022381D01*
X003101Y022281D01*
X003201Y022281D01*
X003201Y021861D01*
X003346Y021861D01*
X003621Y022136D01*
X003621Y022281D01*
X003201Y022281D01*
X003201Y022381D01*
X003621Y022381D01*
X003621Y022526D01*
X003346Y022801D01*
X003201Y022801D01*
X003201Y022381D01*
X003101Y022381D01*
X003101Y022801D01*
X003101Y022718D02*
X003201Y022718D01*
X003201Y022619D02*
X003101Y022619D01*
X003101Y022521D02*
X003201Y022521D01*
X003201Y022422D02*
X003101Y022422D01*
X003101Y022323D02*
X000801Y022323D01*
X000801Y022225D02*
X002681Y022225D01*
X002681Y022281D02*
X002681Y022136D01*
X002956Y021861D01*
X003101Y021861D01*
X003101Y022281D01*
X002681Y022281D01*
X002681Y022422D02*
X000801Y022422D01*
X000801Y022521D02*
X002681Y022521D01*
X002774Y022619D02*
X000801Y022619D01*
X000805Y022718D02*
X002873Y022718D01*
X002903Y022915D02*
X000836Y022915D01*
X000862Y023013D02*
X002804Y023013D01*
X002706Y023112D02*
X000889Y023112D01*
X000928Y023210D02*
X002681Y023210D01*
X003101Y023407D02*
X003201Y023407D01*
X003201Y023309D02*
X003701Y023309D01*
X003701Y023407D02*
X003621Y023407D01*
X003621Y023506D02*
X003701Y023506D01*
X003701Y023518D02*
X003701Y023145D01*
X003965Y022881D01*
X004338Y022881D01*
X004601Y023145D01*
X004601Y023518D01*
X004338Y023781D01*
X003965Y023781D01*
X003701Y023518D01*
X003788Y023604D02*
X003542Y023604D01*
X003444Y023703D02*
X003887Y023703D01*
X003701Y023210D02*
X003621Y023210D01*
X003596Y023112D02*
X003734Y023112D01*
X003833Y023013D02*
X003498Y023013D01*
X003399Y022915D02*
X003931Y022915D01*
X003965Y022781D02*
X003701Y022518D01*
X003701Y022145D01*
X003965Y021881D01*
X004338Y021881D01*
X004601Y022145D01*
X004601Y022518D01*
X004338Y022781D01*
X003965Y022781D01*
X003901Y022718D02*
X003429Y022718D01*
X003528Y022619D02*
X003803Y022619D01*
X003704Y022521D02*
X003621Y022521D01*
X003621Y022422D02*
X003701Y022422D01*
X003701Y022323D02*
X003201Y022323D01*
X003201Y022225D02*
X003101Y022225D01*
X003101Y022126D02*
X003201Y022126D01*
X003201Y022028D02*
X003101Y022028D01*
X003101Y021929D02*
X003201Y021929D01*
X003414Y021929D02*
X003917Y021929D01*
X003818Y022028D02*
X003512Y022028D01*
X003611Y022126D02*
X003720Y022126D01*
X003701Y022225D02*
X003621Y022225D01*
X004371Y022915D02*
X004931Y022915D01*
X004965Y022881D02*
X005338Y022881D01*
X005601Y023145D01*
X005601Y023518D01*
X005338Y023781D01*
X004965Y023781D01*
X004701Y023518D01*
X004701Y023145D01*
X004965Y022881D01*
X004956Y022801D02*
X004681Y022526D01*
X004681Y022381D01*
X005101Y022381D01*
X005101Y022281D01*
X005201Y022281D01*
X005201Y021861D01*
X005346Y021861D01*
X005621Y022136D01*
X005621Y022281D01*
X005201Y022281D01*
X005201Y022381D01*
X005621Y022381D01*
X005621Y022526D01*
X005346Y022801D01*
X005201Y022801D01*
X005201Y022381D01*
X005101Y022381D01*
X005101Y022801D01*
X004956Y022801D01*
X004873Y022718D02*
X004401Y022718D01*
X004500Y022619D02*
X004774Y022619D01*
X004681Y022521D02*
X004598Y022521D01*
X004601Y022422D02*
X004681Y022422D01*
X004601Y022323D02*
X005101Y022323D01*
X005101Y022281D02*
X004681Y022281D01*
X004681Y022136D01*
X004956Y021861D01*
X005101Y021861D01*
X005101Y022281D01*
X005101Y022225D02*
X005201Y022225D01*
X005201Y022323D02*
X006101Y022323D01*
X006101Y022281D02*
X006101Y022381D01*
X005681Y022381D01*
X005681Y022526D01*
X005956Y022801D01*
X006101Y022801D01*
X006101Y022381D01*
X006201Y022381D01*
X006621Y022381D01*
X006621Y022526D01*
X006346Y022801D01*
X006201Y022801D01*
X006201Y022381D01*
X006201Y022281D01*
X006201Y021861D01*
X006346Y021861D01*
X006621Y022136D01*
X006621Y022281D01*
X006201Y022281D01*
X006101Y022281D01*
X006101Y021861D01*
X005956Y021861D01*
X005681Y022136D01*
X005681Y022281D01*
X006101Y022281D01*
X006101Y022225D02*
X006201Y022225D01*
X006201Y022323D02*
X007101Y022323D01*
X007101Y022281D02*
X007101Y022381D01*
X006681Y022381D01*
X006681Y022526D01*
X006956Y022801D01*
X007101Y022801D01*
X007101Y022381D01*
X007201Y022381D01*
X007621Y022381D01*
X007621Y022526D01*
X007346Y022801D01*
X007201Y022801D01*
X007201Y022381D01*
X007201Y022281D01*
X007201Y021861D01*
X007346Y021861D01*
X007621Y022136D01*
X007621Y022281D01*
X007201Y022281D01*
X007101Y022281D01*
X007101Y021861D01*
X006956Y021861D01*
X006681Y022136D01*
X006681Y022281D01*
X007101Y022281D01*
X007101Y022225D02*
X007201Y022225D01*
X007201Y022323D02*
X008101Y022323D01*
X008101Y022281D02*
X008101Y022381D01*
X007681Y022381D01*
X007681Y022526D01*
X007956Y022801D01*
X008101Y022801D01*
X008101Y022381D01*
X008201Y022381D01*
X008621Y022381D01*
X008621Y022526D01*
X008346Y022801D01*
X008201Y022801D01*
X008201Y022381D01*
X008201Y022281D01*
X008201Y021861D01*
X008346Y021861D01*
X008621Y022136D01*
X008621Y022281D01*
X008201Y022281D01*
X008101Y022281D01*
X008101Y021861D01*
X007956Y021861D01*
X007681Y022136D01*
X007681Y022281D01*
X008101Y022281D01*
X008101Y022225D02*
X008201Y022225D01*
X008201Y022323D02*
X009101Y022323D01*
X009101Y022381D02*
X008681Y022381D01*
X008681Y022526D01*
X008956Y022801D01*
X009101Y022801D01*
X009101Y022381D01*
X009101Y022422D02*
X009201Y022422D01*
X009201Y022521D02*
X009101Y022521D01*
X009101Y022619D02*
X009201Y022619D01*
X009201Y022718D02*
X009101Y022718D01*
X008931Y022915D02*
X008371Y022915D01*
X008338Y022881D02*
X008601Y023145D01*
X008601Y023518D01*
X008338Y023781D01*
X007965Y023781D01*
X007701Y023518D01*
X007701Y023145D01*
X007965Y022881D01*
X008338Y022881D01*
X008470Y023013D02*
X008833Y023013D01*
X008734Y023112D02*
X008568Y023112D01*
X008601Y023210D02*
X008701Y023210D01*
X008701Y023309D02*
X008601Y023309D01*
X008601Y023407D02*
X008701Y023407D01*
X008701Y023506D02*
X008601Y023506D01*
X008514Y023604D02*
X008788Y023604D01*
X008887Y023703D02*
X008416Y023703D01*
X007887Y023703D02*
X007416Y023703D01*
X007338Y023781D02*
X007601Y023518D01*
X007601Y023145D01*
X007338Y022881D01*
X006965Y022881D01*
X006701Y023145D01*
X006701Y023518D01*
X006965Y023781D01*
X007338Y023781D01*
X007514Y023604D02*
X007788Y023604D01*
X007701Y023506D02*
X007601Y023506D01*
X007601Y023407D02*
X007701Y023407D01*
X007701Y023309D02*
X007601Y023309D01*
X007601Y023210D02*
X007701Y023210D01*
X007734Y023112D02*
X007568Y023112D01*
X007470Y023013D02*
X007833Y023013D01*
X007931Y022915D02*
X007371Y022915D01*
X007429Y022718D02*
X007873Y022718D01*
X007774Y022619D02*
X007528Y022619D01*
X007621Y022521D02*
X007681Y022521D01*
X007681Y022422D02*
X007621Y022422D01*
X007621Y022225D02*
X007681Y022225D01*
X007691Y022126D02*
X007611Y022126D01*
X007512Y022028D02*
X007790Y022028D01*
X007888Y021929D02*
X007414Y021929D01*
X007201Y021929D02*
X007101Y021929D01*
X007101Y022028D02*
X007201Y022028D01*
X007201Y022126D02*
X007101Y022126D01*
X007101Y022422D02*
X007201Y022422D01*
X007201Y022521D02*
X007101Y022521D01*
X007101Y022619D02*
X007201Y022619D01*
X007201Y022718D02*
X007101Y022718D01*
X006873Y022718D02*
X006429Y022718D01*
X006528Y022619D02*
X006774Y022619D01*
X006681Y022521D02*
X006621Y022521D01*
X006621Y022422D02*
X006681Y022422D01*
X006681Y022225D02*
X006621Y022225D01*
X006611Y022126D02*
X006691Y022126D01*
X006790Y022028D02*
X006512Y022028D01*
X006414Y021929D02*
X006888Y021929D01*
X006931Y022915D02*
X006371Y022915D01*
X006338Y022881D02*
X006601Y023145D01*
X006601Y023518D01*
X006338Y023781D01*
X005965Y023781D01*
X005701Y023518D01*
X005701Y023145D01*
X005965Y022881D01*
X006338Y022881D01*
X006470Y023013D02*
X006833Y023013D01*
X006734Y023112D02*
X006568Y023112D01*
X006601Y023210D02*
X006701Y023210D01*
X006701Y023309D02*
X006601Y023309D01*
X006601Y023407D02*
X006701Y023407D01*
X006701Y023506D02*
X006601Y023506D01*
X006514Y023604D02*
X006788Y023604D01*
X006887Y023703D02*
X006416Y023703D01*
X005887Y023703D02*
X005416Y023703D01*
X005514Y023604D02*
X005788Y023604D01*
X005701Y023506D02*
X005601Y023506D01*
X005601Y023407D02*
X005701Y023407D01*
X005701Y023309D02*
X005601Y023309D01*
X005601Y023210D02*
X005701Y023210D01*
X005734Y023112D02*
X005568Y023112D01*
X005470Y023013D02*
X005833Y023013D01*
X005931Y022915D02*
X005371Y022915D01*
X005429Y022718D02*
X005873Y022718D01*
X005774Y022619D02*
X005528Y022619D01*
X005621Y022521D02*
X005681Y022521D01*
X005681Y022422D02*
X005621Y022422D01*
X005621Y022225D02*
X005681Y022225D01*
X005691Y022126D02*
X005611Y022126D01*
X005512Y022028D02*
X005790Y022028D01*
X005888Y021929D02*
X005414Y021929D01*
X005201Y021929D02*
X005101Y021929D01*
X005101Y022028D02*
X005201Y022028D01*
X005201Y022126D02*
X005101Y022126D01*
X005101Y022422D02*
X005201Y022422D01*
X005201Y022521D02*
X005101Y022521D01*
X005101Y022619D02*
X005201Y022619D01*
X005201Y022718D02*
X005101Y022718D01*
X004833Y023013D02*
X004470Y023013D01*
X004568Y023112D02*
X004734Y023112D01*
X004701Y023210D02*
X004601Y023210D01*
X004601Y023309D02*
X004701Y023309D01*
X004701Y023407D02*
X004601Y023407D01*
X004601Y023506D02*
X004701Y023506D01*
X004788Y023604D02*
X004514Y023604D01*
X004416Y023703D02*
X004887Y023703D01*
X004681Y022225D02*
X004601Y022225D01*
X004583Y022126D02*
X004691Y022126D01*
X004790Y022028D02*
X004484Y022028D01*
X004386Y021929D02*
X004888Y021929D01*
X006101Y021929D02*
X006201Y021929D01*
X006201Y022028D02*
X006101Y022028D01*
X006101Y022126D02*
X006201Y022126D01*
X006201Y022422D02*
X006101Y022422D01*
X006101Y022521D02*
X006201Y022521D01*
X006201Y022619D02*
X006101Y022619D01*
X006101Y022718D02*
X006201Y022718D01*
X008101Y022718D02*
X008201Y022718D01*
X008201Y022619D02*
X008101Y022619D01*
X008101Y022521D02*
X008201Y022521D01*
X008201Y022422D02*
X008101Y022422D01*
X008101Y022126D02*
X008201Y022126D01*
X008201Y022028D02*
X008101Y022028D01*
X008101Y021929D02*
X008201Y021929D01*
X008414Y021929D02*
X008888Y021929D01*
X008790Y022028D02*
X008512Y022028D01*
X008611Y022126D02*
X008691Y022126D01*
X008681Y022225D02*
X008621Y022225D01*
X008621Y022422D02*
X008681Y022422D01*
X008681Y022521D02*
X008621Y022521D01*
X008528Y022619D02*
X008774Y022619D01*
X008873Y022718D02*
X008429Y022718D01*
X010190Y023999D02*
X002113Y023999D01*
X001641Y023900D02*
X010661Y023900D01*
X011490Y022816D02*
X000812Y022816D01*
X000801Y022126D02*
X002691Y022126D01*
X002790Y022028D02*
X000801Y022028D01*
X000801Y021929D02*
X002888Y021929D01*
X003101Y023506D02*
X003201Y023506D01*
X003201Y023604D02*
X003101Y023604D01*
X003101Y023703D02*
X003201Y023703D01*
X005324Y016706D02*
X005799Y016706D01*
X005897Y016608D02*
X005437Y016608D01*
X005483Y016509D02*
X005996Y016509D01*
X006095Y016411D02*
X005499Y016411D01*
X005537Y016312D02*
X006193Y016312D01*
X006292Y016214D02*
X005636Y016214D01*
X006323Y014933D02*
X004747Y014933D01*
X004869Y014834D02*
X006421Y014834D01*
X006520Y014736D02*
X004937Y014736D01*
X004978Y014637D02*
X006618Y014637D01*
X006717Y014539D02*
X004986Y014539D01*
X005656Y013849D02*
X005972Y013849D01*
X005656Y013750D02*
X007316Y013750D01*
X007316Y013652D02*
X005656Y013652D01*
X005656Y013553D02*
X007316Y013553D01*
X007316Y013455D02*
X005656Y013455D01*
X005656Y013356D02*
X007316Y013356D01*
X007316Y013257D02*
X005656Y013257D01*
X005656Y013159D02*
X007316Y013159D01*
X007316Y013060D02*
X005656Y013060D01*
X005656Y012962D02*
X007316Y012962D01*
X007246Y012863D02*
X005656Y012863D01*
X005656Y012765D02*
X007196Y012765D01*
X007178Y012666D02*
X005656Y012666D01*
X005651Y012568D02*
X007184Y012568D01*
X007316Y013849D02*
X006331Y013849D01*
X006440Y013947D02*
X007308Y013947D01*
X007210Y014046D02*
X006484Y014046D01*
X006499Y014144D02*
X007111Y014144D01*
X007012Y014243D02*
X006490Y014243D01*
X006449Y014341D02*
X006914Y014341D01*
X006815Y014440D02*
X006355Y014440D01*
X004951Y010991D02*
X004851Y010991D01*
X004851Y010892D02*
X004951Y010892D01*
X004951Y010794D02*
X004851Y010794D01*
X004851Y010695D02*
X004951Y010695D01*
X004951Y010597D02*
X004851Y010597D01*
X004851Y010498D02*
X004951Y010498D01*
X004951Y010400D02*
X004851Y010400D01*
X004851Y010301D02*
X004951Y010301D01*
X004951Y010203D02*
X004851Y010203D01*
X004851Y009907D02*
X004951Y009907D01*
X004951Y009808D02*
X004851Y009808D01*
X004851Y009710D02*
X004951Y009710D01*
X004951Y009611D02*
X004851Y009611D01*
X004851Y009513D02*
X004951Y009513D01*
X004951Y009414D02*
X004851Y009414D01*
X004851Y009316D02*
X004951Y009316D01*
X005647Y007739D02*
X006566Y007739D01*
X006566Y007838D02*
X000801Y007838D01*
X000801Y007936D02*
X006566Y007936D01*
X006566Y008035D02*
X000801Y008035D01*
X000801Y008133D02*
X006566Y008133D01*
X006566Y008232D02*
X000801Y008232D01*
X000801Y008330D02*
X006658Y008330D01*
X006757Y008429D02*
X000801Y008429D01*
X000801Y008527D02*
X006855Y008527D01*
X006566Y007640D02*
X005656Y007640D01*
X005656Y007542D02*
X006588Y007542D01*
X006687Y007443D02*
X005656Y007443D01*
X005656Y007345D02*
X006511Y007345D01*
X006379Y007246D02*
X005656Y007246D01*
X005656Y007148D02*
X006325Y007148D01*
X006303Y007049D02*
X005656Y007049D01*
X005656Y006951D02*
X006306Y006951D01*
X006346Y006852D02*
X005656Y006852D01*
X005656Y006754D02*
X006431Y006754D01*
X006441Y006655D02*
X005656Y006655D01*
X005656Y006556D02*
X006441Y006556D01*
X006441Y006458D02*
X005656Y006458D01*
X005643Y006359D02*
X006441Y006359D01*
X006624Y004881D02*
X004663Y004881D01*
X004373Y003009D02*
X003930Y003009D01*
X004028Y002910D02*
X004274Y002910D01*
X004201Y002812D02*
X004101Y002812D01*
X004101Y002713D02*
X004201Y002713D01*
X004201Y002615D02*
X004101Y002615D01*
X004101Y002516D02*
X004201Y002516D01*
X004248Y002418D02*
X004054Y002418D01*
X003701Y003206D02*
X003601Y003206D01*
X003601Y003305D02*
X003701Y003305D01*
X003701Y003403D02*
X003601Y003403D01*
X003601Y003502D02*
X003701Y003502D01*
X003701Y003600D02*
X003601Y003600D01*
X003373Y003009D02*
X003361Y003009D01*
X002460Y003206D02*
X000801Y003206D01*
X000801Y003305D02*
X002361Y003305D01*
X002263Y003403D02*
X000801Y003403D01*
X000801Y003502D02*
X002201Y003502D01*
X002201Y003600D02*
X000801Y003600D01*
X000801Y003699D02*
X002201Y003699D01*
X002201Y003797D02*
X000801Y003797D01*
X000801Y003896D02*
X002259Y003896D01*
X002358Y003994D02*
X000801Y003994D01*
X000801Y004093D02*
X002457Y004093D01*
X000801Y004191D02*
X005814Y004191D01*
X005846Y004093D02*
X005912Y004093D01*
X005944Y003994D02*
X006011Y003994D01*
X006043Y003896D02*
X006110Y003896D01*
X006101Y003797D02*
X006201Y003797D01*
X006201Y003699D02*
X006101Y003699D01*
X006101Y003600D02*
X006201Y003600D01*
X006201Y003502D02*
X006101Y003502D01*
X006039Y003403D02*
X006263Y003403D01*
X006408Y004191D02*
X007173Y004191D01*
X007074Y004093D02*
X006846Y004093D01*
X006944Y003994D02*
X006976Y003994D01*
X006921Y004389D02*
X006211Y004389D01*
X006112Y004487D02*
X006842Y004487D01*
X006803Y004586D02*
X006014Y004586D01*
X005915Y004684D02*
X006803Y004684D01*
X006723Y004783D02*
X005817Y004783D01*
X006309Y004290D02*
X007271Y004290D01*
X007701Y003701D02*
X008121Y003701D01*
X008121Y003846D01*
X007881Y004086D01*
X007980Y004086D01*
X008230Y004336D01*
X008341Y004447D01*
X008341Y005298D01*
X008348Y005301D01*
X008441Y005394D01*
X008441Y004078D01*
X008201Y003838D01*
X008201Y003470D01*
X008072Y003341D01*
X008006Y003341D01*
X008121Y003456D01*
X008121Y003601D01*
X007701Y003601D01*
X007701Y003701D01*
X007701Y003699D02*
X008201Y003699D01*
X008201Y003797D02*
X008121Y003797D01*
X008071Y003896D02*
X008259Y003896D01*
X008358Y003994D02*
X007973Y003994D01*
X007987Y004093D02*
X008441Y004093D01*
X008441Y004191D02*
X008085Y004191D01*
X008184Y004290D02*
X008441Y004290D01*
X008441Y004389D02*
X008282Y004389D01*
X008341Y004487D02*
X008441Y004487D01*
X008441Y004586D02*
X008341Y004586D01*
X008341Y004684D02*
X008441Y004684D01*
X008441Y004783D02*
X008341Y004783D01*
X008341Y004881D02*
X008441Y004881D01*
X008441Y004980D02*
X008341Y004980D01*
X008341Y005078D02*
X008441Y005078D01*
X008441Y005177D02*
X008341Y005177D01*
X008341Y005275D02*
X008441Y005275D01*
X008441Y005374D02*
X008421Y005374D01*
X008861Y005374D02*
X008941Y005374D01*
X008941Y005473D02*
X008861Y005473D01*
X008861Y005571D02*
X008941Y005571D01*
X008941Y005670D02*
X008861Y005670D01*
X008861Y005768D02*
X008941Y005768D01*
X008941Y005867D02*
X008861Y005867D01*
X008861Y005965D02*
X008941Y005965D01*
X008941Y006064D02*
X008861Y006064D01*
X008861Y006162D02*
X008941Y006162D01*
X008941Y006261D02*
X008861Y006261D01*
X008861Y006359D02*
X008941Y006359D01*
X008941Y006458D02*
X008861Y006458D01*
X008861Y006556D02*
X008941Y006556D01*
X008941Y006655D02*
X008861Y006655D01*
X008861Y006754D02*
X008941Y006754D01*
X008941Y006852D02*
X008861Y006852D01*
X008861Y006951D02*
X008941Y006951D01*
X008941Y007049D02*
X008861Y007049D01*
X008861Y007148D02*
X008941Y007148D01*
X008941Y007246D02*
X008861Y007246D01*
X008861Y007345D02*
X008941Y007345D01*
X008941Y007443D02*
X008861Y007443D01*
X008861Y007542D02*
X008941Y007542D01*
X008941Y007640D02*
X008861Y007640D01*
X008861Y007739D02*
X008941Y007739D01*
X008941Y007838D02*
X008861Y007838D01*
X008861Y007936D02*
X008941Y007936D01*
X008941Y008035D02*
X008861Y008035D01*
X008861Y008133D02*
X008941Y008133D01*
X008941Y008232D02*
X008861Y008232D01*
X008861Y008330D02*
X008941Y008330D01*
X008941Y008429D02*
X008861Y008429D01*
X008861Y008527D02*
X008941Y008527D01*
X008441Y009316D02*
X005822Y009316D01*
X005831Y009414D02*
X008441Y009414D01*
X008441Y009513D02*
X005831Y009513D01*
X005831Y009611D02*
X008441Y009611D01*
X008441Y009710D02*
X005831Y009710D01*
X005831Y009808D02*
X008441Y009808D01*
X008441Y009907D02*
X005831Y009907D01*
X007884Y008626D02*
X000801Y008626D01*
X000801Y008724D02*
X008022Y008724D01*
X008441Y011188D02*
X000801Y011188D01*
X007362Y002084D02*
X007219Y001940D01*
X007151Y001777D01*
X007120Y001851D01*
X007230Y001961D01*
X007341Y002072D01*
X007341Y002297D01*
X007456Y002181D01*
X007601Y002181D01*
X007601Y002601D01*
X007701Y002601D01*
X007701Y002181D01*
X007846Y002181D01*
X008121Y002456D01*
X008121Y002601D01*
X007701Y002601D01*
X007701Y002701D01*
X008121Y002701D01*
X008121Y002846D01*
X008006Y002961D01*
X008072Y002961D01*
X008230Y002961D01*
X008470Y003201D01*
X008838Y003201D01*
X008941Y003305D01*
X008941Y003238D01*
X008804Y003101D01*
X008465Y003101D01*
X008201Y002838D01*
X008201Y002465D01*
X008465Y002201D01*
X008838Y002201D01*
X009101Y002465D01*
X009101Y002804D01*
X009361Y003064D01*
X009361Y003238D01*
X009361Y003305D01*
X009465Y003201D01*
X009832Y003201D01*
X009961Y003072D01*
X009961Y002977D01*
X009838Y003101D01*
X009465Y003101D01*
X009201Y002838D01*
X009201Y002465D01*
X009465Y002201D01*
X009838Y002201D01*
X009961Y002325D01*
X009961Y002230D01*
X008947Y001216D01*
X008934Y001216D01*
X008940Y001219D01*
X009084Y001362D01*
X009161Y001550D01*
X009161Y001753D01*
X009084Y001940D01*
X008940Y002084D01*
X008753Y002161D01*
X008550Y002161D01*
X008362Y002084D01*
X008219Y001940D01*
X008151Y001777D01*
X008084Y001940D01*
X007940Y002084D01*
X007753Y002161D01*
X007550Y002161D01*
X007362Y002084D01*
X007341Y002122D02*
X007455Y002122D01*
X007417Y002221D02*
X007341Y002221D01*
X007302Y002024D02*
X007292Y002024D01*
X007213Y001925D02*
X007194Y001925D01*
X007172Y001826D02*
X007131Y001826D01*
X007601Y002221D02*
X007701Y002221D01*
X007701Y002319D02*
X007601Y002319D01*
X007601Y002418D02*
X007701Y002418D01*
X007701Y002516D02*
X007601Y002516D01*
X007701Y002615D02*
X008201Y002615D01*
X008201Y002713D02*
X008121Y002713D01*
X008121Y002812D02*
X008201Y002812D01*
X008274Y002910D02*
X008057Y002910D01*
X008121Y002516D02*
X008201Y002516D01*
X008248Y002418D02*
X008082Y002418D01*
X007984Y002319D02*
X008347Y002319D01*
X008445Y002221D02*
X007885Y002221D01*
X007847Y002122D02*
X008455Y002122D01*
X008302Y002024D02*
X008000Y002024D01*
X008090Y001925D02*
X008213Y001925D01*
X008172Y001826D02*
X008131Y001826D01*
X008847Y002122D02*
X009853Y002122D01*
X009857Y002221D02*
X009952Y002221D01*
X009955Y002319D02*
X009961Y002319D01*
X009755Y002024D02*
X009000Y002024D01*
X009090Y001925D02*
X009656Y001925D01*
X009558Y001826D02*
X009131Y001826D01*
X009161Y001728D02*
X009459Y001728D01*
X009361Y001629D02*
X009161Y001629D01*
X009153Y001531D02*
X009262Y001531D01*
X009164Y001432D02*
X009112Y001432D01*
X009065Y001334D02*
X009055Y001334D01*
X008966Y001235D02*
X008956Y001235D01*
X009110Y000841D02*
X010433Y000841D01*
X010730Y000940D02*
X009208Y000940D01*
X009307Y001038D02*
X010900Y001038D01*
X011029Y001137D02*
X009405Y001137D01*
X009504Y001235D02*
X011128Y001235D01*
X011225Y001334D02*
X009602Y001334D01*
X009701Y001432D02*
X011282Y001432D01*
X011339Y001531D02*
X009799Y001531D01*
X009898Y001629D02*
X011395Y001629D01*
X011398Y001635D02*
X011398Y001635D01*
X011424Y001728D02*
X009997Y001728D01*
X010095Y001826D02*
X011450Y001826D01*
X011476Y001925D02*
X010194Y001925D01*
X010292Y002024D02*
X011493Y002024D01*
X011499Y002122D02*
X010341Y002122D01*
X010341Y002221D02*
X011501Y002221D01*
X011501Y002319D02*
X010341Y002319D01*
X010341Y002418D02*
X011501Y002418D01*
X011501Y002516D02*
X010341Y002516D01*
X010341Y002615D02*
X011501Y002615D01*
X011501Y002713D02*
X010341Y002713D01*
X010341Y002812D02*
X011501Y002812D01*
X011501Y002910D02*
X010341Y002910D01*
X010341Y003009D02*
X011501Y003009D01*
X011501Y003107D02*
X010341Y003107D01*
X010341Y003206D02*
X011501Y003206D01*
X011501Y003305D02*
X010266Y003305D01*
X010168Y003403D02*
X011501Y003403D01*
X011501Y003502D02*
X010101Y003502D01*
X010101Y003600D02*
X011501Y003600D01*
X011501Y003699D02*
X010101Y003699D01*
X010101Y003797D02*
X011501Y003797D01*
X011501Y003896D02*
X010043Y003896D01*
X009944Y003994D02*
X011501Y003994D01*
X011501Y004093D02*
X009846Y004093D01*
X009457Y004093D02*
X009361Y004093D01*
X009361Y004191D02*
X011501Y004191D01*
X011501Y004290D02*
X009361Y004290D01*
X009361Y004389D02*
X011501Y004389D01*
X011501Y004487D02*
X009361Y004487D01*
X009361Y004586D02*
X011501Y004586D01*
X011501Y004684D02*
X009361Y004684D01*
X009361Y004783D02*
X011501Y004783D01*
X011501Y004881D02*
X009361Y004881D01*
X009361Y004980D02*
X011501Y004980D01*
X011501Y005078D02*
X009361Y005078D01*
X009361Y005177D02*
X011501Y005177D01*
X011501Y005275D02*
X009361Y005275D01*
X009361Y005374D02*
X011501Y005374D01*
X011501Y005473D02*
X009361Y005473D01*
X009361Y005571D02*
X011501Y005571D01*
X011501Y005670D02*
X009361Y005670D01*
X009361Y005768D02*
X011501Y005768D01*
X011501Y005867D02*
X009361Y005867D01*
X009361Y005965D02*
X011501Y005965D01*
X009961Y003009D02*
X009930Y003009D01*
X009926Y003107D02*
X009361Y003107D01*
X009373Y003009D02*
X009306Y003009D01*
X009274Y002910D02*
X009207Y002910D01*
X009201Y002812D02*
X009109Y002812D01*
X009101Y002713D02*
X009201Y002713D01*
X009201Y002615D02*
X009101Y002615D01*
X009101Y002516D02*
X009201Y002516D01*
X009248Y002418D02*
X009054Y002418D01*
X008956Y002319D02*
X009347Y002319D01*
X009445Y002221D02*
X008857Y002221D01*
X008811Y003107D02*
X008376Y003107D01*
X008373Y003009D02*
X008278Y003009D01*
X008134Y003403D02*
X008068Y003403D01*
X008121Y003502D02*
X008201Y003502D01*
X008201Y003600D02*
X008121Y003600D01*
X008842Y003206D02*
X008909Y003206D01*
X008941Y003305D02*
X008941Y003305D01*
X009361Y003305D02*
X009361Y003305D01*
X009361Y003206D02*
X009460Y003206D01*
X008941Y004093D02*
X008861Y004093D01*
X008861Y004191D02*
X008941Y004191D01*
X008941Y004290D02*
X008861Y004290D01*
X008861Y004389D02*
X008941Y004389D01*
X008941Y004487D02*
X008861Y004487D01*
X008861Y004586D02*
X008941Y004586D01*
X008941Y004684D02*
X008861Y004684D01*
X008861Y004783D02*
X008941Y004783D01*
X008941Y004881D02*
X008861Y004881D01*
X008861Y004980D02*
X008941Y004980D01*
X008941Y005078D02*
X008861Y005078D01*
X008861Y005177D02*
X008941Y005177D01*
X008941Y005275D02*
X008861Y005275D01*
D17*
X008151Y005596D03*
X007651Y006151D03*
X008151Y006901D03*
X008151Y008401D03*
X007276Y007776D03*
X006651Y007026D03*
X007151Y004651D03*
X009776Y006401D03*
X010151Y005651D03*
X009776Y008901D03*
X007526Y012651D03*
X006151Y014151D03*
X005151Y016401D03*
X003901Y018694D03*
X004401Y004651D03*
X010901Y002401D03*
D18*
X009151Y003151D02*
X008651Y002651D01*
X009151Y003151D02*
X009151Y014651D01*
X005895Y017907D01*
X001820Y017907D01*
X001820Y017120D02*
X005683Y017120D01*
X008651Y014151D01*
X008651Y003651D01*
X007651Y006151D02*
X007651Y006776D01*
X006776Y007651D01*
X006776Y008151D01*
X007026Y008401D01*
X008151Y008401D01*
X007276Y007776D02*
X008151Y006901D01*
X006651Y005151D02*
X007151Y004651D01*
X006651Y005151D02*
X006651Y007026D01*
X005651Y004651D02*
X006651Y003651D01*
X005651Y004651D02*
X004401Y004651D01*
X003151Y003151D02*
X003151Y002401D01*
X003151Y003151D02*
X002651Y003651D01*
X007526Y012651D02*
X007526Y014026D01*
X005151Y016401D01*
X005651Y014151D02*
X006151Y014151D01*
X005651Y014151D02*
X004901Y013401D01*
X003901Y018694D02*
X001820Y018694D01*
X009776Y008901D02*
X009776Y006401D01*
D19*
X005151Y002151D02*
X005651Y001651D01*
X005151Y002151D02*
X003401Y002151D01*
D20*
X003151Y002401D01*
X002651Y002651D02*
X002651Y001651D01*
X003276Y001026D01*
X009026Y001026D01*
X010151Y002151D01*
X010151Y003151D01*
X009651Y003651D01*
X008651Y003651D02*
X008151Y003151D01*
X007401Y003151D01*
X007151Y002901D01*
X007151Y002151D01*
X006651Y001651D01*
X006901Y003151D02*
X007151Y003401D01*
X007151Y003901D01*
X007526Y004276D01*
X007901Y004276D01*
X008151Y004526D01*
X008151Y005596D01*
X006901Y003151D02*
X005151Y003151D01*
X004651Y002651D01*
X004651Y013151D02*
X004751Y013251D01*
X004901Y013401D01*
X004901Y013251D02*
X004751Y013251D01*
M02*
