G75*
G70*
%OFA0B0*%
%FSLAX24Y24*%
%IPPOS*%
%LPD*%
%AMOC8*
5,1,8,0,0,1.08239X$1,22.5*
%
%ADD10R,0.0748X0.0551*%
%ADD11R,0.0551X0.0709*%
%ADD12R,0.0591X0.0276*%
%ADD13R,0.0236X0.0866*%
%ADD14R,0.0630X0.0512*%
%ADD15R,0.0512X0.0630*%
%ADD16R,0.0500X0.0500*%
D10*
X009982Y003809D03*
X010336Y009006D03*
D11*
X004824Y006801D03*
X004824Y004439D03*
D12*
X008683Y006761D03*
X008840Y006328D03*
X008998Y005895D03*
X008840Y005462D03*
X008998Y005029D03*
X008840Y004596D03*
X008840Y004163D03*
X008840Y007194D03*
D13*
X008151Y014128D03*
X007651Y014128D03*
X007151Y014128D03*
X006651Y014128D03*
X006151Y014128D03*
X005651Y014128D03*
X005151Y014128D03*
X005151Y016175D03*
X005651Y016175D03*
X006151Y016175D03*
X006651Y016175D03*
X007151Y016175D03*
X007651Y016175D03*
X008151Y016175D03*
D14*
X009151Y017277D03*
X009151Y018025D03*
X007651Y013025D03*
X007651Y012277D03*
X005151Y017257D03*
X005151Y018045D03*
X003151Y015525D03*
X003151Y014777D03*
X010651Y002795D03*
X010651Y002007D03*
D15*
X002777Y003651D03*
X003525Y003651D03*
D16*
X002051Y019151D03*
X002051Y020151D03*
X001251Y020151D03*
X001251Y019151D03*
M02*
