G75*
G70*
%OFA0B0*%
%FSLAX24Y24*%
%IPPOS*%
%LPD*%
%AMOC8*
5,1,8,0,0,1.08239X$1,22.5*
%
%ADD10C,0.0050*%
D10*
X003201Y007751D02*
X006201Y007751D01*
X007401Y008951D01*
X007401Y011351D01*
X006201Y012551D01*
X003201Y012551D01*
X003233Y012446D02*
X003233Y012176D01*
X003278Y012176D02*
X003188Y012176D01*
X003082Y012176D02*
X002991Y012176D01*
X003037Y012176D02*
X003037Y012446D01*
X003082Y012446D01*
X003233Y012446D02*
X003278Y012446D01*
X003392Y012311D02*
X003392Y012266D01*
X003573Y012266D01*
X003573Y012221D02*
X003573Y012311D01*
X003528Y012356D01*
X003438Y012356D01*
X003392Y012311D01*
X003438Y012176D02*
X003528Y012176D01*
X003573Y012221D01*
X003687Y012176D02*
X003822Y012176D01*
X003867Y012221D01*
X003867Y012311D01*
X003822Y012356D01*
X003687Y012356D01*
X003768Y011946D02*
X003768Y011676D01*
X003858Y011676D02*
X003678Y011676D01*
X003564Y011676D02*
X003384Y011856D01*
X003384Y011901D01*
X003429Y011946D01*
X003519Y011946D01*
X003564Y011901D01*
X003564Y011676D02*
X003384Y011676D01*
X003269Y011676D02*
X003089Y011856D01*
X003089Y011901D01*
X003134Y011946D01*
X003224Y011946D01*
X003269Y011901D01*
X003269Y011676D02*
X003089Y011676D01*
X002301Y011651D02*
X002303Y011710D01*
X002309Y011768D01*
X002318Y011827D01*
X002332Y011884D01*
X002349Y011940D01*
X002370Y011995D01*
X002394Y012049D01*
X002422Y012101D01*
X002453Y012151D01*
X002487Y012199D01*
X002524Y012244D01*
X002565Y012287D01*
X002608Y012328D01*
X002653Y012365D01*
X002701Y012399D01*
X002751Y012430D01*
X002803Y012458D01*
X002857Y012482D01*
X002912Y012503D01*
X002968Y012520D01*
X003025Y012534D01*
X003084Y012543D01*
X003142Y012549D01*
X003201Y012551D01*
X002929Y011946D02*
X002839Y011946D01*
X002794Y011901D01*
X002974Y011721D01*
X002929Y011676D01*
X002839Y011676D01*
X002794Y011721D01*
X002794Y011901D01*
X002929Y011946D02*
X002974Y011901D01*
X002974Y011721D01*
X002956Y011491D02*
X002956Y011446D01*
X002956Y011356D02*
X002956Y011176D01*
X003001Y011176D02*
X002911Y011176D01*
X002805Y011176D02*
X002670Y011176D01*
X002625Y011221D01*
X002625Y011311D01*
X002670Y011356D01*
X002805Y011356D01*
X002805Y011086D01*
X002956Y011356D02*
X003001Y011356D01*
X003153Y011446D02*
X003153Y011176D01*
X003198Y011176D02*
X003108Y011176D01*
X003312Y011176D02*
X003447Y011176D01*
X003492Y011221D01*
X003492Y011311D01*
X003447Y011356D01*
X003312Y011356D01*
X003198Y011446D02*
X003153Y011446D01*
X003768Y011946D02*
X003858Y011856D01*
X003973Y011811D02*
X004018Y011766D01*
X004153Y011766D01*
X004153Y011676D02*
X004153Y011946D01*
X004018Y011946D01*
X003973Y011901D01*
X003973Y011811D01*
X004063Y011766D02*
X003973Y011676D01*
X004037Y011356D02*
X003901Y011356D01*
X003946Y011266D02*
X004037Y011266D01*
X004082Y011311D01*
X004037Y011356D01*
X003946Y011266D02*
X003901Y011221D01*
X003946Y011176D01*
X004082Y011176D01*
X004196Y011266D02*
X004376Y011266D01*
X004376Y011221D02*
X004376Y011311D01*
X004331Y011356D01*
X004241Y011356D01*
X004196Y011311D01*
X004196Y011266D01*
X004241Y011176D02*
X004331Y011176D01*
X004376Y011221D01*
X004491Y011176D02*
X004626Y011176D01*
X004671Y011221D01*
X004671Y011311D01*
X004626Y011356D01*
X004491Y011356D01*
X004403Y011676D02*
X004313Y011676D01*
X004267Y011721D01*
X004403Y011676D02*
X004448Y011721D01*
X004448Y011901D01*
X004403Y011946D01*
X004313Y011946D01*
X004267Y011901D01*
X004276Y012176D02*
X004276Y012311D01*
X004321Y012356D01*
X004457Y012356D01*
X004457Y012176D01*
X004563Y012176D02*
X004653Y012176D01*
X004608Y012176D02*
X004608Y012356D01*
X004653Y012356D01*
X004608Y012446D02*
X004608Y012491D01*
X004767Y012311D02*
X004813Y012356D01*
X004903Y012356D01*
X004948Y012311D01*
X004948Y012221D01*
X004903Y012176D01*
X004813Y012176D01*
X004767Y012221D01*
X004767Y012311D01*
X004902Y011856D02*
X004857Y011811D01*
X004857Y011766D01*
X005037Y011766D01*
X005037Y011721D02*
X005037Y011811D01*
X004992Y011856D01*
X004902Y011856D01*
X004902Y011676D02*
X004992Y011676D01*
X005037Y011721D01*
X005151Y011721D02*
X005196Y011766D01*
X005287Y011766D01*
X005332Y011811D01*
X005287Y011856D01*
X005151Y011856D01*
X005151Y011721D02*
X005196Y011676D01*
X005332Y011676D01*
X005446Y011721D02*
X005446Y011946D01*
X005626Y011946D02*
X005626Y011721D01*
X005581Y011676D01*
X005491Y011676D01*
X005446Y011721D01*
X005616Y011356D02*
X005571Y011311D01*
X005571Y011266D01*
X005751Y011266D01*
X005751Y011221D02*
X005751Y011311D01*
X005706Y011356D01*
X005616Y011356D01*
X005616Y011176D02*
X005706Y011176D01*
X005751Y011221D01*
X005866Y011176D02*
X005866Y011446D01*
X005866Y011356D02*
X006001Y011356D01*
X006046Y011311D01*
X006046Y011221D01*
X006001Y011176D01*
X005866Y011176D01*
X006152Y011176D02*
X006242Y011176D01*
X006197Y011176D02*
X006197Y011356D01*
X006242Y011356D01*
X006197Y011446D02*
X006197Y011491D01*
X006357Y011356D02*
X006492Y011356D01*
X006537Y011311D01*
X006492Y011266D01*
X006402Y011266D01*
X006357Y011221D01*
X006402Y011176D01*
X006537Y011176D01*
X006946Y011311D02*
X007126Y011311D01*
X007036Y011401D02*
X007036Y011221D01*
X006081Y012176D02*
X006126Y012221D01*
X006081Y012176D02*
X005991Y012176D01*
X005946Y012221D01*
X005946Y012266D01*
X005991Y012311D01*
X006036Y012311D01*
X005991Y012311D02*
X005946Y012356D01*
X005946Y012401D01*
X005991Y012446D01*
X006081Y012446D01*
X006126Y012401D01*
X005832Y012446D02*
X005832Y012266D01*
X005741Y012176D01*
X005651Y012266D01*
X005651Y012446D01*
X005242Y012311D02*
X005242Y012221D01*
X005197Y012176D01*
X005062Y012176D01*
X005062Y012356D02*
X005197Y012356D01*
X005242Y012311D01*
X005072Y011446D02*
X005117Y011401D01*
X005117Y011176D01*
X005162Y011311D02*
X005072Y011311D01*
X004965Y011221D02*
X004920Y011266D01*
X004785Y011266D01*
X004785Y011311D02*
X004785Y011176D01*
X004920Y011176D01*
X004965Y011221D01*
X004920Y011356D02*
X004830Y011356D01*
X004785Y011311D01*
X002301Y008651D02*
X002303Y008592D01*
X002309Y008534D01*
X002318Y008475D01*
X002332Y008418D01*
X002349Y008362D01*
X002370Y008307D01*
X002394Y008253D01*
X002422Y008201D01*
X002453Y008151D01*
X002487Y008103D01*
X002524Y008058D01*
X002565Y008015D01*
X002608Y007974D01*
X002653Y007937D01*
X002701Y007903D01*
X002751Y007872D01*
X002803Y007844D01*
X002857Y007820D01*
X002912Y007799D01*
X002968Y007782D01*
X003025Y007768D01*
X003084Y007759D01*
X003142Y007753D01*
X003201Y007751D01*
X002301Y008651D02*
X002301Y011651D01*
M02*
