G75*
G70*
%OFA0B0*%
%FSLAX24Y24*%
%IPPOS*%
%LPD*%
%AMOC8*
5,1,8,0,0,1.08239X$1,22.5*
%
%ADD10C,0.0060*%
%ADD11C,0.0050*%
%ADD12C,0.0080*%
%ADD13R,0.0160X0.0230*%
%ADD14C,0.0160*%
%ADD15C,0.0059*%
D10*
X002151Y001401D02*
X002401Y001151D01*
X002901Y001151D01*
X003151Y001401D01*
X003401Y001151D01*
X003901Y001151D01*
X004151Y001401D01*
X004401Y001151D01*
X004901Y001151D01*
X005151Y001401D01*
X005401Y001151D01*
X005901Y001151D01*
X006151Y001401D01*
X006401Y001151D01*
X006901Y001151D01*
X007151Y001401D01*
X007401Y001151D01*
X007901Y001151D01*
X008151Y001401D01*
X008401Y001151D01*
X008901Y001151D01*
X009151Y001401D01*
X009401Y001151D01*
X009901Y001151D01*
X010151Y001401D01*
X010151Y002901D01*
X009901Y003151D01*
X009401Y003151D01*
X009151Y002901D01*
X008901Y003151D01*
X008401Y003151D01*
X008151Y002901D01*
X007901Y003151D01*
X007401Y003151D01*
X007151Y002901D01*
X006901Y003151D01*
X006401Y003151D01*
X006151Y002901D01*
X005901Y003151D01*
X005401Y003151D01*
X005151Y002901D01*
X004901Y003151D01*
X004401Y003151D01*
X004151Y002901D01*
X003901Y003151D01*
X003401Y003151D01*
X003151Y002901D01*
X002901Y003151D01*
X002401Y003151D01*
X002151Y002901D01*
X002151Y001401D01*
X003801Y013801D02*
X003801Y013951D01*
X003751Y013951D01*
X003751Y016101D01*
X003753Y016118D01*
X003757Y016135D01*
X003764Y016151D01*
X003774Y016165D01*
X003787Y016178D01*
X003801Y016188D01*
X003817Y016195D01*
X003834Y016199D01*
X003851Y016201D01*
X004451Y016201D01*
X004468Y016199D01*
X004485Y016195D01*
X004501Y016188D01*
X004515Y016178D01*
X004528Y016165D01*
X004538Y016151D01*
X004545Y016135D01*
X004549Y016118D01*
X004551Y016101D01*
X004551Y013951D01*
X004501Y013951D01*
X004501Y013801D01*
X003801Y013801D01*
X003661Y018556D02*
X003661Y018783D01*
X003661Y018670D02*
X003775Y018783D01*
X003831Y018783D01*
X003968Y018783D02*
X004081Y018783D01*
X004025Y018840D02*
X004025Y018613D01*
X004081Y018556D01*
X004214Y018613D02*
X004214Y018726D01*
X004270Y018783D01*
X004384Y018783D01*
X004440Y018726D01*
X004440Y018670D01*
X004214Y018670D01*
X004214Y018613D02*
X004270Y018556D01*
X004384Y018556D01*
X004582Y018556D02*
X004582Y018783D01*
X004752Y018783D01*
X004809Y018726D01*
X004809Y018556D01*
X004950Y018613D02*
X004950Y018726D01*
X005007Y018783D01*
X005120Y018783D01*
X005177Y018726D01*
X005177Y018670D01*
X004950Y018670D01*
X004950Y018613D02*
X005007Y018556D01*
X005120Y018556D01*
X005318Y018556D02*
X005318Y018783D01*
X005318Y018670D02*
X005432Y018783D01*
X005489Y018783D01*
X005625Y018726D02*
X005625Y018613D01*
X005682Y018556D01*
X005852Y018556D01*
X005852Y018499D02*
X005852Y018783D01*
X005682Y018783D01*
X005625Y018726D01*
X005739Y018443D02*
X005795Y018443D01*
X005852Y018499D01*
X005994Y018613D02*
X006050Y018556D01*
X006220Y018556D01*
X006220Y018499D02*
X006164Y018443D01*
X006107Y018443D01*
X006220Y018499D02*
X006220Y018783D01*
X006362Y018726D02*
X006362Y018613D01*
X006419Y018556D01*
X006589Y018556D01*
X006589Y018499D02*
X006589Y018783D01*
X006419Y018783D01*
X006362Y018726D01*
X006475Y018443D02*
X006532Y018443D01*
X006589Y018499D01*
X006730Y018556D02*
X006730Y018783D01*
X006730Y018670D02*
X006844Y018783D01*
X006900Y018783D01*
X007037Y018726D02*
X007037Y018613D01*
X007094Y018556D01*
X007207Y018556D01*
X007264Y018613D01*
X007264Y018726D01*
X007207Y018783D01*
X007094Y018783D01*
X007037Y018726D01*
X007405Y018783D02*
X007405Y018613D01*
X007462Y018556D01*
X007632Y018556D01*
X007632Y018783D01*
X007774Y018783D02*
X007774Y018443D01*
X007774Y018556D02*
X007944Y018556D01*
X008001Y018613D01*
X008001Y018726D01*
X007944Y018783D01*
X007774Y018783D01*
X008142Y018726D02*
X008199Y018783D01*
X008369Y018783D01*
X008312Y018670D02*
X008199Y018670D01*
X008142Y018726D01*
X008142Y018556D02*
X008312Y018556D01*
X008369Y018613D01*
X008312Y018670D01*
X008510Y018613D02*
X008510Y018556D01*
X008567Y018556D01*
X008567Y018613D01*
X008510Y018613D01*
X008694Y018613D02*
X008751Y018556D01*
X008921Y018556D01*
X009063Y018613D02*
X009119Y018556D01*
X009233Y018556D01*
X009290Y018613D01*
X009290Y018726D01*
X009233Y018783D01*
X009119Y018783D01*
X009063Y018726D01*
X009063Y018613D01*
X008921Y018783D02*
X008751Y018783D01*
X008694Y018726D01*
X008694Y018613D01*
X008693Y019431D02*
X008593Y019431D01*
X008543Y019481D01*
X008743Y019681D01*
X008743Y019481D01*
X008693Y019431D01*
X008543Y019481D02*
X008543Y019681D01*
X008593Y019731D01*
X008693Y019731D01*
X008743Y019681D01*
X008427Y019481D02*
X008427Y019431D01*
X008377Y019431D01*
X008377Y019481D01*
X008427Y019481D01*
X008246Y019431D02*
X008045Y019431D01*
X008145Y019431D02*
X008145Y019731D01*
X008045Y019631D01*
X007914Y019631D02*
X007814Y019431D01*
X007714Y019631D01*
X007251Y019631D02*
X007101Y019631D01*
X007051Y019581D01*
X007051Y019481D01*
X007101Y019431D01*
X007251Y019431D01*
X007251Y019731D01*
X006880Y019731D02*
X006880Y019431D01*
X006830Y019431D02*
X006930Y019431D01*
X006880Y019731D02*
X006830Y019731D01*
X006699Y019581D02*
X006699Y019531D01*
X006499Y019531D01*
X006499Y019481D02*
X006499Y019581D01*
X006549Y019631D01*
X006649Y019631D01*
X006699Y019581D01*
X006649Y019431D02*
X006549Y019431D01*
X006499Y019481D01*
X006378Y019431D02*
X006278Y019431D01*
X006328Y019431D02*
X006328Y019631D01*
X006278Y019631D01*
X006328Y019731D02*
X006328Y019781D01*
X006146Y019581D02*
X006146Y019431D01*
X006146Y019581D02*
X006096Y019631D01*
X005996Y019631D01*
X005946Y019581D01*
X005815Y019531D02*
X005815Y019481D01*
X005765Y019431D01*
X005665Y019431D01*
X005615Y019481D01*
X005665Y019581D02*
X005765Y019581D01*
X005815Y019531D01*
X005815Y019681D02*
X005765Y019731D01*
X005665Y019731D01*
X005615Y019681D01*
X005615Y019631D01*
X005665Y019581D01*
X005483Y019581D02*
X005483Y019431D01*
X005483Y019581D02*
X005433Y019631D01*
X005283Y019631D01*
X005283Y019431D01*
X005152Y019481D02*
X005152Y019581D01*
X005102Y019631D01*
X005002Y019631D01*
X004952Y019581D01*
X004952Y019481D01*
X005002Y019431D01*
X005102Y019431D01*
X005152Y019481D01*
X004820Y019431D02*
X004670Y019431D01*
X004620Y019481D01*
X004620Y019581D01*
X004670Y019631D01*
X004820Y019631D01*
X004820Y019381D01*
X004770Y019331D01*
X004720Y019331D01*
X004489Y019431D02*
X004339Y019431D01*
X004289Y019481D01*
X004339Y019531D01*
X004489Y019531D01*
X004489Y019581D02*
X004489Y019431D01*
X004489Y019581D02*
X004439Y019631D01*
X004339Y019631D01*
X004163Y019631D02*
X004113Y019631D01*
X004013Y019531D01*
X004013Y019431D02*
X004013Y019631D01*
X003881Y019681D02*
X003881Y019481D01*
X003831Y019431D01*
X003681Y019431D01*
X003681Y019731D01*
X003831Y019731D01*
X003881Y019681D01*
X003463Y018783D02*
X003520Y018726D01*
X003520Y018556D01*
X003349Y018556D01*
X003293Y018613D01*
X003349Y018670D01*
X003520Y018670D01*
X003463Y018783D02*
X003349Y018783D01*
X003151Y018726D02*
X003151Y018556D01*
X003038Y018556D02*
X003038Y018726D01*
X003095Y018783D01*
X003151Y018726D01*
X003038Y018726D02*
X002981Y018783D01*
X002924Y018783D01*
X002924Y018556D01*
X002783Y018613D02*
X002726Y018670D01*
X002613Y018670D01*
X002556Y018726D01*
X002613Y018783D01*
X002783Y018783D01*
X002783Y018613D02*
X002726Y018556D01*
X002556Y018556D01*
X002901Y020831D02*
X003401Y020831D01*
X003651Y021081D01*
X003901Y020831D01*
X004401Y020831D01*
X004651Y021081D01*
X004901Y020831D01*
X005401Y020831D01*
X005651Y021081D01*
X005901Y020831D01*
X006401Y020831D01*
X006651Y021081D01*
X006901Y020831D01*
X007401Y020831D01*
X007651Y021081D01*
X007901Y020831D01*
X008401Y020831D01*
X008651Y021081D01*
X008901Y020831D01*
X009401Y020831D01*
X009651Y021081D01*
X009651Y022581D01*
X009401Y022831D01*
X008901Y022831D01*
X008651Y022581D01*
X008401Y022831D01*
X007901Y022831D01*
X007651Y022581D01*
X007401Y022831D01*
X006901Y022831D01*
X006651Y022581D01*
X006401Y022831D01*
X005901Y022831D01*
X005651Y022581D01*
X005401Y022831D01*
X004901Y022831D01*
X004651Y022581D01*
X004401Y022831D01*
X003901Y022831D01*
X003651Y022581D01*
X003401Y022831D01*
X002901Y022831D01*
X002651Y022581D01*
X002651Y021081D01*
X002901Y020831D01*
X005946Y019731D02*
X005946Y019431D01*
X005994Y018783D02*
X005994Y018613D01*
X009431Y018556D02*
X009431Y018783D01*
X009488Y018783D01*
X009545Y018726D01*
X009601Y018783D01*
X009658Y018726D01*
X009658Y018556D01*
X009545Y018556D02*
X009545Y018726D01*
X010213Y006988D02*
X010156Y006932D01*
X010156Y006762D01*
X010496Y006762D01*
X010496Y006932D01*
X010439Y006988D01*
X010213Y006988D01*
X010213Y006620D02*
X010156Y006563D01*
X010156Y006450D01*
X010213Y006393D01*
X010269Y006393D01*
X010326Y006450D01*
X010326Y006563D01*
X010383Y006620D01*
X010439Y006620D01*
X010496Y006563D01*
X010496Y006450D01*
X010439Y006393D01*
X010326Y006252D02*
X010326Y006025D01*
X010213Y005883D02*
X010156Y005827D01*
X010156Y005713D01*
X010213Y005657D01*
X010439Y005657D01*
X010496Y005713D01*
X010496Y005827D01*
X010439Y005883D01*
X010213Y005883D01*
X010213Y005515D02*
X010326Y005515D01*
X010383Y005458D01*
X010383Y005288D01*
X010496Y005288D02*
X010156Y005288D01*
X010156Y005458D01*
X010213Y005515D01*
X010383Y005402D02*
X010496Y005515D01*
X010439Y005147D02*
X010496Y005090D01*
X010496Y004977D01*
X010439Y004920D01*
X010213Y004920D01*
X010156Y004977D01*
X010156Y005090D01*
X010213Y005147D01*
X010156Y004788D02*
X010156Y004674D01*
X010156Y004731D02*
X010496Y004731D01*
X010496Y004674D02*
X010496Y004788D01*
X010496Y004533D02*
X010156Y004533D01*
X010269Y004420D01*
X010156Y004306D01*
X010496Y004306D01*
D11*
X010911Y004281D02*
X010909Y004240D01*
X010904Y004199D01*
X010895Y004159D01*
X010883Y004120D01*
X010867Y004082D01*
X010848Y004045D01*
X010826Y004010D01*
X010801Y003978D01*
X010773Y003947D01*
X010742Y003919D01*
X010710Y003894D01*
X010675Y003872D01*
X010638Y003853D01*
X010600Y003837D01*
X010561Y003825D01*
X010521Y003816D01*
X010480Y003811D01*
X010439Y003809D01*
X010336Y003651D02*
X010336Y004045D01*
X010336Y003651D02*
X004667Y003651D01*
X004667Y009163D01*
X010612Y009163D01*
X010612Y008769D01*
X010563Y008767D01*
X010513Y008761D01*
X010465Y008752D01*
X010417Y008738D01*
X010371Y008721D01*
X010326Y008700D01*
X010283Y008676D01*
X010242Y008649D01*
X010203Y008618D01*
X010167Y008584D01*
X010133Y008548D01*
X010102Y008509D01*
X010075Y008468D01*
X010051Y008425D01*
X010030Y008380D01*
X010013Y008334D01*
X009999Y008286D01*
X009990Y008238D01*
X009984Y008188D01*
X009982Y008139D01*
X009982Y004320D01*
X009982Y004321D02*
X009988Y004288D01*
X009997Y004256D01*
X010010Y004225D01*
X010026Y004196D01*
X010044Y004169D01*
X010066Y004143D01*
X010090Y004120D01*
X010116Y004100D01*
X010144Y004082D01*
X010174Y004068D01*
X010205Y004057D01*
X010237Y004049D01*
X010270Y004044D01*
X010303Y004043D01*
X010336Y004045D01*
X010793Y003809D02*
X010834Y003811D01*
X010875Y003816D01*
X010915Y003825D01*
X010954Y003837D01*
X010992Y003853D01*
X011029Y003872D01*
X011064Y003894D01*
X011096Y003919D01*
X011127Y003947D01*
X011155Y003978D01*
X011180Y004010D01*
X011202Y004045D01*
X011221Y004082D01*
X011237Y004120D01*
X011249Y004159D01*
X011258Y004199D01*
X011263Y004240D01*
X011265Y004281D01*
X011265Y007903D01*
X010911Y007903D02*
X010911Y004281D01*
X011104Y003186D02*
X011104Y003006D01*
X011374Y003006D01*
X011374Y002891D02*
X011239Y002891D01*
X011194Y002846D01*
X011194Y002711D01*
X011374Y002711D01*
X011239Y003006D02*
X011239Y003096D01*
X011149Y002302D02*
X011329Y002122D01*
X011374Y002167D01*
X011374Y002257D01*
X011329Y002302D01*
X011149Y002302D01*
X011104Y002257D01*
X011104Y002167D01*
X011149Y002122D01*
X011329Y002122D01*
X011329Y002007D02*
X011374Y001962D01*
X011374Y001872D01*
X011329Y001827D01*
X011149Y002007D01*
X011329Y002007D01*
X011329Y001827D02*
X011149Y001827D01*
X011104Y001872D01*
X011104Y001962D01*
X011149Y002007D01*
X011374Y001713D02*
X011374Y001532D01*
X011374Y001623D02*
X011104Y001623D01*
X011194Y001532D01*
X012289Y003809D02*
X012330Y003811D01*
X012371Y003816D01*
X012411Y003825D01*
X012450Y003837D01*
X012488Y003853D01*
X012525Y003872D01*
X012560Y003894D01*
X012592Y003919D01*
X012623Y003947D01*
X012651Y003978D01*
X012676Y004010D01*
X012698Y004045D01*
X012717Y004082D01*
X012733Y004120D01*
X012745Y004159D01*
X012754Y004199D01*
X012759Y004240D01*
X012761Y004281D01*
X012761Y007903D01*
X012761Y007904D02*
X012763Y007945D01*
X012761Y007986D01*
X012755Y008027D01*
X012746Y008068D01*
X012734Y008107D01*
X012718Y008145D01*
X012699Y008182D01*
X012676Y008216D01*
X012651Y008249D01*
X012623Y008280D01*
X012592Y008307D01*
X012559Y008332D01*
X012524Y008354D01*
X012488Y008373D01*
X012449Y008389D01*
X012410Y008401D01*
X012369Y008410D01*
X012328Y008415D01*
X011265Y007904D02*
X011267Y007945D01*
X011265Y007986D01*
X011259Y008027D01*
X011250Y008068D01*
X011238Y008107D01*
X011222Y008145D01*
X011203Y008182D01*
X011180Y008216D01*
X011155Y008249D01*
X011127Y008280D01*
X011096Y008307D01*
X011063Y008332D01*
X011028Y008354D01*
X010992Y008373D01*
X010953Y008389D01*
X010914Y008401D01*
X010873Y008410D01*
X010832Y008415D01*
X010478Y008415D02*
X010519Y008410D01*
X010560Y008401D01*
X010599Y008389D01*
X010638Y008373D01*
X010674Y008354D01*
X010709Y008332D01*
X010742Y008307D01*
X010773Y008280D01*
X010801Y008249D01*
X010826Y008216D01*
X010849Y008182D01*
X010868Y008145D01*
X010884Y008107D01*
X010896Y008068D01*
X010905Y008027D01*
X010911Y007986D01*
X010913Y007945D01*
X010911Y007904D01*
X008876Y012151D02*
X008740Y012241D01*
X008876Y012331D01*
X008740Y012421D02*
X008740Y012151D01*
X008626Y012196D02*
X008581Y012151D01*
X008491Y012151D01*
X008446Y012196D01*
X008626Y012376D01*
X008626Y012196D01*
X008446Y012196D02*
X008446Y012376D01*
X008491Y012421D01*
X008581Y012421D01*
X008626Y012376D01*
X008331Y012151D02*
X008151Y012151D01*
X008241Y012151D02*
X008241Y012421D01*
X008151Y012331D01*
X008776Y016526D02*
X008956Y016526D01*
X008866Y016526D02*
X008866Y016796D01*
X008776Y016706D01*
X008463Y016921D02*
X008418Y016876D01*
X008328Y016876D01*
X008283Y016921D01*
X008463Y017101D01*
X008463Y016921D01*
X008283Y016921D02*
X008283Y017101D01*
X008328Y017146D01*
X008418Y017146D01*
X008463Y017101D01*
X008169Y016876D02*
X007989Y016876D01*
X008079Y016876D02*
X008079Y017146D01*
X007989Y017056D01*
X007874Y017146D02*
X007874Y016876D01*
X007784Y016966D01*
X007694Y016876D01*
X007694Y017146D01*
X007580Y017146D02*
X007399Y017146D01*
X007399Y017011D01*
X007489Y017056D01*
X007534Y017056D01*
X007580Y017011D01*
X007580Y016921D01*
X007534Y016876D01*
X007444Y016876D01*
X007399Y016921D01*
X007285Y016921D02*
X007240Y016876D01*
X007150Y016876D01*
X007105Y016921D01*
X007150Y017011D02*
X007285Y017011D01*
X007285Y016921D02*
X007285Y017101D01*
X007240Y017146D01*
X007150Y017146D01*
X007105Y017101D01*
X007105Y017056D01*
X007150Y017011D01*
X006990Y017101D02*
X006990Y017146D01*
X006810Y017146D01*
X006696Y017101D02*
X006696Y017011D01*
X006651Y016966D01*
X006515Y016966D01*
X006515Y016876D02*
X006515Y017146D01*
X006651Y017146D01*
X006696Y017101D01*
X006810Y016921D02*
X006810Y016876D01*
X006810Y016921D02*
X006990Y017101D01*
X006401Y017101D02*
X006356Y017146D01*
X006266Y017146D01*
X006221Y017101D01*
X006221Y016921D01*
X006266Y016876D01*
X006356Y016876D01*
X006401Y016921D01*
X006106Y016876D02*
X006106Y017146D01*
X006016Y017056D01*
X005926Y017146D01*
X005926Y016876D01*
X005073Y015151D02*
X005071Y015133D01*
X005066Y015115D01*
X005057Y015099D01*
X005045Y015085D01*
X005031Y015073D01*
X005015Y015064D01*
X004997Y015059D01*
X004979Y015057D01*
X004964Y015057D01*
X005049Y012646D02*
X005049Y012376D01*
X005164Y012376D02*
X005344Y012376D01*
X005344Y012556D02*
X005164Y012556D01*
X005049Y012511D02*
X004869Y012511D01*
X004869Y012376D02*
X004869Y012646D01*
X005164Y012376D02*
X005344Y012556D01*
X004460Y012556D02*
X004415Y012511D01*
X004325Y012511D01*
X004280Y012556D01*
X004280Y012601D01*
X004325Y012646D01*
X004415Y012646D01*
X004460Y012601D01*
X004460Y012556D01*
X004415Y012511D02*
X004460Y012466D01*
X004460Y012421D01*
X004415Y012376D01*
X004325Y012376D01*
X004280Y012421D01*
X004280Y012466D01*
X004325Y012511D01*
X004165Y012466D02*
X004120Y012511D01*
X003985Y012511D01*
X003985Y012421D01*
X004030Y012376D01*
X004120Y012376D01*
X004165Y012421D01*
X004165Y012466D01*
X004075Y012601D02*
X004165Y012646D01*
X004075Y012601D02*
X003985Y012511D01*
X003871Y012601D02*
X003690Y012421D01*
X003690Y012376D01*
X003576Y012376D02*
X003396Y012376D01*
X003576Y012556D01*
X003576Y012601D01*
X003531Y012646D01*
X003441Y012646D01*
X003396Y012601D01*
X003281Y012601D02*
X003236Y012646D01*
X003146Y012646D01*
X003101Y012601D01*
X003191Y012511D02*
X003236Y012511D01*
X003281Y012466D01*
X003281Y012421D01*
X003236Y012376D01*
X003146Y012376D01*
X003101Y012421D01*
X003236Y012511D02*
X003281Y012556D01*
X003281Y012601D01*
X003690Y012646D02*
X003871Y012646D01*
X003871Y012601D01*
X003501Y015901D02*
X003365Y015991D01*
X003501Y016081D01*
X003365Y016171D02*
X003365Y015901D01*
X002956Y015901D02*
X002776Y015901D01*
X002866Y015901D02*
X002866Y016171D01*
X002776Y016081D01*
X003032Y018053D02*
X003213Y018053D01*
X003123Y018053D02*
X003123Y018323D01*
X003032Y018233D01*
X003327Y018278D02*
X003372Y018323D01*
X003462Y018323D01*
X003507Y018278D01*
X003327Y018098D01*
X003372Y018053D01*
X003462Y018053D01*
X003507Y018098D01*
X003507Y018278D01*
X003622Y018278D02*
X003667Y018323D01*
X003757Y018323D01*
X003802Y018278D01*
X003622Y018098D01*
X003667Y018053D01*
X003757Y018053D01*
X003802Y018098D01*
X003802Y018278D01*
X003622Y018278D02*
X003622Y018098D01*
X003327Y018098D02*
X003327Y018278D01*
X003426Y019051D02*
X003561Y019051D01*
X003606Y019096D01*
X003606Y019186D01*
X003561Y019231D01*
X003426Y019231D01*
X003426Y019321D02*
X003426Y019051D01*
X003721Y019096D02*
X003766Y019051D01*
X003901Y019051D01*
X003901Y019006D02*
X003901Y019231D01*
X003901Y019006D02*
X003856Y018961D01*
X003811Y018961D01*
X003721Y019096D02*
X003721Y019231D01*
X004211Y018233D02*
X004346Y018233D01*
X004391Y018188D01*
X004391Y018053D01*
X004506Y018053D02*
X004506Y018323D01*
X004686Y018323D01*
X004596Y018188D02*
X004506Y018188D01*
X004211Y018233D02*
X004211Y018053D01*
X004310Y019051D02*
X004490Y019051D01*
X004605Y019096D02*
X004650Y019051D01*
X004785Y019051D01*
X004785Y019231D01*
X004899Y019141D02*
X005034Y019231D01*
X005145Y019186D02*
X005190Y019231D01*
X005280Y019231D01*
X005325Y019186D01*
X005325Y019141D01*
X005145Y019141D01*
X005145Y019096D02*
X005145Y019186D01*
X005145Y019096D02*
X005190Y019051D01*
X005280Y019051D01*
X005034Y019051D02*
X004899Y019141D01*
X004899Y019051D02*
X004899Y019321D01*
X004605Y019231D02*
X004605Y019096D01*
X004310Y019051D02*
X004310Y019321D01*
X005734Y019321D02*
X005734Y019051D01*
X005824Y019141D01*
X005914Y019051D01*
X005914Y019321D01*
X006029Y019186D02*
X006074Y019231D01*
X006164Y019231D01*
X006209Y019186D01*
X006209Y019141D01*
X006029Y019141D01*
X006029Y019096D02*
X006029Y019186D01*
X006029Y019096D02*
X006074Y019051D01*
X006164Y019051D01*
X006324Y019051D02*
X006459Y019051D01*
X006504Y019096D01*
X006459Y019141D01*
X006369Y019141D01*
X006324Y019186D01*
X006369Y019231D01*
X006504Y019231D01*
X006618Y019231D02*
X006708Y019231D01*
X006663Y019276D02*
X006663Y019096D01*
X006708Y019051D01*
X006815Y019096D02*
X006860Y019051D01*
X006950Y019051D01*
X006995Y019096D01*
X006995Y019186D01*
X006950Y019231D01*
X006860Y019231D01*
X006815Y019186D01*
X006815Y019096D01*
X007109Y019051D02*
X007109Y019231D01*
X007244Y019231D01*
X007289Y019186D01*
X007289Y019051D01*
X007404Y018961D02*
X007494Y019051D01*
X007449Y019051D01*
X007449Y019096D01*
X007494Y019096D01*
X007494Y019051D01*
X007895Y019051D02*
X008075Y019231D01*
X008075Y019276D01*
X008030Y019321D01*
X007940Y019321D01*
X007895Y019276D01*
X007895Y019051D02*
X008075Y019051D01*
X008190Y019096D02*
X008370Y019276D01*
X008370Y019096D01*
X008325Y019051D01*
X008235Y019051D01*
X008190Y019096D01*
X008190Y019276D01*
X008235Y019321D01*
X008325Y019321D01*
X008370Y019276D01*
X008484Y019231D02*
X008574Y019321D01*
X008574Y019051D01*
X008484Y019051D02*
X008664Y019051D01*
X008779Y019051D02*
X008959Y019231D01*
X008959Y019276D01*
X008914Y019321D01*
X008824Y019321D01*
X008779Y019276D01*
X008779Y019051D02*
X008959Y019051D01*
X009365Y016796D02*
X009365Y016526D01*
X009365Y016616D02*
X009501Y016706D01*
X009365Y016616D02*
X009501Y016526D01*
X003365Y004421D02*
X003365Y004151D01*
X003365Y004241D02*
X003501Y004331D01*
X003365Y004241D02*
X003501Y004151D01*
X003251Y004196D02*
X003206Y004151D01*
X003116Y004151D01*
X003071Y004196D01*
X003251Y004376D01*
X003251Y004196D01*
X003251Y004376D02*
X003206Y004421D01*
X003116Y004421D01*
X003071Y004376D01*
X003071Y004196D01*
X002956Y004151D02*
X002776Y004151D01*
X002866Y004151D02*
X002866Y004421D01*
X002776Y004331D01*
X002040Y018434D02*
X001949Y018434D01*
X001994Y018434D02*
X001994Y018704D01*
X001949Y018704D02*
X002040Y018704D01*
X001835Y018659D02*
X001790Y018704D01*
X001700Y018704D01*
X001655Y018659D01*
X001655Y018614D01*
X001700Y018569D01*
X001790Y018569D01*
X001835Y018524D01*
X001835Y018479D01*
X001790Y018434D01*
X001700Y018434D01*
X001655Y018479D01*
X001540Y018479D02*
X001495Y018434D01*
X001405Y018434D01*
X001360Y018479D01*
X001405Y018569D02*
X001495Y018569D01*
X001540Y018524D01*
X001540Y018479D01*
X001405Y018569D02*
X001360Y018614D01*
X001360Y018659D01*
X001405Y018704D01*
X001495Y018704D01*
X001540Y018659D01*
X001246Y018659D02*
X001246Y018569D01*
X001201Y018524D01*
X001066Y018524D01*
X001156Y018524D02*
X001246Y018434D01*
X001066Y018434D02*
X001066Y018704D01*
X001201Y018704D01*
X001246Y018659D01*
X001246Y020684D02*
X001246Y020864D01*
X001156Y020954D01*
X001066Y020864D01*
X001066Y020684D01*
X001066Y020819D02*
X001246Y020819D01*
X001360Y020819D02*
X001405Y020864D01*
X001540Y020864D01*
X001495Y020774D02*
X001405Y020774D01*
X001360Y020819D01*
X001360Y020684D02*
X001495Y020684D01*
X001540Y020729D01*
X001495Y020774D01*
X001655Y020819D02*
X001700Y020864D01*
X001835Y020864D01*
X001790Y020774D02*
X001835Y020729D01*
X001790Y020684D01*
X001655Y020684D01*
X001700Y020774D02*
X001655Y020819D01*
X001700Y020774D02*
X001790Y020774D01*
X001949Y020729D02*
X001994Y020684D01*
X002085Y020684D01*
X002130Y020729D01*
X002130Y020819D01*
X002085Y020864D01*
X001994Y020864D01*
X001949Y020819D01*
X001949Y020729D01*
X002244Y020729D02*
X002289Y020684D01*
X002424Y020684D01*
X002424Y020864D02*
X002289Y020864D01*
X002244Y020819D01*
X002244Y020729D01*
D12*
X002406Y020506D02*
X001873Y020506D01*
X001719Y020387D02*
X001583Y020151D01*
X001719Y019915D01*
X001719Y020387D01*
X001583Y020502D02*
X001583Y020151D01*
X001583Y019801D01*
X001379Y019797D02*
X000896Y019797D01*
X000896Y020506D01*
X001379Y020506D01*
X001864Y019797D02*
X002406Y019797D01*
X002406Y020506D01*
X002406Y019506D02*
X001873Y019506D01*
X001719Y019387D02*
X001583Y019151D01*
X001719Y018915D01*
X001719Y019387D01*
X001583Y019502D02*
X001583Y019151D01*
X001583Y018801D01*
X001379Y018797D02*
X000896Y018797D01*
X000896Y019506D01*
X001379Y019506D01*
X001864Y018797D02*
X002406Y018797D01*
X002406Y019506D01*
X003815Y020224D02*
X001387Y017796D01*
X001387Y007338D01*
X010915Y007338D01*
X010915Y017796D01*
X008487Y020224D01*
X003815Y020224D01*
X004963Y015245D02*
X004982Y015246D01*
X005000Y015244D01*
X005017Y015238D01*
X005033Y015229D01*
X005046Y015217D01*
X005058Y015203D01*
X005066Y015187D01*
X005071Y015169D01*
X005073Y015151D01*
X005071Y015133D01*
X005066Y015115D01*
X005057Y015099D01*
X005045Y015085D01*
X005031Y015073D01*
X005015Y015064D01*
X004997Y015059D01*
X004979Y015057D01*
D13*
X004351Y013666D03*
X003951Y013666D03*
D14*
X003951Y013651D02*
X003951Y013514D01*
X004351Y013514D02*
X004351Y013601D01*
D15*
X005079Y011237D02*
X005060Y011047D01*
X004996Y011026D01*
X004936Y010996D01*
X004788Y011117D01*
X004686Y011015D01*
X004807Y010866D01*
X004776Y010807D01*
X005054Y010807D01*
X005045Y010802D02*
X005084Y010823D01*
X005127Y010834D01*
X005171Y010835D01*
X005214Y010825D01*
X005254Y010805D01*
X005287Y010776D01*
X005313Y010740D01*
X005329Y010699D01*
X005336Y010655D01*
X005331Y010611D01*
X005317Y010570D01*
X005293Y010533D01*
X005260Y010502D01*
X005222Y010481D01*
X005307Y010276D01*
X005366Y010307D01*
X005515Y010186D01*
X005617Y010288D01*
X005496Y010436D01*
X005526Y010496D01*
X005547Y010560D01*
X005737Y010579D01*
X005737Y010723D01*
X005547Y010743D01*
X005526Y010807D01*
X005249Y010807D01*
X005306Y010749D02*
X005545Y010749D01*
X005526Y010807D02*
X005496Y010866D01*
X005617Y011015D01*
X005515Y011117D01*
X005366Y010996D01*
X005307Y011026D01*
X005243Y011047D01*
X005223Y011237D01*
X005079Y011237D01*
X005076Y011210D02*
X005226Y011210D01*
X005232Y011152D02*
X005071Y011152D01*
X005065Y011095D02*
X005238Y011095D01*
X005272Y011037D02*
X005030Y011037D01*
X004885Y011037D02*
X004708Y011037D01*
X004714Y010980D02*
X005588Y010980D01*
X005594Y011037D02*
X005418Y011037D01*
X005488Y011095D02*
X005536Y011095D01*
X005541Y010922D02*
X004761Y010922D01*
X004806Y010864D02*
X005496Y010864D01*
X005330Y010692D02*
X005737Y010692D01*
X005737Y010634D02*
X005334Y010634D01*
X005319Y010576D02*
X005711Y010576D01*
X005569Y010346D02*
X005278Y010346D01*
X005301Y010289D02*
X005331Y010289D01*
X005389Y010289D02*
X005616Y010289D01*
X005560Y010231D02*
X005459Y010231D01*
X005522Y010404D02*
X005254Y010404D01*
X005230Y010461D02*
X005509Y010461D01*
X005534Y010519D02*
X005278Y010519D01*
X005081Y010481D02*
X005043Y010502D01*
X005011Y010531D01*
X004987Y010567D01*
X004972Y010608D01*
X004967Y010651D01*
X004972Y010695D01*
X004987Y010736D01*
X005012Y010773D01*
X005045Y010802D01*
X004996Y010749D02*
X004758Y010749D01*
X004756Y010743D02*
X004565Y010723D01*
X004565Y010579D01*
X004756Y010560D01*
X004776Y010496D01*
X004807Y010436D01*
X004686Y010288D01*
X004788Y010186D01*
X004936Y010307D01*
X004996Y010276D01*
X005081Y010481D01*
X005073Y010461D02*
X004794Y010461D01*
X004781Y010404D02*
X005049Y010404D01*
X005025Y010346D02*
X004734Y010346D01*
X004687Y010289D02*
X004914Y010289D01*
X004972Y010289D02*
X005001Y010289D01*
X004843Y010231D02*
X004743Y010231D01*
X004769Y010519D02*
X005024Y010519D01*
X004983Y010576D02*
X004592Y010576D01*
X004565Y010634D02*
X004969Y010634D01*
X004971Y010692D02*
X004565Y010692D01*
X004756Y010743D02*
X004776Y010807D01*
X004766Y011095D02*
X004814Y011095D01*
M02*
