%
M48
M72
T01C0.0236
T02C0.0276
T03C0.0320
T04C0.0394
T05C0.0400
%
T01
X4401Y4651
X6651Y7026
X7151Y7776
X7651Y6151
X8151Y6776
X8151Y5471
X7151Y4901
X8151Y8651
X9651Y9151
X9651Y6276
X10276Y5651
X10901Y2401
X7526Y12651
X6151Y14151
X5151Y16401
X3901Y18694
T02
X1945Y18694
X1945Y17907
X1945Y17120
X1945Y16332
X1945Y15545
X1945Y14757
X1945Y13970
X1945Y13183
X1945Y12395
X1945Y11608
X10607Y11608
X10607Y12395
X10607Y13183
X10607Y13970
X10607Y14757
X10607Y15545
X10607Y16332
X10607Y17120
X10607Y17907
X10607Y18694
T03
X4526Y14526
X3526Y14526
T04
X3651Y1651
X4651Y1651
X5651Y1651
X6651Y1651
X7651Y1651
X8651Y1651
T05
X2651Y2651
X2651Y3651
X3651Y3651
X3651Y2651
X4651Y2651
X4651Y3651
X5651Y3651
X5651Y2651
X6651Y2651
X6651Y3651
X7651Y3651
X7651Y2651
X8651Y2651
X8651Y3651
X9651Y3651
X9651Y2651
X9151Y22331
X9151Y23331
X8151Y23331
X8151Y22331
X7151Y22331
X7151Y23331
X6151Y23331
X6151Y22331
X5151Y22331
X5151Y23331
X4151Y23331
X4151Y22331
X3151Y22331
X3151Y23331
M30
