G75*
G70*
%OFA0B0*%
%FSLAX24Y24*%
%IPPOS*%
%LPD*%
%AMOC8*
5,1,8,0,0,1.08239X$1,22.5*
%
%ADD10OC8,0.0720*%
%ADD11C,0.0596*%
%ADD12C,0.0740*%
%ADD13R,0.1640X0.1640*%
%ADD14R,0.1330X0.1330*%
%ADD15C,0.0840*%
D10*
X002650Y002650D03*
X002650Y003650D03*
X003650Y003650D03*
X003650Y002650D03*
X004650Y002650D03*
X004650Y003650D03*
X005650Y003650D03*
X005650Y002650D03*
X006650Y002650D03*
X006650Y003650D03*
X007650Y003650D03*
X007650Y002650D03*
X008650Y002650D03*
X008650Y003650D03*
X009650Y003650D03*
X009650Y002650D03*
X009150Y022330D03*
X009150Y023330D03*
X008150Y023330D03*
X008150Y022330D03*
X007150Y022330D03*
X007150Y023330D03*
X006150Y023330D03*
X006150Y022330D03*
X005150Y022330D03*
X005150Y023330D03*
X004150Y023330D03*
X004150Y022330D03*
X003150Y022330D03*
X003150Y023330D03*
D11*
X001944Y018693D03*
X001944Y017906D03*
X001944Y017119D03*
X001944Y016331D03*
X001944Y015544D03*
X001944Y014756D03*
X001944Y013969D03*
X001944Y013181D03*
X001944Y012394D03*
X001944Y011607D03*
X010606Y011607D03*
X010606Y012394D03*
X010606Y013181D03*
X010606Y013969D03*
X010606Y014756D03*
X010606Y015544D03*
X010606Y016331D03*
X010606Y017119D03*
X010606Y017906D03*
X010606Y018693D03*
D12*
X004525Y014525D03*
X003525Y014525D03*
D13*
X004900Y010150D03*
D14*
X004900Y007050D03*
X004900Y013250D03*
D15*
X004650Y001650D03*
X005650Y001650D03*
X006650Y001650D03*
X007650Y001650D03*
X008650Y001650D03*
X003650Y001650D03*
M02*
