G75*
G70*
%OFA0B0*%
%FSLAX24Y24*%
%IPPOS*%
%LPD*%
%AMOC8*
5,1,8,0,0,1.08239X$1,22.5*
%
%ADD10C,0.0060*%
%ADD11C,0.0050*%
%ADD12C,0.0080*%
%ADD13R,0.0160X0.0230*%
%ADD14C,0.0160*%
%ADD15C,0.0059*%
D10*
X002151Y002401D02*
X002401Y002151D01*
X002901Y002151D01*
X003151Y002401D01*
X003401Y002151D01*
X003901Y002151D01*
X004151Y001901D01*
X004401Y002151D01*
X004901Y002151D01*
X005151Y001901D01*
X005401Y002151D01*
X005901Y002151D01*
X006151Y001901D01*
X006401Y002151D01*
X006901Y002151D01*
X007151Y001901D01*
X007401Y002151D01*
X007901Y002151D01*
X008151Y001901D01*
X008401Y002151D01*
X008901Y002151D01*
X009151Y001901D01*
X009151Y001401D01*
X008901Y001151D01*
X008401Y001151D01*
X008151Y001401D01*
X007901Y001151D01*
X007401Y001151D01*
X007151Y001401D01*
X006901Y001151D01*
X006401Y001151D01*
X006151Y001401D01*
X005901Y001151D01*
X005401Y001151D01*
X005151Y001401D01*
X004901Y001151D01*
X004401Y001151D01*
X004151Y001401D01*
X003901Y001151D01*
X003401Y001151D01*
X003151Y001401D01*
X003151Y001901D01*
X003401Y002151D01*
X003901Y002151D01*
X004151Y002401D01*
X004401Y002151D01*
X004901Y002151D01*
X005151Y002401D01*
X005401Y002151D01*
X005901Y002151D01*
X006151Y002401D01*
X006401Y002151D01*
X006901Y002151D01*
X007151Y002401D01*
X007401Y002151D01*
X007901Y002151D01*
X008151Y002401D01*
X008401Y002151D01*
X008901Y002151D01*
X009151Y002401D01*
X009401Y002151D01*
X009901Y002151D01*
X010151Y002401D01*
X010151Y003901D01*
X009901Y004151D01*
X009401Y004151D01*
X009151Y003901D01*
X008901Y004151D01*
X008401Y004151D01*
X008151Y003901D01*
X007901Y004151D01*
X007401Y004151D01*
X007151Y003901D01*
X006901Y004151D01*
X006401Y004151D01*
X006151Y003901D01*
X005901Y004151D01*
X005401Y004151D01*
X005151Y003901D01*
X004901Y004151D01*
X004401Y004151D01*
X004151Y003901D01*
X003901Y004151D01*
X003401Y004151D01*
X003151Y003901D01*
X002901Y004151D01*
X002401Y004151D01*
X002151Y003901D01*
X002151Y002401D01*
X003676Y015176D02*
X003676Y015326D01*
X003626Y015326D01*
X003626Y017476D01*
X003628Y017493D01*
X003632Y017510D01*
X003639Y017526D01*
X003649Y017540D01*
X003662Y017553D01*
X003676Y017563D01*
X003692Y017570D01*
X003709Y017574D01*
X003726Y017576D01*
X004326Y017576D01*
X004343Y017574D01*
X004360Y017570D01*
X004376Y017563D01*
X004390Y017553D01*
X004403Y017540D01*
X004413Y017526D01*
X004420Y017510D01*
X004424Y017493D01*
X004426Y017476D01*
X004426Y015326D01*
X004376Y015326D01*
X004376Y015176D01*
X003676Y015176D01*
X003645Y019556D02*
X003474Y019556D01*
X003418Y019613D01*
X003474Y019670D01*
X003645Y019670D01*
X003645Y019726D02*
X003645Y019556D01*
X003786Y019556D02*
X003786Y019783D01*
X003786Y019670D02*
X003900Y019783D01*
X003956Y019783D01*
X004093Y019783D02*
X004206Y019783D01*
X004150Y019840D02*
X004150Y019613D01*
X004206Y019556D01*
X004339Y019613D02*
X004339Y019726D01*
X004395Y019783D01*
X004509Y019783D01*
X004565Y019726D01*
X004565Y019670D01*
X004339Y019670D01*
X004339Y019613D02*
X004395Y019556D01*
X004509Y019556D01*
X004707Y019556D02*
X004707Y019783D01*
X004877Y019783D01*
X004934Y019726D01*
X004934Y019556D01*
X005075Y019613D02*
X005075Y019726D01*
X005132Y019783D01*
X005245Y019783D01*
X005302Y019726D01*
X005302Y019670D01*
X005075Y019670D01*
X005075Y019613D02*
X005132Y019556D01*
X005245Y019556D01*
X005443Y019556D02*
X005443Y019783D01*
X005443Y019670D02*
X005557Y019783D01*
X005614Y019783D01*
X005750Y019726D02*
X005750Y019613D01*
X005807Y019556D01*
X005977Y019556D01*
X005977Y019499D02*
X005977Y019783D01*
X005807Y019783D01*
X005750Y019726D01*
X005864Y019443D02*
X005920Y019443D01*
X005977Y019499D01*
X006119Y019613D02*
X006175Y019556D01*
X006345Y019556D01*
X006345Y019499D02*
X006289Y019443D01*
X006232Y019443D01*
X006345Y019499D02*
X006345Y019783D01*
X006487Y019726D02*
X006487Y019613D01*
X006544Y019556D01*
X006714Y019556D01*
X006714Y019499D02*
X006714Y019783D01*
X006544Y019783D01*
X006487Y019726D01*
X006600Y019443D02*
X006657Y019443D01*
X006714Y019499D01*
X006855Y019556D02*
X006855Y019783D01*
X006855Y019670D02*
X006969Y019783D01*
X007025Y019783D01*
X007162Y019726D02*
X007162Y019613D01*
X007219Y019556D01*
X007332Y019556D01*
X007389Y019613D01*
X007389Y019726D01*
X007332Y019783D01*
X007219Y019783D01*
X007162Y019726D01*
X007530Y019783D02*
X007530Y019613D01*
X007587Y019556D01*
X007757Y019556D01*
X007757Y019783D01*
X007899Y019783D02*
X007899Y019443D01*
X007899Y019556D02*
X008069Y019556D01*
X008126Y019613D01*
X008126Y019726D01*
X008069Y019783D01*
X007899Y019783D01*
X008267Y019726D02*
X008324Y019783D01*
X008494Y019783D01*
X008437Y019670D02*
X008324Y019670D01*
X008267Y019726D01*
X008267Y019556D02*
X008437Y019556D01*
X008494Y019613D01*
X008437Y019670D01*
X008635Y019613D02*
X008635Y019556D01*
X008692Y019556D01*
X008692Y019613D01*
X008635Y019613D01*
X008819Y019613D02*
X008876Y019556D01*
X009046Y019556D01*
X009188Y019613D02*
X009244Y019556D01*
X009358Y019556D01*
X009415Y019613D01*
X009415Y019726D01*
X009358Y019783D01*
X009244Y019783D01*
X009188Y019726D01*
X009188Y019613D01*
X009046Y019783D02*
X008876Y019783D01*
X008819Y019726D01*
X008819Y019613D01*
X008693Y020556D02*
X008593Y020556D01*
X008543Y020606D01*
X008743Y020806D01*
X008743Y020606D01*
X008693Y020556D01*
X008543Y020606D02*
X008543Y020806D01*
X008593Y020856D01*
X008693Y020856D01*
X008743Y020806D01*
X008427Y020606D02*
X008427Y020556D01*
X008377Y020556D01*
X008377Y020606D01*
X008427Y020606D01*
X008246Y020556D02*
X008045Y020556D01*
X008145Y020556D02*
X008145Y020856D01*
X008045Y020756D01*
X007914Y020756D02*
X007814Y020556D01*
X007714Y020756D01*
X007251Y020756D02*
X007101Y020756D01*
X007051Y020706D01*
X007051Y020606D01*
X007101Y020556D01*
X007251Y020556D01*
X007251Y020856D01*
X006880Y020856D02*
X006880Y020556D01*
X006830Y020556D02*
X006930Y020556D01*
X006699Y020656D02*
X006499Y020656D01*
X006499Y020606D02*
X006499Y020706D01*
X006549Y020756D01*
X006649Y020756D01*
X006699Y020706D01*
X006699Y020656D01*
X006649Y020556D02*
X006549Y020556D01*
X006499Y020606D01*
X006378Y020556D02*
X006278Y020556D01*
X006328Y020556D02*
X006328Y020756D01*
X006278Y020756D01*
X006328Y020856D02*
X006328Y020906D01*
X006146Y020706D02*
X006146Y020556D01*
X006146Y020706D02*
X006096Y020756D01*
X005996Y020756D01*
X005946Y020706D01*
X005815Y020656D02*
X005815Y020606D01*
X005765Y020556D01*
X005665Y020556D01*
X005615Y020606D01*
X005665Y020706D02*
X005765Y020706D01*
X005815Y020656D01*
X005815Y020806D02*
X005765Y020856D01*
X005665Y020856D01*
X005615Y020806D01*
X005615Y020756D01*
X005665Y020706D01*
X005483Y020706D02*
X005483Y020556D01*
X005483Y020706D02*
X005433Y020756D01*
X005283Y020756D01*
X005283Y020556D01*
X005152Y020606D02*
X005152Y020706D01*
X005102Y020756D01*
X005002Y020756D01*
X004952Y020706D01*
X004952Y020606D01*
X005002Y020556D01*
X005102Y020556D01*
X005152Y020606D01*
X004820Y020556D02*
X004670Y020556D01*
X004620Y020606D01*
X004620Y020706D01*
X004670Y020756D01*
X004820Y020756D01*
X004820Y020506D01*
X004770Y020456D01*
X004720Y020456D01*
X004489Y020556D02*
X004339Y020556D01*
X004289Y020606D01*
X004339Y020656D01*
X004489Y020656D01*
X004489Y020706D02*
X004489Y020556D01*
X004489Y020706D02*
X004439Y020756D01*
X004339Y020756D01*
X004163Y020756D02*
X004113Y020756D01*
X004013Y020656D01*
X004013Y020556D02*
X004013Y020756D01*
X003881Y020806D02*
X003831Y020856D01*
X003681Y020856D01*
X003681Y020556D01*
X003831Y020556D01*
X003881Y020606D01*
X003881Y020806D01*
X003588Y019783D02*
X003474Y019783D01*
X003588Y019783D02*
X003645Y019726D01*
X003276Y019726D02*
X003276Y019556D01*
X003163Y019556D02*
X003163Y019726D01*
X003220Y019783D01*
X003276Y019726D01*
X003163Y019726D02*
X003106Y019783D01*
X003049Y019783D01*
X003049Y019556D01*
X002908Y019613D02*
X002851Y019670D01*
X002738Y019670D01*
X002681Y019726D01*
X002738Y019783D01*
X002908Y019783D01*
X002908Y019613D02*
X002851Y019556D01*
X002681Y019556D01*
X002901Y021831D02*
X003401Y021831D01*
X003651Y022081D01*
X003901Y021831D01*
X004401Y021831D01*
X004651Y022081D01*
X004901Y021831D01*
X005401Y021831D01*
X005651Y022081D01*
X005901Y021831D01*
X006401Y021831D01*
X006651Y022081D01*
X006901Y021831D01*
X007401Y021831D01*
X007651Y022081D01*
X007901Y021831D01*
X008401Y021831D01*
X008651Y022081D01*
X008901Y021831D01*
X009401Y021831D01*
X009651Y022081D01*
X009651Y023581D01*
X009401Y023831D01*
X008901Y023831D01*
X008651Y023581D01*
X008401Y023831D01*
X007901Y023831D01*
X007651Y023581D01*
X007401Y023831D01*
X006901Y023831D01*
X006651Y023581D01*
X006401Y023831D01*
X005901Y023831D01*
X005651Y023581D01*
X005401Y023831D01*
X004901Y023831D01*
X004651Y023581D01*
X004401Y023831D01*
X003901Y023831D01*
X003651Y023581D01*
X003401Y023831D01*
X002901Y023831D01*
X002651Y023581D01*
X002651Y022081D01*
X002901Y021831D01*
X005946Y020856D02*
X005946Y020556D01*
X006119Y019783D02*
X006119Y019613D01*
X006830Y020856D02*
X006880Y020856D01*
X009556Y019783D02*
X009556Y019556D01*
X009670Y019556D02*
X009670Y019726D01*
X009726Y019783D01*
X009783Y019726D01*
X009783Y019556D01*
X009670Y019726D02*
X009613Y019783D01*
X009556Y019783D01*
X010338Y009113D02*
X010281Y009057D01*
X010281Y008887D01*
X010621Y008887D01*
X010621Y009057D01*
X010564Y009113D01*
X010338Y009113D01*
X010338Y008745D02*
X010281Y008688D01*
X010281Y008575D01*
X010338Y008518D01*
X010394Y008518D01*
X010451Y008575D01*
X010451Y008688D01*
X010508Y008745D01*
X010564Y008745D01*
X010621Y008688D01*
X010621Y008575D01*
X010564Y008518D01*
X010564Y008008D02*
X010338Y008008D01*
X010281Y007952D01*
X010281Y007838D01*
X010338Y007782D01*
X010564Y007782D01*
X010621Y007838D01*
X010621Y007952D01*
X010564Y008008D01*
X010621Y007640D02*
X010508Y007527D01*
X010508Y007583D02*
X010508Y007413D01*
X010621Y007413D02*
X010281Y007413D01*
X010281Y007583D01*
X010338Y007640D01*
X010451Y007640D01*
X010508Y007583D01*
X010564Y007272D02*
X010621Y007215D01*
X010621Y007102D01*
X010564Y007045D01*
X010338Y007045D01*
X010281Y007102D01*
X010281Y007215D01*
X010338Y007272D01*
X010281Y006913D02*
X010281Y006799D01*
X010281Y006856D02*
X010621Y006856D01*
X010621Y006799D02*
X010621Y006913D01*
X010621Y006658D02*
X010281Y006658D01*
X010394Y006545D01*
X010281Y006431D01*
X010621Y006431D01*
D11*
X001081Y002901D02*
X000901Y002901D01*
X000991Y002901D02*
X000991Y003171D01*
X000901Y003081D01*
X001196Y003126D02*
X001196Y002946D01*
X001376Y003126D01*
X001376Y002946D01*
X001331Y002901D01*
X001241Y002901D01*
X001196Y002946D01*
X001196Y003126D02*
X001241Y003171D01*
X001331Y003171D01*
X001376Y003126D01*
X001785Y003171D02*
X001785Y002901D01*
X001785Y002991D02*
X001920Y003081D01*
X001785Y002991D02*
X001920Y002901D01*
X002776Y005151D02*
X002956Y005151D01*
X002866Y005151D02*
X002866Y005421D01*
X002776Y005331D01*
X003071Y005376D02*
X003071Y005196D01*
X003251Y005376D01*
X003251Y005196D01*
X003206Y005151D01*
X003116Y005151D01*
X003071Y005196D01*
X003071Y005376D02*
X003116Y005421D01*
X003206Y005421D01*
X003251Y005376D01*
X003365Y005421D02*
X003365Y005151D01*
X003365Y005241D02*
X003501Y005331D01*
X003365Y005241D02*
X003501Y005151D01*
X004667Y004850D02*
X004667Y004526D01*
X009524Y004526D01*
X009982Y005039D02*
X009982Y008889D01*
X010478Y009290D02*
X010519Y009285D01*
X010560Y009276D01*
X010599Y009264D01*
X010638Y009248D01*
X010674Y009229D01*
X010709Y009207D01*
X010742Y009182D01*
X010773Y009155D01*
X010801Y009124D01*
X010826Y009091D01*
X010849Y009057D01*
X010868Y009020D01*
X010884Y008982D01*
X010896Y008943D01*
X010905Y008902D01*
X010911Y008861D01*
X010913Y008820D01*
X010911Y008779D01*
X010911Y008778D02*
X010911Y005156D01*
X011265Y005156D02*
X011263Y005115D01*
X011258Y005074D01*
X011249Y005034D01*
X011237Y004995D01*
X011221Y004957D01*
X011202Y004920D01*
X011180Y004885D01*
X011155Y004853D01*
X011127Y004822D01*
X011096Y004794D01*
X011064Y004769D01*
X011029Y004747D01*
X010992Y004728D01*
X010954Y004712D01*
X010915Y004700D01*
X010875Y004691D01*
X010834Y004686D01*
X010793Y004684D01*
X010439Y004684D02*
X010480Y004686D01*
X010521Y004691D01*
X010561Y004700D01*
X010600Y004712D01*
X010638Y004728D01*
X010675Y004747D01*
X010710Y004769D01*
X010742Y004794D01*
X010773Y004822D01*
X010801Y004853D01*
X010826Y004885D01*
X010848Y004920D01*
X010867Y004957D01*
X010883Y004995D01*
X010895Y005034D01*
X010904Y005074D01*
X010909Y005115D01*
X010911Y005156D01*
X011265Y005156D02*
X011265Y008778D01*
X011265Y008779D02*
X011267Y008820D01*
X011265Y008861D01*
X011259Y008902D01*
X011250Y008943D01*
X011238Y008982D01*
X011222Y009020D01*
X011203Y009057D01*
X011180Y009091D01*
X011155Y009124D01*
X011127Y009155D01*
X011096Y009182D01*
X011063Y009207D01*
X011028Y009229D01*
X010992Y009248D01*
X010953Y009264D01*
X010914Y009276D01*
X010873Y009285D01*
X010832Y009290D01*
X010612Y009519D02*
X010563Y009517D01*
X010513Y009511D01*
X010465Y009502D01*
X010417Y009488D01*
X010371Y009471D01*
X010326Y009450D01*
X010283Y009426D01*
X010242Y009399D01*
X010203Y009368D01*
X010167Y009334D01*
X010133Y009298D01*
X010102Y009259D01*
X010075Y009218D01*
X010051Y009175D01*
X010030Y009130D01*
X010013Y009084D01*
X009999Y009036D01*
X009990Y008988D01*
X009984Y008938D01*
X009982Y008889D01*
X009862Y010038D02*
X004667Y010038D01*
X004667Y008151D01*
X004667Y007194D02*
X004667Y005776D01*
X004606Y001071D02*
X004606Y000801D01*
X004426Y001071D01*
X004426Y000801D01*
X004721Y000846D02*
X004766Y000801D01*
X004856Y000801D01*
X004901Y000846D01*
X004721Y000846D02*
X004721Y001026D01*
X004766Y001071D01*
X004856Y001071D01*
X004901Y001026D01*
X005301Y000936D02*
X005481Y000936D01*
X005596Y000936D02*
X005596Y001071D01*
X005776Y001071D01*
X005731Y000981D02*
X005776Y000936D01*
X005776Y000846D01*
X005731Y000801D01*
X005641Y000801D01*
X005596Y000846D01*
X005596Y000936D02*
X005686Y000981D01*
X005731Y000981D01*
X005890Y001071D02*
X005890Y000891D01*
X005981Y000801D01*
X006071Y000891D01*
X006071Y001071D01*
X006301Y001071D02*
X006481Y001071D01*
X006391Y001071D02*
X006391Y000801D01*
X006596Y000801D02*
X006776Y001071D01*
X006890Y001071D02*
X006890Y000801D01*
X007026Y000801D01*
X007071Y000846D01*
X007071Y001026D01*
X007026Y001071D01*
X006890Y001071D01*
X006776Y000801D02*
X006596Y001071D01*
X007301Y001071D02*
X007301Y000801D01*
X007301Y000891D02*
X007436Y000891D01*
X007481Y000936D01*
X007481Y001026D01*
X007436Y001071D01*
X007301Y001071D01*
X007391Y000891D02*
X007481Y000801D01*
X007596Y000801D02*
X007776Y001071D01*
X007890Y001071D02*
X007890Y000801D01*
X008026Y000801D01*
X008071Y000846D01*
X008071Y001026D01*
X008026Y001071D01*
X007890Y001071D01*
X007776Y000801D02*
X007596Y001071D01*
X008426Y001071D02*
X008426Y000801D01*
X008606Y000801D02*
X008426Y001071D01*
X008606Y001071D02*
X008606Y000801D01*
X008721Y000846D02*
X008721Y001026D01*
X008766Y001071D01*
X008856Y001071D01*
X008901Y001026D01*
X008901Y000846D02*
X008856Y000801D01*
X008766Y000801D01*
X008721Y000846D01*
X009401Y001036D02*
X009581Y001036D01*
X009536Y000901D02*
X009536Y001171D01*
X009401Y001036D01*
X009696Y000946D02*
X009741Y000946D01*
X009741Y000901D01*
X009696Y000901D01*
X009696Y000946D01*
X009843Y000946D02*
X009843Y000901D01*
X009843Y000946D02*
X010023Y001126D01*
X010023Y001171D01*
X009843Y001171D01*
X010432Y001171D02*
X010432Y000901D01*
X010432Y000991D02*
X010568Y001081D01*
X010432Y000991D02*
X010568Y000901D01*
X011319Y002782D02*
X011229Y002873D01*
X011499Y002873D01*
X011499Y002963D02*
X011499Y002782D01*
X011454Y003077D02*
X011274Y003257D01*
X011454Y003257D01*
X011499Y003212D01*
X011499Y003122D01*
X011454Y003077D01*
X011274Y003077D01*
X011229Y003122D01*
X011229Y003212D01*
X011274Y003257D01*
X011274Y003372D02*
X011229Y003417D01*
X011229Y003507D01*
X011274Y003552D01*
X011454Y003372D01*
X011499Y003417D01*
X011499Y003507D01*
X011454Y003552D01*
X011274Y003552D01*
X011274Y003372D02*
X011454Y003372D01*
X011499Y003961D02*
X011319Y003961D01*
X011319Y004096D01*
X011364Y004141D01*
X011499Y004141D01*
X011499Y004256D02*
X011229Y004256D01*
X011229Y004436D01*
X011364Y004346D02*
X011364Y004256D01*
X012289Y004684D02*
X012330Y004686D01*
X012371Y004691D01*
X012411Y004700D01*
X012450Y004712D01*
X012488Y004728D01*
X012525Y004747D01*
X012560Y004769D01*
X012592Y004794D01*
X012623Y004822D01*
X012651Y004853D01*
X012676Y004885D01*
X012698Y004920D01*
X012717Y004957D01*
X012733Y004995D01*
X012745Y005034D01*
X012754Y005074D01*
X012759Y005115D01*
X012761Y005156D01*
X012761Y008778D01*
X012761Y008779D02*
X012763Y008820D01*
X012761Y008861D01*
X012755Y008902D01*
X012746Y008943D01*
X012734Y008982D01*
X012718Y009020D01*
X012699Y009057D01*
X012676Y009091D01*
X012651Y009124D01*
X012623Y009155D01*
X012592Y009182D01*
X012559Y009207D01*
X012524Y009229D01*
X012488Y009248D01*
X012449Y009264D01*
X012410Y009276D01*
X012369Y009285D01*
X012328Y009290D01*
X009501Y017526D02*
X009365Y017616D01*
X009501Y017706D01*
X009365Y017796D02*
X009365Y017526D01*
X008956Y017526D02*
X008776Y017526D01*
X008866Y017526D02*
X008866Y017796D01*
X008776Y017706D01*
X008463Y017921D02*
X008418Y017876D01*
X008328Y017876D01*
X008283Y017921D01*
X008463Y018101D01*
X008463Y017921D01*
X008283Y017921D02*
X008283Y018101D01*
X008328Y018146D01*
X008418Y018146D01*
X008463Y018101D01*
X008169Y017876D02*
X007989Y017876D01*
X008079Y017876D02*
X008079Y018146D01*
X007989Y018056D01*
X007874Y018146D02*
X007874Y017876D01*
X007784Y017966D01*
X007694Y017876D01*
X007694Y018146D01*
X007580Y018146D02*
X007399Y018146D01*
X007399Y018011D01*
X007489Y018056D01*
X007534Y018056D01*
X007580Y018011D01*
X007580Y017921D01*
X007534Y017876D01*
X007444Y017876D01*
X007399Y017921D01*
X007285Y017921D02*
X007285Y018101D01*
X007240Y018146D01*
X007150Y018146D01*
X007105Y018101D01*
X007105Y018056D01*
X007150Y018011D01*
X007285Y018011D01*
X007285Y017921D02*
X007240Y017876D01*
X007150Y017876D01*
X007105Y017921D01*
X006990Y018101D02*
X006990Y018146D01*
X006810Y018146D01*
X006696Y018101D02*
X006696Y018011D01*
X006651Y017966D01*
X006515Y017966D01*
X006515Y017876D02*
X006515Y018146D01*
X006651Y018146D01*
X006696Y018101D01*
X006810Y017921D02*
X006810Y017876D01*
X006810Y017921D02*
X006990Y018101D01*
X006401Y018101D02*
X006356Y018146D01*
X006266Y018146D01*
X006221Y018101D01*
X006221Y017921D01*
X006266Y017876D01*
X006356Y017876D01*
X006401Y017921D01*
X006106Y017876D02*
X006106Y018146D01*
X006016Y018056D01*
X005926Y018146D01*
X005926Y017876D01*
X005073Y016151D02*
X005071Y016133D01*
X005066Y016115D01*
X005057Y016099D01*
X005045Y016085D01*
X005031Y016073D01*
X005015Y016064D01*
X004997Y016059D01*
X004979Y016057D01*
X004964Y016057D01*
X004176Y016155D02*
X004131Y016110D01*
X004041Y016110D01*
X004041Y016245D01*
X004086Y016290D01*
X004131Y016290D01*
X004176Y016245D01*
X004176Y016155D01*
X004041Y016110D02*
X003951Y016200D01*
X003906Y016290D01*
X003951Y016405D02*
X003996Y016405D01*
X004041Y016450D01*
X004041Y016540D01*
X004086Y016585D01*
X004131Y016585D01*
X004176Y016540D01*
X004176Y016450D01*
X004131Y016405D01*
X004086Y016405D01*
X004041Y016450D01*
X004041Y016540D02*
X003996Y016585D01*
X003951Y016585D01*
X003906Y016540D01*
X003906Y016450D01*
X003951Y016405D01*
X003951Y015996D02*
X004131Y015815D01*
X004176Y015815D01*
X004176Y015701D02*
X004176Y015521D01*
X003996Y015701D01*
X003951Y015701D01*
X003906Y015656D01*
X003906Y015566D01*
X003951Y015521D01*
X003951Y015406D02*
X003996Y015406D01*
X004041Y015361D01*
X004086Y015406D01*
X004131Y015406D01*
X004176Y015361D01*
X004176Y015271D01*
X004131Y015226D01*
X004041Y015316D02*
X004041Y015361D01*
X003951Y015406D02*
X003906Y015361D01*
X003906Y015271D01*
X003951Y015226D01*
X003906Y015815D02*
X003906Y015996D01*
X003951Y015996D01*
X003501Y015331D02*
X003365Y015241D01*
X003501Y015151D01*
X003365Y015151D02*
X003365Y015421D01*
X002956Y015151D02*
X002776Y015151D01*
X002866Y015151D02*
X002866Y015421D01*
X002776Y015331D01*
X003906Y016994D02*
X004176Y016994D01*
X004041Y016994D02*
X004041Y017174D01*
X003996Y017289D02*
X003996Y017469D01*
X004176Y017289D01*
X004176Y017469D01*
X004176Y017174D02*
X003906Y017174D01*
X003757Y018053D02*
X003667Y018053D01*
X003622Y018098D01*
X003802Y018278D01*
X003802Y018098D01*
X003757Y018053D01*
X003622Y018098D02*
X003622Y018278D01*
X003667Y018323D01*
X003757Y018323D01*
X003802Y018278D01*
X003507Y018278D02*
X003507Y018098D01*
X003462Y018053D01*
X003372Y018053D01*
X003327Y018098D01*
X003507Y018278D01*
X003462Y018323D01*
X003372Y018323D01*
X003327Y018278D01*
X003327Y018098D01*
X003213Y018053D02*
X003032Y018053D01*
X003123Y018053D02*
X003123Y018323D01*
X003032Y018233D01*
X003426Y020051D02*
X003561Y020051D01*
X003606Y020096D01*
X003606Y020186D01*
X003561Y020231D01*
X003426Y020231D01*
X003426Y020321D02*
X003426Y020051D01*
X003721Y020096D02*
X003766Y020051D01*
X003901Y020051D01*
X003901Y020006D02*
X003856Y019961D01*
X003811Y019961D01*
X003901Y020006D02*
X003901Y020231D01*
X003721Y020231D02*
X003721Y020096D01*
X004310Y020051D02*
X004490Y020051D01*
X004605Y020096D02*
X004650Y020051D01*
X004785Y020051D01*
X004785Y020231D01*
X004899Y020141D02*
X005034Y020231D01*
X005145Y020186D02*
X005190Y020231D01*
X005280Y020231D01*
X005325Y020186D01*
X005325Y020141D01*
X005145Y020141D01*
X005145Y020096D02*
X005145Y020186D01*
X005145Y020096D02*
X005190Y020051D01*
X005280Y020051D01*
X005034Y020051D02*
X004899Y020141D01*
X004899Y020051D02*
X004899Y020321D01*
X004605Y020231D02*
X004605Y020096D01*
X004310Y020051D02*
X004310Y020321D01*
X004506Y018323D02*
X004686Y018323D01*
X004596Y018188D02*
X004506Y018188D01*
X004391Y018188D02*
X004391Y018053D01*
X004506Y018053D02*
X004506Y018323D01*
X004391Y018188D02*
X004346Y018233D01*
X004211Y018233D01*
X004211Y018053D01*
X005734Y020051D02*
X005824Y020141D01*
X005914Y020051D01*
X005914Y020321D01*
X006029Y020186D02*
X006074Y020231D01*
X006164Y020231D01*
X006209Y020186D01*
X006209Y020141D01*
X006029Y020141D01*
X006029Y020096D02*
X006029Y020186D01*
X006029Y020096D02*
X006074Y020051D01*
X006164Y020051D01*
X006324Y020051D02*
X006459Y020051D01*
X006504Y020096D01*
X006459Y020141D01*
X006369Y020141D01*
X006324Y020186D01*
X006369Y020231D01*
X006504Y020231D01*
X006618Y020231D02*
X006708Y020231D01*
X006663Y020276D02*
X006663Y020096D01*
X006708Y020051D01*
X006815Y020096D02*
X006860Y020051D01*
X006950Y020051D01*
X006995Y020096D01*
X006995Y020186D01*
X006950Y020231D01*
X006860Y020231D01*
X006815Y020186D01*
X006815Y020096D01*
X007109Y020051D02*
X007109Y020231D01*
X007244Y020231D01*
X007289Y020186D01*
X007289Y020051D01*
X007404Y019961D02*
X007494Y020051D01*
X007449Y020051D01*
X007449Y020096D01*
X007494Y020096D01*
X007494Y020051D01*
X007895Y020051D02*
X008075Y020231D01*
X008075Y020276D01*
X008030Y020321D01*
X007940Y020321D01*
X007895Y020276D01*
X007895Y020051D02*
X008075Y020051D01*
X008190Y020096D02*
X008370Y020276D01*
X008370Y020096D01*
X008325Y020051D01*
X008235Y020051D01*
X008190Y020096D01*
X008190Y020276D01*
X008235Y020321D01*
X008325Y020321D01*
X008370Y020276D01*
X008484Y020231D02*
X008574Y020321D01*
X008574Y020051D01*
X008484Y020051D02*
X008664Y020051D01*
X008779Y020051D02*
X008959Y020231D01*
X008959Y020276D01*
X008914Y020321D01*
X008824Y020321D01*
X008779Y020276D01*
X008779Y020051D02*
X008959Y020051D01*
X005734Y020051D02*
X005734Y020321D01*
X002424Y021684D02*
X002289Y021684D01*
X002244Y021729D01*
X002244Y021819D01*
X002289Y021864D01*
X002424Y021864D01*
X002130Y021819D02*
X002085Y021864D01*
X001994Y021864D01*
X001949Y021819D01*
X001949Y021729D01*
X001994Y021684D01*
X002085Y021684D01*
X002130Y021729D01*
X002130Y021819D01*
X001835Y021864D02*
X001700Y021864D01*
X001655Y021819D01*
X001700Y021774D01*
X001790Y021774D01*
X001835Y021729D01*
X001790Y021684D01*
X001655Y021684D01*
X001540Y021729D02*
X001495Y021774D01*
X001405Y021774D01*
X001360Y021819D01*
X001405Y021864D01*
X001540Y021864D01*
X001540Y021729D02*
X001495Y021684D01*
X001360Y021684D01*
X001246Y021684D02*
X001246Y021864D01*
X001156Y021954D01*
X001066Y021864D01*
X001066Y021684D01*
X001066Y021819D02*
X001246Y021819D01*
X001201Y019704D02*
X001066Y019704D01*
X001066Y019434D01*
X001066Y019524D02*
X001201Y019524D01*
X001246Y019569D01*
X001246Y019659D01*
X001201Y019704D01*
X001360Y019659D02*
X001360Y019614D01*
X001405Y019569D01*
X001495Y019569D01*
X001540Y019524D01*
X001540Y019479D01*
X001495Y019434D01*
X001405Y019434D01*
X001360Y019479D01*
X001246Y019434D02*
X001156Y019524D01*
X001360Y019659D02*
X001405Y019704D01*
X001495Y019704D01*
X001540Y019659D01*
X001655Y019659D02*
X001655Y019614D01*
X001700Y019569D01*
X001790Y019569D01*
X001835Y019524D01*
X001835Y019479D01*
X001790Y019434D01*
X001700Y019434D01*
X001655Y019479D01*
X001655Y019659D02*
X001700Y019704D01*
X001790Y019704D01*
X001835Y019659D01*
X001949Y019704D02*
X002040Y019704D01*
X001994Y019704D02*
X001994Y019434D01*
X001949Y019434D02*
X002040Y019434D01*
X006616Y013296D02*
X006526Y013206D01*
X006616Y013296D02*
X006616Y013026D01*
X006526Y013026D02*
X006706Y013026D01*
X006821Y013071D02*
X006821Y013251D01*
X006866Y013296D01*
X006956Y013296D01*
X007001Y013251D01*
X006821Y013071D01*
X006866Y013026D01*
X006956Y013026D01*
X007001Y013071D01*
X007001Y013251D01*
X007115Y013296D02*
X007115Y013026D01*
X007115Y013116D02*
X007251Y013206D01*
X007115Y013116D02*
X007251Y013026D01*
X005391Y001026D02*
X005391Y000846D01*
X004071Y000846D02*
X004071Y001026D01*
X004026Y001071D01*
X003890Y001071D01*
X003890Y000801D01*
X004026Y000801D01*
X004071Y000846D01*
X003776Y000801D02*
X003776Y001071D01*
X003596Y001071D02*
X003776Y000801D01*
X003596Y000801D02*
X003596Y001071D01*
X003481Y001026D02*
X003436Y001071D01*
X003346Y001071D01*
X003301Y001026D01*
X003301Y000846D01*
X003346Y000801D01*
X003436Y000801D01*
X003481Y000846D01*
X003481Y000936D01*
X003391Y000936D01*
D12*
X001512Y008338D02*
X011040Y008338D01*
X011040Y018796D01*
X008612Y021224D01*
X003940Y021224D01*
X001512Y018796D01*
X001512Y008338D01*
X005073Y016151D02*
X005071Y016169D01*
X005066Y016187D01*
X005058Y016203D01*
X005046Y016217D01*
X005033Y016229D01*
X005017Y016238D01*
X005000Y016244D01*
X004982Y016246D01*
X004963Y016245D01*
X005073Y016151D02*
X005071Y016133D01*
X005066Y016115D01*
X005057Y016099D01*
X005045Y016085D01*
X005031Y016073D01*
X005015Y016064D01*
X004997Y016059D01*
X004979Y016057D01*
X002406Y019797D02*
X002406Y020506D01*
X001873Y020506D01*
X001719Y020387D02*
X001583Y020151D01*
X001719Y019915D01*
X001719Y020387D01*
X001583Y020502D02*
X001583Y020151D01*
X001583Y019801D01*
X001379Y019797D02*
X000896Y019797D01*
X000896Y020506D01*
X001379Y020506D01*
X001379Y020797D02*
X000896Y020797D01*
X000896Y021506D01*
X001379Y021506D01*
X001583Y021502D02*
X001583Y021151D01*
X001719Y021387D01*
X001719Y020915D01*
X001583Y021151D01*
X001583Y020801D01*
X001864Y020797D02*
X002406Y020797D01*
X002406Y021506D01*
X001873Y021506D01*
X001864Y019797D02*
X002406Y019797D01*
D13*
X003826Y015041D03*
X004226Y015041D03*
D14*
X004226Y014976D02*
X004226Y014889D01*
X003826Y014889D02*
X003826Y015026D01*
D15*
X005079Y012237D02*
X005060Y012047D01*
X004996Y012026D01*
X004936Y011996D01*
X004788Y012117D01*
X004686Y012015D01*
X004807Y011866D01*
X004776Y011807D01*
X004756Y011743D01*
X004565Y011723D01*
X004565Y011579D01*
X004756Y011560D01*
X004776Y011496D01*
X004807Y011436D01*
X004686Y011288D01*
X004788Y011186D01*
X004936Y011307D01*
X004996Y011276D01*
X005081Y011481D01*
X005043Y011502D01*
X005011Y011531D01*
X004987Y011567D01*
X004972Y011608D01*
X004967Y011651D01*
X004972Y011695D01*
X004987Y011736D01*
X005012Y011773D01*
X005045Y011802D01*
X005084Y011823D01*
X005127Y011834D01*
X005171Y011835D01*
X005214Y011825D01*
X005254Y011805D01*
X005287Y011776D01*
X005313Y011740D01*
X005329Y011699D01*
X005336Y011655D01*
X005331Y011611D01*
X005317Y011570D01*
X005293Y011533D01*
X005260Y011502D01*
X005222Y011481D01*
X005307Y011276D01*
X005366Y011307D01*
X005515Y011186D01*
X005617Y011288D01*
X005496Y011436D01*
X005526Y011496D01*
X005547Y011560D01*
X005737Y011579D01*
X005737Y011723D01*
X005547Y011743D01*
X005526Y011807D01*
X005496Y011866D01*
X005617Y012015D01*
X005515Y012117D01*
X005366Y011996D01*
X005307Y012026D01*
X005243Y012047D01*
X005223Y012237D01*
X005079Y012237D01*
X005074Y012189D02*
X005228Y012189D01*
X005234Y012132D02*
X005069Y012132D01*
X005063Y012074D02*
X005240Y012074D01*
X005326Y012016D02*
X004977Y012016D01*
X004910Y012016D02*
X004688Y012016D01*
X004731Y011959D02*
X005571Y011959D01*
X005615Y012016D02*
X005392Y012016D01*
X005463Y012074D02*
X005557Y012074D01*
X005524Y011901D02*
X004778Y011901D01*
X004795Y011844D02*
X005507Y011844D01*
X005533Y011786D02*
X005275Y011786D01*
X005317Y011728D02*
X005685Y011728D01*
X005737Y011671D02*
X005333Y011671D01*
X005332Y011613D02*
X005737Y011613D01*
X005586Y011325D02*
X005286Y011325D01*
X005262Y011383D02*
X005539Y011383D01*
X005498Y011440D02*
X005238Y011440D01*
X005253Y011498D02*
X005527Y011498D01*
X005545Y011556D02*
X005308Y011556D01*
X005414Y011268D02*
X005597Y011268D01*
X005539Y011210D02*
X005485Y011210D01*
X005040Y011383D02*
X004764Y011383D01*
X004805Y011440D02*
X005064Y011440D01*
X005049Y011498D02*
X004775Y011498D01*
X004757Y011556D02*
X004995Y011556D01*
X004971Y011613D02*
X004565Y011613D01*
X004565Y011671D02*
X004969Y011671D01*
X004984Y011728D02*
X004617Y011728D01*
X004770Y011786D02*
X005027Y011786D01*
X004840Y012074D02*
X004745Y012074D01*
X004717Y011325D02*
X005016Y011325D01*
X004888Y011268D02*
X004706Y011268D01*
X004763Y011210D02*
X004817Y011210D01*
M02*
