%
M48
M72
T01C0.0236
T02C0.0276
T03C0.0320
T04C0.0394
T05C0.0400
%
T01
X4400Y4650
X6650Y7025
X7150Y7775
X7650Y6150
X8150Y6775
X8150Y5470
X7150Y4900
X8150Y8650
X9650Y9150
X9650Y6275
X10275Y5650
X10900Y2400
X7525Y12650
X6150Y14150
X5150Y16400
X3900Y18693
T02
X1944Y18693
X1944Y17906
X1944Y17119
X1944Y16331
X1944Y15544
X1944Y14756
X1944Y13969
X1944Y13181
X1944Y12394
X1944Y11607
X10606Y11607
X10606Y12394
X10606Y13181
X10606Y13969
X10606Y14756
X10606Y15544
X10606Y16331
X10606Y17119
X10606Y17906
X10606Y18693
T03
X4525Y14525
X3525Y14525
T04
X3650Y1650
X4650Y1650
X5650Y1650
X6650Y1650
X7650Y1650
X8650Y1650
T05
X2650Y2650
X2650Y3650
X3650Y3650
X3650Y2650
X4650Y2650
X4650Y3650
X5650Y3650
X5650Y2650
X6650Y2650
X6650Y3650
X7650Y3650
X7650Y2650
X8650Y2650
X8650Y3650
X9650Y3650
X9650Y2650
X9150Y22330
X9150Y23330
X8150Y23330
X8150Y22330
X7150Y22330
X7150Y23330
X6150Y23330
X6150Y22330
X5150Y22330
X5150Y23330
X4150Y23330
X4150Y22330
X3150Y22330
X3150Y23330
M30
