G75*
G70*
%OFA0B0*%
%FSLAX24Y24*%
%IPPOS*%
%LPD*%
%AMOC8*
5,1,8,0,0,1.08239X$1,22.5*
%
%ADD10OC8,0.0720*%
%ADD11C,0.0596*%
%ADD12C,0.0740*%
%ADD13R,0.1640X0.1640*%
%ADD14R,0.1330X0.1330*%
%ADD15C,0.0840*%
D10*
X002651Y002651D03*
X002651Y003651D03*
X003651Y003651D03*
X003651Y002651D03*
X004651Y002651D03*
X004651Y003651D03*
X005651Y003651D03*
X005651Y002651D03*
X006651Y002651D03*
X006651Y003651D03*
X007651Y003651D03*
X007651Y002651D03*
X008651Y002651D03*
X008651Y003651D03*
X009651Y003651D03*
X009651Y002651D03*
X009151Y022331D03*
X009151Y023331D03*
X008151Y023331D03*
X008151Y022331D03*
X007151Y022331D03*
X007151Y023331D03*
X006151Y023331D03*
X006151Y022331D03*
X005151Y022331D03*
X005151Y023331D03*
X004151Y023331D03*
X004151Y022331D03*
X003151Y022331D03*
X003151Y023331D03*
D11*
X001820Y018694D03*
X001820Y017907D03*
X001820Y017120D03*
X001820Y016332D03*
X001820Y015545D03*
X001820Y014757D03*
X001820Y013970D03*
X001820Y013183D03*
X001820Y012395D03*
X001820Y011608D03*
X010482Y011608D03*
X010482Y012395D03*
X010482Y013183D03*
X010482Y013970D03*
X010482Y014757D03*
X010482Y015545D03*
X010482Y016332D03*
X010482Y017120D03*
X010482Y017907D03*
X010482Y018694D03*
D12*
X004526Y014526D03*
X003526Y014526D03*
D13*
X004901Y010151D03*
D14*
X004901Y007051D03*
X004901Y013251D03*
D15*
X004651Y001651D03*
X005651Y001651D03*
X006651Y001651D03*
X007651Y001651D03*
X008651Y001651D03*
X003651Y001651D03*
M02*
