G75*
G70*
%OFA0B0*%
%FSLAX24Y24*%
%IPPOS*%
%LPD*%
%AMOC8*
5,1,8,0,0,1.08239X$1,22.5*
%
%ADD10OC8,0.0640*%
%ADD11C,0.0516*%
%ADD12C,0.0660*%
%ADD13R,0.1560X0.1560*%
%ADD14R,0.1250X0.1250*%
%ADD15C,0.0760*%
%ADD16C,0.0436*%
%ADD17C,0.0100*%
%ADD18C,0.0160*%
%ADD19C,0.0080*%
%ADD20C,0.0120*%
D10*
X002650Y002650D03*
X002650Y003650D03*
X003650Y003650D03*
X003650Y002650D03*
X004650Y002650D03*
X004650Y003650D03*
X005650Y003650D03*
X005650Y002650D03*
X006650Y002650D03*
X006650Y003650D03*
X007650Y003650D03*
X007650Y002650D03*
X008650Y002650D03*
X008650Y003650D03*
X009650Y003650D03*
X009650Y002650D03*
X009150Y022330D03*
X009150Y023330D03*
X008150Y023330D03*
X008150Y022330D03*
X007150Y022330D03*
X007150Y023330D03*
X006150Y023330D03*
X006150Y022330D03*
X005150Y022330D03*
X005150Y023330D03*
X004150Y023330D03*
X004150Y022330D03*
X003150Y022330D03*
X003150Y023330D03*
D11*
X001944Y018693D03*
X001944Y017906D03*
X001944Y017119D03*
X001944Y016331D03*
X001944Y015544D03*
X001944Y014756D03*
X001944Y013969D03*
X001944Y013181D03*
X001944Y012394D03*
X001944Y011607D03*
X010606Y011607D03*
X010606Y012394D03*
X010606Y013181D03*
X010606Y013969D03*
X010606Y014756D03*
X010606Y015544D03*
X010606Y016331D03*
X010606Y017119D03*
X010606Y017906D03*
X010606Y018693D03*
D12*
X004525Y014525D03*
X003525Y014525D03*
D13*
X004900Y010150D03*
D14*
X004900Y007050D03*
X004900Y013250D03*
D15*
X004650Y001650D03*
X005650Y001650D03*
X006650Y001650D03*
X007650Y001650D03*
X008650Y001650D03*
X003650Y001650D03*
D16*
X004400Y004650D03*
X006650Y007025D03*
X007150Y007775D03*
X007650Y006150D03*
X008150Y006775D03*
X008150Y005470D03*
X007150Y004900D03*
X008150Y008650D03*
X009650Y009150D03*
X009650Y006275D03*
X010275Y005650D03*
X010900Y002400D03*
X007525Y012650D03*
X006150Y014150D03*
X005150Y016400D03*
X003900Y018693D03*
D17*
X002460Y001726D02*
X000878Y001726D01*
X000903Y001633D02*
X000812Y001974D01*
X000800Y002150D01*
X000800Y022650D01*
X000812Y022826D01*
X000903Y023167D01*
X001079Y023472D01*
X001328Y023721D01*
X001633Y023897D01*
X001974Y023988D01*
X002150Y024000D01*
X010150Y024000D01*
X010326Y023988D01*
X010667Y023897D01*
X010972Y023721D01*
X011221Y023472D01*
X011397Y023167D01*
X011488Y022826D01*
X011500Y022650D01*
X011500Y002150D01*
X011488Y001974D01*
X011397Y001633D01*
X011221Y001328D01*
X010972Y001079D01*
X010667Y000903D01*
X010326Y000812D01*
X010150Y000800D01*
X002150Y000800D01*
X001974Y000812D01*
X001633Y000903D01*
X001328Y001079D01*
X001079Y001328D01*
X000903Y001633D01*
X000906Y001628D02*
X002460Y001628D01*
X002460Y001571D02*
X003085Y000946D01*
X003196Y000835D01*
X009104Y000835D01*
X010229Y001960D01*
X010340Y002071D01*
X010340Y003229D01*
X010100Y003469D01*
X010100Y003836D01*
X009836Y004100D01*
X009464Y004100D01*
X009360Y003996D01*
X009360Y006073D01*
X009453Y005980D01*
X009581Y005927D01*
X009719Y005927D01*
X009847Y005980D01*
X009945Y006078D01*
X009998Y006206D01*
X009998Y006344D01*
X009945Y006472D01*
X009860Y006557D01*
X009860Y008868D01*
X009945Y008953D01*
X009998Y009081D01*
X009998Y009219D01*
X009945Y009347D01*
X009847Y009445D01*
X009719Y009498D01*
X009581Y009498D01*
X009453Y009445D01*
X009360Y009352D01*
X009360Y014737D01*
X009237Y014860D01*
X009237Y014860D01*
X006104Y017993D01*
X005981Y018116D01*
X002277Y018116D01*
X002273Y018126D01*
X002164Y018235D01*
X002021Y018294D01*
X001867Y018294D01*
X001725Y018235D01*
X001616Y018126D01*
X001556Y017983D01*
X001556Y017829D01*
X001616Y017686D01*
X001725Y017577D01*
X001867Y017518D01*
X002021Y017518D01*
X002164Y017577D01*
X002273Y017686D01*
X002277Y017696D01*
X005807Y017696D01*
X008940Y014563D01*
X008940Y003996D01*
X008860Y004076D01*
X008860Y014237D01*
X008737Y014360D01*
X005891Y017205D01*
X005768Y017329D01*
X002277Y017329D01*
X002273Y017338D01*
X002164Y017447D01*
X002021Y017506D01*
X001867Y017506D01*
X001725Y017447D01*
X001616Y017338D01*
X001556Y017196D01*
X001556Y017041D01*
X001616Y016899D01*
X001725Y016790D01*
X001867Y016731D01*
X002021Y016731D01*
X002164Y016790D01*
X002273Y016899D01*
X002277Y016909D01*
X005595Y016909D01*
X008440Y014063D01*
X008440Y008852D01*
X008347Y008945D01*
X008219Y008998D01*
X008081Y008998D01*
X007953Y008945D01*
X007868Y008860D01*
X007313Y008860D01*
X006563Y008110D01*
X006440Y007987D01*
X006440Y007563D01*
X006630Y007373D01*
X006581Y007373D01*
X006453Y007320D01*
X006355Y007222D01*
X006302Y007094D01*
X006302Y006956D01*
X006355Y006828D01*
X006440Y006743D01*
X006440Y005313D01*
X006563Y005190D01*
X006802Y004951D01*
X006802Y004831D01*
X006855Y004703D01*
X006953Y004605D01*
X007081Y004552D01*
X007219Y004552D01*
X007347Y004605D01*
X007445Y004703D01*
X007498Y004831D01*
X007498Y004969D01*
X007445Y005097D01*
X007347Y005195D01*
X007219Y005248D01*
X007099Y005248D01*
X006860Y005487D01*
X006860Y006743D01*
X006945Y006828D01*
X006998Y006956D01*
X006998Y007005D01*
X007440Y006563D01*
X007440Y006432D01*
X007355Y006347D01*
X007302Y006219D01*
X007302Y006081D01*
X007355Y005953D01*
X007453Y005855D01*
X007581Y005802D01*
X007719Y005802D01*
X007847Y005855D01*
X007945Y005953D01*
X007998Y006081D01*
X007998Y006219D01*
X007945Y006347D01*
X007860Y006432D01*
X007860Y006573D01*
X007953Y006480D01*
X008081Y006427D01*
X008219Y006427D01*
X008347Y006480D01*
X008440Y006573D01*
X008440Y005672D01*
X008347Y005765D01*
X008219Y005818D01*
X008081Y005818D01*
X007953Y005765D01*
X007855Y005667D01*
X007802Y005539D01*
X007802Y005401D01*
X007855Y005273D01*
X007953Y005175D01*
X007960Y005172D01*
X007960Y004604D01*
X007821Y004465D01*
X007446Y004465D01*
X007335Y004354D01*
X006960Y003979D01*
X006960Y003976D01*
X006836Y004100D01*
X006497Y004100D01*
X005737Y004860D01*
X004682Y004860D01*
X004597Y004945D01*
X004469Y004998D01*
X004331Y004998D01*
X004203Y004945D01*
X004105Y004847D01*
X004052Y004719D01*
X004052Y004581D01*
X004105Y004453D01*
X004203Y004355D01*
X004331Y004302D01*
X004469Y004302D01*
X004597Y004355D01*
X004682Y004440D01*
X005563Y004440D01*
X006200Y003803D01*
X006200Y003464D01*
X006324Y003340D01*
X005976Y003340D01*
X006100Y003464D01*
X006100Y003836D01*
X005836Y004100D01*
X005464Y004100D01*
X005200Y003836D01*
X005200Y003464D01*
X005324Y003340D01*
X005071Y003340D01*
X004960Y003229D01*
X004960Y003229D01*
X004831Y003100D01*
X004464Y003100D01*
X004200Y002836D01*
X004200Y002464D01*
X004344Y002320D01*
X003956Y002320D01*
X004100Y002464D01*
X004100Y002836D01*
X003836Y003100D01*
X003464Y003100D01*
X003360Y002996D01*
X003360Y003237D01*
X003100Y003497D01*
X003100Y003836D01*
X002836Y004100D01*
X002464Y004100D01*
X002200Y003836D01*
X002200Y003464D01*
X002464Y003200D01*
X002803Y003200D01*
X002940Y003063D01*
X002940Y002996D01*
X002836Y003100D01*
X002464Y003100D01*
X002200Y002836D01*
X002200Y002464D01*
X002460Y002204D01*
X002460Y001571D01*
X002502Y001529D02*
X000963Y001529D01*
X001020Y001431D02*
X002601Y001431D01*
X002699Y001332D02*
X001077Y001332D01*
X001174Y001234D02*
X002798Y001234D01*
X002896Y001135D02*
X001272Y001135D01*
X001402Y001037D02*
X002995Y001037D01*
X003093Y000938D02*
X001572Y000938D01*
X001869Y000840D02*
X003192Y000840D01*
X003197Y001371D02*
X002840Y001729D01*
X002840Y002204D01*
X002945Y002308D01*
X003063Y002190D01*
X003091Y002190D01*
X003266Y002015D01*
X003246Y001995D01*
X003197Y001928D01*
X003159Y001853D01*
X003133Y001774D01*
X003121Y001698D01*
X003602Y001698D01*
X003602Y001602D01*
X003121Y001602D01*
X003133Y001526D01*
X003159Y001447D01*
X003197Y001372D01*
X003197Y001371D01*
X003167Y001431D02*
X003138Y001431D01*
X003133Y001529D02*
X003040Y001529D01*
X002941Y001628D02*
X003602Y001628D01*
X003260Y002022D02*
X002840Y002022D01*
X002840Y002120D02*
X003161Y002120D01*
X003035Y002219D02*
X002855Y002219D01*
X002840Y001923D02*
X003194Y001923D01*
X003149Y001825D02*
X002840Y001825D01*
X002843Y001726D02*
X003125Y001726D01*
X002460Y001825D02*
X000852Y001825D01*
X000825Y001923D02*
X002460Y001923D01*
X002460Y002022D02*
X000808Y002022D01*
X000802Y002120D02*
X002460Y002120D01*
X002445Y002219D02*
X000800Y002219D01*
X000800Y002317D02*
X002347Y002317D01*
X002248Y002416D02*
X000800Y002416D01*
X000800Y002514D02*
X002200Y002514D01*
X002200Y002613D02*
X000800Y002613D01*
X000800Y002711D02*
X002200Y002711D01*
X002200Y002810D02*
X000800Y002810D01*
X000800Y002908D02*
X002272Y002908D01*
X002370Y003007D02*
X000800Y003007D01*
X000800Y003105D02*
X002898Y003105D01*
X002930Y003007D02*
X002940Y003007D01*
X003196Y003401D02*
X003235Y003401D01*
X003180Y003455D02*
X003180Y003600D01*
X003600Y003600D01*
X003700Y003600D01*
X003700Y003700D01*
X004120Y003700D01*
X004120Y003845D01*
X003845Y004120D01*
X003700Y004120D01*
X003700Y003700D01*
X003600Y003700D01*
X003600Y004120D01*
X003455Y004120D01*
X003180Y003845D01*
X003180Y003700D01*
X003600Y003700D01*
X003600Y003600D01*
X003600Y003180D01*
X003455Y003180D01*
X003180Y003455D01*
X003180Y003499D02*
X003100Y003499D01*
X003100Y003598D02*
X003180Y003598D01*
X003100Y003696D02*
X003600Y003696D01*
X003600Y003598D02*
X003700Y003598D01*
X003700Y003600D02*
X003700Y003180D01*
X003845Y003180D01*
X004120Y003455D01*
X004120Y003600D01*
X003700Y003600D01*
X003700Y003696D02*
X004600Y003696D01*
X004600Y003700D02*
X004600Y003600D01*
X004700Y003600D01*
X004700Y003700D01*
X005120Y003700D01*
X005120Y003845D01*
X004845Y004120D01*
X004700Y004120D01*
X004700Y003700D01*
X004600Y003700D01*
X004600Y004120D01*
X004455Y004120D01*
X004180Y003845D01*
X004180Y003700D01*
X004600Y003700D01*
X004600Y003795D02*
X004700Y003795D01*
X004700Y003893D02*
X004600Y003893D01*
X004600Y003992D02*
X004700Y003992D01*
X004700Y004090D02*
X004600Y004090D01*
X004425Y004090D02*
X003875Y004090D01*
X003973Y003992D02*
X004327Y003992D01*
X004228Y003893D02*
X004072Y003893D01*
X004120Y003795D02*
X004180Y003795D01*
X004180Y003600D02*
X004180Y003455D01*
X004455Y003180D01*
X004600Y003180D01*
X004600Y003600D01*
X004180Y003600D01*
X004180Y003598D02*
X004120Y003598D01*
X004120Y003499D02*
X004180Y003499D01*
X004235Y003401D02*
X004065Y003401D01*
X003967Y003302D02*
X004333Y003302D01*
X004432Y003204D02*
X003868Y003204D01*
X003930Y003007D02*
X004370Y003007D01*
X004272Y002908D02*
X004028Y002908D01*
X004100Y002810D02*
X004200Y002810D01*
X004200Y002711D02*
X004100Y002711D01*
X004100Y002613D02*
X004200Y002613D01*
X004200Y002514D02*
X004100Y002514D01*
X004052Y002416D02*
X004248Y002416D01*
X004600Y003204D02*
X004700Y003204D01*
X004700Y003180D02*
X004845Y003180D01*
X005120Y003455D01*
X005120Y003600D01*
X004700Y003600D01*
X004700Y003180D01*
X004700Y003302D02*
X004600Y003302D01*
X004600Y003401D02*
X004700Y003401D01*
X004700Y003499D02*
X004600Y003499D01*
X004600Y003598D02*
X004700Y003598D01*
X004700Y003696D02*
X005200Y003696D01*
X005200Y003598D02*
X005120Y003598D01*
X005120Y003499D02*
X005200Y003499D01*
X005263Y003401D02*
X005065Y003401D01*
X005033Y003302D02*
X004967Y003302D01*
X004935Y003204D02*
X004868Y003204D01*
X004836Y003105D02*
X003360Y003105D01*
X003360Y003007D02*
X003370Y003007D01*
X003360Y003204D02*
X003432Y003204D01*
X003333Y003302D02*
X003295Y003302D01*
X003600Y003302D02*
X003700Y003302D01*
X003700Y003204D02*
X003600Y003204D01*
X003600Y003401D02*
X003700Y003401D01*
X003700Y003499D02*
X003600Y003499D01*
X003600Y003795D02*
X003700Y003795D01*
X003700Y003893D02*
X003600Y003893D01*
X003600Y003992D02*
X003700Y003992D01*
X003700Y004090D02*
X003600Y004090D01*
X003425Y004090D02*
X002846Y004090D01*
X002945Y003992D02*
X003327Y003992D01*
X003228Y003893D02*
X003043Y003893D01*
X003100Y003795D02*
X003180Y003795D01*
X002454Y004090D02*
X000800Y004090D01*
X000800Y003992D02*
X002355Y003992D01*
X002257Y003893D02*
X000800Y003893D01*
X000800Y003795D02*
X002200Y003795D01*
X002200Y003696D02*
X000800Y003696D01*
X000800Y003598D02*
X002200Y003598D01*
X002200Y003499D02*
X000800Y003499D01*
X000800Y003401D02*
X002263Y003401D01*
X002362Y003302D02*
X000800Y003302D01*
X000800Y003204D02*
X002460Y003204D01*
X004092Y004484D02*
X000800Y004484D01*
X000800Y004386D02*
X004172Y004386D01*
X004052Y004583D02*
X000800Y004583D01*
X000800Y004681D02*
X004052Y004681D01*
X004077Y004780D02*
X000800Y004780D01*
X000800Y004878D02*
X004136Y004878D01*
X004279Y004977D02*
X000800Y004977D01*
X000800Y005075D02*
X006678Y005075D01*
X006777Y004977D02*
X004521Y004977D01*
X004664Y004878D02*
X006802Y004878D01*
X006823Y004780D02*
X005817Y004780D01*
X005916Y004681D02*
X006877Y004681D01*
X007007Y004583D02*
X006014Y004583D01*
X006113Y004484D02*
X007840Y004484D01*
X007939Y004583D02*
X007293Y004583D01*
X007423Y004681D02*
X007960Y004681D01*
X007960Y004780D02*
X007477Y004780D01*
X007498Y004878D02*
X007960Y004878D01*
X007960Y004977D02*
X007495Y004977D01*
X007454Y005075D02*
X007960Y005075D01*
X007956Y005174D02*
X007369Y005174D01*
X007075Y005272D02*
X007856Y005272D01*
X007814Y005371D02*
X006976Y005371D01*
X006878Y005469D02*
X007802Y005469D01*
X007814Y005568D02*
X006860Y005568D01*
X006860Y005666D02*
X007854Y005666D01*
X007952Y005765D02*
X006860Y005765D01*
X006860Y005863D02*
X007445Y005863D01*
X007351Y005962D02*
X006860Y005962D01*
X006860Y006060D02*
X007310Y006060D01*
X007302Y006159D02*
X006860Y006159D01*
X006860Y006257D02*
X007318Y006257D01*
X007363Y006356D02*
X006860Y006356D01*
X006860Y006454D02*
X007440Y006454D01*
X007440Y006553D02*
X006860Y006553D01*
X006860Y006651D02*
X007352Y006651D01*
X007253Y006750D02*
X006867Y006750D01*
X006953Y006848D02*
X007155Y006848D01*
X007056Y006947D02*
X006994Y006947D01*
X006502Y007341D02*
X005655Y007341D01*
X005655Y007439D02*
X006564Y007439D01*
X006465Y007538D02*
X005655Y007538D01*
X005655Y007636D02*
X006440Y007636D01*
X006440Y007735D02*
X005649Y007735D01*
X005655Y007729D02*
X005579Y007805D01*
X004221Y007805D01*
X004145Y007729D01*
X004145Y006371D01*
X004221Y006295D01*
X005579Y006295D01*
X005655Y006371D01*
X005655Y007729D01*
X005655Y007242D02*
X006375Y007242D01*
X006322Y007144D02*
X005655Y007144D01*
X005655Y007045D02*
X006302Y007045D01*
X006306Y006947D02*
X005655Y006947D01*
X005655Y006848D02*
X006347Y006848D01*
X006433Y006750D02*
X005655Y006750D01*
X005655Y006651D02*
X006440Y006651D01*
X006440Y006553D02*
X005655Y006553D01*
X005655Y006454D02*
X006440Y006454D01*
X006440Y006356D02*
X005639Y006356D01*
X006440Y006257D02*
X000800Y006257D01*
X000800Y006159D02*
X006440Y006159D01*
X006440Y006060D02*
X000800Y006060D01*
X000800Y005962D02*
X006440Y005962D01*
X006440Y005863D02*
X000800Y005863D01*
X000800Y005765D02*
X006440Y005765D01*
X006440Y005666D02*
X000800Y005666D01*
X000800Y005568D02*
X006440Y005568D01*
X006440Y005469D02*
X000800Y005469D01*
X000800Y005371D02*
X006440Y005371D01*
X006481Y005272D02*
X000800Y005272D01*
X000800Y005174D02*
X006580Y005174D01*
X006211Y004386D02*
X007367Y004386D01*
X007268Y004287D02*
X006310Y004287D01*
X006408Y004189D02*
X007170Y004189D01*
X007071Y004090D02*
X006846Y004090D01*
X006945Y003992D02*
X006973Y003992D01*
X007700Y003700D02*
X008120Y003700D01*
X008120Y003845D01*
X007880Y004085D01*
X007979Y004085D01*
X008229Y004335D01*
X008340Y004446D01*
X008340Y005172D01*
X008347Y005175D01*
X008440Y005268D01*
X008440Y004076D01*
X008200Y003836D01*
X008200Y003469D01*
X008071Y003340D01*
X008005Y003340D01*
X008120Y003455D01*
X008120Y003600D01*
X007700Y003600D01*
X007700Y003700D01*
X007700Y003696D02*
X008200Y003696D01*
X008200Y003598D02*
X008120Y003598D01*
X008120Y003499D02*
X008200Y003499D01*
X008132Y003401D02*
X008065Y003401D01*
X008120Y003795D02*
X008200Y003795D01*
X008257Y003893D02*
X008072Y003893D01*
X007973Y003992D02*
X008355Y003992D01*
X008440Y004090D02*
X007984Y004090D01*
X008082Y004189D02*
X008440Y004189D01*
X008440Y004287D02*
X008181Y004287D01*
X008279Y004386D02*
X008440Y004386D01*
X008440Y004484D02*
X008340Y004484D01*
X008340Y004583D02*
X008440Y004583D01*
X008440Y004681D02*
X008340Y004681D01*
X008340Y004780D02*
X008440Y004780D01*
X008440Y004878D02*
X008340Y004878D01*
X008340Y004977D02*
X008440Y004977D01*
X008440Y005075D02*
X008340Y005075D01*
X008344Y005174D02*
X008440Y005174D01*
X008860Y005174D02*
X008940Y005174D01*
X008940Y005272D02*
X008860Y005272D01*
X008860Y005371D02*
X008940Y005371D01*
X008940Y005469D02*
X008860Y005469D01*
X008860Y005568D02*
X008940Y005568D01*
X008940Y005666D02*
X008860Y005666D01*
X008860Y005765D02*
X008940Y005765D01*
X008940Y005863D02*
X008860Y005863D01*
X008860Y005962D02*
X008940Y005962D01*
X008940Y006060D02*
X008860Y006060D01*
X008860Y006159D02*
X008940Y006159D01*
X008940Y006257D02*
X008860Y006257D01*
X008860Y006356D02*
X008940Y006356D01*
X008940Y006454D02*
X008860Y006454D01*
X008860Y006553D02*
X008940Y006553D01*
X008940Y006651D02*
X008860Y006651D01*
X008860Y006750D02*
X008940Y006750D01*
X008940Y006848D02*
X008860Y006848D01*
X008860Y006947D02*
X008940Y006947D01*
X008940Y007045D02*
X008860Y007045D01*
X008860Y007144D02*
X008940Y007144D01*
X008940Y007242D02*
X008860Y007242D01*
X008860Y007341D02*
X008940Y007341D01*
X008940Y007439D02*
X008860Y007439D01*
X008860Y007538D02*
X008940Y007538D01*
X008940Y007636D02*
X008860Y007636D01*
X008860Y007735D02*
X008940Y007735D01*
X008940Y007833D02*
X008860Y007833D01*
X008860Y007932D02*
X008940Y007932D01*
X008940Y008030D02*
X008860Y008030D01*
X008860Y008129D02*
X008940Y008129D01*
X008940Y008227D02*
X008860Y008227D01*
X008860Y008326D02*
X008940Y008326D01*
X008940Y008424D02*
X008860Y008424D01*
X008860Y008523D02*
X008940Y008523D01*
X008940Y008621D02*
X008860Y008621D01*
X008860Y008720D02*
X008940Y008720D01*
X008940Y008818D02*
X008860Y008818D01*
X008860Y008917D02*
X008940Y008917D01*
X008940Y009015D02*
X008860Y009015D01*
X008860Y009114D02*
X008940Y009114D01*
X008940Y009212D02*
X008860Y009212D01*
X008860Y009311D02*
X008940Y009311D01*
X008940Y009409D02*
X008860Y009409D01*
X008860Y009508D02*
X008940Y009508D01*
X008940Y009606D02*
X008860Y009606D01*
X008860Y009705D02*
X008940Y009705D01*
X008940Y009803D02*
X008860Y009803D01*
X008860Y009902D02*
X008940Y009902D01*
X008940Y010000D02*
X008860Y010000D01*
X008860Y010099D02*
X008940Y010099D01*
X008940Y010197D02*
X008860Y010197D01*
X008860Y010296D02*
X008940Y010296D01*
X008940Y010394D02*
X008860Y010394D01*
X008860Y010493D02*
X008940Y010493D01*
X008940Y010591D02*
X008860Y010591D01*
X008860Y010690D02*
X008940Y010690D01*
X008940Y010788D02*
X008860Y010788D01*
X008860Y010887D02*
X008940Y010887D01*
X008940Y010985D02*
X008860Y010985D01*
X008860Y011084D02*
X008940Y011084D01*
X008940Y011182D02*
X008860Y011182D01*
X008860Y011281D02*
X008940Y011281D01*
X008940Y011379D02*
X008860Y011379D01*
X008860Y011478D02*
X008940Y011478D01*
X008940Y011576D02*
X008860Y011576D01*
X008860Y011675D02*
X008940Y011675D01*
X008940Y011773D02*
X008860Y011773D01*
X008860Y011872D02*
X008940Y011872D01*
X008940Y011970D02*
X008860Y011970D01*
X008860Y012069D02*
X008940Y012069D01*
X008940Y012167D02*
X008860Y012167D01*
X008860Y012266D02*
X008940Y012266D01*
X008940Y012364D02*
X008860Y012364D01*
X008860Y012463D02*
X008940Y012463D01*
X008940Y012561D02*
X008860Y012561D01*
X008860Y012660D02*
X008940Y012660D01*
X008940Y012758D02*
X008860Y012758D01*
X008860Y012857D02*
X008940Y012857D01*
X008940Y012955D02*
X008860Y012955D01*
X008860Y013054D02*
X008940Y013054D01*
X008940Y013152D02*
X008860Y013152D01*
X008860Y013251D02*
X008940Y013251D01*
X008940Y013349D02*
X008860Y013349D01*
X008860Y013448D02*
X008940Y013448D01*
X008940Y013546D02*
X008860Y013546D01*
X008860Y013645D02*
X008940Y013645D01*
X008940Y013743D02*
X008860Y013743D01*
X008860Y013842D02*
X008940Y013842D01*
X008940Y013940D02*
X008860Y013940D01*
X008860Y014039D02*
X008940Y014039D01*
X008940Y014137D02*
X008860Y014137D01*
X008860Y014236D02*
X008940Y014236D01*
X008940Y014334D02*
X008763Y014334D01*
X008664Y014433D02*
X008940Y014433D01*
X008940Y014531D02*
X008566Y014531D01*
X008467Y014630D02*
X008873Y014630D01*
X008775Y014728D02*
X008369Y014728D01*
X008270Y014827D02*
X008676Y014827D01*
X008578Y014925D02*
X008172Y014925D01*
X008073Y015024D02*
X008479Y015024D01*
X008381Y015122D02*
X007975Y015122D01*
X007876Y015221D02*
X008282Y015221D01*
X008184Y015319D02*
X007778Y015319D01*
X007679Y015418D02*
X008085Y015418D01*
X007987Y015516D02*
X007581Y015516D01*
X007482Y015615D02*
X007888Y015615D01*
X007790Y015713D02*
X007384Y015713D01*
X007285Y015812D02*
X007691Y015812D01*
X007593Y015910D02*
X007187Y015910D01*
X007088Y016009D02*
X007494Y016009D01*
X007396Y016107D02*
X006990Y016107D01*
X006891Y016206D02*
X007297Y016206D01*
X007199Y016304D02*
X006793Y016304D01*
X006694Y016403D02*
X007100Y016403D01*
X007002Y016501D02*
X006596Y016501D01*
X006497Y016600D02*
X006903Y016600D01*
X006805Y016698D02*
X006399Y016698D01*
X006300Y016797D02*
X006706Y016797D01*
X006608Y016895D02*
X006202Y016895D01*
X006103Y016994D02*
X006509Y016994D01*
X006411Y017092D02*
X006005Y017092D01*
X005906Y017191D02*
X006312Y017191D01*
X006214Y017289D02*
X005808Y017289D01*
X006017Y017486D02*
X002070Y017486D01*
X002171Y017585D02*
X005918Y017585D01*
X005820Y017683D02*
X002270Y017683D01*
X002224Y017388D02*
X006115Y017388D01*
X006414Y017683D02*
X010280Y017683D01*
X010277Y017686D02*
X010386Y017577D01*
X010529Y017518D01*
X010683Y017518D01*
X010825Y017577D01*
X010934Y017686D01*
X010994Y017829D01*
X010994Y017983D01*
X010934Y018126D01*
X010825Y018235D01*
X010683Y018294D01*
X010529Y018294D01*
X010386Y018235D01*
X010277Y018126D01*
X010218Y017983D01*
X010218Y017829D01*
X010277Y017686D01*
X010237Y017782D02*
X006315Y017782D01*
X006217Y017880D02*
X010218Y017880D01*
X010218Y017979D02*
X006118Y017979D01*
X006104Y017993D02*
X006104Y017993D01*
X006020Y018077D02*
X010257Y018077D01*
X010327Y018176D02*
X002223Y018176D01*
X002069Y018274D02*
X010481Y018274D01*
X010529Y018306D02*
X010683Y018306D01*
X010825Y018365D01*
X010934Y018474D01*
X010994Y018616D01*
X010994Y018770D01*
X010934Y018913D01*
X010825Y019022D01*
X010683Y019081D01*
X010529Y019081D01*
X010386Y019022D01*
X010277Y018913D01*
X010218Y018770D01*
X010218Y018616D01*
X010277Y018474D01*
X010386Y018365D01*
X010529Y018306D01*
X010378Y018373D02*
X004035Y018373D01*
X004097Y018398D02*
X004195Y018496D01*
X004248Y018624D01*
X004248Y018763D01*
X004195Y018890D01*
X004097Y018988D01*
X003969Y019041D01*
X003831Y019041D01*
X003703Y018988D01*
X003618Y018903D01*
X002277Y018903D01*
X002273Y018913D01*
X002164Y019022D01*
X002021Y019081D01*
X001867Y019081D01*
X001725Y019022D01*
X001616Y018913D01*
X001556Y018770D01*
X001556Y018616D01*
X001616Y018474D01*
X001725Y018365D01*
X001867Y018306D01*
X002021Y018306D01*
X002164Y018365D01*
X002273Y018474D01*
X002277Y018483D01*
X003618Y018483D01*
X003703Y018398D01*
X003831Y018345D01*
X003969Y018345D01*
X004097Y018398D01*
X004170Y018471D02*
X010280Y018471D01*
X010237Y018570D02*
X004226Y018570D01*
X004248Y018668D02*
X010218Y018668D01*
X010218Y018767D02*
X004246Y018767D01*
X004206Y018865D02*
X010257Y018865D01*
X010328Y018964D02*
X004122Y018964D01*
X003765Y018373D02*
X002172Y018373D01*
X002270Y018471D02*
X003630Y018471D01*
X003678Y018964D02*
X002222Y018964D01*
X002067Y019062D02*
X010483Y019062D01*
X010729Y019062D02*
X011500Y019062D01*
X011500Y018964D02*
X010884Y018964D01*
X010954Y018865D02*
X011500Y018865D01*
X011500Y018767D02*
X010994Y018767D01*
X010994Y018668D02*
X011500Y018668D01*
X011500Y018570D02*
X010974Y018570D01*
X010932Y018471D02*
X011500Y018471D01*
X011500Y018373D02*
X010833Y018373D01*
X010730Y018274D02*
X011500Y018274D01*
X011500Y018176D02*
X010884Y018176D01*
X010955Y018077D02*
X011500Y018077D01*
X011500Y017979D02*
X010994Y017979D01*
X010994Y017880D02*
X011500Y017880D01*
X011500Y017782D02*
X010974Y017782D01*
X010931Y017683D02*
X011500Y017683D01*
X011500Y017585D02*
X010833Y017585D01*
X010825Y017447D02*
X010683Y017506D01*
X010529Y017506D01*
X010386Y017447D01*
X010277Y017338D01*
X010218Y017196D01*
X010218Y017041D01*
X010277Y016899D01*
X010386Y016790D01*
X010529Y016731D01*
X010683Y016731D01*
X010825Y016790D01*
X010934Y016899D01*
X010994Y017041D01*
X010994Y017196D01*
X010934Y017338D01*
X010825Y017447D01*
X010885Y017388D02*
X011500Y017388D01*
X011500Y017486D02*
X010732Y017486D01*
X010480Y017486D02*
X006611Y017486D01*
X006709Y017388D02*
X010326Y017388D01*
X010257Y017289D02*
X006808Y017289D01*
X006906Y017191D02*
X010218Y017191D01*
X010218Y017092D02*
X007005Y017092D01*
X007103Y016994D02*
X010238Y016994D01*
X010281Y016895D02*
X007202Y016895D01*
X007300Y016797D02*
X010379Y016797D01*
X010386Y016660D02*
X010277Y016551D01*
X010218Y016408D01*
X010218Y016254D01*
X010277Y016111D01*
X010386Y016002D01*
X010529Y015943D01*
X010683Y015943D01*
X010825Y016002D01*
X010934Y016111D01*
X010994Y016254D01*
X010994Y016408D01*
X010934Y016551D01*
X010825Y016660D01*
X010683Y016719D01*
X010529Y016719D01*
X010386Y016660D01*
X010326Y016600D02*
X007497Y016600D01*
X007399Y016698D02*
X010478Y016698D01*
X010733Y016698D02*
X011500Y016698D01*
X011500Y016600D02*
X010886Y016600D01*
X010955Y016501D02*
X011500Y016501D01*
X011500Y016403D02*
X010994Y016403D01*
X010994Y016304D02*
X011500Y016304D01*
X011500Y016206D02*
X010973Y016206D01*
X010930Y016107D02*
X011500Y016107D01*
X011500Y016009D02*
X010832Y016009D01*
X010825Y015872D02*
X010683Y015931D01*
X010529Y015931D01*
X010386Y015872D01*
X010277Y015763D01*
X010218Y015621D01*
X010218Y015467D01*
X010277Y015324D01*
X010386Y015215D01*
X010529Y015156D01*
X010683Y015156D01*
X010825Y015215D01*
X010934Y015324D01*
X010994Y015467D01*
X010994Y015621D01*
X010934Y015763D01*
X010825Y015872D01*
X010886Y015812D02*
X011500Y015812D01*
X011500Y015910D02*
X010735Y015910D01*
X010477Y015910D02*
X008187Y015910D01*
X008285Y015812D02*
X010325Y015812D01*
X010256Y015713D02*
X008384Y015713D01*
X008482Y015615D02*
X010218Y015615D01*
X010218Y015516D02*
X008581Y015516D01*
X008679Y015418D02*
X010238Y015418D01*
X010282Y015319D02*
X008778Y015319D01*
X008876Y015221D02*
X010380Y015221D01*
X010386Y015085D02*
X010277Y014976D01*
X010218Y014833D01*
X010218Y014679D01*
X010277Y014537D01*
X010386Y014428D01*
X010529Y014369D01*
X010683Y014369D01*
X010825Y014428D01*
X010934Y014537D01*
X010994Y014679D01*
X010994Y014833D01*
X010934Y014976D01*
X010825Y015085D01*
X010683Y015144D01*
X010529Y015144D01*
X010386Y015085D01*
X010325Y015024D02*
X009073Y015024D01*
X008975Y015122D02*
X010475Y015122D01*
X010736Y015122D02*
X011500Y015122D01*
X011500Y015024D02*
X010887Y015024D01*
X010956Y014925D02*
X011500Y014925D01*
X011500Y014827D02*
X010994Y014827D01*
X010994Y014728D02*
X011500Y014728D01*
X011500Y014630D02*
X010973Y014630D01*
X010929Y014531D02*
X011500Y014531D01*
X011500Y014433D02*
X010830Y014433D01*
X010825Y014298D02*
X010683Y014357D01*
X010529Y014357D01*
X010386Y014298D01*
X010277Y014189D01*
X010218Y014046D01*
X010218Y013892D01*
X010277Y013749D01*
X010386Y013640D01*
X010529Y013581D01*
X010683Y013581D01*
X010825Y013640D01*
X010934Y013749D01*
X010994Y013892D01*
X010994Y014046D01*
X010934Y014189D01*
X010825Y014298D01*
X010887Y014236D02*
X011500Y014236D01*
X011500Y014334D02*
X010738Y014334D01*
X010474Y014334D02*
X009360Y014334D01*
X009360Y014236D02*
X010324Y014236D01*
X010256Y014137D02*
X009360Y014137D01*
X009360Y014039D02*
X010218Y014039D01*
X010218Y013940D02*
X009360Y013940D01*
X009360Y013842D02*
X010239Y013842D01*
X010283Y013743D02*
X009360Y013743D01*
X009360Y013645D02*
X010382Y013645D01*
X010472Y013546D02*
X009360Y013546D01*
X009360Y013448D02*
X010323Y013448D01*
X010277Y013401D02*
X010386Y013510D01*
X010529Y013569D01*
X010683Y013569D01*
X010825Y013510D01*
X010934Y013401D01*
X010994Y013259D01*
X010994Y013104D01*
X010934Y012962D01*
X010825Y012853D01*
X010683Y012794D01*
X010529Y012794D01*
X010386Y012853D01*
X010277Y012962D01*
X010218Y013104D01*
X010218Y013259D01*
X010277Y013401D01*
X010255Y013349D02*
X009360Y013349D01*
X009360Y013251D02*
X010218Y013251D01*
X010218Y013152D02*
X009360Y013152D01*
X009360Y013054D02*
X010239Y013054D01*
X010284Y012955D02*
X009360Y012955D01*
X009360Y012857D02*
X010382Y012857D01*
X010471Y012758D02*
X009360Y012758D01*
X009360Y012660D02*
X010323Y012660D01*
X010277Y012614D02*
X010386Y012723D01*
X010529Y012782D01*
X010683Y012782D01*
X010825Y012723D01*
X010934Y012614D01*
X010994Y012471D01*
X010994Y012317D01*
X010934Y012174D01*
X010825Y012065D01*
X010683Y012006D01*
X010529Y012006D01*
X010386Y012065D01*
X010277Y012174D01*
X010218Y012317D01*
X010218Y012471D01*
X010277Y012614D01*
X010255Y012561D02*
X009360Y012561D01*
X009360Y012463D02*
X010218Y012463D01*
X010218Y012364D02*
X009360Y012364D01*
X009360Y012266D02*
X010239Y012266D01*
X010284Y012167D02*
X009360Y012167D01*
X009360Y012069D02*
X010383Y012069D01*
X010470Y011970D02*
X009360Y011970D01*
X009360Y011872D02*
X010322Y011872D01*
X010277Y011826D02*
X010386Y011935D01*
X010529Y011994D01*
X010683Y011994D01*
X010825Y011935D01*
X010934Y011826D01*
X010994Y011684D01*
X010994Y011530D01*
X010934Y011387D01*
X010825Y011278D01*
X010683Y011219D01*
X010529Y011219D01*
X010386Y011278D01*
X010277Y011387D01*
X010218Y011530D01*
X010218Y011684D01*
X010277Y011826D01*
X010255Y011773D02*
X009360Y011773D01*
X009360Y011675D02*
X010218Y011675D01*
X010218Y011576D02*
X009360Y011576D01*
X009360Y011478D02*
X010239Y011478D01*
X010285Y011379D02*
X009360Y011379D01*
X009360Y011281D02*
X010383Y011281D01*
X010742Y011970D02*
X011500Y011970D01*
X011500Y011872D02*
X010889Y011872D01*
X010957Y011773D02*
X011500Y011773D01*
X011500Y011675D02*
X010994Y011675D01*
X010994Y011576D02*
X011500Y011576D01*
X011500Y011478D02*
X010972Y011478D01*
X010926Y011379D02*
X011500Y011379D01*
X011500Y011281D02*
X010828Y011281D01*
X010829Y012069D02*
X011500Y012069D01*
X011500Y012167D02*
X010927Y012167D01*
X010972Y012266D02*
X011500Y012266D01*
X011500Y012364D02*
X010994Y012364D01*
X010994Y012463D02*
X011500Y012463D01*
X011500Y012561D02*
X010956Y012561D01*
X010889Y012660D02*
X011500Y012660D01*
X011500Y012758D02*
X010740Y012758D01*
X010829Y012857D02*
X011500Y012857D01*
X011500Y012955D02*
X010928Y012955D01*
X010972Y013054D02*
X011500Y013054D01*
X011500Y013152D02*
X010994Y013152D01*
X010994Y013251D02*
X011500Y013251D01*
X011500Y013349D02*
X010956Y013349D01*
X010888Y013448D02*
X011500Y013448D01*
X011500Y013546D02*
X010739Y013546D01*
X010830Y013645D02*
X011500Y013645D01*
X011500Y013743D02*
X010928Y013743D01*
X010973Y013842D02*
X011500Y013842D01*
X011500Y013940D02*
X010994Y013940D01*
X010994Y014039D02*
X011500Y014039D01*
X011500Y014137D02*
X010956Y014137D01*
X010831Y015221D02*
X011500Y015221D01*
X011500Y015319D02*
X010929Y015319D01*
X010973Y015418D02*
X011500Y015418D01*
X011500Y015516D02*
X010994Y015516D01*
X010994Y015615D02*
X011500Y015615D01*
X011500Y015713D02*
X010955Y015713D01*
X010832Y016797D02*
X011500Y016797D01*
X011500Y016895D02*
X010931Y016895D01*
X010974Y016994D02*
X011500Y016994D01*
X011500Y017092D02*
X010994Y017092D01*
X010994Y017191D02*
X011500Y017191D01*
X011500Y017289D02*
X010955Y017289D01*
X010379Y017585D02*
X006512Y017585D01*
X006002Y016501D02*
X005485Y016501D01*
X005498Y016469D02*
X005445Y016597D01*
X005347Y016695D01*
X005219Y016748D01*
X005081Y016748D01*
X004953Y016695D01*
X004855Y016597D01*
X004802Y016469D01*
X004802Y016331D01*
X004855Y016203D01*
X004953Y016105D01*
X005081Y016052D01*
X005201Y016052D01*
X007315Y013938D01*
X007315Y012932D01*
X007230Y012847D01*
X007177Y012719D01*
X007177Y012581D01*
X007230Y012453D01*
X007328Y012355D01*
X007456Y012302D01*
X007594Y012302D01*
X007722Y012355D01*
X007820Y012453D01*
X007873Y012581D01*
X007873Y012719D01*
X007820Y012847D01*
X007735Y012932D01*
X007735Y014112D01*
X007612Y014235D01*
X005498Y016349D01*
X005498Y016469D01*
X005498Y016403D02*
X006100Y016403D01*
X006199Y016304D02*
X005543Y016304D01*
X005641Y016206D02*
X006297Y016206D01*
X006396Y016107D02*
X005740Y016107D01*
X005838Y016009D02*
X006494Y016009D01*
X006593Y015910D02*
X005937Y015910D01*
X006035Y015812D02*
X006691Y015812D01*
X006790Y015713D02*
X006134Y015713D01*
X006232Y015615D02*
X006888Y015615D01*
X006987Y015516D02*
X006331Y015516D01*
X006429Y015418D02*
X007085Y015418D01*
X007184Y015319D02*
X006528Y015319D01*
X006626Y015221D02*
X007282Y015221D01*
X007381Y015122D02*
X006725Y015122D01*
X006823Y015024D02*
X007479Y015024D01*
X007578Y014925D02*
X006922Y014925D01*
X007020Y014827D02*
X007676Y014827D01*
X007775Y014728D02*
X007119Y014728D01*
X007217Y014630D02*
X007873Y014630D01*
X007972Y014531D02*
X007316Y014531D01*
X007414Y014433D02*
X008070Y014433D01*
X008169Y014334D02*
X007513Y014334D01*
X007611Y014236D02*
X008267Y014236D01*
X008366Y014137D02*
X007710Y014137D01*
X007735Y014039D02*
X008440Y014039D01*
X008440Y013940D02*
X007735Y013940D01*
X007735Y013842D02*
X008440Y013842D01*
X008440Y013743D02*
X007735Y013743D01*
X007735Y013645D02*
X008440Y013645D01*
X008440Y013546D02*
X007735Y013546D01*
X007735Y013448D02*
X008440Y013448D01*
X008440Y013349D02*
X007735Y013349D01*
X007735Y013251D02*
X008440Y013251D01*
X008440Y013152D02*
X007735Y013152D01*
X007735Y013054D02*
X008440Y013054D01*
X008440Y012955D02*
X007735Y012955D01*
X007811Y012857D02*
X008440Y012857D01*
X008440Y012758D02*
X007857Y012758D01*
X007873Y012660D02*
X008440Y012660D01*
X008440Y012561D02*
X007865Y012561D01*
X007824Y012463D02*
X008440Y012463D01*
X008440Y012364D02*
X007731Y012364D01*
X007319Y012364D02*
X002332Y012364D01*
X002332Y012317D02*
X002332Y012471D01*
X002273Y012614D01*
X002164Y012723D01*
X002021Y012782D01*
X001867Y012782D01*
X001725Y012723D01*
X001616Y012614D01*
X001556Y012471D01*
X001556Y012317D01*
X001616Y012174D01*
X001725Y012065D01*
X001865Y012007D01*
X001849Y012004D01*
X001788Y011985D01*
X001731Y011955D01*
X001679Y011918D01*
X001633Y011872D01*
X001596Y011820D01*
X001566Y011763D01*
X001547Y011702D01*
X001536Y011639D01*
X001536Y011626D01*
X001925Y011626D01*
X001925Y011588D01*
X001536Y011588D01*
X001536Y011575D01*
X001547Y011511D01*
X001566Y011450D01*
X001596Y011393D01*
X001633Y011341D01*
X001679Y011296D01*
X001731Y011258D01*
X001788Y011229D01*
X001849Y011209D01*
X001912Y011199D01*
X001925Y011199D01*
X001925Y011588D01*
X001963Y011588D01*
X001963Y011199D01*
X001976Y011199D01*
X002040Y011209D01*
X002101Y011229D01*
X002158Y011258D01*
X002210Y011296D01*
X002255Y011341D01*
X002293Y011393D01*
X002322Y011450D01*
X002342Y011511D01*
X002352Y011575D01*
X002352Y011588D01*
X001963Y011588D01*
X001963Y011626D01*
X002352Y011626D01*
X002352Y011639D01*
X002342Y011702D01*
X002322Y011763D01*
X002293Y011820D01*
X002255Y011872D01*
X002210Y011918D01*
X002158Y011955D01*
X002101Y011985D01*
X002040Y012004D01*
X002023Y012007D01*
X002164Y012065D01*
X002273Y012174D01*
X002332Y012317D01*
X002311Y012266D02*
X008440Y012266D01*
X008440Y012167D02*
X002266Y012167D01*
X002167Y012069D02*
X008440Y012069D01*
X008440Y011970D02*
X002129Y011970D01*
X002256Y011872D02*
X008440Y011872D01*
X008440Y011773D02*
X002317Y011773D01*
X002346Y011675D02*
X008440Y011675D01*
X008440Y011576D02*
X002352Y011576D01*
X002331Y011478D02*
X008440Y011478D01*
X008440Y011379D02*
X002283Y011379D01*
X002189Y011281D02*
X008440Y011281D01*
X008440Y011182D02*
X000800Y011182D01*
X000800Y011084D02*
X008440Y011084D01*
X008440Y010985D02*
X005821Y010985D01*
X005820Y010988D02*
X005800Y011022D01*
X005772Y011050D01*
X005738Y011070D01*
X005700Y011080D01*
X004950Y011080D01*
X004950Y010200D01*
X004850Y010200D01*
X004850Y011080D01*
X004100Y011080D01*
X004062Y011070D01*
X004028Y011050D01*
X004000Y011022D01*
X003980Y010988D01*
X003970Y010950D01*
X003970Y010200D01*
X004850Y010200D01*
X004850Y010100D01*
X004950Y010100D01*
X004950Y010200D01*
X005830Y010200D01*
X005830Y010950D01*
X005820Y010988D01*
X005830Y010887D02*
X008440Y010887D01*
X008440Y010788D02*
X005830Y010788D01*
X005830Y010690D02*
X008440Y010690D01*
X008440Y010591D02*
X005830Y010591D01*
X005830Y010493D02*
X008440Y010493D01*
X008440Y010394D02*
X005830Y010394D01*
X005830Y010296D02*
X008440Y010296D01*
X008440Y010197D02*
X004950Y010197D01*
X004950Y010100D02*
X005830Y010100D01*
X005830Y009350D01*
X005820Y009312D01*
X005800Y009278D01*
X005772Y009250D01*
X005738Y009230D01*
X005700Y009220D01*
X004950Y009220D01*
X004950Y010100D01*
X004950Y010099D02*
X004850Y010099D01*
X004850Y010100D02*
X004850Y009220D01*
X004100Y009220D01*
X004062Y009230D01*
X004028Y009250D01*
X004000Y009278D01*
X003980Y009312D01*
X003970Y009350D01*
X003970Y010100D01*
X004850Y010100D01*
X004850Y010197D02*
X000800Y010197D01*
X000800Y010099D02*
X003970Y010099D01*
X003970Y010000D02*
X000800Y010000D01*
X000800Y009902D02*
X003970Y009902D01*
X003970Y009803D02*
X000800Y009803D01*
X000800Y009705D02*
X003970Y009705D01*
X003970Y009606D02*
X000800Y009606D01*
X000800Y009508D02*
X003970Y009508D01*
X003970Y009409D02*
X000800Y009409D01*
X000800Y009311D02*
X003981Y009311D01*
X003970Y010296D02*
X000800Y010296D01*
X000800Y010394D02*
X003970Y010394D01*
X003970Y010493D02*
X000800Y010493D01*
X000800Y010591D02*
X003970Y010591D01*
X003970Y010690D02*
X000800Y010690D01*
X000800Y010788D02*
X003970Y010788D01*
X003970Y010887D02*
X000800Y010887D01*
X000800Y010985D02*
X003979Y010985D01*
X004221Y012495D02*
X004145Y012571D01*
X004145Y013929D01*
X004221Y014005D01*
X005333Y014005D01*
X005565Y014237D01*
X005688Y014360D01*
X005868Y014360D01*
X005953Y014445D01*
X006081Y014498D01*
X006219Y014498D01*
X006347Y014445D01*
X006445Y014347D01*
X006498Y014219D01*
X006498Y014081D01*
X006445Y013953D01*
X006347Y013855D01*
X006219Y013802D01*
X006081Y013802D01*
X005953Y013855D01*
X005868Y013940D01*
X005862Y013940D01*
X005655Y013733D01*
X005655Y012571D01*
X005579Y012495D01*
X004221Y012495D01*
X004155Y012561D02*
X002295Y012561D01*
X002332Y012463D02*
X007226Y012463D01*
X007185Y012561D02*
X005645Y012561D01*
X005655Y012660D02*
X007177Y012660D01*
X007193Y012758D02*
X005655Y012758D01*
X005655Y012857D02*
X007239Y012857D01*
X007315Y012955D02*
X005655Y012955D01*
X005655Y013054D02*
X007315Y013054D01*
X007315Y013152D02*
X005655Y013152D01*
X005655Y013251D02*
X007315Y013251D01*
X007315Y013349D02*
X005655Y013349D01*
X005655Y013448D02*
X007315Y013448D01*
X007315Y013546D02*
X005655Y013546D01*
X005655Y013645D02*
X007315Y013645D01*
X007315Y013743D02*
X005665Y013743D01*
X005764Y013842D02*
X005985Y013842D01*
X006315Y013842D02*
X007315Y013842D01*
X007313Y013940D02*
X006432Y013940D01*
X006481Y014039D02*
X007214Y014039D01*
X007116Y014137D02*
X006498Y014137D01*
X006491Y014236D02*
X007017Y014236D01*
X006919Y014334D02*
X006451Y014334D01*
X006360Y014433D02*
X006820Y014433D01*
X006722Y014531D02*
X004985Y014531D01*
X004985Y014616D02*
X004915Y014786D01*
X004786Y014915D01*
X004616Y014985D01*
X004433Y014985D01*
X004264Y014915D01*
X004135Y014786D01*
X004065Y014616D01*
X004065Y014433D01*
X004135Y014264D01*
X004264Y014135D01*
X004433Y014065D01*
X004616Y014065D01*
X004786Y014135D01*
X004915Y014264D01*
X004985Y014433D01*
X004985Y014616D01*
X004980Y014630D02*
X006623Y014630D01*
X006525Y014728D02*
X004939Y014728D01*
X004874Y014827D02*
X006426Y014827D01*
X006328Y014925D02*
X004761Y014925D01*
X004985Y014433D02*
X005940Y014433D01*
X006229Y015024D02*
X002225Y015024D01*
X002273Y014976D02*
X002164Y015085D01*
X002021Y015144D01*
X001867Y015144D01*
X001725Y015085D01*
X001616Y014976D01*
X001556Y014833D01*
X001556Y014679D01*
X001616Y014537D01*
X001725Y014428D01*
X001867Y014369D01*
X002021Y014369D01*
X002164Y014428D01*
X002273Y014537D01*
X002332Y014679D01*
X002332Y014833D01*
X002273Y014976D01*
X002294Y014925D02*
X003289Y014925D01*
X003264Y014915D02*
X003135Y014786D01*
X003065Y014616D01*
X003065Y014433D01*
X003135Y014264D01*
X003264Y014135D01*
X003433Y014065D01*
X003616Y014065D01*
X003786Y014135D01*
X003915Y014264D01*
X003985Y014433D01*
X003985Y014616D01*
X003915Y014786D01*
X003786Y014915D01*
X003616Y014985D01*
X003433Y014985D01*
X003264Y014915D01*
X003176Y014827D02*
X002332Y014827D01*
X002332Y014728D02*
X003111Y014728D01*
X003070Y014630D02*
X002312Y014630D01*
X002267Y014531D02*
X003065Y014531D01*
X003065Y014433D02*
X002169Y014433D01*
X002164Y014298D02*
X002021Y014357D01*
X001867Y014357D01*
X001725Y014298D01*
X001616Y014189D01*
X001556Y014046D01*
X001556Y013892D01*
X001616Y013749D01*
X001725Y013640D01*
X001867Y013581D01*
X002021Y013581D01*
X002164Y013640D01*
X002273Y013749D01*
X002332Y013892D01*
X002332Y014046D01*
X002273Y014189D01*
X002164Y014298D01*
X002226Y014236D02*
X003164Y014236D01*
X003106Y014334D02*
X002076Y014334D01*
X002294Y014137D02*
X003262Y014137D01*
X003788Y014137D02*
X004262Y014137D01*
X004164Y014236D02*
X003886Y014236D01*
X003944Y014334D02*
X004106Y014334D01*
X004065Y014433D02*
X003985Y014433D01*
X003985Y014531D02*
X004065Y014531D01*
X004070Y014630D02*
X003980Y014630D01*
X003939Y014728D02*
X004111Y014728D01*
X004176Y014827D02*
X003874Y014827D01*
X003761Y014925D02*
X004289Y014925D01*
X004886Y014236D02*
X005564Y014236D01*
X005662Y014334D02*
X004944Y014334D01*
X004788Y014137D02*
X005465Y014137D01*
X005367Y014039D02*
X002332Y014039D01*
X002332Y013940D02*
X004156Y013940D01*
X004145Y013842D02*
X002311Y013842D01*
X002267Y013743D02*
X004145Y013743D01*
X004145Y013645D02*
X002168Y013645D01*
X002078Y013546D02*
X004145Y013546D01*
X004145Y013448D02*
X002227Y013448D01*
X002273Y013401D02*
X002164Y013510D01*
X002021Y013569D01*
X001867Y013569D01*
X001725Y013510D01*
X001616Y013401D01*
X001556Y013259D01*
X001556Y013104D01*
X001616Y012962D01*
X001725Y012853D01*
X001867Y012794D01*
X002021Y012794D01*
X002164Y012853D01*
X002273Y012962D01*
X002332Y013104D01*
X002332Y013259D01*
X002273Y013401D01*
X002295Y013349D02*
X004145Y013349D01*
X004145Y013251D02*
X002332Y013251D01*
X002332Y013152D02*
X004145Y013152D01*
X004145Y013054D02*
X002311Y013054D01*
X002266Y012955D02*
X004145Y012955D01*
X004145Y012857D02*
X002168Y012857D01*
X002079Y012758D02*
X004145Y012758D01*
X004145Y012660D02*
X002227Y012660D01*
X001810Y012758D02*
X000800Y012758D01*
X000800Y012660D02*
X001661Y012660D01*
X001594Y012561D02*
X000800Y012561D01*
X000800Y012463D02*
X001556Y012463D01*
X001556Y012364D02*
X000800Y012364D01*
X000800Y012266D02*
X001578Y012266D01*
X001623Y012167D02*
X000800Y012167D01*
X000800Y012069D02*
X001721Y012069D01*
X001759Y011970D02*
X000800Y011970D01*
X000800Y011872D02*
X001633Y011872D01*
X001571Y011773D02*
X000800Y011773D01*
X000800Y011675D02*
X001542Y011675D01*
X001536Y011576D02*
X000800Y011576D01*
X000800Y011478D02*
X001557Y011478D01*
X001606Y011379D02*
X000800Y011379D01*
X000800Y011281D02*
X001699Y011281D01*
X001925Y011281D02*
X001963Y011281D01*
X001963Y011379D02*
X001925Y011379D01*
X001925Y011478D02*
X001963Y011478D01*
X001963Y011576D02*
X001925Y011576D01*
X001721Y012857D02*
X000800Y012857D01*
X000800Y012955D02*
X001622Y012955D01*
X001578Y013054D02*
X000800Y013054D01*
X000800Y013152D02*
X001556Y013152D01*
X001556Y013251D02*
X000800Y013251D01*
X000800Y013349D02*
X001594Y013349D01*
X001662Y013448D02*
X000800Y013448D01*
X000800Y013546D02*
X001811Y013546D01*
X001720Y013645D02*
X000800Y013645D01*
X000800Y013743D02*
X001622Y013743D01*
X001577Y013842D02*
X000800Y013842D01*
X000800Y013940D02*
X001556Y013940D01*
X001556Y014039D02*
X000800Y014039D01*
X000800Y014137D02*
X001594Y014137D01*
X001663Y014236D02*
X000800Y014236D01*
X000800Y014334D02*
X001812Y014334D01*
X001720Y014433D02*
X000800Y014433D01*
X000800Y014531D02*
X001621Y014531D01*
X001577Y014630D02*
X000800Y014630D01*
X000800Y014728D02*
X001556Y014728D01*
X001556Y014827D02*
X000800Y014827D01*
X000800Y014925D02*
X001594Y014925D01*
X001663Y015024D02*
X000800Y015024D01*
X000800Y015122D02*
X001814Y015122D01*
X001867Y015156D02*
X001725Y015215D01*
X001616Y015324D01*
X001556Y015467D01*
X001556Y015621D01*
X001616Y015763D01*
X001725Y015872D01*
X001867Y015931D01*
X002021Y015931D01*
X002164Y015872D01*
X002273Y015763D01*
X002332Y015621D01*
X002332Y015467D01*
X002273Y015324D01*
X002164Y015215D01*
X002021Y015156D01*
X001867Y015156D01*
X001719Y015221D02*
X000800Y015221D01*
X000800Y015319D02*
X001621Y015319D01*
X001577Y015418D02*
X000800Y015418D01*
X000800Y015516D02*
X001556Y015516D01*
X001556Y015615D02*
X000800Y015615D01*
X000800Y015713D02*
X001595Y015713D01*
X001664Y015812D02*
X000800Y015812D01*
X000800Y015910D02*
X001815Y015910D01*
X001867Y015943D02*
X002021Y015943D01*
X002164Y016002D01*
X002273Y016111D01*
X002332Y016254D01*
X002332Y016408D01*
X002273Y016551D01*
X002164Y016660D01*
X002021Y016719D01*
X001867Y016719D01*
X001725Y016660D01*
X001616Y016551D01*
X001556Y016408D01*
X001556Y016254D01*
X001616Y016111D01*
X001725Y016002D01*
X001867Y015943D01*
X001718Y016009D02*
X000800Y016009D01*
X000800Y016107D02*
X001620Y016107D01*
X001577Y016206D02*
X000800Y016206D01*
X000800Y016304D02*
X001556Y016304D01*
X001556Y016403D02*
X000800Y016403D01*
X000800Y016501D02*
X001595Y016501D01*
X001664Y016600D02*
X000800Y016600D01*
X000800Y016698D02*
X001817Y016698D01*
X001718Y016797D02*
X000800Y016797D01*
X000800Y016895D02*
X001619Y016895D01*
X001576Y016994D02*
X000800Y016994D01*
X000800Y017092D02*
X001556Y017092D01*
X001556Y017191D02*
X000800Y017191D01*
X000800Y017289D02*
X001595Y017289D01*
X001665Y017388D02*
X000800Y017388D01*
X000800Y017486D02*
X001818Y017486D01*
X001717Y017585D02*
X000800Y017585D01*
X000800Y017683D02*
X001619Y017683D01*
X001576Y017782D02*
X000800Y017782D01*
X000800Y017880D02*
X001556Y017880D01*
X001556Y017979D02*
X000800Y017979D01*
X000800Y018077D02*
X001595Y018077D01*
X001666Y018176D02*
X000800Y018176D01*
X000800Y018274D02*
X001820Y018274D01*
X001717Y018373D02*
X000800Y018373D01*
X000800Y018471D02*
X001618Y018471D01*
X001576Y018570D02*
X000800Y018570D01*
X000800Y018668D02*
X001556Y018668D01*
X001556Y018767D02*
X000800Y018767D01*
X000800Y018865D02*
X001596Y018865D01*
X001666Y018964D02*
X000800Y018964D01*
X000800Y019062D02*
X001821Y019062D01*
X000800Y019161D02*
X011500Y019161D01*
X011500Y019259D02*
X000800Y019259D01*
X000800Y019358D02*
X011500Y019358D01*
X011500Y019456D02*
X000800Y019456D01*
X000800Y019555D02*
X011500Y019555D01*
X011500Y019653D02*
X000800Y019653D01*
X000800Y019752D02*
X011500Y019752D01*
X011500Y019850D02*
X000800Y019850D01*
X000800Y019949D02*
X011500Y019949D01*
X011500Y020047D02*
X000800Y020047D01*
X000800Y020146D02*
X011500Y020146D01*
X011500Y020244D02*
X000800Y020244D01*
X000800Y020343D02*
X011500Y020343D01*
X011500Y020441D02*
X000800Y020441D01*
X000800Y020540D02*
X011500Y020540D01*
X011500Y020638D02*
X000800Y020638D01*
X000800Y020737D02*
X011500Y020737D01*
X011500Y020835D02*
X000800Y020835D01*
X000800Y020934D02*
X011500Y020934D01*
X011500Y021032D02*
X000800Y021032D01*
X000800Y021131D02*
X011500Y021131D01*
X011500Y021229D02*
X000800Y021229D01*
X000800Y021328D02*
X011500Y021328D01*
X011500Y021426D02*
X000800Y021426D01*
X000800Y021525D02*
X011500Y021525D01*
X011500Y021623D02*
X000800Y021623D01*
X000800Y021722D02*
X011500Y021722D01*
X011500Y021820D02*
X000800Y021820D01*
X000800Y021919D02*
X002897Y021919D01*
X002955Y021860D02*
X003100Y021860D01*
X003100Y022280D01*
X003200Y022280D01*
X003200Y022380D01*
X003620Y022380D01*
X003620Y022525D01*
X003345Y022800D01*
X003200Y022800D01*
X003200Y022380D01*
X003100Y022380D01*
X003100Y022800D01*
X002955Y022800D01*
X002680Y022525D01*
X002680Y022380D01*
X003100Y022380D01*
X003100Y022280D01*
X002680Y022280D01*
X002680Y022135D01*
X002955Y021860D01*
X002798Y022017D02*
X000800Y022017D01*
X000800Y022116D02*
X002700Y022116D01*
X002680Y022214D02*
X000800Y022214D01*
X000800Y022313D02*
X003100Y022313D01*
X003100Y022411D02*
X003200Y022411D01*
X003200Y022313D02*
X003700Y022313D01*
X003620Y022280D02*
X003200Y022280D01*
X003200Y021860D01*
X003345Y021860D01*
X003620Y022135D01*
X003620Y022280D01*
X003620Y022214D02*
X003700Y022214D01*
X003700Y022144D02*
X003964Y021880D01*
X004336Y021880D01*
X004600Y022144D01*
X004600Y022516D01*
X004336Y022780D01*
X003964Y022780D01*
X003700Y022516D01*
X003700Y022144D01*
X003728Y022116D02*
X003600Y022116D01*
X003502Y022017D02*
X003827Y022017D01*
X003925Y021919D02*
X003403Y021919D01*
X003200Y021919D02*
X003100Y021919D01*
X003100Y022017D02*
X003200Y022017D01*
X003200Y022116D02*
X003100Y022116D01*
X003100Y022214D02*
X003200Y022214D01*
X003200Y022510D02*
X003100Y022510D01*
X003100Y022608D02*
X003200Y022608D01*
X003200Y022707D02*
X003100Y022707D01*
X003100Y022860D02*
X003100Y023280D01*
X003200Y023280D01*
X003200Y023380D01*
X003620Y023380D01*
X003620Y023525D01*
X003345Y023800D01*
X003200Y023800D01*
X003200Y023380D01*
X003100Y023380D01*
X003100Y023800D01*
X002955Y023800D01*
X002680Y023525D01*
X002680Y023380D01*
X003100Y023380D01*
X003100Y023280D01*
X002680Y023280D01*
X002680Y023135D01*
X002955Y022860D01*
X003100Y022860D01*
X003100Y022904D02*
X003200Y022904D01*
X003200Y022860D02*
X003345Y022860D01*
X003620Y023135D01*
X003620Y023280D01*
X003200Y023280D01*
X003200Y022860D01*
X003200Y023002D02*
X003100Y023002D01*
X003100Y023101D02*
X003200Y023101D01*
X003200Y023199D02*
X003100Y023199D01*
X003100Y023298D02*
X000978Y023298D01*
X001035Y023396D02*
X002680Y023396D01*
X002680Y023495D02*
X001102Y023495D01*
X001200Y023593D02*
X002748Y023593D01*
X002847Y023692D02*
X001299Y023692D01*
X001448Y023790D02*
X002945Y023790D01*
X003100Y023790D02*
X003200Y023790D01*
X003200Y023692D02*
X003100Y023692D01*
X003100Y023593D02*
X003200Y023593D01*
X003200Y023495D02*
X003100Y023495D01*
X003100Y023396D02*
X003200Y023396D01*
X003200Y023298D02*
X003700Y023298D01*
X003700Y023396D02*
X003620Y023396D01*
X003620Y023495D02*
X003700Y023495D01*
X003700Y023516D02*
X003700Y023144D01*
X003964Y022880D01*
X004336Y022880D01*
X004600Y023144D01*
X004600Y023516D01*
X004336Y023780D01*
X003964Y023780D01*
X003700Y023516D01*
X003777Y023593D02*
X003552Y023593D01*
X003453Y023692D02*
X003875Y023692D01*
X003700Y023199D02*
X003620Y023199D01*
X003585Y023101D02*
X003743Y023101D01*
X003842Y023002D02*
X003487Y023002D01*
X003388Y022904D02*
X003940Y022904D01*
X003890Y022707D02*
X003438Y022707D01*
X003537Y022608D02*
X003792Y022608D01*
X003700Y022510D02*
X003620Y022510D01*
X003620Y022411D02*
X003700Y022411D01*
X004360Y022904D02*
X004940Y022904D01*
X004964Y022880D02*
X005336Y022880D01*
X005600Y023144D01*
X005600Y023516D01*
X005336Y023780D01*
X004964Y023780D01*
X004700Y023516D01*
X004700Y023144D01*
X004964Y022880D01*
X004955Y022800D02*
X004680Y022525D01*
X004680Y022380D01*
X005100Y022380D01*
X005100Y022800D01*
X004955Y022800D01*
X004862Y022707D02*
X004410Y022707D01*
X004508Y022608D02*
X004763Y022608D01*
X004680Y022510D02*
X004600Y022510D01*
X004600Y022411D02*
X004680Y022411D01*
X004600Y022313D02*
X005100Y022313D01*
X005100Y022280D02*
X004680Y022280D01*
X004680Y022135D01*
X004955Y021860D01*
X005100Y021860D01*
X005100Y022280D01*
X005200Y022280D01*
X005200Y022380D01*
X005620Y022380D01*
X005620Y022525D01*
X005345Y022800D01*
X005200Y022800D01*
X005200Y022380D01*
X005100Y022380D01*
X005100Y022280D01*
X005100Y022214D02*
X005200Y022214D01*
X005200Y022280D02*
X005200Y021860D01*
X005345Y021860D01*
X005620Y022135D01*
X005620Y022280D01*
X005200Y022280D01*
X005200Y022313D02*
X006100Y022313D01*
X006100Y022280D02*
X005680Y022280D01*
X005680Y022135D01*
X005955Y021860D01*
X006100Y021860D01*
X006100Y022280D01*
X006200Y022280D01*
X006200Y022380D01*
X006620Y022380D01*
X006620Y022525D01*
X006345Y022800D01*
X006200Y022800D01*
X006200Y022380D01*
X006100Y022380D01*
X006100Y022800D01*
X005955Y022800D01*
X005680Y022525D01*
X005680Y022380D01*
X006100Y022380D01*
X006100Y022280D01*
X006100Y022214D02*
X006200Y022214D01*
X006200Y022280D02*
X006200Y021860D01*
X006345Y021860D01*
X006620Y022135D01*
X006620Y022280D01*
X006200Y022280D01*
X006200Y022313D02*
X007100Y022313D01*
X007100Y022280D02*
X006680Y022280D01*
X006680Y022135D01*
X006955Y021860D01*
X007100Y021860D01*
X007100Y022280D01*
X007200Y022280D01*
X007200Y022380D01*
X007620Y022380D01*
X007620Y022525D01*
X007345Y022800D01*
X007200Y022800D01*
X007200Y022380D01*
X007100Y022380D01*
X007100Y022800D01*
X006955Y022800D01*
X006680Y022525D01*
X006680Y022380D01*
X007100Y022380D01*
X007100Y022280D01*
X007100Y022214D02*
X007200Y022214D01*
X007200Y022280D02*
X007200Y021860D01*
X007345Y021860D01*
X007620Y022135D01*
X007620Y022280D01*
X007200Y022280D01*
X007200Y022313D02*
X008100Y022313D01*
X008100Y022280D02*
X007680Y022280D01*
X007680Y022135D01*
X007955Y021860D01*
X008100Y021860D01*
X008100Y022280D01*
X008200Y022280D01*
X008200Y022380D01*
X008620Y022380D01*
X008620Y022525D01*
X008345Y022800D01*
X008200Y022800D01*
X008200Y022380D01*
X008100Y022380D01*
X008100Y022800D01*
X007955Y022800D01*
X007680Y022525D01*
X007680Y022380D01*
X008100Y022380D01*
X008100Y022280D01*
X008100Y022214D02*
X008200Y022214D01*
X008200Y022280D02*
X008200Y021860D01*
X008345Y021860D01*
X008620Y022135D01*
X008620Y022280D01*
X008200Y022280D01*
X008200Y022313D02*
X009100Y022313D01*
X009100Y022280D02*
X008680Y022280D01*
X008680Y022135D01*
X008955Y021860D01*
X009100Y021860D01*
X009100Y022280D01*
X009200Y022280D01*
X009200Y022380D01*
X009620Y022380D01*
X009620Y022525D01*
X009345Y022800D01*
X009200Y022800D01*
X009200Y022380D01*
X009100Y022380D01*
X009100Y022800D01*
X008955Y022800D01*
X008680Y022525D01*
X008680Y022380D01*
X009100Y022380D01*
X009100Y022280D01*
X009100Y022214D02*
X009200Y022214D01*
X009200Y022280D02*
X009200Y021860D01*
X009345Y021860D01*
X009620Y022135D01*
X009620Y022280D01*
X009200Y022280D01*
X009200Y022313D02*
X011500Y022313D01*
X011500Y022411D02*
X009620Y022411D01*
X009620Y022510D02*
X011500Y022510D01*
X011500Y022608D02*
X009537Y022608D01*
X009438Y022707D02*
X011496Y022707D01*
X011490Y022805D02*
X000810Y022805D01*
X000804Y022707D02*
X002862Y022707D01*
X002763Y022608D02*
X000800Y022608D01*
X000800Y022510D02*
X002680Y022510D01*
X002680Y022411D02*
X000800Y022411D01*
X000832Y022904D02*
X002912Y022904D01*
X002813Y023002D02*
X000859Y023002D01*
X000885Y023101D02*
X002715Y023101D01*
X002680Y023199D02*
X000921Y023199D01*
X001618Y023889D02*
X010682Y023889D01*
X010852Y023790D02*
X003355Y023790D01*
X004375Y021919D02*
X004897Y021919D01*
X004798Y022017D02*
X004473Y022017D01*
X004572Y022116D02*
X004700Y022116D01*
X004680Y022214D02*
X004600Y022214D01*
X004458Y023002D02*
X004842Y023002D01*
X004743Y023101D02*
X004557Y023101D01*
X004600Y023199D02*
X004700Y023199D01*
X004700Y023298D02*
X004600Y023298D01*
X004600Y023396D02*
X004700Y023396D01*
X004700Y023495D02*
X004600Y023495D01*
X004523Y023593D02*
X004777Y023593D01*
X004875Y023692D02*
X004425Y023692D01*
X005100Y022707D02*
X005200Y022707D01*
X005200Y022608D02*
X005100Y022608D01*
X005100Y022510D02*
X005200Y022510D01*
X005200Y022411D02*
X005100Y022411D01*
X005100Y022116D02*
X005200Y022116D01*
X005200Y022017D02*
X005100Y022017D01*
X005100Y021919D02*
X005200Y021919D01*
X005403Y021919D02*
X005897Y021919D01*
X005798Y022017D02*
X005502Y022017D01*
X005600Y022116D02*
X005700Y022116D01*
X005680Y022214D02*
X005620Y022214D01*
X005620Y022411D02*
X005680Y022411D01*
X005680Y022510D02*
X005620Y022510D01*
X005537Y022608D02*
X005763Y022608D01*
X005862Y022707D02*
X005438Y022707D01*
X005360Y022904D02*
X005940Y022904D01*
X005964Y022880D02*
X006336Y022880D01*
X006600Y023144D01*
X006600Y023516D01*
X006336Y023780D01*
X005964Y023780D01*
X005700Y023516D01*
X005700Y023144D01*
X005964Y022880D01*
X005842Y023002D02*
X005458Y023002D01*
X005557Y023101D02*
X005743Y023101D01*
X005700Y023199D02*
X005600Y023199D01*
X005600Y023298D02*
X005700Y023298D01*
X005700Y023396D02*
X005600Y023396D01*
X005600Y023495D02*
X005700Y023495D01*
X005777Y023593D02*
X005523Y023593D01*
X005425Y023692D02*
X005875Y023692D01*
X006425Y023692D02*
X006875Y023692D01*
X006964Y023780D02*
X006700Y023516D01*
X006700Y023144D01*
X006964Y022880D01*
X007336Y022880D01*
X007600Y023144D01*
X007600Y023516D01*
X007336Y023780D01*
X006964Y023780D01*
X006777Y023593D02*
X006523Y023593D01*
X006600Y023495D02*
X006700Y023495D01*
X006700Y023396D02*
X006600Y023396D01*
X006600Y023298D02*
X006700Y023298D01*
X006700Y023199D02*
X006600Y023199D01*
X006557Y023101D02*
X006743Y023101D01*
X006842Y023002D02*
X006458Y023002D01*
X006360Y022904D02*
X006940Y022904D01*
X006862Y022707D02*
X006438Y022707D01*
X006537Y022608D02*
X006763Y022608D01*
X006680Y022510D02*
X006620Y022510D01*
X006620Y022411D02*
X006680Y022411D01*
X006680Y022214D02*
X006620Y022214D01*
X006600Y022116D02*
X006700Y022116D01*
X006798Y022017D02*
X006502Y022017D01*
X006403Y021919D02*
X006897Y021919D01*
X007100Y021919D02*
X007200Y021919D01*
X007200Y022017D02*
X007100Y022017D01*
X007100Y022116D02*
X007200Y022116D01*
X007200Y022411D02*
X007100Y022411D01*
X007100Y022510D02*
X007200Y022510D01*
X007200Y022608D02*
X007100Y022608D01*
X007100Y022707D02*
X007200Y022707D01*
X007438Y022707D02*
X007862Y022707D01*
X007763Y022608D02*
X007537Y022608D01*
X007620Y022510D02*
X007680Y022510D01*
X007680Y022411D02*
X007620Y022411D01*
X007620Y022214D02*
X007680Y022214D01*
X007700Y022116D02*
X007600Y022116D01*
X007502Y022017D02*
X007798Y022017D01*
X007897Y021919D02*
X007403Y021919D01*
X007360Y022904D02*
X007940Y022904D01*
X007964Y022880D02*
X008336Y022880D01*
X008600Y023144D01*
X008600Y023516D01*
X008336Y023780D01*
X007964Y023780D01*
X007700Y023516D01*
X007700Y023144D01*
X007964Y022880D01*
X007842Y023002D02*
X007458Y023002D01*
X007557Y023101D02*
X007743Y023101D01*
X007700Y023199D02*
X007600Y023199D01*
X007600Y023298D02*
X007700Y023298D01*
X007700Y023396D02*
X007600Y023396D01*
X007600Y023495D02*
X007700Y023495D01*
X007777Y023593D02*
X007523Y023593D01*
X007425Y023692D02*
X007875Y023692D01*
X008360Y022904D02*
X008940Y022904D01*
X008964Y022880D02*
X009336Y022880D01*
X009600Y023144D01*
X009600Y023516D01*
X009336Y023780D01*
X008964Y023780D01*
X008700Y023516D01*
X008700Y023144D01*
X008964Y022880D01*
X008842Y023002D02*
X008458Y023002D01*
X008557Y023101D02*
X008743Y023101D01*
X008700Y023199D02*
X008600Y023199D01*
X008600Y023298D02*
X008700Y023298D01*
X008700Y023396D02*
X008600Y023396D01*
X008600Y023495D02*
X008700Y023495D01*
X008777Y023593D02*
X008523Y023593D01*
X008425Y023692D02*
X008875Y023692D01*
X009360Y022904D02*
X011468Y022904D01*
X011441Y023002D02*
X009458Y023002D01*
X009557Y023101D02*
X011415Y023101D01*
X011379Y023199D02*
X009600Y023199D01*
X009600Y023298D02*
X011322Y023298D01*
X011265Y023396D02*
X009600Y023396D01*
X009600Y023495D02*
X011198Y023495D01*
X011100Y023593D02*
X009523Y023593D01*
X009425Y023692D02*
X011001Y023692D01*
X010331Y023987D02*
X001969Y023987D01*
X002269Y016895D02*
X005608Y016895D01*
X005706Y016797D02*
X002171Y016797D01*
X002072Y016698D02*
X004960Y016698D01*
X004857Y016600D02*
X002224Y016600D01*
X002294Y016501D02*
X004815Y016501D01*
X004802Y016403D02*
X002332Y016403D01*
X002332Y016304D02*
X004813Y016304D01*
X004854Y016206D02*
X002312Y016206D01*
X002269Y016107D02*
X004951Y016107D01*
X005244Y016009D02*
X002170Y016009D01*
X002073Y015910D02*
X005343Y015910D01*
X005441Y015812D02*
X002225Y015812D01*
X002294Y015713D02*
X005540Y015713D01*
X005638Y015615D02*
X002332Y015615D01*
X002332Y015516D02*
X005737Y015516D01*
X005835Y015418D02*
X002312Y015418D01*
X002268Y015319D02*
X005934Y015319D01*
X006032Y015221D02*
X002170Y015221D01*
X002075Y015122D02*
X006131Y015122D01*
X005903Y016600D02*
X005443Y016600D01*
X005340Y016698D02*
X005805Y016698D01*
X007596Y016501D02*
X010256Y016501D01*
X010218Y016403D02*
X007694Y016403D01*
X007793Y016304D02*
X010218Y016304D01*
X010238Y016206D02*
X007891Y016206D01*
X007990Y016107D02*
X010281Y016107D01*
X010380Y016009D02*
X008088Y016009D01*
X009172Y014925D02*
X010256Y014925D01*
X010218Y014827D02*
X009270Y014827D01*
X009360Y014728D02*
X010218Y014728D01*
X010238Y014630D02*
X009360Y014630D01*
X009360Y014531D02*
X010283Y014531D01*
X010381Y014433D02*
X009360Y014433D01*
X009360Y011182D02*
X011500Y011182D01*
X011500Y011084D02*
X009360Y011084D01*
X009360Y010985D02*
X011500Y010985D01*
X011500Y010887D02*
X009360Y010887D01*
X009360Y010788D02*
X011500Y010788D01*
X011500Y010690D02*
X009360Y010690D01*
X009360Y010591D02*
X011500Y010591D01*
X011500Y010493D02*
X009360Y010493D01*
X009360Y010394D02*
X011500Y010394D01*
X011500Y010296D02*
X009360Y010296D01*
X009360Y010197D02*
X011500Y010197D01*
X011500Y010099D02*
X009360Y010099D01*
X009360Y010000D02*
X011500Y010000D01*
X011500Y009902D02*
X009360Y009902D01*
X009360Y009803D02*
X011500Y009803D01*
X011500Y009705D02*
X009360Y009705D01*
X009360Y009606D02*
X011500Y009606D01*
X011500Y009508D02*
X009360Y009508D01*
X009360Y009409D02*
X009417Y009409D01*
X009883Y009409D02*
X011500Y009409D01*
X011500Y009311D02*
X009960Y009311D01*
X009998Y009212D02*
X011500Y009212D01*
X011500Y009114D02*
X009998Y009114D01*
X009971Y009015D02*
X011500Y009015D01*
X011500Y008917D02*
X009909Y008917D01*
X009860Y008818D02*
X011500Y008818D01*
X011500Y008720D02*
X009860Y008720D01*
X009860Y008621D02*
X011500Y008621D01*
X011500Y008523D02*
X009860Y008523D01*
X009860Y008424D02*
X011500Y008424D01*
X011500Y008326D02*
X009860Y008326D01*
X009860Y008227D02*
X011500Y008227D01*
X011500Y008129D02*
X009860Y008129D01*
X009860Y008030D02*
X011500Y008030D01*
X011500Y007932D02*
X009860Y007932D01*
X009860Y007833D02*
X011500Y007833D01*
X011500Y007735D02*
X009860Y007735D01*
X009860Y007636D02*
X011500Y007636D01*
X011500Y007538D02*
X009860Y007538D01*
X009860Y007439D02*
X011500Y007439D01*
X011500Y007341D02*
X009860Y007341D01*
X009860Y007242D02*
X011500Y007242D01*
X011500Y007144D02*
X009860Y007144D01*
X009860Y007045D02*
X011500Y007045D01*
X011500Y006947D02*
X009860Y006947D01*
X009860Y006848D02*
X011500Y006848D01*
X011500Y006750D02*
X009860Y006750D01*
X009860Y006651D02*
X011500Y006651D01*
X011500Y006553D02*
X009865Y006553D01*
X009953Y006454D02*
X011500Y006454D01*
X011500Y006356D02*
X009993Y006356D01*
X009998Y006257D02*
X011500Y006257D01*
X011500Y006159D02*
X009979Y006159D01*
X009927Y006060D02*
X011500Y006060D01*
X011500Y005962D02*
X009803Y005962D01*
X009497Y005962D02*
X009360Y005962D01*
X009360Y006060D02*
X009373Y006060D01*
X009360Y005863D02*
X011500Y005863D01*
X011500Y005765D02*
X009360Y005765D01*
X009360Y005666D02*
X011500Y005666D01*
X011500Y005568D02*
X009360Y005568D01*
X009360Y005469D02*
X011500Y005469D01*
X011500Y005371D02*
X009360Y005371D01*
X009360Y005272D02*
X011500Y005272D01*
X011500Y005174D02*
X009360Y005174D01*
X009360Y005075D02*
X011500Y005075D01*
X011500Y004977D02*
X009360Y004977D01*
X009360Y004878D02*
X011500Y004878D01*
X011500Y004780D02*
X009360Y004780D01*
X009360Y004681D02*
X011500Y004681D01*
X011500Y004583D02*
X009360Y004583D01*
X009360Y004484D02*
X011500Y004484D01*
X011500Y004386D02*
X009360Y004386D01*
X009360Y004287D02*
X011500Y004287D01*
X011500Y004189D02*
X009360Y004189D01*
X009360Y004090D02*
X009454Y004090D01*
X009846Y004090D02*
X011500Y004090D01*
X011500Y003992D02*
X009945Y003992D01*
X010043Y003893D02*
X011500Y003893D01*
X011500Y003795D02*
X010100Y003795D01*
X010100Y003696D02*
X011500Y003696D01*
X011500Y003598D02*
X010100Y003598D01*
X010100Y003499D02*
X011500Y003499D01*
X011500Y003401D02*
X010168Y003401D01*
X010267Y003302D02*
X011500Y003302D01*
X011500Y003204D02*
X010340Y003204D01*
X010340Y003105D02*
X011500Y003105D01*
X011500Y003007D02*
X010340Y003007D01*
X010340Y002908D02*
X011500Y002908D01*
X011500Y002810D02*
X010340Y002810D01*
X010340Y002711D02*
X011500Y002711D01*
X011500Y002613D02*
X010340Y002613D01*
X010340Y002514D02*
X011500Y002514D01*
X011500Y002416D02*
X010340Y002416D01*
X010340Y002317D02*
X011500Y002317D01*
X011500Y002219D02*
X010340Y002219D01*
X010340Y002120D02*
X011498Y002120D01*
X011492Y002022D02*
X010290Y002022D01*
X010192Y001923D02*
X011475Y001923D01*
X011448Y001825D02*
X010093Y001825D01*
X009995Y001726D02*
X011422Y001726D01*
X011397Y001633D02*
X011397Y001633D01*
X011394Y001628D02*
X009896Y001628D01*
X009798Y001529D02*
X011337Y001529D01*
X011280Y001431D02*
X009699Y001431D01*
X009601Y001332D02*
X011223Y001332D01*
X011126Y001234D02*
X009502Y001234D01*
X009404Y001135D02*
X011028Y001135D01*
X010898Y001037D02*
X009305Y001037D01*
X009207Y000938D02*
X010728Y000938D01*
X010431Y000840D02*
X009108Y000840D01*
X008946Y001215D02*
X008933Y001215D01*
X008939Y001218D01*
X009082Y001361D01*
X009160Y001549D01*
X009160Y001751D01*
X009082Y001939D01*
X008939Y002082D01*
X008751Y002160D01*
X008549Y002160D01*
X008361Y002082D01*
X008218Y001939D01*
X008150Y001776D01*
X008082Y001939D01*
X007939Y002082D01*
X007751Y002160D01*
X007549Y002160D01*
X007361Y002082D01*
X007218Y001939D01*
X007150Y001776D01*
X007119Y001850D01*
X007229Y001960D01*
X007340Y002071D01*
X007340Y002295D01*
X007455Y002180D01*
X007600Y002180D01*
X007600Y002600D01*
X007700Y002600D01*
X007700Y002700D01*
X008120Y002700D01*
X008120Y002845D01*
X008005Y002960D01*
X008229Y002960D01*
X008469Y003200D01*
X008836Y003200D01*
X008940Y003304D01*
X008940Y003237D01*
X008803Y003100D01*
X008464Y003100D01*
X008200Y002836D01*
X008200Y002464D01*
X008464Y002200D01*
X008836Y002200D01*
X009100Y002464D01*
X009100Y002803D01*
X009360Y003063D01*
X009360Y003304D01*
X009464Y003200D01*
X009831Y003200D01*
X009960Y003071D01*
X009960Y002976D01*
X009836Y003100D01*
X009464Y003100D01*
X009200Y002836D01*
X009200Y002464D01*
X009464Y002200D01*
X009836Y002200D01*
X009960Y002324D01*
X009960Y002229D01*
X008946Y001215D01*
X008955Y001234D02*
X008965Y001234D01*
X009053Y001332D02*
X009063Y001332D01*
X009111Y001431D02*
X009162Y001431D01*
X009152Y001529D02*
X009260Y001529D01*
X009160Y001628D02*
X009359Y001628D01*
X009457Y001726D02*
X009160Y001726D01*
X009130Y001825D02*
X009556Y001825D01*
X009654Y001923D02*
X009089Y001923D01*
X009000Y002022D02*
X009753Y002022D01*
X009851Y002120D02*
X008848Y002120D01*
X008855Y002219D02*
X009445Y002219D01*
X009347Y002317D02*
X008953Y002317D01*
X009052Y002416D02*
X009248Y002416D01*
X009200Y002514D02*
X009100Y002514D01*
X009100Y002613D02*
X009200Y002613D01*
X009200Y002711D02*
X009100Y002711D01*
X009106Y002810D02*
X009200Y002810D01*
X009205Y002908D02*
X009272Y002908D01*
X009303Y003007D02*
X009370Y003007D01*
X009360Y003105D02*
X009926Y003105D01*
X009930Y003007D02*
X009960Y003007D01*
X009953Y002317D02*
X009960Y002317D01*
X009950Y002219D02*
X009855Y002219D01*
X009460Y003204D02*
X009360Y003204D01*
X009360Y003302D02*
X009362Y003302D01*
X008940Y003302D02*
X008938Y003302D01*
X008907Y003204D02*
X008840Y003204D01*
X008808Y003105D02*
X008374Y003105D01*
X008370Y003007D02*
X008275Y003007D01*
X008272Y002908D02*
X008057Y002908D01*
X008120Y002810D02*
X008200Y002810D01*
X008200Y002711D02*
X008120Y002711D01*
X008120Y002600D02*
X007700Y002600D01*
X007700Y002180D01*
X007845Y002180D01*
X008120Y002455D01*
X008120Y002600D01*
X008200Y002613D02*
X007700Y002613D01*
X007700Y002514D02*
X007600Y002514D01*
X007600Y002416D02*
X007700Y002416D01*
X007700Y002317D02*
X007600Y002317D01*
X007600Y002219D02*
X007700Y002219D01*
X007848Y002120D02*
X008452Y002120D01*
X008445Y002219D02*
X007883Y002219D01*
X007982Y002317D02*
X008347Y002317D01*
X008248Y002416D02*
X008080Y002416D01*
X008120Y002514D02*
X008200Y002514D01*
X008300Y002022D02*
X008000Y002022D01*
X008089Y001923D02*
X008211Y001923D01*
X008170Y001825D02*
X008130Y001825D01*
X007452Y002120D02*
X007340Y002120D01*
X007340Y002219D02*
X007417Y002219D01*
X007300Y002022D02*
X007290Y002022D01*
X007211Y001923D02*
X007192Y001923D01*
X007170Y001825D02*
X007130Y001825D01*
X006263Y003401D02*
X006037Y003401D01*
X006100Y003499D02*
X006200Y003499D01*
X006200Y003598D02*
X006100Y003598D01*
X006100Y003696D02*
X006200Y003696D01*
X006200Y003795D02*
X006100Y003795D01*
X006110Y003893D02*
X006043Y003893D01*
X006012Y003992D02*
X005945Y003992D01*
X005913Y004090D02*
X005846Y004090D01*
X005815Y004189D02*
X000800Y004189D01*
X000800Y004287D02*
X005716Y004287D01*
X005618Y004386D02*
X004628Y004386D01*
X004875Y004090D02*
X005454Y004090D01*
X005355Y003992D02*
X004973Y003992D01*
X005072Y003893D02*
X005257Y003893D01*
X005200Y003795D02*
X005120Y003795D01*
X004161Y006356D02*
X000800Y006356D01*
X000800Y006454D02*
X004145Y006454D01*
X004145Y006553D02*
X000800Y006553D01*
X000800Y006651D02*
X004145Y006651D01*
X004145Y006750D02*
X000800Y006750D01*
X000800Y006848D02*
X004145Y006848D01*
X004145Y006947D02*
X000800Y006947D01*
X000800Y007045D02*
X004145Y007045D01*
X004145Y007144D02*
X000800Y007144D01*
X000800Y007242D02*
X004145Y007242D01*
X004145Y007341D02*
X000800Y007341D01*
X000800Y007439D02*
X004145Y007439D01*
X004145Y007538D02*
X000800Y007538D01*
X000800Y007636D02*
X004145Y007636D01*
X004151Y007735D02*
X000800Y007735D01*
X000800Y007833D02*
X006440Y007833D01*
X006440Y007932D02*
X000800Y007932D01*
X000800Y008030D02*
X006483Y008030D01*
X006582Y008129D02*
X000800Y008129D01*
X000800Y008227D02*
X006680Y008227D01*
X006779Y008326D02*
X000800Y008326D01*
X000800Y008424D02*
X006877Y008424D01*
X006976Y008523D02*
X000800Y008523D01*
X000800Y008621D02*
X007074Y008621D01*
X007173Y008720D02*
X000800Y008720D01*
X000800Y008818D02*
X007271Y008818D01*
X007924Y008917D02*
X000800Y008917D01*
X000800Y009015D02*
X008440Y009015D01*
X008440Y008917D02*
X008376Y008917D01*
X008440Y009114D02*
X000800Y009114D01*
X000800Y009212D02*
X008440Y009212D01*
X008440Y009311D02*
X005819Y009311D01*
X005830Y009409D02*
X008440Y009409D01*
X008440Y009508D02*
X005830Y009508D01*
X005830Y009606D02*
X008440Y009606D01*
X008440Y009705D02*
X005830Y009705D01*
X005830Y009803D02*
X008440Y009803D01*
X008440Y009902D02*
X005830Y009902D01*
X005830Y010000D02*
X008440Y010000D01*
X008440Y010099D02*
X005830Y010099D01*
X004950Y010000D02*
X004850Y010000D01*
X004850Y009902D02*
X004950Y009902D01*
X004950Y009803D02*
X004850Y009803D01*
X004850Y009705D02*
X004950Y009705D01*
X004950Y009606D02*
X004850Y009606D01*
X004850Y009508D02*
X004950Y009508D01*
X004950Y009409D02*
X004850Y009409D01*
X004850Y009311D02*
X004950Y009311D01*
X004950Y010296D02*
X004850Y010296D01*
X004850Y010394D02*
X004950Y010394D01*
X004950Y010493D02*
X004850Y010493D01*
X004850Y010591D02*
X004950Y010591D01*
X004950Y010690D02*
X004850Y010690D01*
X004850Y010788D02*
X004950Y010788D01*
X004950Y010887D02*
X004850Y010887D01*
X004850Y010985D02*
X004950Y010985D01*
X007860Y006553D02*
X007880Y006553D01*
X007860Y006454D02*
X008015Y006454D01*
X007937Y006356D02*
X008440Y006356D01*
X008440Y006454D02*
X008285Y006454D01*
X008420Y006553D02*
X008440Y006553D01*
X008440Y006257D02*
X007982Y006257D01*
X007998Y006159D02*
X008440Y006159D01*
X008440Y006060D02*
X007990Y006060D01*
X007949Y005962D02*
X008440Y005962D01*
X008440Y005863D02*
X007855Y005863D01*
X008348Y005765D02*
X008440Y005765D01*
X008860Y005075D02*
X008940Y005075D01*
X008940Y004977D02*
X008860Y004977D01*
X008860Y004878D02*
X008940Y004878D01*
X008940Y004780D02*
X008860Y004780D01*
X008860Y004681D02*
X008940Y004681D01*
X008940Y004583D02*
X008860Y004583D01*
X008860Y004484D02*
X008940Y004484D01*
X008940Y004386D02*
X008860Y004386D01*
X008860Y004287D02*
X008940Y004287D01*
X008940Y004189D02*
X008860Y004189D01*
X008860Y004090D02*
X008940Y004090D01*
X008897Y021919D02*
X008403Y021919D01*
X008502Y022017D02*
X008798Y022017D01*
X008700Y022116D02*
X008600Y022116D01*
X008620Y022214D02*
X008680Y022214D01*
X008680Y022411D02*
X008620Y022411D01*
X008620Y022510D02*
X008680Y022510D01*
X008763Y022608D02*
X008537Y022608D01*
X008438Y022707D02*
X008862Y022707D01*
X009100Y022707D02*
X009200Y022707D01*
X009200Y022608D02*
X009100Y022608D01*
X009100Y022510D02*
X009200Y022510D01*
X009200Y022411D02*
X009100Y022411D01*
X009100Y022116D02*
X009200Y022116D01*
X009200Y022017D02*
X009100Y022017D01*
X009100Y021919D02*
X009200Y021919D01*
X009403Y021919D02*
X011500Y021919D01*
X011500Y022017D02*
X009502Y022017D01*
X009600Y022116D02*
X011500Y022116D01*
X011500Y022214D02*
X009620Y022214D01*
X008200Y022116D02*
X008100Y022116D01*
X008100Y022017D02*
X008200Y022017D01*
X008200Y021919D02*
X008100Y021919D01*
X008100Y022411D02*
X008200Y022411D01*
X008200Y022510D02*
X008100Y022510D01*
X008100Y022608D02*
X008200Y022608D01*
X008200Y022707D02*
X008100Y022707D01*
X006200Y022707D02*
X006100Y022707D01*
X006100Y022608D02*
X006200Y022608D01*
X006200Y022510D02*
X006100Y022510D01*
X006100Y022411D02*
X006200Y022411D01*
X006200Y022116D02*
X006100Y022116D01*
X006100Y022017D02*
X006200Y022017D01*
X006200Y021919D02*
X006100Y021919D01*
D18*
X005894Y017906D02*
X001944Y017906D01*
X001944Y018693D02*
X003900Y018693D01*
X005150Y016400D02*
X007525Y014025D01*
X007525Y012650D01*
X008650Y014150D02*
X008650Y003650D01*
X009150Y003150D02*
X008650Y002650D01*
X009150Y003150D02*
X009150Y014650D01*
X005894Y017906D01*
X005681Y017119D02*
X001944Y017119D01*
X005775Y014150D02*
X004900Y013275D01*
X005775Y014150D02*
X006150Y014150D01*
X008650Y014150D02*
X005681Y017119D01*
X009650Y009150D02*
X009650Y006275D01*
X008150Y006775D02*
X007150Y007775D01*
X006650Y007900D02*
X007400Y008650D01*
X008150Y008650D01*
X006650Y007650D02*
X007650Y006650D01*
X007650Y006150D01*
X006650Y005400D02*
X007150Y004900D01*
X006650Y005400D02*
X006650Y007025D01*
X006650Y007650D02*
X006650Y007900D01*
X005650Y004650D02*
X006650Y003650D01*
X005650Y004650D02*
X004400Y004650D01*
X003150Y003150D02*
X003150Y002400D01*
X003150Y003150D02*
X002650Y003650D01*
D19*
X003400Y002150D02*
X005150Y002150D01*
X005650Y001650D01*
D20*
X004650Y002650D02*
X005150Y003150D01*
X006900Y003150D01*
X007150Y003400D01*
X007150Y003900D01*
X007525Y004275D01*
X007900Y004275D01*
X008150Y004525D01*
X008150Y005470D01*
X008650Y003650D02*
X008150Y003150D01*
X007400Y003150D01*
X007150Y002900D01*
X007150Y002150D01*
X006650Y001650D01*
X009025Y001025D02*
X010150Y002150D01*
X010150Y003150D01*
X009650Y003650D01*
X009025Y001025D02*
X003275Y001025D01*
X002650Y001650D01*
X002650Y002650D01*
X003150Y002400D02*
X003400Y002150D01*
X004650Y013150D02*
X004750Y013250D01*
X004900Y013275D01*
X004900Y013250D02*
X004750Y013250D01*
M02*
