G75*
G70*
%OFA0B0*%
%FSLAX24Y24*%
%IPPOS*%
%LPD*%
%AMOC8*
5,1,8,0,0,1.08239X$1,22.5*
%
%ADD10C,0.0050*%
D10*
X003200Y007750D02*
X006200Y007750D01*
X007400Y008950D01*
X007400Y011350D01*
X006200Y012550D01*
X003200Y012550D01*
X003232Y012445D02*
X003232Y012175D01*
X003277Y012175D02*
X003187Y012175D01*
X003080Y012175D02*
X002990Y012175D01*
X003035Y012175D02*
X003035Y012445D01*
X003080Y012445D01*
X003232Y012445D02*
X003277Y012445D01*
X003391Y012310D02*
X003391Y012265D01*
X003571Y012265D01*
X003571Y012220D02*
X003571Y012310D01*
X003526Y012355D01*
X003436Y012355D01*
X003391Y012310D01*
X003436Y012175D02*
X003526Y012175D01*
X003571Y012220D01*
X003686Y012175D02*
X003821Y012175D01*
X003866Y012220D01*
X003866Y012310D01*
X003821Y012355D01*
X003686Y012355D01*
X003767Y011945D02*
X003767Y011675D01*
X003857Y011675D02*
X003677Y011675D01*
X003562Y011675D02*
X003382Y011855D01*
X003382Y011900D01*
X003427Y011945D01*
X003517Y011945D01*
X003562Y011900D01*
X003562Y011675D02*
X003382Y011675D01*
X003268Y011675D02*
X003088Y011855D01*
X003088Y011900D01*
X003133Y011945D01*
X003223Y011945D01*
X003268Y011900D01*
X003268Y011675D02*
X003088Y011675D01*
X002300Y011650D02*
X002302Y011709D01*
X002308Y011767D01*
X002317Y011826D01*
X002331Y011883D01*
X002348Y011939D01*
X002369Y011994D01*
X002393Y012048D01*
X002421Y012100D01*
X002452Y012150D01*
X002486Y012198D01*
X002523Y012243D01*
X002564Y012286D01*
X002607Y012327D01*
X002652Y012364D01*
X002700Y012398D01*
X002750Y012429D01*
X002802Y012457D01*
X002856Y012481D01*
X002911Y012502D01*
X002967Y012519D01*
X003024Y012533D01*
X003083Y012542D01*
X003141Y012548D01*
X003200Y012550D01*
X002928Y011945D02*
X002838Y011945D01*
X002793Y011900D01*
X002973Y011720D01*
X002928Y011675D01*
X002838Y011675D01*
X002793Y011720D01*
X002793Y011900D01*
X002928Y011945D02*
X002973Y011900D01*
X002973Y011720D01*
X002955Y011490D02*
X002955Y011445D01*
X002955Y011355D02*
X002955Y011175D01*
X003000Y011175D02*
X002910Y011175D01*
X002803Y011175D02*
X002668Y011175D01*
X002623Y011220D01*
X002623Y011310D01*
X002668Y011355D01*
X002803Y011355D01*
X002803Y011085D01*
X002955Y011355D02*
X003000Y011355D01*
X003151Y011445D02*
X003151Y011175D01*
X003196Y011175D02*
X003106Y011175D01*
X003311Y011175D02*
X003446Y011175D01*
X003491Y011220D01*
X003491Y011310D01*
X003446Y011355D01*
X003311Y011355D01*
X003196Y011445D02*
X003151Y011445D01*
X003767Y011945D02*
X003857Y011855D01*
X003972Y011810D02*
X004017Y011765D01*
X004152Y011765D01*
X004152Y011675D02*
X004152Y011945D01*
X004017Y011945D01*
X003972Y011900D01*
X003972Y011810D01*
X004062Y011765D02*
X003972Y011675D01*
X004035Y011355D02*
X003900Y011355D01*
X003945Y011265D02*
X004035Y011265D01*
X004080Y011310D01*
X004035Y011355D01*
X003945Y011265D02*
X003900Y011220D01*
X003945Y011175D01*
X004080Y011175D01*
X004195Y011265D02*
X004375Y011265D01*
X004375Y011220D02*
X004375Y011310D01*
X004330Y011355D01*
X004240Y011355D01*
X004195Y011310D01*
X004195Y011265D01*
X004240Y011175D02*
X004330Y011175D01*
X004375Y011220D01*
X004489Y011175D02*
X004625Y011175D01*
X004670Y011220D01*
X004670Y011310D01*
X004625Y011355D01*
X004489Y011355D01*
X004401Y011675D02*
X004311Y011675D01*
X004266Y011720D01*
X004401Y011675D02*
X004446Y011720D01*
X004446Y011900D01*
X004401Y011945D01*
X004311Y011945D01*
X004266Y011900D01*
X004275Y012175D02*
X004275Y012310D01*
X004320Y012355D01*
X004455Y012355D01*
X004455Y012175D01*
X004562Y012175D02*
X004652Y012175D01*
X004607Y012175D02*
X004607Y012355D01*
X004652Y012355D01*
X004607Y012445D02*
X004607Y012490D01*
X004766Y012310D02*
X004811Y012355D01*
X004901Y012355D01*
X004946Y012310D01*
X004946Y012220D01*
X004901Y012175D01*
X004811Y012175D01*
X004766Y012220D01*
X004766Y012310D01*
X004901Y011855D02*
X004856Y011810D01*
X004856Y011765D01*
X005036Y011765D01*
X005036Y011720D02*
X005036Y011810D01*
X004991Y011855D01*
X004901Y011855D01*
X004901Y011675D02*
X004991Y011675D01*
X005036Y011720D01*
X005150Y011720D02*
X005195Y011765D01*
X005285Y011765D01*
X005330Y011810D01*
X005285Y011855D01*
X005150Y011855D01*
X005150Y011720D02*
X005195Y011675D01*
X005330Y011675D01*
X005445Y011720D02*
X005445Y011945D01*
X005625Y011945D02*
X005625Y011720D01*
X005580Y011675D01*
X005490Y011675D01*
X005445Y011720D01*
X005615Y011355D02*
X005570Y011310D01*
X005570Y011265D01*
X005750Y011265D01*
X005750Y011220D02*
X005750Y011310D01*
X005705Y011355D01*
X005615Y011355D01*
X005615Y011175D02*
X005705Y011175D01*
X005750Y011220D01*
X005864Y011175D02*
X005864Y011445D01*
X005864Y011355D02*
X006000Y011355D01*
X006045Y011310D01*
X006045Y011220D01*
X006000Y011175D01*
X005864Y011175D01*
X006151Y011175D02*
X006241Y011175D01*
X006196Y011175D02*
X006196Y011355D01*
X006241Y011355D01*
X006196Y011445D02*
X006196Y011490D01*
X006356Y011355D02*
X006491Y011355D01*
X006536Y011310D01*
X006491Y011265D01*
X006401Y011265D01*
X006356Y011220D01*
X006401Y011175D01*
X006536Y011175D01*
X006945Y011310D02*
X007125Y011310D01*
X007035Y011400D02*
X007035Y011220D01*
X006080Y012175D02*
X006125Y012220D01*
X006080Y012175D02*
X005990Y012175D01*
X005945Y012220D01*
X005945Y012265D01*
X005990Y012310D01*
X006035Y012310D01*
X005990Y012310D02*
X005945Y012355D01*
X005945Y012400D01*
X005990Y012445D01*
X006080Y012445D01*
X006125Y012400D01*
X005830Y012445D02*
X005830Y012265D01*
X005740Y012175D01*
X005650Y012265D01*
X005650Y012445D01*
X005241Y012310D02*
X005241Y012220D01*
X005196Y012175D01*
X005061Y012175D01*
X005061Y012355D02*
X005196Y012355D01*
X005241Y012310D01*
X005071Y011445D02*
X005116Y011400D01*
X005116Y011175D01*
X005161Y011310D02*
X005071Y011310D01*
X004964Y011220D02*
X004919Y011265D01*
X004784Y011265D01*
X004784Y011310D02*
X004784Y011175D01*
X004919Y011175D01*
X004964Y011220D01*
X004919Y011355D02*
X004829Y011355D01*
X004784Y011310D01*
X002300Y008650D02*
X002302Y008591D01*
X002308Y008533D01*
X002317Y008474D01*
X002331Y008417D01*
X002348Y008361D01*
X002369Y008306D01*
X002393Y008252D01*
X002421Y008200D01*
X002452Y008150D01*
X002486Y008102D01*
X002523Y008057D01*
X002564Y008014D01*
X002607Y007973D01*
X002652Y007936D01*
X002700Y007902D01*
X002750Y007871D01*
X002802Y007843D01*
X002856Y007819D01*
X002911Y007798D01*
X002967Y007781D01*
X003024Y007767D01*
X003083Y007758D01*
X003141Y007752D01*
X003200Y007750D01*
X002300Y008650D02*
X002300Y011650D01*
M02*
