%
M48
M72
T01C0.0236
T02C0.0276
T03C0.0320
T04C0.0400
%
T01
X4401Y3651
X6651Y6026
X7276Y6776
X8151Y7401
X8151Y5901
X7651Y5151
X8151Y4596
X7151Y3651
X9776Y5401
X9776Y7901
X7526Y11651
X6151Y13151
X5151Y15401
X3901Y17694
T02
X1820Y17694
X1820Y16907
X1820Y16120
X1820Y15332
X1820Y14545
X1820Y13757
X1820Y12970
X1820Y12183
X1820Y11395
X1820Y10608
X10482Y10608
X10482Y11395
X10482Y12183
X10482Y12970
X10482Y13757
X10482Y14545
X10482Y15332
X10482Y16120
X10482Y16907
X10482Y17694
T03
X4651Y13151
X3651Y13151
T04
X2651Y1651
X2651Y2651
X3651Y2651
X3651Y1651
X4651Y1651
X4651Y2651
X5651Y2651
X5651Y1651
X6651Y1651
X6651Y2651
X7651Y2651
X7651Y1651
X8651Y1651
X8651Y2651
X9651Y2651
X9651Y1651
X9151Y21331
X9151Y22331
X8151Y22331
X8151Y21331
X7151Y21331
X7151Y22331
X6151Y22331
X6151Y21331
X5151Y21331
X5151Y22331
X4151Y22331
X4151Y21331
X3151Y21331
X3151Y22331
M30
