G75*
G70*
%OFA0B0*%
%FSLAX24Y24*%
%IPPOS*%
%LPD*%
%AMOC8*
5,1,8,0,0,1.08239X$1,22.5*
%
%ADD10C,0.0000*%
%ADD11OC8,0.0640*%
%ADD12C,0.0516*%
%ADD13R,0.0748X0.0551*%
%ADD14R,0.0551X0.0709*%
%ADD15R,0.0591X0.0276*%
%ADD16R,0.0236X0.0866*%
%ADD17C,0.0660*%
%ADD18R,0.0630X0.0512*%
%ADD19R,0.0512X0.0630*%
%ADD20R,0.0500X0.0500*%
%ADD21C,0.0760*%
%ADD22C,0.0436*%
%ADD23C,0.0100*%
%ADD24C,0.0160*%
%ADD25C,0.0120*%
%ADD26C,0.0080*%
D10*
X000650Y002150D02*
X000650Y022650D01*
X000652Y022726D01*
X000658Y022802D01*
X000667Y022877D01*
X000681Y022952D01*
X000698Y023026D01*
X000719Y023099D01*
X000743Y023171D01*
X000772Y023242D01*
X000803Y023311D01*
X000838Y023378D01*
X000877Y023443D01*
X000919Y023507D01*
X000964Y023568D01*
X001012Y023627D01*
X001063Y023683D01*
X001117Y023737D01*
X001173Y023788D01*
X001232Y023836D01*
X001293Y023881D01*
X001357Y023923D01*
X001422Y023962D01*
X001489Y023997D01*
X001558Y024028D01*
X001629Y024057D01*
X001701Y024081D01*
X001774Y024102D01*
X001848Y024119D01*
X001923Y024133D01*
X001998Y024142D01*
X002074Y024148D01*
X002150Y024150D01*
X010150Y024150D01*
X010226Y024148D01*
X010302Y024142D01*
X010377Y024133D01*
X010452Y024119D01*
X010526Y024102D01*
X010599Y024081D01*
X010671Y024057D01*
X010742Y024028D01*
X010811Y023997D01*
X010878Y023962D01*
X010943Y023923D01*
X011007Y023881D01*
X011068Y023836D01*
X011127Y023788D01*
X011183Y023737D01*
X011237Y023683D01*
X011288Y023627D01*
X011336Y023568D01*
X011381Y023507D01*
X011423Y023443D01*
X011462Y023378D01*
X011497Y023311D01*
X011528Y023242D01*
X011557Y023171D01*
X011581Y023099D01*
X011602Y023026D01*
X011619Y022952D01*
X011633Y022877D01*
X011642Y022802D01*
X011648Y022726D01*
X011650Y022650D01*
X011650Y002150D01*
X011648Y002074D01*
X011642Y001998D01*
X011633Y001923D01*
X011619Y001848D01*
X011602Y001774D01*
X011581Y001701D01*
X011557Y001629D01*
X011528Y001558D01*
X011497Y001489D01*
X011462Y001422D01*
X011423Y001357D01*
X011381Y001293D01*
X011336Y001232D01*
X011288Y001173D01*
X011237Y001117D01*
X011183Y001063D01*
X011127Y001012D01*
X011068Y000964D01*
X011007Y000919D01*
X010943Y000877D01*
X010878Y000838D01*
X010811Y000803D01*
X010742Y000772D01*
X010671Y000743D01*
X010599Y000719D01*
X010526Y000698D01*
X010452Y000681D01*
X010377Y000667D01*
X010302Y000658D01*
X010226Y000652D01*
X010150Y000650D01*
X002150Y000650D01*
X002074Y000652D01*
X001998Y000658D01*
X001923Y000667D01*
X001848Y000681D01*
X001774Y000698D01*
X001701Y000719D01*
X001629Y000743D01*
X001558Y000772D01*
X001489Y000803D01*
X001422Y000838D01*
X001357Y000877D01*
X001293Y000919D01*
X001232Y000964D01*
X001173Y001012D01*
X001117Y001063D01*
X001063Y001117D01*
X001012Y001173D01*
X000964Y001232D01*
X000919Y001293D01*
X000877Y001357D01*
X000838Y001422D01*
X000803Y001489D01*
X000772Y001558D01*
X000743Y001629D01*
X000719Y001701D01*
X000698Y001774D01*
X000681Y001848D01*
X000667Y001923D01*
X000658Y001998D01*
X000652Y002074D01*
X000650Y002150D01*
D11*
X002650Y002650D03*
X002650Y003650D03*
X003650Y003650D03*
X003650Y002650D03*
X004650Y002650D03*
X004650Y003650D03*
X005650Y003650D03*
X005650Y002650D03*
X006650Y002650D03*
X006650Y003650D03*
X007650Y003650D03*
X007650Y002650D03*
X008650Y002650D03*
X008650Y003650D03*
X009650Y003650D03*
X009650Y002650D03*
X009150Y022330D03*
X009150Y023330D03*
X008150Y023330D03*
X008150Y022330D03*
X007150Y022330D03*
X007150Y023330D03*
X006150Y023330D03*
X006150Y022330D03*
X005150Y022330D03*
X005150Y023330D03*
X004150Y023330D03*
X004150Y022330D03*
X003150Y022330D03*
X003150Y023330D03*
D12*
X001944Y018693D03*
X001944Y017906D03*
X001944Y017119D03*
X001944Y016331D03*
X001944Y015544D03*
X001944Y014756D03*
X001944Y013969D03*
X001944Y013181D03*
X001944Y012394D03*
X001944Y011607D03*
X010606Y011607D03*
X010606Y012394D03*
X010606Y013181D03*
X010606Y013969D03*
X010606Y014756D03*
X010606Y015544D03*
X010606Y016331D03*
X010606Y017119D03*
X010606Y017906D03*
X010606Y018693D03*
D13*
X010335Y009879D03*
X009981Y004682D03*
D14*
X004823Y005312D03*
X004823Y007675D03*
D15*
X008681Y007635D03*
X008839Y007202D03*
X008996Y006769D03*
X008839Y006336D03*
X008996Y005903D03*
X008839Y005470D03*
X008839Y005037D03*
X008839Y008068D03*
D16*
X008150Y015126D03*
X007650Y015126D03*
X007150Y015126D03*
X006650Y015126D03*
X006150Y015126D03*
X005650Y015126D03*
X005150Y015126D03*
X005150Y017174D03*
X005650Y017174D03*
X006150Y017174D03*
X006650Y017174D03*
X007150Y017174D03*
X007650Y017174D03*
X008150Y017174D03*
D17*
X004525Y014525D03*
X003525Y014525D03*
D18*
X003150Y015776D03*
X003150Y016524D03*
X005150Y018256D03*
X005150Y019044D03*
X007650Y014024D03*
X007650Y013276D03*
X009150Y018276D03*
X009150Y019024D03*
X010775Y004044D03*
X010775Y003256D03*
X001525Y002524D03*
X001525Y001776D03*
D19*
X002776Y004650D03*
X003524Y004650D03*
X009651Y001650D03*
X010399Y001650D03*
D20*
X002050Y020150D03*
X002050Y021150D03*
X001250Y021150D03*
X001250Y020150D03*
D21*
X003650Y001650D03*
X004650Y001650D03*
X005650Y001650D03*
X006650Y001650D03*
X007650Y001650D03*
X008650Y001650D03*
D22*
X007150Y004900D03*
X007650Y006150D03*
X008150Y006775D03*
X008150Y005470D03*
X007150Y007775D03*
X006650Y007025D03*
X008150Y008650D03*
X009650Y009150D03*
X009650Y006275D03*
X010275Y005650D03*
X010900Y002400D03*
X007525Y012650D03*
X006150Y014150D03*
X005150Y016400D03*
X003900Y018693D03*
X004400Y004650D03*
D23*
X001080Y001726D02*
X000878Y001726D01*
X000903Y001633D02*
X000812Y001974D01*
X000800Y002150D01*
X000800Y022650D01*
X000812Y022826D01*
X000903Y023167D01*
X001079Y023472D01*
X001328Y023721D01*
X001633Y023897D01*
X001974Y023988D01*
X002150Y024000D01*
X010150Y024000D01*
X010326Y023988D01*
X010667Y023897D01*
X010972Y023721D01*
X011221Y023472D01*
X011397Y023167D01*
X011488Y022826D01*
X011500Y022650D01*
X011500Y002150D01*
X011488Y001974D01*
X011397Y001633D01*
X011221Y001328D01*
X010972Y001079D01*
X010667Y000903D01*
X010326Y000812D01*
X010150Y000800D01*
X002150Y000800D01*
X001974Y000812D01*
X001633Y000903D01*
X001328Y001079D01*
X001079Y001328D01*
X000903Y001633D01*
X000906Y001628D02*
X001080Y001628D01*
X001080Y001529D02*
X000963Y001529D01*
X001020Y001431D02*
X001116Y001431D01*
X001080Y001466D02*
X001156Y001390D01*
X001894Y001390D01*
X001970Y001466D01*
X001970Y001586D01*
X002855Y001586D01*
X003197Y001929D01*
X003197Y001928D01*
X003159Y001853D01*
X003133Y001774D01*
X003121Y001698D01*
X003602Y001698D01*
X003602Y001602D01*
X003698Y001602D01*
X003698Y001121D01*
X003774Y001133D01*
X003853Y001159D01*
X003928Y001197D01*
X003995Y001246D01*
X004054Y001305D01*
X004103Y001372D01*
X004141Y001447D01*
X004159Y001502D01*
X004218Y001361D01*
X004361Y001218D01*
X004549Y001140D01*
X004751Y001140D01*
X004939Y001218D01*
X005082Y001361D01*
X005150Y001524D01*
X005218Y001361D01*
X005361Y001218D01*
X005549Y001140D01*
X005751Y001140D01*
X005939Y001218D01*
X006082Y001361D01*
X006150Y001524D01*
X006218Y001361D01*
X006361Y001218D01*
X006549Y001140D01*
X006751Y001140D01*
X006939Y001218D01*
X007082Y001361D01*
X007150Y001524D01*
X007218Y001361D01*
X007361Y001218D01*
X007549Y001140D01*
X007751Y001140D01*
X007830Y001173D01*
X008065Y000938D01*
X001572Y000938D01*
X001402Y001037D02*
X007967Y001037D01*
X008065Y000938D02*
X008188Y000815D01*
X009237Y000815D01*
X009627Y001205D01*
X009961Y001205D01*
X010025Y001269D01*
X010089Y001205D01*
X010709Y001205D01*
X010785Y001281D01*
X010785Y002019D01*
X010709Y002095D01*
X010610Y002095D01*
X010610Y002737D01*
X010497Y002850D01*
X010725Y002850D01*
X010725Y003206D01*
X010825Y003206D01*
X010825Y002850D01*
X011110Y002850D01*
X011148Y002861D01*
X011182Y002880D01*
X011210Y002908D01*
X011230Y002942D01*
X011240Y002981D01*
X011240Y003206D01*
X010825Y003206D01*
X010825Y003306D01*
X011240Y003306D01*
X011240Y003532D01*
X011230Y003570D01*
X011210Y003604D01*
X011182Y003632D01*
X011148Y003652D01*
X011126Y003658D01*
X011144Y003658D01*
X011220Y003734D01*
X011220Y004353D01*
X011144Y004430D01*
X010985Y004430D01*
X010985Y006112D01*
X010862Y006235D01*
X010241Y006856D01*
X010118Y006979D01*
X009403Y006979D01*
X009346Y007037D01*
X009264Y007037D01*
X009264Y007092D01*
X009610Y007438D01*
X009610Y008612D01*
X009487Y008735D01*
X009110Y009112D01*
X009110Y009393D01*
X009302Y009201D01*
X009302Y009081D01*
X009355Y008953D01*
X009453Y008855D01*
X009581Y008802D01*
X009719Y008802D01*
X009847Y008855D01*
X009945Y008953D01*
X009998Y009081D01*
X009998Y009219D01*
X009945Y009347D01*
X009847Y009445D01*
X009719Y009498D01*
X009599Y009498D01*
X009360Y009737D01*
X009360Y016362D01*
X009237Y016485D01*
X008398Y017324D01*
X008398Y017661D01*
X008322Y017737D01*
X007978Y017737D01*
X007902Y017661D01*
X007902Y016695D01*
X007898Y016699D01*
X007898Y017661D01*
X007822Y017737D01*
X007478Y017737D01*
X007402Y017661D01*
X007402Y016695D01*
X007398Y016699D01*
X007398Y017661D01*
X007322Y017737D01*
X006978Y017737D01*
X006902Y017661D01*
X006902Y016687D01*
X006940Y016649D01*
X006940Y016563D01*
X007063Y016440D01*
X007063Y016440D01*
X007440Y016063D01*
X007563Y015940D01*
X008313Y015940D01*
X008440Y015813D01*
X008440Y009237D01*
X008201Y008998D01*
X008081Y008998D01*
X007953Y008945D01*
X007855Y008847D01*
X007802Y008719D01*
X007802Y008581D01*
X007855Y008453D01*
X007953Y008355D01*
X008081Y008302D01*
X008219Y008302D01*
X008347Y008355D01*
X008445Y008453D01*
X008498Y008581D01*
X008498Y008701D01*
X008712Y008916D01*
X009190Y008438D01*
X009190Y008334D01*
X009188Y008336D01*
X008490Y008336D01*
X008414Y008260D01*
X008414Y007903D01*
X008332Y007903D01*
X008275Y007845D01*
X007923Y007845D01*
X007800Y007722D01*
X006973Y006895D01*
X006998Y006956D01*
X006998Y007094D01*
X006945Y007222D01*
X006860Y007307D01*
X006860Y007573D01*
X006953Y007480D01*
X007081Y007427D01*
X007219Y007427D01*
X007347Y007480D01*
X007445Y007578D01*
X007498Y007706D01*
X007498Y007826D01*
X007612Y007940D01*
X007735Y008063D01*
X007735Y012368D01*
X007820Y012453D01*
X007873Y012581D01*
X007873Y012719D01*
X007820Y012847D01*
X007777Y012890D01*
X008019Y012890D01*
X008095Y012966D01*
X008095Y013586D01*
X008031Y013650D01*
X008095Y013714D01*
X008095Y014334D01*
X008019Y014410D01*
X007860Y014410D01*
X007860Y014601D01*
X007893Y014634D01*
X007912Y014601D01*
X007940Y014573D01*
X007974Y014554D01*
X008012Y014543D01*
X008141Y014543D01*
X008141Y015117D01*
X008159Y015117D01*
X008159Y014543D01*
X008288Y014543D01*
X008326Y014554D01*
X008360Y014573D01*
X008388Y014601D01*
X008408Y014635D01*
X008418Y014674D01*
X008418Y015117D01*
X008159Y015117D01*
X008159Y015135D01*
X008418Y015135D01*
X008418Y015579D01*
X008408Y015617D01*
X008388Y015652D01*
X008360Y015679D01*
X008326Y015699D01*
X008288Y015709D01*
X008159Y015709D01*
X008159Y015135D01*
X008141Y015135D01*
X008141Y015709D01*
X008012Y015709D01*
X007974Y015699D01*
X007940Y015679D01*
X007912Y015652D01*
X007893Y015619D01*
X007822Y015689D01*
X007478Y015689D01*
X007402Y015613D01*
X007402Y014639D01*
X007440Y014601D01*
X007440Y014410D01*
X007281Y014410D01*
X007205Y014334D01*
X007205Y014234D01*
X006812Y014234D01*
X006563Y013985D01*
X006440Y013862D01*
X006440Y007307D01*
X006355Y007222D01*
X006302Y007094D01*
X006302Y006956D01*
X006355Y006828D01*
X006453Y006730D01*
X006581Y006677D01*
X006719Y006677D01*
X006780Y006702D01*
X005229Y005151D01*
X005229Y005721D01*
X005153Y005797D01*
X004494Y005797D01*
X004418Y005721D01*
X004418Y004998D01*
X004331Y004998D01*
X004203Y004945D01*
X004118Y004860D01*
X003910Y004860D01*
X003910Y005019D01*
X003834Y005095D01*
X003214Y005095D01*
X003150Y005031D01*
X003086Y005095D01*
X002466Y005095D01*
X002390Y005019D01*
X002390Y004860D01*
X002063Y004860D01*
X001813Y004610D01*
X001690Y004487D01*
X001690Y003313D01*
X002200Y002803D01*
X002200Y002464D01*
X002464Y002200D01*
X002836Y002200D01*
X003100Y002464D01*
X003100Y002836D01*
X002836Y003100D01*
X002497Y003100D01*
X002110Y003487D01*
X002110Y004313D01*
X002237Y004440D01*
X002390Y004440D01*
X002390Y004281D01*
X002466Y004205D01*
X003086Y004205D01*
X003150Y004269D01*
X003214Y004205D01*
X003834Y004205D01*
X003910Y004281D01*
X003910Y004440D01*
X004118Y004440D01*
X004203Y004355D01*
X004331Y004302D01*
X004469Y004302D01*
X004597Y004355D01*
X004682Y004440D01*
X005112Y004440D01*
X005235Y004563D01*
X005440Y004768D01*
X005440Y004076D01*
X005200Y003836D01*
X005200Y003464D01*
X005464Y003200D01*
X005836Y003200D01*
X005940Y003304D01*
X005940Y003237D01*
X005803Y003100D01*
X005464Y003100D01*
X005200Y002836D01*
X005200Y002464D01*
X005344Y002320D01*
X004956Y002320D01*
X005100Y002464D01*
X005100Y002836D01*
X004836Y003100D01*
X004464Y003100D01*
X004200Y002836D01*
X004200Y002464D01*
X004344Y002320D01*
X003956Y002320D01*
X004100Y002464D01*
X004100Y002836D01*
X003836Y003100D01*
X003464Y003100D01*
X003200Y002836D01*
X003200Y002464D01*
X003344Y002320D01*
X003249Y002320D01*
X003229Y002340D01*
X003071Y002340D01*
X002697Y001966D01*
X001970Y001966D01*
X001970Y002086D01*
X001917Y002139D01*
X001932Y002148D01*
X001960Y002176D01*
X001980Y002210D01*
X001990Y002248D01*
X001990Y002474D01*
X001575Y002474D01*
X001575Y002574D01*
X001990Y002574D01*
X001990Y002800D01*
X001980Y002838D01*
X001960Y002872D01*
X001932Y002900D01*
X001898Y002920D01*
X001860Y002930D01*
X001575Y002930D01*
X001575Y002574D01*
X001475Y002574D01*
X001475Y002474D01*
X001060Y002474D01*
X001060Y002248D01*
X001070Y002210D01*
X001090Y002176D01*
X001118Y002148D01*
X001133Y002139D01*
X001080Y002086D01*
X001080Y001466D01*
X001077Y001332D02*
X003226Y001332D01*
X003246Y001305D02*
X003305Y001246D01*
X003372Y001197D01*
X003447Y001159D01*
X003526Y001133D01*
X003602Y001121D01*
X003602Y001602D01*
X003121Y001602D01*
X003133Y001526D01*
X003159Y001447D01*
X003197Y001372D01*
X003246Y001305D01*
X003322Y001234D02*
X001174Y001234D01*
X001272Y001135D02*
X003520Y001135D01*
X003602Y001135D02*
X003698Y001135D01*
X003780Y001135D02*
X007868Y001135D01*
X008164Y000840D02*
X001869Y000840D01*
X001934Y001431D02*
X003167Y001431D01*
X003133Y001529D02*
X001970Y001529D01*
X001970Y002022D02*
X002753Y002022D01*
X002851Y002120D02*
X001936Y002120D01*
X001982Y002219D02*
X002445Y002219D01*
X002347Y002317D02*
X001990Y002317D01*
X001990Y002416D02*
X002248Y002416D01*
X002200Y002514D02*
X001575Y002514D01*
X001575Y002613D02*
X001475Y002613D01*
X001475Y002574D02*
X001475Y002930D01*
X001190Y002930D01*
X001152Y002920D01*
X001118Y002900D01*
X001090Y002872D01*
X001070Y002838D01*
X001060Y002800D01*
X001060Y002574D01*
X001475Y002574D01*
X001475Y002514D02*
X000800Y002514D01*
X000800Y002416D02*
X001060Y002416D01*
X001060Y002317D02*
X000800Y002317D01*
X000800Y002219D02*
X001068Y002219D01*
X001114Y002120D02*
X000802Y002120D01*
X000808Y002022D02*
X001080Y002022D01*
X001080Y001923D02*
X000825Y001923D01*
X000852Y001825D02*
X001080Y001825D01*
X001060Y002613D02*
X000800Y002613D01*
X000800Y002711D02*
X001060Y002711D01*
X001063Y002810D02*
X000800Y002810D01*
X000800Y002908D02*
X001132Y002908D01*
X000800Y003007D02*
X001997Y003007D01*
X001918Y002908D02*
X002095Y002908D01*
X002194Y002810D02*
X001987Y002810D01*
X001990Y002711D02*
X002200Y002711D01*
X002200Y002613D02*
X001990Y002613D01*
X001898Y003105D02*
X000800Y003105D01*
X000800Y003204D02*
X001800Y003204D01*
X001701Y003302D02*
X000800Y003302D01*
X000800Y003401D02*
X001690Y003401D01*
X001690Y003499D02*
X000800Y003499D01*
X000800Y003598D02*
X001690Y003598D01*
X001690Y003696D02*
X000800Y003696D01*
X000800Y003795D02*
X001690Y003795D01*
X001690Y003893D02*
X000800Y003893D01*
X000800Y003992D02*
X001690Y003992D01*
X001690Y004090D02*
X000800Y004090D01*
X000800Y004189D02*
X001690Y004189D01*
X001690Y004287D02*
X000800Y004287D01*
X000800Y004386D02*
X001690Y004386D01*
X001690Y004484D02*
X000800Y004484D01*
X000800Y004583D02*
X001786Y004583D01*
X001884Y004681D02*
X000800Y004681D01*
X000800Y004780D02*
X001983Y004780D01*
X002182Y004386D02*
X002390Y004386D01*
X002390Y004287D02*
X002110Y004287D01*
X002110Y004189D02*
X005440Y004189D01*
X005440Y004287D02*
X003910Y004287D01*
X003910Y004386D02*
X004172Y004386D01*
X004327Y003992D02*
X003973Y003992D01*
X003875Y004090D02*
X004425Y004090D01*
X004455Y004120D02*
X004180Y003845D01*
X004180Y003700D01*
X004600Y003700D01*
X004600Y004120D01*
X004455Y004120D01*
X004600Y004090D02*
X004700Y004090D01*
X004700Y004120D02*
X004845Y004120D01*
X005120Y003845D01*
X005120Y003700D01*
X004700Y003700D01*
X004700Y003600D01*
X005120Y003600D01*
X005120Y003455D01*
X004845Y003180D01*
X004700Y003180D01*
X004700Y003600D01*
X004600Y003600D01*
X004600Y003180D01*
X004455Y003180D01*
X004180Y003455D01*
X004180Y003600D01*
X004600Y003600D01*
X004600Y003700D01*
X004700Y003700D01*
X004700Y004120D01*
X004700Y003992D02*
X004600Y003992D01*
X004600Y003893D02*
X004700Y003893D01*
X004700Y003795D02*
X004600Y003795D01*
X004600Y003696D02*
X003700Y003696D01*
X003700Y003700D02*
X004120Y003700D01*
X004120Y003845D01*
X003845Y004120D01*
X003700Y004120D01*
X003700Y003700D01*
X003700Y003600D01*
X004120Y003600D01*
X004120Y003455D01*
X003845Y003180D01*
X003700Y003180D01*
X003700Y003600D01*
X003600Y003600D01*
X003600Y003180D01*
X003455Y003180D01*
X003180Y003455D01*
X003180Y003600D01*
X003600Y003600D01*
X003600Y003700D01*
X003600Y004120D01*
X003455Y004120D01*
X003180Y003845D01*
X003180Y003700D01*
X003600Y003700D01*
X003700Y003700D01*
X003700Y003795D02*
X003600Y003795D01*
X003600Y003893D02*
X003700Y003893D01*
X003700Y003992D02*
X003600Y003992D01*
X003600Y004090D02*
X003700Y004090D01*
X003425Y004090D02*
X002846Y004090D01*
X002836Y004100D02*
X002464Y004100D01*
X002200Y003836D01*
X002200Y003464D01*
X002464Y003200D01*
X002836Y003200D01*
X003100Y003464D01*
X003100Y003836D01*
X002836Y004100D01*
X002945Y003992D02*
X003327Y003992D01*
X003228Y003893D02*
X003043Y003893D01*
X003100Y003795D02*
X003180Y003795D01*
X003100Y003696D02*
X003600Y003696D01*
X003600Y003598D02*
X003700Y003598D01*
X003700Y003499D02*
X003600Y003499D01*
X003600Y003401D02*
X003700Y003401D01*
X003700Y003302D02*
X003600Y003302D01*
X003600Y003204D02*
X003700Y003204D01*
X003868Y003204D02*
X004432Y003204D01*
X004333Y003302D02*
X003967Y003302D01*
X004065Y003401D02*
X004235Y003401D01*
X004180Y003499D02*
X004120Y003499D01*
X004120Y003598D02*
X004180Y003598D01*
X004180Y003795D02*
X004120Y003795D01*
X004072Y003893D02*
X004228Y003893D01*
X004600Y003598D02*
X004700Y003598D01*
X004700Y003696D02*
X005200Y003696D01*
X005200Y003598D02*
X005120Y003598D01*
X005120Y003499D02*
X005200Y003499D01*
X005263Y003401D02*
X005065Y003401D01*
X004967Y003302D02*
X005362Y003302D01*
X005460Y003204D02*
X004868Y003204D01*
X004700Y003204D02*
X004600Y003204D01*
X004600Y003302D02*
X004700Y003302D01*
X004700Y003401D02*
X004600Y003401D01*
X004600Y003499D02*
X004700Y003499D01*
X004930Y003007D02*
X005370Y003007D01*
X005272Y002908D02*
X005028Y002908D01*
X005100Y002810D02*
X005200Y002810D01*
X005200Y002711D02*
X005100Y002711D01*
X005100Y002613D02*
X005200Y002613D01*
X005200Y002514D02*
X005100Y002514D01*
X005052Y002416D02*
X005248Y002416D01*
X005189Y001431D02*
X005111Y001431D01*
X005053Y001332D02*
X005247Y001332D01*
X005345Y001234D02*
X004955Y001234D01*
X004345Y001234D02*
X003978Y001234D01*
X004074Y001332D02*
X004247Y001332D01*
X004189Y001431D02*
X004133Y001431D01*
X003698Y001431D02*
X003602Y001431D01*
X003602Y001529D02*
X003698Y001529D01*
X003602Y001628D02*
X002896Y001628D01*
X002995Y001726D02*
X003125Y001726D01*
X003149Y001825D02*
X003093Y001825D01*
X003192Y001923D02*
X003194Y001923D01*
X002950Y002219D02*
X002855Y002219D01*
X002953Y002317D02*
X003048Y002317D01*
X003052Y002416D02*
X003248Y002416D01*
X003200Y002514D02*
X003100Y002514D01*
X003100Y002613D02*
X003200Y002613D01*
X003200Y002711D02*
X003100Y002711D01*
X003100Y002810D02*
X003200Y002810D01*
X003272Y002908D02*
X003028Y002908D01*
X002930Y003007D02*
X003370Y003007D01*
X003432Y003204D02*
X002840Y003204D01*
X002938Y003302D02*
X003333Y003302D01*
X003235Y003401D02*
X003037Y003401D01*
X003100Y003499D02*
X003180Y003499D01*
X003180Y003598D02*
X003100Y003598D01*
X002460Y003204D02*
X002393Y003204D01*
X002362Y003302D02*
X002295Y003302D01*
X002263Y003401D02*
X002196Y003401D01*
X002200Y003499D02*
X002110Y003499D01*
X002110Y003598D02*
X002200Y003598D01*
X002200Y003696D02*
X002110Y003696D01*
X002110Y003795D02*
X002200Y003795D01*
X002257Y003893D02*
X002110Y003893D01*
X002110Y003992D02*
X002355Y003992D01*
X002454Y004090D02*
X002110Y004090D01*
X002390Y004878D02*
X000800Y004878D01*
X000800Y004977D02*
X002390Y004977D01*
X002446Y005075D02*
X000800Y005075D01*
X000800Y005174D02*
X004418Y005174D01*
X004418Y005272D02*
X000800Y005272D01*
X000800Y005371D02*
X004418Y005371D01*
X004418Y005469D02*
X000800Y005469D01*
X000800Y005568D02*
X004418Y005568D01*
X004418Y005666D02*
X000800Y005666D01*
X000800Y005765D02*
X004462Y005765D01*
X004418Y005075D02*
X003854Y005075D01*
X003910Y004977D02*
X004279Y004977D01*
X004136Y004878D02*
X003910Y004878D01*
X004628Y004386D02*
X005440Y004386D01*
X005440Y004484D02*
X005156Y004484D01*
X005254Y004583D02*
X005440Y004583D01*
X005440Y004681D02*
X005353Y004681D01*
X005252Y005174D02*
X005229Y005174D01*
X005229Y005272D02*
X005350Y005272D01*
X005449Y005371D02*
X005229Y005371D01*
X005229Y005469D02*
X005547Y005469D01*
X005646Y005568D02*
X005229Y005568D01*
X005229Y005666D02*
X005744Y005666D01*
X005843Y005765D02*
X005185Y005765D01*
X005153Y007190D02*
X005229Y007266D01*
X005229Y008083D01*
X005153Y008159D01*
X004494Y008159D01*
X004418Y008083D01*
X004418Y007266D01*
X004494Y007190D01*
X005153Y007190D01*
X005204Y007242D02*
X006375Y007242D01*
X006322Y007144D02*
X000800Y007144D01*
X000800Y007242D02*
X004442Y007242D01*
X004418Y007341D02*
X000800Y007341D01*
X000800Y007439D02*
X004418Y007439D01*
X004418Y007538D02*
X000800Y007538D01*
X000800Y007636D02*
X004418Y007636D01*
X004418Y007735D02*
X000800Y007735D01*
X000800Y007833D02*
X004418Y007833D01*
X004418Y007932D02*
X000800Y007932D01*
X000800Y008030D02*
X004418Y008030D01*
X004463Y008129D02*
X000800Y008129D01*
X000800Y008227D02*
X006440Y008227D01*
X006440Y008129D02*
X005183Y008129D01*
X005229Y008030D02*
X006440Y008030D01*
X006440Y007932D02*
X005229Y007932D01*
X005229Y007833D02*
X006440Y007833D01*
X006440Y007735D02*
X005229Y007735D01*
X005229Y007636D02*
X006440Y007636D01*
X006440Y007538D02*
X005229Y007538D01*
X005229Y007439D02*
X006440Y007439D01*
X006440Y007341D02*
X005229Y007341D01*
X006040Y005962D02*
X000800Y005962D01*
X000800Y006060D02*
X006138Y006060D01*
X006237Y006159D02*
X000800Y006159D01*
X000800Y006257D02*
X006335Y006257D01*
X006434Y006356D02*
X000800Y006356D01*
X000800Y006454D02*
X006532Y006454D01*
X006631Y006553D02*
X000800Y006553D01*
X000800Y006651D02*
X006729Y006651D01*
X006994Y006947D02*
X007025Y006947D01*
X006998Y007045D02*
X007123Y007045D01*
X007222Y007144D02*
X006978Y007144D01*
X006925Y007242D02*
X007320Y007242D01*
X007419Y007341D02*
X006860Y007341D01*
X006860Y007439D02*
X007051Y007439D01*
X006895Y007538D02*
X006860Y007538D01*
X007249Y007439D02*
X007517Y007439D01*
X007616Y007538D02*
X007405Y007538D01*
X007469Y007636D02*
X007714Y007636D01*
X007813Y007735D02*
X007498Y007735D01*
X007505Y007833D02*
X007911Y007833D01*
X007735Y008129D02*
X008414Y008129D01*
X008414Y008227D02*
X007735Y008227D01*
X007735Y008326D02*
X008024Y008326D01*
X007884Y008424D02*
X007735Y008424D01*
X007735Y008523D02*
X007826Y008523D01*
X007802Y008621D02*
X007735Y008621D01*
X007735Y008720D02*
X007802Y008720D01*
X007843Y008818D02*
X007735Y008818D01*
X007735Y008917D02*
X007924Y008917D01*
X007735Y009015D02*
X008218Y009015D01*
X008317Y009114D02*
X007735Y009114D01*
X007735Y009212D02*
X008415Y009212D01*
X008440Y009311D02*
X007735Y009311D01*
X007735Y009409D02*
X008440Y009409D01*
X008440Y009508D02*
X007735Y009508D01*
X007735Y009606D02*
X008440Y009606D01*
X008440Y009705D02*
X007735Y009705D01*
X007735Y009803D02*
X008440Y009803D01*
X008440Y009902D02*
X007735Y009902D01*
X007735Y010000D02*
X008440Y010000D01*
X008440Y010099D02*
X007735Y010099D01*
X007735Y010197D02*
X008440Y010197D01*
X008440Y010296D02*
X007735Y010296D01*
X007735Y010394D02*
X008440Y010394D01*
X008440Y010493D02*
X007735Y010493D01*
X007735Y010591D02*
X008440Y010591D01*
X008440Y010690D02*
X007735Y010690D01*
X007735Y010788D02*
X008440Y010788D01*
X008440Y010887D02*
X007735Y010887D01*
X007735Y010985D02*
X008440Y010985D01*
X008440Y011084D02*
X007735Y011084D01*
X007735Y011182D02*
X008440Y011182D01*
X008440Y011281D02*
X007735Y011281D01*
X007735Y011379D02*
X008440Y011379D01*
X008440Y011478D02*
X007735Y011478D01*
X007735Y011576D02*
X008440Y011576D01*
X008440Y011675D02*
X007735Y011675D01*
X007735Y011773D02*
X008440Y011773D01*
X008440Y011872D02*
X007735Y011872D01*
X007735Y011970D02*
X008440Y011970D01*
X008440Y012069D02*
X007735Y012069D01*
X007735Y012167D02*
X008440Y012167D01*
X008440Y012266D02*
X007735Y012266D01*
X007735Y012364D02*
X008440Y012364D01*
X008440Y012463D02*
X007824Y012463D01*
X007865Y012561D02*
X008440Y012561D01*
X008440Y012660D02*
X007873Y012660D01*
X007857Y012758D02*
X008440Y012758D01*
X008440Y012857D02*
X007811Y012857D01*
X008084Y012955D02*
X008440Y012955D01*
X008440Y013054D02*
X008095Y013054D01*
X008095Y013152D02*
X008440Y013152D01*
X008440Y013251D02*
X008095Y013251D01*
X008095Y013349D02*
X008440Y013349D01*
X008440Y013448D02*
X008095Y013448D01*
X008095Y013546D02*
X008440Y013546D01*
X008440Y013645D02*
X008036Y013645D01*
X008095Y013743D02*
X008440Y013743D01*
X008440Y013842D02*
X008095Y013842D01*
X008095Y013940D02*
X008440Y013940D01*
X008440Y014039D02*
X008095Y014039D01*
X008095Y014137D02*
X008440Y014137D01*
X008440Y014236D02*
X008095Y014236D01*
X008095Y014334D02*
X008440Y014334D01*
X008440Y014433D02*
X007860Y014433D01*
X007860Y014531D02*
X008440Y014531D01*
X008440Y014630D02*
X008404Y014630D01*
X008418Y014728D02*
X008440Y014728D01*
X008440Y014827D02*
X008418Y014827D01*
X008418Y014925D02*
X008440Y014925D01*
X008440Y015024D02*
X008418Y015024D01*
X008440Y015122D02*
X008159Y015122D01*
X008159Y015024D02*
X008141Y015024D01*
X008141Y014925D02*
X008159Y014925D01*
X008159Y014827D02*
X008141Y014827D01*
X008141Y014728D02*
X008159Y014728D01*
X008159Y014630D02*
X008141Y014630D01*
X007896Y014630D02*
X007888Y014630D01*
X008141Y015221D02*
X008159Y015221D01*
X008159Y015319D02*
X008141Y015319D01*
X008141Y015418D02*
X008159Y015418D01*
X008159Y015516D02*
X008141Y015516D01*
X008141Y015615D02*
X008159Y015615D01*
X008409Y015615D02*
X008440Y015615D01*
X008440Y015713D02*
X005860Y015713D01*
X005860Y015737D02*
X005610Y015987D01*
X005487Y016110D01*
X005352Y016110D01*
X005445Y016203D01*
X005498Y016331D01*
X005498Y016469D01*
X005445Y016597D01*
X005377Y016665D01*
X005398Y016687D01*
X005398Y017661D01*
X005360Y017699D01*
X005360Y017870D01*
X005519Y017870D01*
X005595Y017947D01*
X005595Y018566D01*
X005519Y018642D01*
X005501Y018642D01*
X005523Y018648D01*
X005557Y018668D01*
X005585Y018696D01*
X005605Y018730D01*
X005615Y018768D01*
X005615Y018994D01*
X005200Y018994D01*
X005200Y019094D01*
X005100Y019094D01*
X005100Y019450D01*
X004815Y019450D01*
X004777Y019439D01*
X004743Y019420D01*
X004715Y019392D01*
X004695Y019358D01*
X002614Y019358D01*
X002516Y019456D02*
X005547Y019456D01*
X005523Y019439D02*
X005557Y019420D01*
X005585Y019392D01*
X005605Y019358D01*
X005645Y019358D01*
X005605Y019358D02*
X005615Y019319D01*
X005615Y019094D01*
X005200Y019094D01*
X005200Y019450D01*
X005485Y019450D01*
X005523Y019439D01*
X005448Y019555D02*
X002417Y019555D01*
X002319Y019653D02*
X005350Y019653D01*
X005251Y019752D02*
X002260Y019752D01*
X002260Y019770D02*
X002354Y019770D01*
X002430Y019846D01*
X002430Y020454D01*
X002354Y020530D01*
X001746Y020530D01*
X001670Y020454D01*
X001670Y019846D01*
X001746Y019770D01*
X001840Y019770D01*
X001840Y019538D01*
X002940Y018438D01*
X002940Y016910D01*
X002781Y016910D01*
X002705Y016834D01*
X002705Y016214D01*
X002769Y016150D01*
X002705Y016086D01*
X002705Y015466D01*
X002781Y015390D01*
X002940Y015390D01*
X002940Y015237D01*
X002669Y014966D01*
X002277Y014966D01*
X002273Y014976D01*
X002164Y015085D01*
X002021Y015144D01*
X001867Y015144D01*
X001725Y015085D01*
X001616Y014976D01*
X001556Y014833D01*
X001556Y014679D01*
X001616Y014537D01*
X001725Y014428D01*
X001867Y014369D01*
X002021Y014369D01*
X002164Y014428D01*
X002273Y014537D01*
X002277Y014546D01*
X002843Y014546D01*
X003360Y015063D01*
X003360Y015390D01*
X003519Y015390D01*
X003595Y015466D01*
X003595Y016086D01*
X003531Y016150D01*
X003595Y016214D01*
X003595Y016834D01*
X003519Y016910D01*
X003360Y016910D01*
X003360Y018612D01*
X003237Y018735D01*
X002260Y019712D01*
X002260Y019770D01*
X002430Y019850D02*
X005153Y019850D01*
X005054Y019949D02*
X002430Y019949D01*
X002430Y020047D02*
X004956Y020047D01*
X004857Y020146D02*
X002430Y020146D01*
X002430Y020244D02*
X004759Y020244D01*
X004660Y020343D02*
X002430Y020343D01*
X002430Y020441D02*
X004562Y020441D01*
X004463Y020540D02*
X001558Y020540D01*
X001520Y020550D01*
X001300Y020550D01*
X001300Y020200D01*
X001200Y020200D01*
X001200Y020550D01*
X000980Y020550D01*
X000942Y020540D01*
X000908Y020520D01*
X000880Y020492D01*
X000860Y020458D01*
X000850Y020420D01*
X000850Y020200D01*
X001200Y020200D01*
X001200Y020100D01*
X000850Y020100D01*
X000850Y019880D01*
X000860Y019842D01*
X000880Y019808D01*
X000908Y019780D01*
X000942Y019760D01*
X000980Y019750D01*
X001200Y019750D01*
X001200Y020100D01*
X001300Y020100D01*
X001300Y020200D01*
X001650Y020200D01*
X001650Y020420D01*
X001640Y020458D01*
X001620Y020492D01*
X001592Y020520D01*
X001558Y020540D01*
X001644Y020441D02*
X001670Y020441D01*
X001670Y020343D02*
X001650Y020343D01*
X001650Y020244D02*
X001670Y020244D01*
X001670Y020146D02*
X001300Y020146D01*
X001300Y020100D02*
X001650Y020100D01*
X001650Y019880D01*
X001640Y019842D01*
X001620Y019808D01*
X001592Y019780D01*
X001558Y019760D01*
X001520Y019750D01*
X001300Y019750D01*
X001300Y020100D01*
X001300Y020047D02*
X001200Y020047D01*
X001200Y019949D02*
X001300Y019949D01*
X001300Y019850D02*
X001200Y019850D01*
X001200Y019752D02*
X001300Y019752D01*
X001526Y019752D02*
X001840Y019752D01*
X001840Y019653D02*
X000800Y019653D01*
X000800Y019555D02*
X001840Y019555D01*
X001922Y019456D02*
X000800Y019456D01*
X000800Y019358D02*
X002020Y019358D01*
X002119Y019259D02*
X000800Y019259D01*
X000800Y019161D02*
X002217Y019161D01*
X002316Y019062D02*
X002067Y019062D01*
X002021Y019081D02*
X002164Y019022D01*
X002273Y018913D01*
X002332Y018770D01*
X002332Y018616D01*
X002273Y018474D01*
X002164Y018365D01*
X002021Y018306D01*
X001867Y018306D01*
X001725Y018365D01*
X001616Y018474D01*
X001556Y018616D01*
X001556Y018770D01*
X001616Y018913D01*
X001725Y019022D01*
X001867Y019081D01*
X002021Y019081D01*
X001821Y019062D02*
X000800Y019062D01*
X000800Y018964D02*
X001666Y018964D01*
X001596Y018865D02*
X000800Y018865D01*
X000800Y018767D02*
X001556Y018767D01*
X001556Y018668D02*
X000800Y018668D01*
X000800Y018570D02*
X001576Y018570D01*
X001618Y018471D02*
X000800Y018471D01*
X000800Y018373D02*
X001717Y018373D01*
X001725Y018235D02*
X001616Y018126D01*
X001556Y017983D01*
X001556Y017829D01*
X001616Y017686D01*
X001725Y017577D01*
X001867Y017518D01*
X002021Y017518D01*
X002164Y017577D01*
X002273Y017686D01*
X002332Y017829D01*
X002332Y017983D01*
X002273Y018126D01*
X002164Y018235D01*
X002021Y018294D01*
X001867Y018294D01*
X001725Y018235D01*
X001666Y018176D02*
X000800Y018176D01*
X000800Y018274D02*
X001820Y018274D01*
X002069Y018274D02*
X002940Y018274D01*
X002940Y018176D02*
X002223Y018176D01*
X002293Y018077D02*
X002940Y018077D01*
X002940Y017979D02*
X002332Y017979D01*
X002332Y017880D02*
X002940Y017880D01*
X002940Y017782D02*
X002313Y017782D01*
X002270Y017683D02*
X002940Y017683D01*
X002940Y017585D02*
X002171Y017585D01*
X002164Y017447D02*
X002021Y017506D01*
X001867Y017506D01*
X001725Y017447D01*
X001616Y017338D01*
X001556Y017196D01*
X001556Y017041D01*
X001616Y016899D01*
X001725Y016790D01*
X001867Y016731D01*
X002021Y016731D01*
X002164Y016790D01*
X002273Y016899D01*
X002332Y017041D01*
X002332Y017196D01*
X002273Y017338D01*
X002164Y017447D01*
X002224Y017388D02*
X002940Y017388D01*
X002940Y017486D02*
X002070Y017486D01*
X002293Y017289D02*
X002940Y017289D01*
X002940Y017191D02*
X002332Y017191D01*
X002332Y017092D02*
X002940Y017092D01*
X002940Y016994D02*
X002312Y016994D01*
X002269Y016895D02*
X002766Y016895D01*
X002705Y016797D02*
X002171Y016797D01*
X002164Y016660D02*
X002021Y016719D01*
X001867Y016719D01*
X001725Y016660D01*
X001616Y016551D01*
X001556Y016408D01*
X001556Y016254D01*
X001616Y016111D01*
X001725Y016002D01*
X001867Y015943D01*
X002021Y015943D01*
X002164Y016002D01*
X002273Y016111D01*
X002332Y016254D01*
X002332Y016408D01*
X002273Y016551D01*
X002164Y016660D01*
X002224Y016600D02*
X002705Y016600D01*
X002705Y016698D02*
X002072Y016698D01*
X002294Y016501D02*
X002705Y016501D01*
X002705Y016403D02*
X002332Y016403D01*
X002332Y016304D02*
X002705Y016304D01*
X002714Y016206D02*
X002312Y016206D01*
X002269Y016107D02*
X002726Y016107D01*
X002705Y016009D02*
X002170Y016009D01*
X002164Y015872D02*
X002021Y015931D01*
X001867Y015931D01*
X001725Y015872D01*
X001616Y015763D01*
X001556Y015621D01*
X001556Y015467D01*
X001616Y015324D01*
X001725Y015215D01*
X001867Y015156D01*
X002021Y015156D01*
X002164Y015215D01*
X002273Y015324D01*
X002332Y015467D01*
X002332Y015621D01*
X002273Y015763D01*
X002164Y015872D01*
X002225Y015812D02*
X002705Y015812D01*
X002705Y015910D02*
X002073Y015910D01*
X002294Y015713D02*
X002705Y015713D01*
X002705Y015615D02*
X002332Y015615D01*
X002332Y015516D02*
X002705Y015516D01*
X002754Y015418D02*
X002312Y015418D01*
X002268Y015319D02*
X002940Y015319D01*
X002924Y015221D02*
X002170Y015221D01*
X002075Y015122D02*
X002825Y015122D01*
X002727Y015024D02*
X002225Y015024D01*
X002267Y014531D02*
X003065Y014531D01*
X003065Y014616D02*
X003065Y014433D01*
X003135Y014264D01*
X003264Y014135D01*
X003433Y014065D01*
X003616Y014065D01*
X003786Y014135D01*
X003915Y014264D01*
X003985Y014433D01*
X003985Y014616D01*
X003964Y014667D01*
X004902Y015605D01*
X004902Y015199D01*
X004667Y014964D01*
X004616Y014985D01*
X004433Y014985D01*
X004264Y014915D01*
X004135Y014786D01*
X004065Y014616D01*
X004065Y014433D01*
X004135Y014264D01*
X004264Y014135D01*
X004433Y014065D01*
X004616Y014065D01*
X004786Y014135D01*
X004915Y014264D01*
X004985Y014433D01*
X004985Y014563D01*
X005322Y014563D01*
X005398Y014639D01*
X005398Y015605D01*
X005402Y015601D01*
X005402Y014639D01*
X005478Y014563D01*
X005822Y014563D01*
X005898Y014639D01*
X005898Y015613D01*
X005860Y015651D01*
X005860Y015737D01*
X005785Y015812D02*
X008440Y015812D01*
X008343Y015910D02*
X005687Y015910D01*
X005588Y016009D02*
X007494Y016009D01*
X007440Y016063D02*
X007440Y016063D01*
X007396Y016107D02*
X005490Y016107D01*
X005446Y016206D02*
X007297Y016206D01*
X007199Y016304D02*
X005487Y016304D01*
X005498Y016403D02*
X007100Y016403D01*
X007002Y016501D02*
X005485Y016501D01*
X005443Y016600D02*
X006940Y016600D01*
X006898Y016687D02*
X006822Y016611D01*
X006478Y016611D01*
X006402Y016687D01*
X006402Y017661D01*
X006478Y017737D01*
X006822Y017737D01*
X006898Y017661D01*
X006898Y016687D01*
X006898Y016698D02*
X006902Y016698D01*
X006898Y016797D02*
X006902Y016797D01*
X006898Y016895D02*
X006902Y016895D01*
X006898Y016994D02*
X006902Y016994D01*
X006898Y017092D02*
X006902Y017092D01*
X006898Y017191D02*
X006902Y017191D01*
X006898Y017289D02*
X006902Y017289D01*
X006898Y017388D02*
X006902Y017388D01*
X006898Y017486D02*
X006902Y017486D01*
X006898Y017585D02*
X006902Y017585D01*
X006924Y017683D02*
X006876Y017683D01*
X006424Y017683D02*
X006376Y017683D01*
X006398Y017661D02*
X006322Y017737D01*
X005978Y017737D01*
X005902Y017661D01*
X005902Y016687D01*
X005978Y016611D01*
X006322Y016611D01*
X006398Y016687D01*
X006398Y017661D01*
X006398Y017585D02*
X006402Y017585D01*
X006398Y017486D02*
X006402Y017486D01*
X006398Y017388D02*
X006402Y017388D01*
X006398Y017289D02*
X006402Y017289D01*
X006398Y017191D02*
X006402Y017191D01*
X006398Y017092D02*
X006402Y017092D01*
X006398Y016994D02*
X006402Y016994D01*
X006398Y016895D02*
X006402Y016895D01*
X006398Y016797D02*
X006402Y016797D01*
X006398Y016698D02*
X006402Y016698D01*
X005902Y016698D02*
X005898Y016698D01*
X005898Y016687D02*
X005822Y016611D01*
X005478Y016611D01*
X005402Y016687D01*
X005402Y017661D01*
X005478Y017737D01*
X005822Y017737D01*
X005898Y017661D01*
X005898Y016687D01*
X005898Y016797D02*
X005902Y016797D01*
X005898Y016895D02*
X005902Y016895D01*
X005898Y016994D02*
X005902Y016994D01*
X005898Y017092D02*
X005902Y017092D01*
X005898Y017191D02*
X005902Y017191D01*
X005898Y017289D02*
X005902Y017289D01*
X005898Y017388D02*
X005902Y017388D01*
X005898Y017486D02*
X005902Y017486D01*
X005898Y017585D02*
X005902Y017585D01*
X005924Y017683D02*
X005876Y017683D01*
X005595Y017979D02*
X008705Y017979D01*
X008705Y017966D02*
X008781Y017890D01*
X008940Y017890D01*
X008940Y017563D01*
X009440Y017063D01*
X009440Y015625D01*
X010222Y014843D01*
X010218Y014833D01*
X010218Y014679D01*
X010277Y014537D01*
X010386Y014428D01*
X010529Y014369D01*
X010683Y014369D01*
X010825Y014428D01*
X010934Y014537D01*
X010994Y014679D01*
X010994Y014833D01*
X010934Y014976D01*
X010825Y015085D01*
X010683Y015144D01*
X010529Y015144D01*
X010519Y015140D01*
X010485Y015174D01*
X010529Y015156D01*
X010683Y015156D01*
X010825Y015215D01*
X010934Y015324D01*
X010994Y015467D01*
X010994Y015621D01*
X010934Y015763D01*
X010825Y015872D01*
X010683Y015931D01*
X010529Y015931D01*
X010386Y015872D01*
X010277Y015763D01*
X010218Y015621D01*
X010218Y015467D01*
X010236Y015423D01*
X009860Y015799D01*
X009860Y017237D01*
X009737Y017360D01*
X009360Y017737D01*
X009360Y017890D01*
X009519Y017890D01*
X009595Y017966D01*
X009595Y018586D01*
X009531Y018650D01*
X009595Y018714D01*
X009595Y019334D01*
X009519Y019410D01*
X008781Y019410D01*
X008705Y019334D01*
X008705Y019234D01*
X006363Y019234D01*
X004237Y021360D01*
X002430Y021360D01*
X002430Y021454D01*
X002354Y021530D01*
X001746Y021530D01*
X001670Y021454D01*
X001670Y020846D01*
X001746Y020770D01*
X002354Y020770D01*
X002430Y020846D01*
X002430Y020940D01*
X004063Y020940D01*
X006189Y018814D01*
X008705Y018814D01*
X008705Y018714D01*
X008769Y018650D01*
X008705Y018586D01*
X008705Y017966D01*
X008705Y018077D02*
X005595Y018077D01*
X005595Y018176D02*
X008705Y018176D01*
X008705Y018274D02*
X005595Y018274D01*
X005595Y018373D02*
X008705Y018373D01*
X008705Y018471D02*
X005595Y018471D01*
X005591Y018570D02*
X008705Y018570D01*
X008751Y018668D02*
X005557Y018668D01*
X005615Y018767D02*
X008705Y018767D01*
X008705Y019259D02*
X006338Y019259D01*
X006239Y019358D02*
X008729Y019358D01*
X008940Y017880D02*
X005528Y017880D01*
X005360Y017782D02*
X008940Y017782D01*
X008940Y017683D02*
X008376Y017683D01*
X008398Y017585D02*
X008940Y017585D01*
X009017Y017486D02*
X008398Y017486D01*
X008398Y017388D02*
X009115Y017388D01*
X009214Y017289D02*
X008433Y017289D01*
X008531Y017191D02*
X009312Y017191D01*
X009411Y017092D02*
X008630Y017092D01*
X008728Y016994D02*
X009440Y016994D01*
X009440Y016895D02*
X008827Y016895D01*
X008925Y016797D02*
X009440Y016797D01*
X009440Y016698D02*
X009024Y016698D01*
X009122Y016600D02*
X009440Y016600D01*
X009440Y016501D02*
X009221Y016501D01*
X009319Y016403D02*
X009440Y016403D01*
X009440Y016304D02*
X009360Y016304D01*
X009360Y016206D02*
X009440Y016206D01*
X009440Y016107D02*
X009360Y016107D01*
X009360Y016009D02*
X009440Y016009D01*
X009440Y015910D02*
X009360Y015910D01*
X009360Y015812D02*
X009440Y015812D01*
X009440Y015713D02*
X009360Y015713D01*
X009360Y015615D02*
X009450Y015615D01*
X009360Y015516D02*
X009549Y015516D01*
X009647Y015418D02*
X009360Y015418D01*
X009360Y015319D02*
X009746Y015319D01*
X009844Y015221D02*
X009360Y015221D01*
X009360Y015122D02*
X009943Y015122D01*
X010041Y015024D02*
X009360Y015024D01*
X009360Y014925D02*
X010140Y014925D01*
X010218Y014827D02*
X009360Y014827D01*
X009360Y014728D02*
X010218Y014728D01*
X010238Y014630D02*
X009360Y014630D01*
X009360Y014531D02*
X010283Y014531D01*
X010381Y014433D02*
X009360Y014433D01*
X009360Y014334D02*
X010474Y014334D01*
X010529Y014357D02*
X010386Y014298D01*
X010277Y014189D01*
X010218Y014046D01*
X010218Y013892D01*
X010277Y013749D01*
X010386Y013640D01*
X010529Y013581D01*
X010683Y013581D01*
X010825Y013640D01*
X010934Y013749D01*
X010994Y013892D01*
X010994Y014046D01*
X010934Y014189D01*
X010825Y014298D01*
X010683Y014357D01*
X010529Y014357D01*
X010324Y014236D02*
X009360Y014236D01*
X009360Y014137D02*
X010256Y014137D01*
X010218Y014039D02*
X009360Y014039D01*
X009360Y013940D02*
X010218Y013940D01*
X010239Y013842D02*
X009360Y013842D01*
X009360Y013743D02*
X010283Y013743D01*
X010382Y013645D02*
X009360Y013645D01*
X009360Y013546D02*
X010472Y013546D01*
X010529Y013569D02*
X010386Y013510D01*
X010277Y013401D01*
X010218Y013259D01*
X010218Y013104D01*
X010277Y012962D01*
X010386Y012853D01*
X010529Y012794D01*
X010683Y012794D01*
X010825Y012853D01*
X010934Y012962D01*
X010994Y013104D01*
X010994Y013259D01*
X010934Y013401D01*
X010825Y013510D01*
X010683Y013569D01*
X010529Y013569D01*
X010323Y013448D02*
X009360Y013448D01*
X009360Y013349D02*
X010255Y013349D01*
X010218Y013251D02*
X009360Y013251D01*
X009360Y013152D02*
X010218Y013152D01*
X010239Y013054D02*
X009360Y013054D01*
X009360Y012955D02*
X010284Y012955D01*
X010382Y012857D02*
X009360Y012857D01*
X009360Y012758D02*
X010471Y012758D01*
X010529Y012782D02*
X010386Y012723D01*
X010277Y012614D01*
X010218Y012471D01*
X010218Y012317D01*
X010277Y012174D01*
X010386Y012065D01*
X010529Y012006D01*
X010683Y012006D01*
X010825Y012065D01*
X010934Y012174D01*
X010994Y012317D01*
X010994Y012471D01*
X010934Y012614D01*
X010825Y012723D01*
X010683Y012782D01*
X010529Y012782D01*
X010323Y012660D02*
X009360Y012660D01*
X009360Y012561D02*
X010255Y012561D01*
X010218Y012463D02*
X009360Y012463D01*
X009360Y012364D02*
X010218Y012364D01*
X010239Y012266D02*
X009360Y012266D01*
X009360Y012167D02*
X010284Y012167D01*
X010383Y012069D02*
X009360Y012069D01*
X009360Y011970D02*
X010470Y011970D01*
X010529Y011994D02*
X010386Y011935D01*
X010277Y011826D01*
X010218Y011684D01*
X010218Y011530D01*
X010277Y011387D01*
X010386Y011278D01*
X010529Y011219D01*
X010683Y011219D01*
X010825Y011278D01*
X010934Y011387D01*
X010994Y011530D01*
X010994Y011684D01*
X010934Y011826D01*
X010825Y011935D01*
X010683Y011994D01*
X010529Y011994D01*
X010322Y011872D02*
X009360Y011872D01*
X009360Y011773D02*
X010255Y011773D01*
X010218Y011675D02*
X009360Y011675D01*
X009360Y011576D02*
X010218Y011576D01*
X010239Y011478D02*
X009360Y011478D01*
X009360Y011379D02*
X010285Y011379D01*
X010383Y011281D02*
X009360Y011281D01*
X009360Y011182D02*
X011500Y011182D01*
X011500Y011084D02*
X009360Y011084D01*
X009360Y010985D02*
X011500Y010985D01*
X011500Y010887D02*
X009360Y010887D01*
X009360Y010788D02*
X011500Y010788D01*
X011500Y010690D02*
X009360Y010690D01*
X009360Y010591D02*
X011500Y010591D01*
X011500Y010493D02*
X009360Y010493D01*
X009360Y010394D02*
X011500Y010394D01*
X011500Y010296D02*
X010764Y010296D01*
X010767Y010295D02*
X010729Y010305D01*
X010385Y010305D01*
X010385Y009929D01*
X010859Y009929D01*
X010859Y010175D01*
X010849Y010213D01*
X010829Y010247D01*
X010801Y010275D01*
X010767Y010295D01*
X010853Y010197D02*
X011500Y010197D01*
X011500Y010099D02*
X010859Y010099D01*
X010859Y010000D02*
X011500Y010000D01*
X011500Y009902D02*
X010385Y009902D01*
X010385Y009929D02*
X010385Y009829D01*
X010385Y009454D01*
X010729Y009454D01*
X010767Y009464D01*
X010801Y009484D01*
X010829Y009512D01*
X010849Y009546D01*
X010859Y009584D01*
X010859Y009829D01*
X010385Y009829D01*
X010285Y009829D01*
X010285Y009454D01*
X009941Y009454D01*
X009903Y009464D01*
X009869Y009484D01*
X009841Y009512D01*
X009821Y009546D01*
X009811Y009584D01*
X009811Y009829D01*
X010285Y009829D01*
X010285Y009929D01*
X009811Y009929D01*
X009811Y010175D01*
X009821Y010213D01*
X009841Y010247D01*
X009869Y010275D01*
X009903Y010295D01*
X009941Y010305D01*
X010285Y010305D01*
X010285Y009929D01*
X010385Y009929D01*
X010385Y010000D02*
X010285Y010000D01*
X010285Y009902D02*
X009360Y009902D01*
X009360Y010000D02*
X009811Y010000D01*
X009811Y010099D02*
X009360Y010099D01*
X009360Y010197D02*
X009817Y010197D01*
X009906Y010296D02*
X009360Y010296D01*
X009360Y009803D02*
X009811Y009803D01*
X009811Y009705D02*
X009392Y009705D01*
X009491Y009606D02*
X009811Y009606D01*
X009845Y009508D02*
X009589Y009508D01*
X009883Y009409D02*
X011500Y009409D01*
X011500Y009311D02*
X009960Y009311D01*
X009998Y009212D02*
X011500Y009212D01*
X011500Y009114D02*
X009998Y009114D01*
X009971Y009015D02*
X011500Y009015D01*
X011500Y008917D02*
X009909Y008917D01*
X009758Y008818D02*
X011500Y008818D01*
X011500Y008720D02*
X009502Y008720D01*
X009542Y008818D02*
X009404Y008818D01*
X009391Y008917D02*
X009305Y008917D01*
X009329Y009015D02*
X009207Y009015D01*
X009302Y009114D02*
X009110Y009114D01*
X009110Y009212D02*
X009291Y009212D01*
X009192Y009311D02*
X009110Y009311D01*
X008810Y008818D02*
X008615Y008818D01*
X008517Y008720D02*
X008908Y008720D01*
X009007Y008621D02*
X008498Y008621D01*
X008474Y008523D02*
X009105Y008523D01*
X009190Y008424D02*
X008416Y008424D01*
X008479Y008326D02*
X008276Y008326D01*
X008414Y008030D02*
X007702Y008030D01*
X007604Y007932D02*
X008414Y007932D01*
X009264Y007045D02*
X011500Y007045D01*
X011500Y006947D02*
X010150Y006947D01*
X010241Y006856D02*
X010241Y006856D01*
X010249Y006848D02*
X011500Y006848D01*
X011500Y006750D02*
X010347Y006750D01*
X010446Y006651D02*
X011500Y006651D01*
X011500Y006553D02*
X010544Y006553D01*
X010643Y006454D02*
X011500Y006454D01*
X011500Y006356D02*
X010741Y006356D01*
X010840Y006257D02*
X011500Y006257D01*
X011500Y006159D02*
X010938Y006159D01*
X010985Y006060D02*
X011500Y006060D01*
X011500Y005962D02*
X010985Y005962D01*
X010985Y005863D02*
X011500Y005863D01*
X011500Y005765D02*
X010985Y005765D01*
X010985Y005666D02*
X011500Y005666D01*
X011500Y005568D02*
X010985Y005568D01*
X010985Y005469D02*
X011500Y005469D01*
X011500Y005371D02*
X010985Y005371D01*
X010985Y005272D02*
X011500Y005272D01*
X011500Y005174D02*
X010985Y005174D01*
X010985Y005075D02*
X011500Y005075D01*
X011500Y004977D02*
X010985Y004977D01*
X010985Y004878D02*
X011500Y004878D01*
X011500Y004780D02*
X010985Y004780D01*
X010985Y004681D02*
X011500Y004681D01*
X011500Y004583D02*
X010985Y004583D01*
X010985Y004484D02*
X011500Y004484D01*
X011500Y004386D02*
X011188Y004386D01*
X011220Y004287D02*
X011500Y004287D01*
X011500Y004189D02*
X011220Y004189D01*
X011220Y004090D02*
X011500Y004090D01*
X011500Y003992D02*
X011220Y003992D01*
X011220Y003893D02*
X011500Y003893D01*
X011500Y003795D02*
X011220Y003795D01*
X011182Y003696D02*
X011500Y003696D01*
X011500Y003598D02*
X011214Y003598D01*
X011240Y003499D02*
X011500Y003499D01*
X011500Y003401D02*
X011240Y003401D01*
X011240Y003204D02*
X011500Y003204D01*
X011500Y003302D02*
X010825Y003302D01*
X010825Y003204D02*
X010725Y003204D01*
X010725Y003206D02*
X010310Y003206D01*
X010310Y003037D01*
X009992Y003355D01*
X010100Y003464D01*
X010100Y003803D01*
X010131Y003834D01*
X010330Y003834D01*
X010330Y003734D01*
X010406Y003658D01*
X010424Y003658D01*
X010402Y003652D01*
X010368Y003632D01*
X010340Y003604D01*
X010320Y003570D01*
X010310Y003532D01*
X010310Y003306D01*
X010725Y003306D01*
X010725Y003206D01*
X010725Y003302D02*
X010045Y003302D01*
X010037Y003401D02*
X010310Y003401D01*
X010310Y003499D02*
X010100Y003499D01*
X010100Y003598D02*
X010336Y003598D01*
X010368Y003696D02*
X010100Y003696D01*
X010100Y003795D02*
X010330Y003795D01*
X010330Y004254D02*
X009957Y004254D01*
X009803Y004100D01*
X009464Y004100D01*
X009200Y003836D01*
X009200Y003464D01*
X009324Y003340D01*
X009071Y003340D01*
X008831Y003100D01*
X008464Y003100D01*
X008200Y002836D01*
X008200Y002469D01*
X008051Y002320D01*
X007985Y002320D01*
X008120Y002455D01*
X008120Y002600D01*
X007700Y002600D01*
X007700Y002700D01*
X007600Y002700D01*
X007600Y003120D01*
X007455Y003120D01*
X007180Y002845D01*
X007180Y002700D01*
X007600Y002700D01*
X007600Y002600D01*
X007180Y002600D01*
X007180Y002455D01*
X007315Y002320D01*
X006956Y002320D01*
X007100Y002464D01*
X007100Y002803D01*
X007237Y002940D01*
X007360Y003063D01*
X007360Y003275D01*
X007455Y003180D01*
X007600Y003180D01*
X007600Y003600D01*
X007700Y003600D01*
X007700Y003700D01*
X007600Y003700D01*
X007600Y004120D01*
X007455Y004120D01*
X007360Y004025D01*
X007360Y004618D01*
X007445Y004703D01*
X007498Y004831D01*
X007498Y004969D01*
X007445Y005097D01*
X007347Y005195D01*
X007219Y005248D01*
X007081Y005248D01*
X007020Y005223D01*
X007599Y005802D01*
X007719Y005802D01*
X007847Y005855D01*
X007945Y005953D01*
X007998Y006081D01*
X007998Y006126D01*
X008432Y006126D01*
X008490Y006068D01*
X008553Y006068D01*
X008551Y006060D01*
X007990Y006060D01*
X007949Y005962D02*
X008551Y005962D01*
X008551Y005922D02*
X008551Y006060D01*
X008551Y005922D02*
X008978Y005922D01*
X008978Y005884D01*
X008551Y005884D01*
X008551Y005745D01*
X008553Y005738D01*
X008490Y005738D01*
X008432Y005680D01*
X008347Y005765D01*
X008219Y005818D01*
X008081Y005818D01*
X007953Y005765D01*
X007855Y005667D01*
X007802Y005539D01*
X007802Y005401D01*
X007855Y005273D01*
X007953Y005175D01*
X008081Y005122D01*
X008219Y005122D01*
X008347Y005175D01*
X008432Y005260D01*
X008439Y005253D01*
X008414Y005228D01*
X008414Y004845D01*
X008490Y004769D01*
X009188Y004769D01*
X009264Y004845D01*
X009264Y005228D01*
X009239Y005253D01*
X009246Y005260D01*
X009557Y005260D01*
X009680Y005383D01*
X009737Y005440D01*
X009860Y005563D01*
X009860Y005993D01*
X009945Y006078D01*
X009998Y006206D01*
X009998Y006344D01*
X009945Y006472D01*
X009858Y006559D01*
X009944Y006559D01*
X010565Y005938D01*
X010565Y004430D01*
X010505Y004430D01*
X010505Y004632D01*
X010031Y004632D01*
X010031Y004257D01*
X010330Y004257D01*
X010330Y004254D01*
X010505Y004484D02*
X010565Y004484D01*
X010565Y004583D02*
X010505Y004583D01*
X010565Y004681D02*
X010031Y004681D01*
X010031Y004632D02*
X010031Y004732D01*
X010505Y004732D01*
X010505Y004978D01*
X010495Y005016D01*
X010475Y005050D01*
X010447Y005078D01*
X010413Y005098D01*
X010374Y005108D01*
X010031Y005108D01*
X010031Y004732D01*
X009931Y004732D01*
X009931Y004632D01*
X010031Y004632D01*
X010031Y004583D02*
X009931Y004583D01*
X009931Y004632D02*
X009931Y004257D01*
X009587Y004257D01*
X009549Y004267D01*
X009515Y004287D01*
X009487Y004315D01*
X009467Y004349D01*
X009457Y004387D01*
X009457Y004632D01*
X009931Y004632D01*
X009931Y004681D02*
X007423Y004681D01*
X007477Y004780D02*
X008479Y004780D01*
X008414Y004878D02*
X007498Y004878D01*
X007495Y004977D02*
X008414Y004977D01*
X008414Y005075D02*
X007454Y005075D01*
X007369Y005174D02*
X007956Y005174D01*
X007856Y005272D02*
X007069Y005272D01*
X007167Y005371D02*
X007814Y005371D01*
X007802Y005469D02*
X007266Y005469D01*
X007364Y005568D02*
X007814Y005568D01*
X007854Y005666D02*
X007463Y005666D01*
X007561Y005765D02*
X007952Y005765D01*
X007855Y005863D02*
X008551Y005863D01*
X008551Y005765D02*
X008348Y005765D01*
X008344Y005174D02*
X008414Y005174D01*
X008464Y004100D02*
X008200Y003836D01*
X008200Y003464D01*
X008464Y003200D01*
X008836Y003200D01*
X009100Y003464D01*
X009100Y003836D01*
X008836Y004100D01*
X008464Y004100D01*
X008454Y004090D02*
X007875Y004090D01*
X007845Y004120D02*
X007700Y004120D01*
X007700Y003700D01*
X008120Y003700D01*
X008120Y003845D01*
X007845Y004120D01*
X007700Y004090D02*
X007600Y004090D01*
X007600Y003992D02*
X007700Y003992D01*
X007700Y003893D02*
X007600Y003893D01*
X007600Y003795D02*
X007700Y003795D01*
X007700Y003696D02*
X008200Y003696D01*
X008200Y003598D02*
X008120Y003598D01*
X008120Y003600D02*
X007700Y003600D01*
X007700Y003180D01*
X007845Y003180D01*
X008120Y003455D01*
X008120Y003600D01*
X008120Y003499D02*
X008200Y003499D01*
X008263Y003401D02*
X008065Y003401D01*
X007967Y003302D02*
X008362Y003302D01*
X008460Y003204D02*
X007868Y003204D01*
X007845Y003120D02*
X007700Y003120D01*
X007700Y002700D01*
X008120Y002700D01*
X008120Y002845D01*
X007845Y003120D01*
X007860Y003105D02*
X008836Y003105D01*
X008840Y003204D02*
X008935Y003204D01*
X008938Y003302D02*
X009033Y003302D01*
X009037Y003401D02*
X009263Y003401D01*
X009200Y003499D02*
X009100Y003499D01*
X009100Y003598D02*
X009200Y003598D01*
X009200Y003696D02*
X009100Y003696D01*
X009100Y003795D02*
X009200Y003795D01*
X009257Y003893D02*
X009043Y003893D01*
X008945Y003992D02*
X009355Y003992D01*
X009454Y004090D02*
X008846Y004090D01*
X009199Y004780D02*
X009457Y004780D01*
X009457Y004732D02*
X009931Y004732D01*
X009931Y005108D01*
X009587Y005108D01*
X009549Y005098D01*
X009515Y005078D01*
X009487Y005050D01*
X009467Y005016D01*
X009457Y004978D01*
X009457Y004732D01*
X009457Y004878D02*
X009264Y004878D01*
X009264Y004977D02*
X009457Y004977D01*
X009512Y005075D02*
X009264Y005075D01*
X009264Y005174D02*
X010565Y005174D01*
X010565Y005272D02*
X009569Y005272D01*
X009667Y005371D02*
X010565Y005371D01*
X010565Y005469D02*
X009766Y005469D01*
X009860Y005568D02*
X010565Y005568D01*
X010565Y005666D02*
X009860Y005666D01*
X009860Y005765D02*
X010565Y005765D01*
X010565Y005863D02*
X009860Y005863D01*
X009860Y005962D02*
X010541Y005962D01*
X010443Y006060D02*
X009927Y006060D01*
X009979Y006159D02*
X010344Y006159D01*
X010246Y006257D02*
X009998Y006257D01*
X009993Y006356D02*
X010147Y006356D01*
X010049Y006454D02*
X009953Y006454D01*
X009950Y006553D02*
X009865Y006553D01*
X009414Y007242D02*
X011500Y007242D01*
X011500Y007144D02*
X009316Y007144D01*
X009513Y007341D02*
X011500Y007341D01*
X011500Y007439D02*
X009610Y007439D01*
X009610Y007538D02*
X011500Y007538D01*
X011500Y007636D02*
X009610Y007636D01*
X009610Y007735D02*
X011500Y007735D01*
X011500Y007833D02*
X009610Y007833D01*
X009610Y007932D02*
X011500Y007932D01*
X011500Y008030D02*
X009610Y008030D01*
X009610Y008129D02*
X011500Y008129D01*
X011500Y008227D02*
X009610Y008227D01*
X009610Y008326D02*
X011500Y008326D01*
X011500Y008424D02*
X009610Y008424D01*
X009610Y008523D02*
X011500Y008523D01*
X011500Y008621D02*
X009601Y008621D01*
X010285Y009508D02*
X010385Y009508D01*
X010385Y009606D02*
X010285Y009606D01*
X010285Y009705D02*
X010385Y009705D01*
X010385Y009803D02*
X010285Y009803D01*
X010285Y010099D02*
X010385Y010099D01*
X010385Y010197D02*
X010285Y010197D01*
X010285Y010296D02*
X010385Y010296D01*
X010859Y009803D02*
X011500Y009803D01*
X011500Y009705D02*
X010859Y009705D01*
X010859Y009606D02*
X011500Y009606D01*
X011500Y009508D02*
X010825Y009508D01*
X010828Y011281D02*
X011500Y011281D01*
X011500Y011379D02*
X010926Y011379D01*
X010972Y011478D02*
X011500Y011478D01*
X011500Y011576D02*
X010994Y011576D01*
X010994Y011675D02*
X011500Y011675D01*
X011500Y011773D02*
X010957Y011773D01*
X010889Y011872D02*
X011500Y011872D01*
X011500Y011970D02*
X010742Y011970D01*
X010829Y012069D02*
X011500Y012069D01*
X011500Y012167D02*
X010927Y012167D01*
X010972Y012266D02*
X011500Y012266D01*
X011500Y012364D02*
X010994Y012364D01*
X010994Y012463D02*
X011500Y012463D01*
X011500Y012561D02*
X010956Y012561D01*
X010889Y012660D02*
X011500Y012660D01*
X011500Y012758D02*
X010740Y012758D01*
X010829Y012857D02*
X011500Y012857D01*
X011500Y012955D02*
X010928Y012955D01*
X010972Y013054D02*
X011500Y013054D01*
X011500Y013152D02*
X010994Y013152D01*
X010994Y013251D02*
X011500Y013251D01*
X011500Y013349D02*
X010956Y013349D01*
X010888Y013448D02*
X011500Y013448D01*
X011500Y013546D02*
X010739Y013546D01*
X010830Y013645D02*
X011500Y013645D01*
X011500Y013743D02*
X010928Y013743D01*
X010973Y013842D02*
X011500Y013842D01*
X011500Y013940D02*
X010994Y013940D01*
X010994Y014039D02*
X011500Y014039D01*
X011500Y014137D02*
X010956Y014137D01*
X010887Y014236D02*
X011500Y014236D01*
X011500Y014334D02*
X010738Y014334D01*
X010830Y014433D02*
X011500Y014433D01*
X011500Y014531D02*
X010929Y014531D01*
X010973Y014630D02*
X011500Y014630D01*
X011500Y014728D02*
X010994Y014728D01*
X010994Y014827D02*
X011500Y014827D01*
X011500Y014925D02*
X010956Y014925D01*
X010887Y015024D02*
X011500Y015024D01*
X011500Y015122D02*
X010736Y015122D01*
X010831Y015221D02*
X011500Y015221D01*
X011500Y015319D02*
X010929Y015319D01*
X010973Y015418D02*
X011500Y015418D01*
X011500Y015516D02*
X010994Y015516D01*
X010994Y015615D02*
X011500Y015615D01*
X011500Y015713D02*
X010955Y015713D01*
X010886Y015812D02*
X011500Y015812D01*
X011500Y015910D02*
X010735Y015910D01*
X010683Y015943D02*
X010825Y016002D01*
X010934Y016111D01*
X010994Y016254D01*
X010994Y016408D01*
X010934Y016551D01*
X010825Y016660D01*
X010683Y016719D01*
X010529Y016719D01*
X010386Y016660D01*
X010277Y016551D01*
X010218Y016408D01*
X010218Y016254D01*
X010277Y016111D01*
X010386Y016002D01*
X010529Y015943D01*
X010683Y015943D01*
X010477Y015910D02*
X009860Y015910D01*
X009860Y015812D02*
X010325Y015812D01*
X010256Y015713D02*
X009946Y015713D01*
X010044Y015615D02*
X010218Y015615D01*
X010218Y015516D02*
X010143Y015516D01*
X010380Y016009D02*
X009860Y016009D01*
X009860Y016107D02*
X010281Y016107D01*
X010238Y016206D02*
X009860Y016206D01*
X009860Y016304D02*
X010218Y016304D01*
X010218Y016403D02*
X009860Y016403D01*
X009860Y016501D02*
X010256Y016501D01*
X010326Y016600D02*
X009860Y016600D01*
X009860Y016698D02*
X010478Y016698D01*
X010529Y016731D02*
X010683Y016731D01*
X010825Y016790D01*
X010934Y016899D01*
X010994Y017041D01*
X010994Y017196D01*
X010934Y017338D01*
X010825Y017447D01*
X010683Y017506D01*
X010529Y017506D01*
X010386Y017447D01*
X010277Y017338D01*
X010218Y017196D01*
X010218Y017041D01*
X010277Y016899D01*
X010386Y016790D01*
X010529Y016731D01*
X010379Y016797D02*
X009860Y016797D01*
X009860Y016895D02*
X010281Y016895D01*
X010238Y016994D02*
X009860Y016994D01*
X009860Y017092D02*
X010218Y017092D01*
X010218Y017191D02*
X009860Y017191D01*
X009808Y017289D02*
X010257Y017289D01*
X010326Y017388D02*
X009709Y017388D01*
X009611Y017486D02*
X010480Y017486D01*
X010529Y017518D02*
X010683Y017518D01*
X010825Y017577D01*
X010934Y017686D01*
X010994Y017829D01*
X010994Y017983D01*
X010934Y018126D01*
X010825Y018235D01*
X010683Y018294D01*
X010529Y018294D01*
X010386Y018235D01*
X010277Y018126D01*
X010218Y017983D01*
X010218Y017829D01*
X010277Y017686D01*
X010386Y017577D01*
X010529Y017518D01*
X010379Y017585D02*
X009512Y017585D01*
X009414Y017683D02*
X010280Y017683D01*
X010237Y017782D02*
X009360Y017782D01*
X009360Y017880D02*
X010218Y017880D01*
X010218Y017979D02*
X009595Y017979D01*
X009595Y018077D02*
X010257Y018077D01*
X010327Y018176D02*
X009595Y018176D01*
X009595Y018274D02*
X010481Y018274D01*
X010529Y018306D02*
X010683Y018306D01*
X010825Y018365D01*
X010934Y018474D01*
X010994Y018616D01*
X010994Y018770D01*
X010934Y018913D01*
X010825Y019022D01*
X010683Y019081D01*
X010529Y019081D01*
X010386Y019022D01*
X010277Y018913D01*
X010218Y018770D01*
X010218Y018616D01*
X010277Y018474D01*
X010386Y018365D01*
X010529Y018306D01*
X010378Y018373D02*
X009595Y018373D01*
X009595Y018471D02*
X010280Y018471D01*
X010237Y018570D02*
X009595Y018570D01*
X009549Y018668D02*
X010218Y018668D01*
X010218Y018767D02*
X009595Y018767D01*
X009595Y018865D02*
X010257Y018865D01*
X010328Y018964D02*
X009595Y018964D01*
X009595Y019062D02*
X010483Y019062D01*
X010729Y019062D02*
X011500Y019062D01*
X011500Y018964D02*
X010884Y018964D01*
X010954Y018865D02*
X011500Y018865D01*
X011500Y018767D02*
X010994Y018767D01*
X010994Y018668D02*
X011500Y018668D01*
X011500Y018570D02*
X010974Y018570D01*
X010932Y018471D02*
X011500Y018471D01*
X011500Y018373D02*
X010833Y018373D01*
X010730Y018274D02*
X011500Y018274D01*
X011500Y018176D02*
X010884Y018176D01*
X010955Y018077D02*
X011500Y018077D01*
X011500Y017979D02*
X010994Y017979D01*
X010994Y017880D02*
X011500Y017880D01*
X011500Y017782D02*
X010974Y017782D01*
X010931Y017683D02*
X011500Y017683D01*
X011500Y017585D02*
X010833Y017585D01*
X010732Y017486D02*
X011500Y017486D01*
X011500Y017388D02*
X010885Y017388D01*
X010955Y017289D02*
X011500Y017289D01*
X011500Y017191D02*
X010994Y017191D01*
X010994Y017092D02*
X011500Y017092D01*
X011500Y016994D02*
X010974Y016994D01*
X010931Y016895D02*
X011500Y016895D01*
X011500Y016797D02*
X010832Y016797D01*
X010733Y016698D02*
X011500Y016698D01*
X011500Y016600D02*
X010886Y016600D01*
X010955Y016501D02*
X011500Y016501D01*
X011500Y016403D02*
X010994Y016403D01*
X010994Y016304D02*
X011500Y016304D01*
X011500Y016206D02*
X010973Y016206D01*
X010930Y016107D02*
X011500Y016107D01*
X011500Y016009D02*
X010832Y016009D01*
X011500Y019161D02*
X009595Y019161D01*
X009595Y019259D02*
X011500Y019259D01*
X011500Y019358D02*
X009571Y019358D01*
X009345Y021860D02*
X009200Y021860D01*
X009200Y022280D01*
X009200Y022380D01*
X009620Y022380D01*
X009620Y022525D01*
X009345Y022800D01*
X009200Y022800D01*
X009200Y022380D01*
X009100Y022380D01*
X009100Y022800D01*
X008955Y022800D01*
X008680Y022525D01*
X008680Y022380D01*
X009100Y022380D01*
X009100Y022280D01*
X009200Y022280D01*
X009620Y022280D01*
X009620Y022135D01*
X009345Y021860D01*
X009403Y021919D02*
X011500Y021919D01*
X011500Y022017D02*
X009502Y022017D01*
X009600Y022116D02*
X011500Y022116D01*
X011500Y022214D02*
X009620Y022214D01*
X009620Y022411D02*
X011500Y022411D01*
X011500Y022313D02*
X009200Y022313D01*
X009200Y022411D02*
X009100Y022411D01*
X009100Y022313D02*
X008200Y022313D01*
X008200Y022280D02*
X008200Y022380D01*
X008620Y022380D01*
X008620Y022525D01*
X008345Y022800D01*
X008200Y022800D01*
X008200Y022380D01*
X008100Y022380D01*
X008100Y022800D01*
X007955Y022800D01*
X007680Y022525D01*
X007680Y022380D01*
X008100Y022380D01*
X008100Y022280D01*
X008200Y022280D01*
X008620Y022280D01*
X008620Y022135D01*
X008345Y021860D01*
X008200Y021860D01*
X008200Y022280D01*
X008200Y022214D02*
X008100Y022214D01*
X008100Y022280D02*
X008100Y021860D01*
X007955Y021860D01*
X007680Y022135D01*
X007680Y022280D01*
X008100Y022280D01*
X008100Y022313D02*
X007200Y022313D01*
X007200Y022280D02*
X007200Y022380D01*
X007620Y022380D01*
X007620Y022525D01*
X007345Y022800D01*
X007200Y022800D01*
X007200Y022380D01*
X007100Y022380D01*
X007100Y022800D01*
X006955Y022800D01*
X006680Y022525D01*
X006680Y022380D01*
X007100Y022380D01*
X007100Y022280D01*
X007200Y022280D01*
X007620Y022280D01*
X007620Y022135D01*
X007345Y021860D01*
X007200Y021860D01*
X007200Y022280D01*
X007200Y022214D02*
X007100Y022214D01*
X007100Y022280D02*
X007100Y021860D01*
X006955Y021860D01*
X006680Y022135D01*
X006680Y022280D01*
X007100Y022280D01*
X007100Y022313D02*
X006200Y022313D01*
X006200Y022280D02*
X006200Y022380D01*
X006620Y022380D01*
X006620Y022525D01*
X006345Y022800D01*
X006200Y022800D01*
X006200Y022380D01*
X006100Y022380D01*
X006100Y022800D01*
X005955Y022800D01*
X005680Y022525D01*
X005680Y022380D01*
X006100Y022380D01*
X006100Y022280D01*
X006200Y022280D01*
X006620Y022280D01*
X006620Y022135D01*
X006345Y021860D01*
X006200Y021860D01*
X006200Y022280D01*
X006200Y022214D02*
X006100Y022214D01*
X006100Y022280D02*
X006100Y021860D01*
X005955Y021860D01*
X005680Y022135D01*
X005680Y022280D01*
X006100Y022280D01*
X006100Y022313D02*
X005200Y022313D01*
X005200Y022280D02*
X005200Y022380D01*
X005620Y022380D01*
X005620Y022525D01*
X005345Y022800D01*
X005200Y022800D01*
X005200Y022380D01*
X005100Y022380D01*
X005100Y022800D01*
X004955Y022800D01*
X004680Y022525D01*
X004680Y022380D01*
X005100Y022380D01*
X005100Y022280D01*
X005200Y022280D01*
X005620Y022280D01*
X005620Y022135D01*
X005345Y021860D01*
X005200Y021860D01*
X005200Y022280D01*
X005200Y022214D02*
X005100Y022214D01*
X005100Y022280D02*
X005100Y021860D01*
X004955Y021860D01*
X004680Y022135D01*
X004680Y022280D01*
X005100Y022280D01*
X005100Y022313D02*
X004600Y022313D01*
X004600Y022411D02*
X004680Y022411D01*
X004680Y022510D02*
X004600Y022510D01*
X004600Y022516D02*
X004336Y022780D01*
X003964Y022780D01*
X003700Y022516D01*
X003700Y022144D01*
X003964Y021880D01*
X004336Y021880D01*
X004600Y022144D01*
X004600Y022516D01*
X004508Y022608D02*
X004763Y022608D01*
X004862Y022707D02*
X004410Y022707D01*
X004336Y022880D02*
X004600Y023144D01*
X004600Y023516D01*
X004336Y023780D01*
X003964Y023780D01*
X003700Y023516D01*
X003700Y023144D01*
X003964Y022880D01*
X004336Y022880D01*
X004360Y022904D02*
X004940Y022904D01*
X004964Y022880D02*
X005336Y022880D01*
X005600Y023144D01*
X005600Y023516D01*
X005336Y023780D01*
X004964Y023780D01*
X004700Y023516D01*
X004700Y023144D01*
X004964Y022880D01*
X004842Y023002D02*
X004458Y023002D01*
X004557Y023101D02*
X004743Y023101D01*
X004700Y023199D02*
X004600Y023199D01*
X004600Y023298D02*
X004700Y023298D01*
X004700Y023396D02*
X004600Y023396D01*
X004600Y023495D02*
X004700Y023495D01*
X004777Y023593D02*
X004523Y023593D01*
X004425Y023692D02*
X004875Y023692D01*
X005360Y022904D02*
X005940Y022904D01*
X005964Y022880D02*
X006336Y022880D01*
X006600Y023144D01*
X006600Y023516D01*
X006336Y023780D01*
X005964Y023780D01*
X005700Y023516D01*
X005700Y023144D01*
X005964Y022880D01*
X005842Y023002D02*
X005458Y023002D01*
X005557Y023101D02*
X005743Y023101D01*
X005700Y023199D02*
X005600Y023199D01*
X005600Y023298D02*
X005700Y023298D01*
X005700Y023396D02*
X005600Y023396D01*
X005600Y023495D02*
X005700Y023495D01*
X005777Y023593D02*
X005523Y023593D01*
X005425Y023692D02*
X005875Y023692D01*
X006425Y023692D02*
X006875Y023692D01*
X006964Y023780D02*
X006700Y023516D01*
X006700Y023144D01*
X006964Y022880D01*
X007336Y022880D01*
X007600Y023144D01*
X007600Y023516D01*
X007336Y023780D01*
X006964Y023780D01*
X006777Y023593D02*
X006523Y023593D01*
X006600Y023495D02*
X006700Y023495D01*
X006700Y023396D02*
X006600Y023396D01*
X006600Y023298D02*
X006700Y023298D01*
X006700Y023199D02*
X006600Y023199D01*
X006557Y023101D02*
X006743Y023101D01*
X006842Y023002D02*
X006458Y023002D01*
X006360Y022904D02*
X006940Y022904D01*
X006862Y022707D02*
X006438Y022707D01*
X006537Y022608D02*
X006763Y022608D01*
X006680Y022510D02*
X006620Y022510D01*
X006620Y022411D02*
X006680Y022411D01*
X006680Y022214D02*
X006620Y022214D01*
X006600Y022116D02*
X006700Y022116D01*
X006798Y022017D02*
X006502Y022017D01*
X006403Y021919D02*
X006897Y021919D01*
X007100Y021919D02*
X007200Y021919D01*
X007200Y022017D02*
X007100Y022017D01*
X007100Y022116D02*
X007200Y022116D01*
X007200Y022411D02*
X007100Y022411D01*
X007100Y022510D02*
X007200Y022510D01*
X007200Y022608D02*
X007100Y022608D01*
X007100Y022707D02*
X007200Y022707D01*
X007438Y022707D02*
X007862Y022707D01*
X007763Y022608D02*
X007537Y022608D01*
X007620Y022510D02*
X007680Y022510D01*
X007680Y022411D02*
X007620Y022411D01*
X007620Y022214D02*
X007680Y022214D01*
X007700Y022116D02*
X007600Y022116D01*
X007502Y022017D02*
X007798Y022017D01*
X007897Y021919D02*
X007403Y021919D01*
X007360Y022904D02*
X007940Y022904D01*
X007964Y022880D02*
X008336Y022880D01*
X008600Y023144D01*
X008600Y023516D01*
X008336Y023780D01*
X007964Y023780D01*
X007700Y023516D01*
X007700Y023144D01*
X007964Y022880D01*
X007842Y023002D02*
X007458Y023002D01*
X007557Y023101D02*
X007743Y023101D01*
X007700Y023199D02*
X007600Y023199D01*
X007600Y023298D02*
X007700Y023298D01*
X007700Y023396D02*
X007600Y023396D01*
X007600Y023495D02*
X007700Y023495D01*
X007777Y023593D02*
X007523Y023593D01*
X007425Y023692D02*
X007875Y023692D01*
X008360Y022904D02*
X008940Y022904D01*
X008964Y022880D02*
X009336Y022880D01*
X009600Y023144D01*
X009600Y023516D01*
X009336Y023780D01*
X008964Y023780D01*
X008700Y023516D01*
X008700Y023144D01*
X008964Y022880D01*
X008842Y023002D02*
X008458Y023002D01*
X008557Y023101D02*
X008743Y023101D01*
X008700Y023199D02*
X008600Y023199D01*
X008600Y023298D02*
X008700Y023298D01*
X008700Y023396D02*
X008600Y023396D01*
X008600Y023495D02*
X008700Y023495D01*
X008777Y023593D02*
X008523Y023593D01*
X008425Y023692D02*
X008875Y023692D01*
X009360Y022904D02*
X011468Y022904D01*
X011490Y022805D02*
X000810Y022805D01*
X000804Y022707D02*
X002862Y022707D01*
X002955Y022800D02*
X002680Y022525D01*
X002680Y022380D01*
X003100Y022380D01*
X003100Y022800D01*
X002955Y022800D01*
X002955Y022860D02*
X003100Y022860D01*
X003100Y023280D01*
X003200Y023280D01*
X003200Y023380D01*
X003620Y023380D01*
X003620Y023525D01*
X003345Y023800D01*
X003200Y023800D01*
X003200Y023380D01*
X003100Y023380D01*
X003100Y023800D01*
X002955Y023800D01*
X002680Y023525D01*
X002680Y023380D01*
X003100Y023380D01*
X003100Y023280D01*
X002680Y023280D01*
X002680Y023135D01*
X002955Y022860D01*
X002912Y022904D02*
X000832Y022904D01*
X000859Y023002D02*
X002813Y023002D01*
X002715Y023101D02*
X000885Y023101D01*
X000921Y023199D02*
X002680Y023199D01*
X002680Y023396D02*
X001035Y023396D01*
X000978Y023298D02*
X003100Y023298D01*
X003100Y023396D02*
X003200Y023396D01*
X003200Y023298D02*
X003700Y023298D01*
X003620Y023280D02*
X003200Y023280D01*
X003200Y022860D01*
X003345Y022860D01*
X003620Y023135D01*
X003620Y023280D01*
X003620Y023199D02*
X003700Y023199D01*
X003743Y023101D02*
X003585Y023101D01*
X003487Y023002D02*
X003842Y023002D01*
X003940Y022904D02*
X003388Y022904D01*
X003345Y022800D02*
X003200Y022800D01*
X003200Y022380D01*
X003620Y022380D01*
X003620Y022525D01*
X003345Y022800D01*
X003438Y022707D02*
X003890Y022707D01*
X003792Y022608D02*
X003537Y022608D01*
X003620Y022510D02*
X003700Y022510D01*
X003700Y022411D02*
X003620Y022411D01*
X003700Y022313D02*
X003200Y022313D01*
X003200Y022280D02*
X003200Y022380D01*
X003100Y022380D01*
X003100Y022280D01*
X003200Y022280D01*
X003620Y022280D01*
X003620Y022135D01*
X003345Y021860D01*
X003200Y021860D01*
X003200Y022280D01*
X003200Y022214D02*
X003100Y022214D01*
X003100Y022280D02*
X003100Y021860D01*
X002955Y021860D01*
X002680Y022135D01*
X002680Y022280D01*
X003100Y022280D01*
X003100Y022313D02*
X000800Y022313D01*
X000800Y022411D02*
X002680Y022411D01*
X002680Y022510D02*
X000800Y022510D01*
X000800Y022608D02*
X002763Y022608D01*
X002680Y022214D02*
X000800Y022214D01*
X000800Y022116D02*
X002700Y022116D01*
X002798Y022017D02*
X000800Y022017D01*
X000800Y021919D02*
X002897Y021919D01*
X003100Y021919D02*
X003200Y021919D01*
X003200Y022017D02*
X003100Y022017D01*
X003100Y022116D02*
X003200Y022116D01*
X003200Y022411D02*
X003100Y022411D01*
X003100Y022510D02*
X003200Y022510D01*
X003200Y022608D02*
X003100Y022608D01*
X003100Y022707D02*
X003200Y022707D01*
X003200Y022904D02*
X003100Y022904D01*
X003100Y023002D02*
X003200Y023002D01*
X003200Y023101D02*
X003100Y023101D01*
X003100Y023199D02*
X003200Y023199D01*
X003200Y023495D02*
X003100Y023495D01*
X003100Y023593D02*
X003200Y023593D01*
X003200Y023692D02*
X003100Y023692D01*
X003100Y023790D02*
X003200Y023790D01*
X003355Y023790D02*
X010852Y023790D01*
X011001Y023692D02*
X009425Y023692D01*
X009523Y023593D02*
X011100Y023593D01*
X011198Y023495D02*
X009600Y023495D01*
X009600Y023396D02*
X011265Y023396D01*
X011322Y023298D02*
X009600Y023298D01*
X009600Y023199D02*
X011379Y023199D01*
X011415Y023101D02*
X009557Y023101D01*
X009458Y023002D02*
X011441Y023002D01*
X011496Y022707D02*
X009438Y022707D01*
X009537Y022608D02*
X011500Y022608D01*
X011500Y022510D02*
X009620Y022510D01*
X009200Y022510D02*
X009100Y022510D01*
X009100Y022608D02*
X009200Y022608D01*
X009200Y022707D02*
X009100Y022707D01*
X008862Y022707D02*
X008438Y022707D01*
X008537Y022608D02*
X008763Y022608D01*
X008680Y022510D02*
X008620Y022510D01*
X008620Y022411D02*
X008680Y022411D01*
X008680Y022280D02*
X008680Y022135D01*
X008955Y021860D01*
X009100Y021860D01*
X009100Y022280D01*
X008680Y022280D01*
X008680Y022214D02*
X008620Y022214D01*
X008600Y022116D02*
X008700Y022116D01*
X008798Y022017D02*
X008502Y022017D01*
X008403Y021919D02*
X008897Y021919D01*
X009100Y021919D02*
X009200Y021919D01*
X009200Y022017D02*
X009100Y022017D01*
X009100Y022116D02*
X009200Y022116D01*
X009200Y022214D02*
X009100Y022214D01*
X008200Y022116D02*
X008100Y022116D01*
X008100Y022017D02*
X008200Y022017D01*
X008200Y021919D02*
X008100Y021919D01*
X008100Y022411D02*
X008200Y022411D01*
X008200Y022510D02*
X008100Y022510D01*
X008100Y022608D02*
X008200Y022608D01*
X008200Y022707D02*
X008100Y022707D01*
X006200Y022707D02*
X006100Y022707D01*
X006100Y022608D02*
X006200Y022608D01*
X006200Y022510D02*
X006100Y022510D01*
X006100Y022411D02*
X006200Y022411D01*
X006200Y022116D02*
X006100Y022116D01*
X006100Y022017D02*
X006200Y022017D01*
X006200Y021919D02*
X006100Y021919D01*
X005897Y021919D02*
X005403Y021919D01*
X005502Y022017D02*
X005798Y022017D01*
X005700Y022116D02*
X005600Y022116D01*
X005620Y022214D02*
X005680Y022214D01*
X005680Y022411D02*
X005620Y022411D01*
X005620Y022510D02*
X005680Y022510D01*
X005763Y022608D02*
X005537Y022608D01*
X005438Y022707D02*
X005862Y022707D01*
X005200Y022707D02*
X005100Y022707D01*
X005100Y022608D02*
X005200Y022608D01*
X005200Y022510D02*
X005100Y022510D01*
X005100Y022411D02*
X005200Y022411D01*
X005200Y022116D02*
X005100Y022116D01*
X005100Y022017D02*
X005200Y022017D01*
X005200Y021919D02*
X005100Y021919D01*
X004897Y021919D02*
X004375Y021919D01*
X004473Y022017D02*
X004798Y022017D01*
X004700Y022116D02*
X004572Y022116D01*
X004600Y022214D02*
X004680Y022214D01*
X004269Y021328D02*
X011500Y021328D01*
X011500Y021426D02*
X002430Y021426D01*
X002359Y021525D02*
X011500Y021525D01*
X011500Y021623D02*
X000800Y021623D01*
X000800Y021525D02*
X000916Y021525D01*
X000908Y021520D02*
X000880Y021492D01*
X000860Y021458D01*
X000850Y021420D01*
X000850Y021200D01*
X001200Y021200D01*
X001200Y021550D01*
X000980Y021550D01*
X000942Y021540D01*
X000908Y021520D01*
X000852Y021426D02*
X000800Y021426D01*
X000800Y021328D02*
X000850Y021328D01*
X000850Y021229D02*
X000800Y021229D01*
X000800Y021131D02*
X001200Y021131D01*
X001200Y021100D02*
X000850Y021100D01*
X000850Y020880D01*
X000860Y020842D01*
X000880Y020808D01*
X000908Y020780D01*
X000942Y020760D01*
X000980Y020750D01*
X001200Y020750D01*
X001200Y021100D01*
X001200Y021200D01*
X001300Y021200D01*
X001300Y021550D01*
X001520Y021550D01*
X001558Y021540D01*
X001592Y021520D01*
X001620Y021492D01*
X001640Y021458D01*
X001650Y021420D01*
X001650Y021200D01*
X001300Y021200D01*
X001300Y021100D01*
X001650Y021100D01*
X001650Y020880D01*
X001640Y020842D01*
X001620Y020808D01*
X001592Y020780D01*
X001558Y020760D01*
X001520Y020750D01*
X001300Y020750D01*
X001300Y021100D01*
X001200Y021100D01*
X001200Y021032D02*
X001300Y021032D01*
X001300Y020934D02*
X001200Y020934D01*
X001200Y020835D02*
X001300Y020835D01*
X001300Y021131D02*
X001670Y021131D01*
X001670Y021229D02*
X001650Y021229D01*
X001650Y021328D02*
X001670Y021328D01*
X001670Y021426D02*
X001648Y021426D01*
X001584Y021525D02*
X001741Y021525D01*
X001670Y021032D02*
X001650Y021032D01*
X001650Y020934D02*
X001670Y020934D01*
X001681Y020835D02*
X001636Y020835D01*
X001300Y020540D02*
X001200Y020540D01*
X001200Y020441D02*
X001300Y020441D01*
X001300Y020343D02*
X001200Y020343D01*
X001200Y020244D02*
X001300Y020244D01*
X001200Y020146D02*
X000800Y020146D01*
X000800Y020244D02*
X000850Y020244D01*
X000850Y020343D02*
X000800Y020343D01*
X000800Y020441D02*
X000856Y020441D01*
X000800Y020540D02*
X000942Y020540D01*
X000800Y020638D02*
X004365Y020638D01*
X004266Y020737D02*
X000800Y020737D01*
X000800Y020835D02*
X000864Y020835D01*
X000850Y020934D02*
X000800Y020934D01*
X000800Y021032D02*
X000850Y021032D01*
X001200Y021229D02*
X001300Y021229D01*
X001300Y021328D02*
X001200Y021328D01*
X001200Y021426D02*
X001300Y021426D01*
X001300Y021525D02*
X001200Y021525D01*
X000800Y021722D02*
X011500Y021722D01*
X011500Y021820D02*
X000800Y021820D01*
X001102Y023495D02*
X002680Y023495D01*
X002748Y023593D02*
X001200Y023593D01*
X001299Y023692D02*
X002847Y023692D01*
X002945Y023790D02*
X001448Y023790D01*
X001618Y023889D02*
X010682Y023889D01*
X010331Y023987D02*
X001969Y023987D01*
X003453Y023692D02*
X003875Y023692D01*
X003777Y023593D02*
X003552Y023593D01*
X003620Y023495D02*
X003700Y023495D01*
X003700Y023396D02*
X003620Y023396D01*
X003620Y022214D02*
X003700Y022214D01*
X003728Y022116D02*
X003600Y022116D01*
X003502Y022017D02*
X003827Y022017D01*
X003925Y021919D02*
X003403Y021919D01*
X004069Y020934D02*
X002430Y020934D01*
X002419Y020835D02*
X004168Y020835D01*
X004368Y021229D02*
X011500Y021229D01*
X011500Y021131D02*
X004466Y021131D01*
X004565Y021032D02*
X011500Y021032D01*
X011500Y020934D02*
X004663Y020934D01*
X004762Y020835D02*
X011500Y020835D01*
X011500Y020737D02*
X004860Y020737D01*
X004959Y020638D02*
X011500Y020638D01*
X011500Y020540D02*
X005057Y020540D01*
X005156Y020441D02*
X011500Y020441D01*
X011500Y020343D02*
X005254Y020343D01*
X005353Y020244D02*
X011500Y020244D01*
X011500Y020146D02*
X005451Y020146D01*
X005550Y020047D02*
X011500Y020047D01*
X011500Y019949D02*
X005648Y019949D01*
X005747Y019850D02*
X011500Y019850D01*
X011500Y019752D02*
X005845Y019752D01*
X005944Y019653D02*
X011500Y019653D01*
X011500Y019555D02*
X006042Y019555D01*
X006141Y019456D02*
X011500Y019456D01*
X008440Y015516D02*
X008418Y015516D01*
X008418Y015418D02*
X008440Y015418D01*
X008440Y015319D02*
X008418Y015319D01*
X008418Y015221D02*
X008440Y015221D01*
X007902Y016698D02*
X007899Y016698D01*
X007898Y016797D02*
X007902Y016797D01*
X007898Y016895D02*
X007902Y016895D01*
X007898Y016994D02*
X007902Y016994D01*
X007898Y017092D02*
X007902Y017092D01*
X007898Y017191D02*
X007902Y017191D01*
X007898Y017289D02*
X007902Y017289D01*
X007898Y017388D02*
X007902Y017388D01*
X007898Y017486D02*
X007902Y017486D01*
X007898Y017585D02*
X007902Y017585D01*
X007924Y017683D02*
X007876Y017683D01*
X007424Y017683D02*
X007376Y017683D01*
X007398Y017585D02*
X007402Y017585D01*
X007398Y017486D02*
X007402Y017486D01*
X007398Y017388D02*
X007402Y017388D01*
X007398Y017289D02*
X007402Y017289D01*
X007398Y017191D02*
X007402Y017191D01*
X007398Y017092D02*
X007402Y017092D01*
X007398Y016994D02*
X007402Y016994D01*
X007398Y016895D02*
X007402Y016895D01*
X007398Y016797D02*
X007402Y016797D01*
X007399Y016698D02*
X007402Y016698D01*
X007322Y015689D02*
X006978Y015689D01*
X006902Y015613D01*
X006902Y014639D01*
X006978Y014563D01*
X007322Y014563D01*
X007398Y014639D01*
X007398Y015613D01*
X007322Y015689D01*
X007397Y015615D02*
X007403Y015615D01*
X007398Y015516D02*
X007402Y015516D01*
X007398Y015418D02*
X007402Y015418D01*
X007398Y015319D02*
X007402Y015319D01*
X007398Y015221D02*
X007402Y015221D01*
X007398Y015122D02*
X007402Y015122D01*
X007398Y015024D02*
X007402Y015024D01*
X007398Y014925D02*
X007402Y014925D01*
X007398Y014827D02*
X007402Y014827D01*
X007398Y014728D02*
X007402Y014728D01*
X007388Y014630D02*
X007412Y014630D01*
X007440Y014531D02*
X006360Y014531D01*
X006360Y014601D02*
X006398Y014639D01*
X006398Y015613D01*
X006322Y015689D01*
X005978Y015689D01*
X005902Y015613D01*
X005902Y014639D01*
X005940Y014601D01*
X005940Y014432D01*
X005855Y014347D01*
X005802Y014219D01*
X005802Y014081D01*
X005855Y013953D01*
X005953Y013855D01*
X006081Y013802D01*
X006219Y013802D01*
X006347Y013855D01*
X006445Y013953D01*
X006498Y014081D01*
X006498Y014219D01*
X006445Y014347D01*
X006360Y014432D01*
X006360Y014601D01*
X006388Y014630D02*
X006412Y014630D01*
X006402Y014639D02*
X006478Y014563D01*
X006822Y014563D01*
X006898Y014639D01*
X006898Y015613D01*
X006822Y015689D01*
X006478Y015689D01*
X006402Y015613D01*
X006402Y014639D01*
X006398Y014728D02*
X006402Y014728D01*
X006398Y014827D02*
X006402Y014827D01*
X006398Y014925D02*
X006402Y014925D01*
X006398Y015024D02*
X006402Y015024D01*
X006398Y015122D02*
X006402Y015122D01*
X006398Y015221D02*
X006402Y015221D01*
X006398Y015319D02*
X006402Y015319D01*
X006398Y015418D02*
X006402Y015418D01*
X006398Y015516D02*
X006402Y015516D01*
X006397Y015615D02*
X006403Y015615D01*
X006897Y015615D02*
X006903Y015615D01*
X006898Y015516D02*
X006902Y015516D01*
X006898Y015418D02*
X006902Y015418D01*
X006898Y015319D02*
X006902Y015319D01*
X006898Y015221D02*
X006902Y015221D01*
X006898Y015122D02*
X006902Y015122D01*
X006898Y015024D02*
X006902Y015024D01*
X006898Y014925D02*
X006902Y014925D01*
X006898Y014827D02*
X006902Y014827D01*
X006898Y014728D02*
X006902Y014728D01*
X006888Y014630D02*
X006912Y014630D01*
X006715Y014137D02*
X006498Y014137D01*
X006491Y014236D02*
X007205Y014236D01*
X007205Y014334D02*
X006451Y014334D01*
X006360Y014433D02*
X007440Y014433D01*
X006617Y014039D02*
X006481Y014039D01*
X006518Y013940D02*
X006432Y013940D01*
X006440Y013842D02*
X006315Y013842D01*
X006440Y013743D02*
X002267Y013743D01*
X002273Y013749D02*
X002332Y013892D01*
X002332Y014046D01*
X002273Y014189D01*
X002164Y014298D01*
X002021Y014357D01*
X001867Y014357D01*
X001725Y014298D01*
X001616Y014189D01*
X001556Y014046D01*
X001556Y013892D01*
X001616Y013749D01*
X001725Y013640D01*
X001867Y013581D01*
X002021Y013581D01*
X002164Y013640D01*
X002273Y013749D01*
X002311Y013842D02*
X005985Y013842D01*
X005868Y013940D02*
X002332Y013940D01*
X002332Y014039D02*
X005819Y014039D01*
X005802Y014137D02*
X004788Y014137D01*
X004886Y014236D02*
X005809Y014236D01*
X005849Y014334D02*
X004944Y014334D01*
X004985Y014433D02*
X005940Y014433D01*
X005940Y014531D02*
X004985Y014531D01*
X004727Y015024D02*
X004321Y015024D01*
X004289Y014925D02*
X004222Y014925D01*
X004176Y014827D02*
X004124Y014827D01*
X004111Y014728D02*
X004025Y014728D01*
X003980Y014630D02*
X004070Y014630D01*
X004065Y014531D02*
X003985Y014531D01*
X003985Y014433D02*
X004065Y014433D01*
X004106Y014334D02*
X003944Y014334D01*
X003886Y014236D02*
X004164Y014236D01*
X004262Y014137D02*
X003788Y014137D01*
X003667Y014964D02*
X003616Y014985D01*
X003433Y014985D01*
X003264Y014915D01*
X003135Y014786D01*
X003065Y014616D01*
X003070Y014630D02*
X002927Y014630D01*
X003025Y014728D02*
X003111Y014728D01*
X003124Y014827D02*
X003176Y014827D01*
X003222Y014925D02*
X003289Y014925D01*
X003321Y015024D02*
X003727Y015024D01*
X003667Y014964D02*
X004813Y016110D01*
X004948Y016110D01*
X004855Y016203D01*
X004802Y016331D01*
X004802Y016469D01*
X004855Y016597D01*
X004923Y016665D01*
X004902Y016687D01*
X004902Y017661D01*
X004940Y017699D01*
X004940Y017870D01*
X004781Y017870D01*
X004705Y017947D01*
X004705Y018046D01*
X004250Y018046D01*
X003951Y018345D01*
X003831Y018345D01*
X003703Y018398D01*
X003605Y018496D01*
X003552Y018624D01*
X003552Y018763D01*
X003605Y018890D01*
X003703Y018988D01*
X003831Y019041D01*
X003969Y019041D01*
X004097Y018988D01*
X004195Y018890D01*
X004248Y018763D01*
X004248Y018642D01*
X004424Y018466D01*
X004705Y018466D01*
X004705Y018566D01*
X004781Y018642D01*
X004799Y018642D01*
X004777Y018648D01*
X004743Y018668D01*
X004715Y018696D01*
X004695Y018730D01*
X004685Y018768D01*
X004685Y018994D01*
X005100Y018994D01*
X005100Y019094D01*
X004685Y019094D01*
X004685Y019319D01*
X004695Y019358D01*
X004685Y019259D02*
X002713Y019259D01*
X002811Y019161D02*
X004685Y019161D01*
X004685Y018964D02*
X004122Y018964D01*
X004206Y018865D02*
X004685Y018865D01*
X004685Y018767D02*
X004246Y018767D01*
X004248Y018668D02*
X004743Y018668D01*
X004709Y018570D02*
X004321Y018570D01*
X004419Y018471D02*
X004705Y018471D01*
X004705Y017979D02*
X003360Y017979D01*
X003360Y018077D02*
X004219Y018077D01*
X004121Y018176D02*
X003360Y018176D01*
X003360Y018274D02*
X004022Y018274D01*
X003765Y018373D02*
X003360Y018373D01*
X003360Y018471D02*
X003630Y018471D01*
X003574Y018570D02*
X003360Y018570D01*
X003304Y018668D02*
X003552Y018668D01*
X003554Y018767D02*
X003205Y018767D01*
X003107Y018865D02*
X003594Y018865D01*
X003678Y018964D02*
X003008Y018964D01*
X002910Y019062D02*
X005100Y019062D01*
X005100Y019161D02*
X005200Y019161D01*
X005200Y019259D02*
X005100Y019259D01*
X005100Y019358D02*
X005200Y019358D01*
X005200Y019062D02*
X005941Y019062D01*
X006039Y018964D02*
X005615Y018964D01*
X005615Y018865D02*
X006138Y018865D01*
X005842Y019161D02*
X005615Y019161D01*
X005615Y019259D02*
X005744Y019259D01*
X005424Y017683D02*
X005376Y017683D01*
X005398Y017585D02*
X005402Y017585D01*
X005398Y017486D02*
X005402Y017486D01*
X005398Y017388D02*
X005402Y017388D01*
X005398Y017289D02*
X005402Y017289D01*
X005398Y017191D02*
X005402Y017191D01*
X005398Y017092D02*
X005402Y017092D01*
X005398Y016994D02*
X005402Y016994D01*
X005398Y016895D02*
X005402Y016895D01*
X005398Y016797D02*
X005402Y016797D01*
X005398Y016698D02*
X005402Y016698D01*
X004902Y016698D02*
X003595Y016698D01*
X003595Y016600D02*
X004857Y016600D01*
X004815Y016501D02*
X003595Y016501D01*
X003595Y016403D02*
X004802Y016403D01*
X004813Y016304D02*
X003595Y016304D01*
X003586Y016206D02*
X004854Y016206D01*
X004810Y016107D02*
X003574Y016107D01*
X003595Y016009D02*
X004712Y016009D01*
X004613Y015910D02*
X003595Y015910D01*
X003595Y015812D02*
X004515Y015812D01*
X004416Y015713D02*
X003595Y015713D01*
X003595Y015615D02*
X004318Y015615D01*
X004219Y015516D02*
X003595Y015516D01*
X003546Y015418D02*
X004121Y015418D01*
X004022Y015319D02*
X003360Y015319D01*
X003360Y015221D02*
X003924Y015221D01*
X003825Y015122D02*
X003360Y015122D01*
X003065Y014433D02*
X002169Y014433D01*
X002076Y014334D02*
X003106Y014334D01*
X003164Y014236D02*
X002226Y014236D01*
X002294Y014137D02*
X003262Y014137D01*
X002273Y013401D02*
X002332Y013259D01*
X002332Y013104D01*
X002273Y012962D01*
X002164Y012853D01*
X002021Y012794D01*
X001867Y012794D01*
X001725Y012853D01*
X001616Y012962D01*
X001556Y013104D01*
X001556Y013259D01*
X001616Y013401D01*
X001725Y013510D01*
X001867Y013569D01*
X002021Y013569D01*
X002164Y013510D01*
X002273Y013401D01*
X002295Y013349D02*
X006440Y013349D01*
X006440Y013251D02*
X002332Y013251D01*
X002332Y013152D02*
X006440Y013152D01*
X006440Y013054D02*
X002311Y013054D01*
X002266Y012955D02*
X006440Y012955D01*
X006440Y012857D02*
X002168Y012857D01*
X002079Y012758D02*
X006440Y012758D01*
X006440Y012660D02*
X002227Y012660D01*
X002273Y012614D02*
X002164Y012723D01*
X002021Y012782D01*
X001867Y012782D01*
X001725Y012723D01*
X001616Y012614D01*
X001556Y012471D01*
X001556Y012317D01*
X001616Y012174D01*
X001725Y012065D01*
X001865Y012007D01*
X001849Y012004D01*
X001788Y011985D01*
X001731Y011955D01*
X001679Y011918D01*
X001633Y011872D01*
X001596Y011820D01*
X001566Y011763D01*
X001547Y011702D01*
X001536Y011639D01*
X001536Y011626D01*
X001925Y011626D01*
X001925Y011588D01*
X001536Y011588D01*
X001536Y011575D01*
X001547Y011511D01*
X001566Y011450D01*
X001596Y011393D01*
X001633Y011341D01*
X001679Y011296D01*
X001731Y011258D01*
X001788Y011229D01*
X001849Y011209D01*
X001912Y011199D01*
X001925Y011199D01*
X001925Y011588D01*
X001963Y011588D01*
X001963Y011199D01*
X001976Y011199D01*
X002040Y011209D01*
X002101Y011229D01*
X002158Y011258D01*
X002210Y011296D01*
X002255Y011341D01*
X002293Y011393D01*
X002322Y011450D01*
X002342Y011511D01*
X002352Y011575D01*
X002352Y011588D01*
X001963Y011588D01*
X001963Y011626D01*
X002352Y011626D01*
X002352Y011639D01*
X002342Y011702D01*
X002322Y011763D01*
X002293Y011820D01*
X002255Y011872D01*
X002210Y011918D01*
X002158Y011955D01*
X002101Y011985D01*
X002040Y012004D01*
X002023Y012007D01*
X002164Y012065D01*
X002273Y012174D01*
X002332Y012317D01*
X002332Y012471D01*
X002273Y012614D01*
X002295Y012561D02*
X006440Y012561D01*
X006440Y012463D02*
X002332Y012463D01*
X002332Y012364D02*
X006440Y012364D01*
X006440Y012266D02*
X002311Y012266D01*
X002266Y012167D02*
X006440Y012167D01*
X006440Y012069D02*
X002167Y012069D01*
X002129Y011970D02*
X006440Y011970D01*
X006440Y011872D02*
X002256Y011872D01*
X002317Y011773D02*
X006440Y011773D01*
X006440Y011675D02*
X002346Y011675D01*
X002352Y011576D02*
X006440Y011576D01*
X006440Y011478D02*
X002331Y011478D01*
X002283Y011379D02*
X006440Y011379D01*
X006440Y011281D02*
X002189Y011281D01*
X001963Y011281D02*
X001925Y011281D01*
X001925Y011379D02*
X001963Y011379D01*
X001963Y011478D02*
X001925Y011478D01*
X001925Y011576D02*
X001963Y011576D01*
X001699Y011281D02*
X000800Y011281D01*
X000800Y011379D02*
X001606Y011379D01*
X001557Y011478D02*
X000800Y011478D01*
X000800Y011576D02*
X001536Y011576D01*
X001542Y011675D02*
X000800Y011675D01*
X000800Y011773D02*
X001571Y011773D01*
X001633Y011872D02*
X000800Y011872D01*
X000800Y011970D02*
X001759Y011970D01*
X001721Y012069D02*
X000800Y012069D01*
X000800Y012167D02*
X001623Y012167D01*
X001578Y012266D02*
X000800Y012266D01*
X000800Y012364D02*
X001556Y012364D01*
X001556Y012463D02*
X000800Y012463D01*
X000800Y012561D02*
X001594Y012561D01*
X001661Y012660D02*
X000800Y012660D01*
X000800Y012758D02*
X001810Y012758D01*
X001721Y012857D02*
X000800Y012857D01*
X000800Y012955D02*
X001622Y012955D01*
X001578Y013054D02*
X000800Y013054D01*
X000800Y013152D02*
X001556Y013152D01*
X001556Y013251D02*
X000800Y013251D01*
X000800Y013349D02*
X001594Y013349D01*
X001662Y013448D02*
X000800Y013448D01*
X000800Y013546D02*
X001811Y013546D01*
X001720Y013645D02*
X000800Y013645D01*
X000800Y013743D02*
X001622Y013743D01*
X001577Y013842D02*
X000800Y013842D01*
X000800Y013940D02*
X001556Y013940D01*
X001556Y014039D02*
X000800Y014039D01*
X000800Y014137D02*
X001594Y014137D01*
X001663Y014236D02*
X000800Y014236D01*
X000800Y014334D02*
X001812Y014334D01*
X001720Y014433D02*
X000800Y014433D01*
X000800Y014531D02*
X001621Y014531D01*
X001577Y014630D02*
X000800Y014630D01*
X000800Y014728D02*
X001556Y014728D01*
X001556Y014827D02*
X000800Y014827D01*
X000800Y014925D02*
X001594Y014925D01*
X001663Y015024D02*
X000800Y015024D01*
X000800Y015122D02*
X001814Y015122D01*
X001719Y015221D02*
X000800Y015221D01*
X000800Y015319D02*
X001621Y015319D01*
X001577Y015418D02*
X000800Y015418D01*
X000800Y015516D02*
X001556Y015516D01*
X001556Y015615D02*
X000800Y015615D01*
X000800Y015713D02*
X001595Y015713D01*
X001664Y015812D02*
X000800Y015812D01*
X000800Y015910D02*
X001815Y015910D01*
X001718Y016009D02*
X000800Y016009D01*
X000800Y016107D02*
X001620Y016107D01*
X001577Y016206D02*
X000800Y016206D01*
X000800Y016304D02*
X001556Y016304D01*
X001556Y016403D02*
X000800Y016403D01*
X000800Y016501D02*
X001595Y016501D01*
X001664Y016600D02*
X000800Y016600D01*
X000800Y016698D02*
X001817Y016698D01*
X001718Y016797D02*
X000800Y016797D01*
X000800Y016895D02*
X001619Y016895D01*
X001576Y016994D02*
X000800Y016994D01*
X000800Y017092D02*
X001556Y017092D01*
X001556Y017191D02*
X000800Y017191D01*
X000800Y017289D02*
X001595Y017289D01*
X001665Y017388D02*
X000800Y017388D01*
X000800Y017486D02*
X001818Y017486D01*
X001717Y017585D02*
X000800Y017585D01*
X000800Y017683D02*
X001619Y017683D01*
X001576Y017782D02*
X000800Y017782D01*
X000800Y017880D02*
X001556Y017880D01*
X001556Y017979D02*
X000800Y017979D01*
X000800Y018077D02*
X001595Y018077D01*
X002172Y018373D02*
X002940Y018373D01*
X002907Y018471D02*
X002270Y018471D01*
X002313Y018570D02*
X002808Y018570D01*
X002710Y018668D02*
X002332Y018668D01*
X002332Y018767D02*
X002611Y018767D01*
X002513Y018865D02*
X002293Y018865D01*
X002222Y018964D02*
X002414Y018964D01*
X001670Y019850D02*
X001642Y019850D01*
X001650Y019949D02*
X001670Y019949D01*
X001670Y020047D02*
X001650Y020047D01*
X000974Y019752D02*
X000800Y019752D01*
X000800Y019850D02*
X000858Y019850D01*
X000850Y019949D02*
X000800Y019949D01*
X000800Y020047D02*
X000850Y020047D01*
X003360Y017880D02*
X004772Y017880D01*
X004940Y017782D02*
X003360Y017782D01*
X003360Y017683D02*
X004924Y017683D01*
X004902Y017585D02*
X003360Y017585D01*
X003360Y017486D02*
X004902Y017486D01*
X004902Y017388D02*
X003360Y017388D01*
X003360Y017289D02*
X004902Y017289D01*
X004902Y017191D02*
X003360Y017191D01*
X003360Y017092D02*
X004902Y017092D01*
X004902Y016994D02*
X003360Y016994D01*
X003534Y016895D02*
X004902Y016895D01*
X004902Y016797D02*
X003595Y016797D01*
X004419Y015122D02*
X004825Y015122D01*
X004902Y015221D02*
X004518Y015221D01*
X004616Y015319D02*
X004902Y015319D01*
X004902Y015418D02*
X004715Y015418D01*
X004813Y015516D02*
X004902Y015516D01*
X005398Y015516D02*
X005402Y015516D01*
X005398Y015418D02*
X005402Y015418D01*
X005398Y015319D02*
X005402Y015319D01*
X005398Y015221D02*
X005402Y015221D01*
X005398Y015122D02*
X005402Y015122D01*
X005398Y015024D02*
X005402Y015024D01*
X005398Y014925D02*
X005402Y014925D01*
X005398Y014827D02*
X005402Y014827D01*
X005398Y014728D02*
X005402Y014728D01*
X005388Y014630D02*
X005412Y014630D01*
X005888Y014630D02*
X005912Y014630D01*
X005898Y014728D02*
X005902Y014728D01*
X005898Y014827D02*
X005902Y014827D01*
X005898Y014925D02*
X005902Y014925D01*
X005898Y015024D02*
X005902Y015024D01*
X005898Y015122D02*
X005902Y015122D01*
X005898Y015221D02*
X005902Y015221D01*
X005898Y015319D02*
X005902Y015319D01*
X005898Y015418D02*
X005902Y015418D01*
X005898Y015516D02*
X005902Y015516D01*
X005897Y015615D02*
X005903Y015615D01*
X006440Y013645D02*
X002168Y013645D01*
X002078Y013546D02*
X006440Y013546D01*
X006440Y013448D02*
X002227Y013448D01*
X000800Y011182D02*
X006440Y011182D01*
X006440Y011084D02*
X000800Y011084D01*
X000800Y010985D02*
X006440Y010985D01*
X006440Y010887D02*
X000800Y010887D01*
X000800Y010788D02*
X006440Y010788D01*
X006440Y010690D02*
X000800Y010690D01*
X000800Y010591D02*
X006440Y010591D01*
X006440Y010493D02*
X000800Y010493D01*
X000800Y010394D02*
X006440Y010394D01*
X006440Y010296D02*
X000800Y010296D01*
X000800Y010197D02*
X006440Y010197D01*
X006440Y010099D02*
X000800Y010099D01*
X000800Y010000D02*
X006440Y010000D01*
X006440Y009902D02*
X000800Y009902D01*
X000800Y009803D02*
X006440Y009803D01*
X006440Y009705D02*
X000800Y009705D01*
X000800Y009606D02*
X006440Y009606D01*
X006440Y009508D02*
X000800Y009508D01*
X000800Y009409D02*
X006440Y009409D01*
X006440Y009311D02*
X000800Y009311D01*
X000800Y009212D02*
X006440Y009212D01*
X006440Y009114D02*
X000800Y009114D01*
X000800Y009015D02*
X006440Y009015D01*
X006440Y008917D02*
X000800Y008917D01*
X000800Y008818D02*
X006440Y008818D01*
X006440Y008720D02*
X000800Y008720D01*
X000800Y008621D02*
X006440Y008621D01*
X006440Y008523D02*
X000800Y008523D01*
X000800Y008424D02*
X006440Y008424D01*
X006440Y008326D02*
X000800Y008326D01*
X000800Y007045D02*
X006302Y007045D01*
X006306Y006947D02*
X000800Y006947D01*
X000800Y006848D02*
X006347Y006848D01*
X006433Y006750D02*
X000800Y006750D01*
X000800Y005863D02*
X005941Y005863D01*
X005440Y004090D02*
X004875Y004090D01*
X004973Y003992D02*
X005355Y003992D01*
X005257Y003893D02*
X005072Y003893D01*
X005120Y003795D02*
X005200Y003795D01*
X005840Y003204D02*
X005907Y003204D01*
X005938Y003302D02*
X005940Y003302D01*
X005808Y003105D02*
X002492Y003105D01*
X001575Y002908D02*
X001475Y002908D01*
X001475Y002810D02*
X001575Y002810D01*
X001575Y002711D02*
X001475Y002711D01*
X003106Y005075D02*
X003194Y005075D01*
X003930Y003007D02*
X004370Y003007D01*
X004272Y002908D02*
X004028Y002908D01*
X004100Y002810D02*
X004200Y002810D01*
X004200Y002711D02*
X004100Y002711D01*
X004100Y002613D02*
X004200Y002613D01*
X004200Y002514D02*
X004100Y002514D01*
X004052Y002416D02*
X004248Y002416D01*
X003698Y001332D02*
X003602Y001332D01*
X003602Y001234D02*
X003698Y001234D01*
X005955Y001234D02*
X006345Y001234D01*
X006247Y001332D02*
X006053Y001332D01*
X006111Y001431D02*
X006189Y001431D01*
X006955Y001234D02*
X007345Y001234D01*
X007247Y001332D02*
X007053Y001332D01*
X007111Y001431D02*
X007189Y001431D01*
X007220Y002416D02*
X007052Y002416D01*
X007100Y002514D02*
X007180Y002514D01*
X007100Y002613D02*
X007600Y002613D01*
X007600Y002711D02*
X007700Y002711D01*
X007700Y002613D02*
X008200Y002613D01*
X008200Y002711D02*
X008120Y002711D01*
X008120Y002810D02*
X008200Y002810D01*
X008272Y002908D02*
X008057Y002908D01*
X007958Y003007D02*
X008370Y003007D01*
X008200Y002514D02*
X008120Y002514D01*
X008147Y002416D02*
X008080Y002416D01*
X007700Y002810D02*
X007600Y002810D01*
X007600Y002908D02*
X007700Y002908D01*
X007700Y003007D02*
X007600Y003007D01*
X007600Y003105D02*
X007700Y003105D01*
X007700Y003204D02*
X007600Y003204D01*
X007600Y003302D02*
X007700Y003302D01*
X007700Y003401D02*
X007600Y003401D01*
X007600Y003499D02*
X007700Y003499D01*
X007700Y003598D02*
X007600Y003598D01*
X007432Y003204D02*
X007360Y003204D01*
X007360Y003105D02*
X007440Y003105D01*
X007342Y003007D02*
X007303Y003007D01*
X007243Y002908D02*
X007205Y002908D01*
X007180Y002810D02*
X007106Y002810D01*
X007100Y002711D02*
X007180Y002711D01*
X007360Y004090D02*
X007425Y004090D01*
X007360Y004189D02*
X009892Y004189D01*
X009931Y004287D02*
X010031Y004287D01*
X010031Y004386D02*
X009931Y004386D01*
X009931Y004484D02*
X010031Y004484D01*
X010031Y004780D02*
X009931Y004780D01*
X009931Y004878D02*
X010031Y004878D01*
X010031Y004977D02*
X009931Y004977D01*
X009931Y005075D02*
X010031Y005075D01*
X010450Y005075D02*
X010565Y005075D01*
X010565Y004977D02*
X010505Y004977D01*
X010505Y004878D02*
X010565Y004878D01*
X010565Y004780D02*
X010505Y004780D01*
X010310Y003204D02*
X010143Y003204D01*
X010242Y003105D02*
X010310Y003105D01*
X010537Y002810D02*
X011500Y002810D01*
X011500Y002908D02*
X011210Y002908D01*
X011240Y003007D02*
X011500Y003007D01*
X011500Y003105D02*
X011240Y003105D01*
X011500Y002711D02*
X010610Y002711D01*
X010610Y002613D02*
X011500Y002613D01*
X011500Y002514D02*
X010610Y002514D01*
X010610Y002416D02*
X011500Y002416D01*
X011500Y002317D02*
X010610Y002317D01*
X010610Y002219D02*
X011500Y002219D01*
X011498Y002120D02*
X010610Y002120D01*
X010782Y002022D02*
X011492Y002022D01*
X011475Y001923D02*
X010785Y001923D01*
X010785Y001825D02*
X011448Y001825D01*
X011422Y001726D02*
X010785Y001726D01*
X010785Y001628D02*
X011394Y001628D01*
X011397Y001633D02*
X011397Y001633D01*
X011337Y001529D02*
X010785Y001529D01*
X010785Y001431D02*
X011280Y001431D01*
X011223Y001332D02*
X010785Y001332D01*
X010737Y001234D02*
X011126Y001234D01*
X011028Y001135D02*
X009557Y001135D01*
X009458Y001037D02*
X010898Y001037D01*
X010728Y000938D02*
X009360Y000938D01*
X009261Y000840D02*
X010431Y000840D01*
X010061Y001234D02*
X009989Y001234D01*
X010725Y002908D02*
X010825Y002908D01*
X010825Y003007D02*
X010725Y003007D01*
X010725Y003105D02*
X010825Y003105D01*
X009514Y004287D02*
X007360Y004287D01*
X007360Y004386D02*
X009457Y004386D01*
X009457Y004484D02*
X007360Y004484D01*
X007360Y004583D02*
X009457Y004583D01*
X008355Y003992D02*
X007973Y003992D01*
X008072Y003893D02*
X008257Y003893D01*
X008200Y003795D02*
X008120Y003795D01*
D24*
X008150Y005470D02*
X008839Y005470D01*
X009470Y005470D01*
X009650Y005650D01*
X009650Y006275D01*
X010031Y006769D02*
X008996Y006769D01*
X008991Y006775D01*
X008150Y006775D01*
X007952Y007202D02*
X008839Y007202D01*
X009077Y007202D01*
X009400Y007525D01*
X009400Y008525D01*
X008900Y009025D01*
X008900Y016025D01*
X008525Y016400D01*
X007900Y016400D01*
X007650Y016650D01*
X007650Y017174D01*
X007150Y017174D02*
X007150Y016650D01*
X007650Y016150D01*
X008400Y016150D01*
X008650Y015900D01*
X008650Y009150D01*
X008150Y008650D01*
X008010Y007635D02*
X008681Y007635D01*
X008010Y007635D02*
X005025Y004650D01*
X004400Y004650D01*
X003524Y004650D01*
X002776Y004650D02*
X002150Y004650D01*
X001900Y004400D01*
X001900Y003400D01*
X002650Y002650D01*
X005650Y002650D02*
X006150Y003150D01*
X006150Y004650D01*
X007650Y006150D01*
X007836Y006336D01*
X008839Y006336D01*
X007952Y007202D02*
X005650Y004900D01*
X005650Y003650D01*
X006650Y002650D02*
X007150Y003150D01*
X007150Y004900D01*
X006650Y007025D02*
X006650Y013775D01*
X006899Y014024D01*
X007650Y014024D01*
X007650Y015126D01*
X007525Y013151D02*
X007525Y012650D01*
X007525Y008150D01*
X007150Y007775D01*
X009150Y009650D02*
X009650Y009150D01*
X009150Y009650D02*
X009150Y016275D01*
X008251Y017174D01*
X009150Y017650D02*
X009650Y017150D01*
X009650Y015712D01*
X010606Y014756D01*
X009150Y017650D02*
X009150Y018276D01*
X009150Y019024D02*
X006276Y019024D01*
X004150Y021150D01*
X002050Y021150D01*
X002050Y020150D02*
X002050Y019625D01*
X003150Y018525D01*
X003150Y016524D01*
X003150Y015776D02*
X003150Y015150D01*
X002756Y014756D01*
X001944Y014756D01*
X003525Y014525D02*
X004900Y015900D01*
X005400Y015900D01*
X005650Y015650D01*
X005650Y015126D01*
X006150Y015126D02*
X006150Y014150D01*
X005150Y015126D02*
X005126Y015126D01*
X004525Y014525D01*
X005150Y016400D02*
X005150Y017174D01*
X005150Y018256D01*
X004337Y018256D01*
X003900Y018693D01*
X010031Y006769D02*
X010775Y006025D01*
X010775Y004044D01*
X010044Y004044D01*
X009650Y003650D01*
X009900Y003150D02*
X010400Y002650D01*
X010400Y001651D01*
X010399Y001650D01*
X009651Y001650D02*
X009650Y001649D01*
X009525Y001400D01*
X009150Y001025D01*
X008275Y001025D01*
X007650Y001650D01*
D25*
X008150Y002150D02*
X008650Y002650D01*
X009150Y003150D01*
X009900Y003150D01*
X007525Y013151D02*
X007650Y013276D01*
X008150Y017174D02*
X008251Y017174D01*
X003150Y002150D02*
X002776Y001776D01*
X001525Y001776D01*
D26*
X003150Y002150D02*
X008150Y002150D01*
M02*
