G75*
G70*
%OFA0B0*%
%FSLAX24Y24*%
%IPPOS*%
%LPD*%
%AMOC8*
5,1,8,0,0,1.08239X$1,22.5*
%
%ADD10OC8,0.0720*%
%ADD11C,0.0596*%
%ADD12R,0.0828X0.0631*%
%ADD13R,0.0631X0.0789*%
%ADD14R,0.0671X0.0356*%
%ADD15R,0.0316X0.0946*%
%ADD16C,0.0740*%
%ADD17R,0.0710X0.0592*%
%ADD18R,0.0592X0.0710*%
%ADD19R,0.0580X0.0580*%
%ADD20C,0.0840*%
D10*
X002651Y002651D03*
X002651Y003651D03*
X003651Y003651D03*
X003651Y002651D03*
X004651Y002651D03*
X004651Y003651D03*
X005651Y003651D03*
X005651Y002651D03*
X006651Y002651D03*
X006651Y003651D03*
X007651Y003651D03*
X007651Y002651D03*
X008651Y002651D03*
X008651Y003651D03*
X009651Y003651D03*
X009651Y002651D03*
X009151Y022331D03*
X009151Y023331D03*
X008151Y023331D03*
X008151Y022331D03*
X007151Y022331D03*
X007151Y023331D03*
X006151Y023331D03*
X006151Y022331D03*
X005151Y022331D03*
X005151Y023331D03*
X004151Y023331D03*
X004151Y022331D03*
X003151Y022331D03*
X003151Y023331D03*
D11*
X001820Y018694D03*
X001820Y017907D03*
X001820Y017120D03*
X001820Y016332D03*
X001820Y015545D03*
X001820Y014757D03*
X001820Y013970D03*
X001820Y013183D03*
X001820Y012395D03*
X001820Y011608D03*
X010482Y011608D03*
X010482Y012395D03*
X010482Y013183D03*
X010482Y013970D03*
X010482Y014757D03*
X010482Y015545D03*
X010482Y016332D03*
X010482Y017120D03*
X010482Y017907D03*
X010482Y018694D03*
D12*
X010336Y010006D03*
X009982Y004809D03*
D13*
X004824Y005439D03*
X004824Y007801D03*
D14*
X008683Y007761D03*
X008840Y007328D03*
X008998Y006895D03*
X008840Y006462D03*
X008998Y006029D03*
X008840Y005596D03*
X008840Y005163D03*
X008840Y008194D03*
D15*
X008151Y015128D03*
X007651Y015128D03*
X007151Y015128D03*
X006651Y015128D03*
X006151Y015128D03*
X005651Y015128D03*
X005151Y015128D03*
X005151Y017175D03*
X005651Y017175D03*
X006151Y017175D03*
X006651Y017175D03*
X007151Y017175D03*
X007651Y017175D03*
X008151Y017175D03*
D16*
X004526Y014526D03*
X003526Y014526D03*
D17*
X001526Y001777D03*
X001526Y002525D03*
X007651Y013277D03*
X007651Y014025D03*
X009151Y018277D03*
X009151Y019025D03*
X005151Y019045D03*
X005151Y018257D03*
X002776Y016525D03*
X002776Y015777D03*
X010776Y004045D03*
X010776Y003257D03*
D18*
X010400Y001651D03*
X009652Y001651D03*
X003525Y004651D03*
X002777Y004651D03*
D19*
X002051Y020151D03*
X002051Y021151D03*
X001251Y021151D03*
X001251Y020151D03*
D20*
X003651Y001651D03*
X004651Y001651D03*
X005651Y001651D03*
X006651Y001651D03*
X007651Y001651D03*
X008651Y001651D03*
M02*
