G75*
G70*
%OFA0B0*%
%FSLAX24Y24*%
%IPPOS*%
%LPD*%
%AMOC8*
5,1,8,0,0,1.08239X$1,22.5*
%
%ADD10C,0.0050*%
D10*
X001701Y004751D02*
X004701Y004751D01*
X005901Y005951D01*
X005901Y008351D01*
X004701Y009551D01*
X001701Y009551D01*
X001642Y009549D01*
X001584Y009543D01*
X001525Y009534D01*
X001468Y009520D01*
X001412Y009503D01*
X001357Y009482D01*
X001303Y009458D01*
X001251Y009430D01*
X001201Y009399D01*
X001153Y009365D01*
X001108Y009328D01*
X001065Y009287D01*
X001024Y009244D01*
X000987Y009199D01*
X000953Y009151D01*
X000922Y009101D01*
X000894Y009049D01*
X000870Y008995D01*
X000849Y008940D01*
X000832Y008884D01*
X000818Y008827D01*
X000809Y008768D01*
X000803Y008710D01*
X000801Y008651D01*
X000801Y005651D01*
X000803Y005592D01*
X000809Y005534D01*
X000818Y005475D01*
X000832Y005418D01*
X000849Y005362D01*
X000870Y005307D01*
X000894Y005253D01*
X000922Y005201D01*
X000953Y005151D01*
X000987Y005103D01*
X001024Y005058D01*
X001065Y005015D01*
X001108Y004974D01*
X001153Y004937D01*
X001201Y004903D01*
X001251Y004872D01*
X001303Y004844D01*
X001357Y004820D01*
X001412Y004799D01*
X001468Y004782D01*
X001525Y004768D01*
X001584Y004759D01*
X001642Y004753D01*
X001701Y004751D01*
X005491Y009176D02*
X005582Y009176D01*
X005537Y009176D02*
X005537Y009446D01*
X005582Y009446D01*
X005733Y009446D02*
X005733Y009176D01*
X005778Y009176D02*
X005688Y009176D01*
X005892Y009266D02*
X005892Y009311D01*
X005938Y009356D01*
X006028Y009356D01*
X006073Y009311D01*
X006073Y009221D01*
X006028Y009176D01*
X005938Y009176D01*
X005892Y009266D02*
X006073Y009266D01*
X006187Y009176D02*
X006322Y009176D01*
X006367Y009221D01*
X006367Y009311D01*
X006322Y009356D01*
X006187Y009356D01*
X006269Y009676D02*
X006089Y009676D01*
X005974Y009721D02*
X005974Y009901D01*
X005929Y009946D01*
X005839Y009946D01*
X005794Y009901D01*
X005974Y009721D01*
X005929Y009676D01*
X005839Y009676D01*
X005794Y009721D01*
X005794Y009901D01*
X005729Y010176D02*
X005729Y010221D01*
X005684Y010221D01*
X005684Y010176D01*
X005729Y010176D01*
X005843Y010221D02*
X005843Y010311D01*
X005888Y010356D01*
X006024Y010356D01*
X006024Y010086D01*
X006024Y010176D02*
X005888Y010176D01*
X005843Y010221D01*
X005729Y010311D02*
X005729Y010356D01*
X005684Y010356D01*
X005684Y010311D01*
X005729Y010311D01*
X006138Y010356D02*
X006138Y010176D01*
X006273Y010176D01*
X006318Y010221D01*
X006318Y010356D01*
X006429Y010356D02*
X006564Y010266D01*
X006429Y010176D01*
X006564Y010176D02*
X006564Y010446D01*
X006678Y010356D02*
X006813Y010356D01*
X006858Y010311D01*
X006858Y010221D01*
X006813Y010176D01*
X006678Y010176D01*
X006768Y009946D02*
X006768Y009676D01*
X006858Y009676D02*
X006678Y009676D01*
X006564Y009676D02*
X006384Y009856D01*
X006384Y009901D01*
X006429Y009946D01*
X006519Y009946D01*
X006564Y009901D01*
X006564Y009676D02*
X006384Y009676D01*
X006269Y009676D02*
X006089Y009856D01*
X006089Y009901D01*
X006134Y009946D01*
X006224Y009946D01*
X006269Y009901D01*
X006768Y009946D02*
X006858Y009856D01*
X006973Y009811D02*
X007018Y009766D01*
X007153Y009766D01*
X007153Y009676D02*
X007153Y009946D01*
X007018Y009946D01*
X006973Y009901D01*
X006973Y009811D01*
X007063Y009766D02*
X006973Y009676D01*
X007108Y009491D02*
X007108Y009446D01*
X007108Y009356D02*
X007108Y009176D01*
X007153Y009176D02*
X007063Y009176D01*
X006957Y009176D02*
X006957Y009356D01*
X006821Y009356D01*
X006776Y009311D01*
X006776Y009176D01*
X006698Y008946D02*
X006653Y008946D01*
X006653Y008676D01*
X006698Y008676D02*
X006608Y008676D01*
X006501Y008676D02*
X006411Y008676D01*
X006456Y008676D02*
X006456Y008856D01*
X006501Y008856D01*
X006456Y008946D02*
X006456Y008991D01*
X006305Y008856D02*
X006305Y008586D01*
X006305Y008676D02*
X006170Y008676D01*
X006125Y008721D01*
X006125Y008811D01*
X006170Y008856D01*
X006305Y008856D01*
X006812Y008856D02*
X006947Y008856D01*
X006992Y008811D01*
X006992Y008721D01*
X006947Y008676D01*
X006812Y008676D01*
X007108Y009356D02*
X007153Y009356D01*
X007267Y009311D02*
X007267Y009221D01*
X007313Y009176D01*
X007403Y009176D01*
X007448Y009221D01*
X007448Y009311D01*
X007403Y009356D01*
X007313Y009356D01*
X007267Y009311D01*
X007313Y009676D02*
X007267Y009721D01*
X007313Y009676D02*
X007403Y009676D01*
X007448Y009721D01*
X007448Y009901D01*
X007403Y009946D01*
X007313Y009946D01*
X007267Y009901D01*
X007313Y010176D02*
X007267Y010221D01*
X007267Y010311D01*
X007313Y010356D01*
X007448Y010356D01*
X007448Y010446D02*
X007448Y010176D01*
X007313Y010176D01*
X007153Y010221D02*
X007108Y010266D01*
X006973Y010266D01*
X006973Y010311D02*
X006973Y010176D01*
X007108Y010176D01*
X007153Y010221D01*
X007108Y010356D02*
X007018Y010356D01*
X006973Y010311D01*
X007562Y009356D02*
X007697Y009356D01*
X007742Y009311D01*
X007742Y009221D01*
X007697Y009176D01*
X007562Y009176D01*
X007537Y008856D02*
X007401Y008856D01*
X007446Y008766D02*
X007537Y008766D01*
X007582Y008811D01*
X007537Y008856D01*
X007446Y008766D02*
X007401Y008721D01*
X007446Y008676D01*
X007582Y008676D01*
X007696Y008766D02*
X007696Y008811D01*
X007741Y008856D01*
X007831Y008856D01*
X007876Y008811D01*
X007876Y008721D01*
X007831Y008676D01*
X007741Y008676D01*
X007696Y008766D02*
X007876Y008766D01*
X007991Y008676D02*
X008126Y008676D01*
X008171Y008721D01*
X008171Y008811D01*
X008126Y008856D01*
X007991Y008856D01*
X008241Y009176D02*
X008151Y009266D01*
X008151Y009446D01*
X008332Y009446D02*
X008332Y009266D01*
X008241Y009176D01*
X008330Y008856D02*
X008285Y008811D01*
X008285Y008676D01*
X008420Y008676D01*
X008465Y008721D01*
X008420Y008766D01*
X008285Y008766D01*
X008330Y008856D02*
X008420Y008856D01*
X008572Y008811D02*
X008662Y008811D01*
X008617Y008901D02*
X008617Y008676D01*
X008617Y008901D02*
X008572Y008946D01*
X008581Y009176D02*
X008491Y009176D01*
X008446Y009221D01*
X008446Y009266D01*
X008491Y009311D01*
X008536Y009311D01*
X008491Y009311D02*
X008446Y009356D01*
X008446Y009401D01*
X008491Y009446D01*
X008581Y009446D01*
X008626Y009401D01*
X008626Y009221D02*
X008581Y009176D01*
X008581Y009676D02*
X008491Y009676D01*
X008446Y009721D01*
X008446Y009946D01*
X008332Y009811D02*
X008287Y009856D01*
X008151Y009856D01*
X008196Y009766D02*
X008287Y009766D01*
X008332Y009811D01*
X008332Y009676D02*
X008196Y009676D01*
X008151Y009721D01*
X008196Y009766D01*
X008037Y009766D02*
X007857Y009766D01*
X007857Y009811D01*
X007902Y009856D01*
X007992Y009856D01*
X008037Y009811D01*
X008037Y009721D01*
X007992Y009676D01*
X007902Y009676D01*
X007902Y010176D02*
X007857Y010221D01*
X007902Y010176D02*
X007992Y010176D01*
X008037Y010221D01*
X008037Y010401D01*
X007992Y010446D01*
X007902Y010446D01*
X007857Y010401D01*
X008151Y010446D02*
X008332Y010446D01*
X008241Y010446D02*
X008241Y010176D01*
X008446Y010176D02*
X008536Y010266D01*
X008491Y010266D02*
X008626Y010266D01*
X008626Y010176D02*
X008626Y010446D01*
X008491Y010446D01*
X008446Y010401D01*
X008446Y010311D01*
X008491Y010266D01*
X008626Y009946D02*
X008626Y009721D01*
X008581Y009676D01*
X009116Y008856D02*
X009071Y008811D01*
X009071Y008766D01*
X009251Y008766D01*
X009251Y008721D02*
X009251Y008811D01*
X009206Y008856D01*
X009116Y008856D01*
X009116Y008676D02*
X009206Y008676D01*
X009251Y008721D01*
X009366Y008676D02*
X009366Y008946D01*
X009366Y008856D02*
X009501Y008856D01*
X009546Y008811D01*
X009546Y008721D01*
X009501Y008676D01*
X009366Y008676D01*
X009652Y008676D02*
X009742Y008676D01*
X009697Y008676D02*
X009697Y008856D01*
X009742Y008856D01*
X009697Y008946D02*
X009697Y008991D01*
X009857Y008856D02*
X009992Y008856D01*
X010037Y008811D01*
X009992Y008766D01*
X009902Y008766D01*
X009857Y008721D01*
X009902Y008676D01*
X010037Y008676D01*
X010446Y008811D02*
X010626Y008811D01*
X010536Y008901D02*
X010536Y008721D01*
X005778Y009446D02*
X005733Y009446D01*
M02*
