G75*
G70*
%OFA0B0*%
%FSLAX24Y24*%
%IPPOS*%
%LPD*%
%AMOC8*
5,1,8,0,0,1.08239X$1,22.5*
%
%ADD10C,0.0060*%
%ADD11C,0.0050*%
%ADD12C,0.0080*%
%ADD13R,0.0160X0.0230*%
%ADD14C,0.0160*%
%ADD15C,0.0059*%
D10*
X002151Y002401D02*
X002401Y002151D01*
X002901Y002151D01*
X003151Y002401D01*
X003401Y002151D01*
X003901Y002151D01*
X004151Y001901D01*
X004401Y002151D01*
X004901Y002151D01*
X005151Y001901D01*
X005401Y002151D01*
X005901Y002151D01*
X006151Y001901D01*
X006401Y002151D01*
X006901Y002151D01*
X007151Y001901D01*
X007401Y002151D01*
X007901Y002151D01*
X008151Y001901D01*
X008401Y002151D01*
X008901Y002151D01*
X009151Y001901D01*
X009151Y001401D01*
X008901Y001151D01*
X008401Y001151D01*
X008151Y001401D01*
X007901Y001151D01*
X007401Y001151D01*
X007151Y001401D01*
X006901Y001151D01*
X006401Y001151D01*
X006151Y001401D01*
X005901Y001151D01*
X005401Y001151D01*
X005151Y001401D01*
X004901Y001151D01*
X004401Y001151D01*
X004151Y001401D01*
X003901Y001151D01*
X003401Y001151D01*
X003151Y001401D01*
X003151Y001901D01*
X003401Y002151D01*
X003901Y002151D01*
X004151Y002401D01*
X004401Y002151D01*
X004901Y002151D01*
X005151Y002401D01*
X005401Y002151D01*
X005901Y002151D01*
X006151Y002401D01*
X006401Y002151D01*
X006901Y002151D01*
X007151Y002401D01*
X007401Y002151D01*
X007901Y002151D01*
X008151Y002401D01*
X008401Y002151D01*
X008901Y002151D01*
X009151Y002401D01*
X009401Y002151D01*
X009901Y002151D01*
X010151Y002401D01*
X010151Y003901D01*
X009901Y004151D01*
X009401Y004151D01*
X009151Y003901D01*
X008901Y004151D01*
X008401Y004151D01*
X008151Y003901D01*
X007901Y004151D01*
X007401Y004151D01*
X007151Y003901D01*
X006901Y004151D01*
X006401Y004151D01*
X006151Y003901D01*
X005901Y004151D01*
X005401Y004151D01*
X005151Y003901D01*
X004901Y004151D01*
X004401Y004151D01*
X004151Y003901D01*
X003901Y004151D01*
X003401Y004151D01*
X003151Y003901D01*
X002901Y004151D01*
X002401Y004151D01*
X002151Y003901D01*
X002151Y002401D01*
X003676Y015176D02*
X003676Y015326D01*
X003626Y015326D01*
X003626Y017476D01*
X003628Y017493D01*
X003632Y017510D01*
X003639Y017526D01*
X003649Y017540D01*
X003662Y017553D01*
X003676Y017563D01*
X003692Y017570D01*
X003709Y017574D01*
X003726Y017576D01*
X004326Y017576D01*
X004343Y017574D01*
X004360Y017570D01*
X004376Y017563D01*
X004390Y017553D01*
X004403Y017540D01*
X004413Y017526D01*
X004420Y017510D01*
X004424Y017493D01*
X004426Y017476D01*
X004426Y015326D01*
X004376Y015326D01*
X004376Y015176D01*
X003676Y015176D01*
X003661Y019556D02*
X003661Y019783D01*
X003661Y019670D02*
X003775Y019783D01*
X003831Y019783D01*
X003968Y019783D02*
X004081Y019783D01*
X004025Y019840D02*
X004025Y019613D01*
X004081Y019556D01*
X004214Y019613D02*
X004214Y019726D01*
X004270Y019783D01*
X004384Y019783D01*
X004440Y019726D01*
X004440Y019670D01*
X004214Y019670D01*
X004214Y019613D02*
X004270Y019556D01*
X004384Y019556D01*
X004582Y019556D02*
X004582Y019783D01*
X004752Y019783D01*
X004809Y019726D01*
X004809Y019556D01*
X004950Y019613D02*
X004950Y019726D01*
X005007Y019783D01*
X005120Y019783D01*
X005177Y019726D01*
X005177Y019670D01*
X004950Y019670D01*
X004950Y019613D02*
X005007Y019556D01*
X005120Y019556D01*
X005318Y019556D02*
X005318Y019783D01*
X005318Y019670D02*
X005432Y019783D01*
X005489Y019783D01*
X005625Y019726D02*
X005625Y019613D01*
X005682Y019556D01*
X005852Y019556D01*
X005852Y019499D02*
X005852Y019783D01*
X005682Y019783D01*
X005625Y019726D01*
X005739Y019443D02*
X005795Y019443D01*
X005852Y019499D01*
X005994Y019613D02*
X006050Y019556D01*
X006220Y019556D01*
X006220Y019499D02*
X006164Y019443D01*
X006107Y019443D01*
X006220Y019499D02*
X006220Y019783D01*
X006362Y019726D02*
X006362Y019613D01*
X006419Y019556D01*
X006589Y019556D01*
X006589Y019499D02*
X006589Y019783D01*
X006419Y019783D01*
X006362Y019726D01*
X006475Y019443D02*
X006532Y019443D01*
X006589Y019499D01*
X006730Y019556D02*
X006730Y019783D01*
X006730Y019670D02*
X006844Y019783D01*
X006900Y019783D01*
X007037Y019726D02*
X007037Y019613D01*
X007094Y019556D01*
X007207Y019556D01*
X007264Y019613D01*
X007264Y019726D01*
X007207Y019783D01*
X007094Y019783D01*
X007037Y019726D01*
X007405Y019783D02*
X007405Y019613D01*
X007462Y019556D01*
X007632Y019556D01*
X007632Y019783D01*
X007774Y019783D02*
X007774Y019443D01*
X007774Y019556D02*
X007944Y019556D01*
X008001Y019613D01*
X008001Y019726D01*
X007944Y019783D01*
X007774Y019783D01*
X008142Y019726D02*
X008199Y019783D01*
X008369Y019783D01*
X008312Y019670D02*
X008199Y019670D01*
X008142Y019726D01*
X008142Y019556D02*
X008312Y019556D01*
X008369Y019613D01*
X008312Y019670D01*
X008510Y019613D02*
X008510Y019556D01*
X008567Y019556D01*
X008567Y019613D01*
X008510Y019613D01*
X008694Y019613D02*
X008751Y019556D01*
X008921Y019556D01*
X009063Y019613D02*
X009119Y019556D01*
X009233Y019556D01*
X009290Y019613D01*
X009290Y019726D01*
X009233Y019783D01*
X009119Y019783D01*
X009063Y019726D01*
X009063Y019613D01*
X008921Y019783D02*
X008751Y019783D01*
X008694Y019726D01*
X008694Y019613D01*
X008693Y020556D02*
X008593Y020556D01*
X008543Y020606D01*
X008743Y020806D01*
X008743Y020606D01*
X008693Y020556D01*
X008543Y020606D02*
X008543Y020806D01*
X008593Y020856D01*
X008693Y020856D01*
X008743Y020806D01*
X008427Y020606D02*
X008427Y020556D01*
X008377Y020556D01*
X008377Y020606D01*
X008427Y020606D01*
X008246Y020556D02*
X008045Y020556D01*
X008145Y020556D02*
X008145Y020856D01*
X008045Y020756D01*
X007914Y020756D02*
X007814Y020556D01*
X007714Y020756D01*
X007251Y020756D02*
X007101Y020756D01*
X007051Y020706D01*
X007051Y020606D01*
X007101Y020556D01*
X007251Y020556D01*
X007251Y020856D01*
X006880Y020856D02*
X006880Y020556D01*
X006830Y020556D02*
X006930Y020556D01*
X006699Y020656D02*
X006499Y020656D01*
X006499Y020606D02*
X006499Y020706D01*
X006549Y020756D01*
X006649Y020756D01*
X006699Y020706D01*
X006699Y020656D01*
X006649Y020556D02*
X006549Y020556D01*
X006499Y020606D01*
X006378Y020556D02*
X006278Y020556D01*
X006328Y020556D02*
X006328Y020756D01*
X006278Y020756D01*
X006328Y020856D02*
X006328Y020906D01*
X006146Y020706D02*
X006146Y020556D01*
X006146Y020706D02*
X006096Y020756D01*
X005996Y020756D01*
X005946Y020706D01*
X005815Y020656D02*
X005815Y020606D01*
X005765Y020556D01*
X005665Y020556D01*
X005615Y020606D01*
X005665Y020706D02*
X005765Y020706D01*
X005815Y020656D01*
X005815Y020806D02*
X005765Y020856D01*
X005665Y020856D01*
X005615Y020806D01*
X005615Y020756D01*
X005665Y020706D01*
X005483Y020706D02*
X005483Y020556D01*
X005483Y020706D02*
X005433Y020756D01*
X005283Y020756D01*
X005283Y020556D01*
X005152Y020606D02*
X005152Y020706D01*
X005102Y020756D01*
X005002Y020756D01*
X004952Y020706D01*
X004952Y020606D01*
X005002Y020556D01*
X005102Y020556D01*
X005152Y020606D01*
X004820Y020556D02*
X004670Y020556D01*
X004620Y020606D01*
X004620Y020706D01*
X004670Y020756D01*
X004820Y020756D01*
X004820Y020506D01*
X004770Y020456D01*
X004720Y020456D01*
X004489Y020556D02*
X004339Y020556D01*
X004289Y020606D01*
X004339Y020656D01*
X004489Y020656D01*
X004489Y020706D02*
X004489Y020556D01*
X004489Y020706D02*
X004439Y020756D01*
X004339Y020756D01*
X004163Y020756D02*
X004113Y020756D01*
X004013Y020656D01*
X004013Y020556D02*
X004013Y020756D01*
X003881Y020806D02*
X003831Y020856D01*
X003681Y020856D01*
X003681Y020556D01*
X003831Y020556D01*
X003881Y020606D01*
X003881Y020806D01*
X003463Y019783D02*
X003520Y019726D01*
X003520Y019556D01*
X003349Y019556D01*
X003293Y019613D01*
X003349Y019670D01*
X003520Y019670D01*
X003463Y019783D02*
X003349Y019783D01*
X003151Y019726D02*
X003151Y019556D01*
X003038Y019556D02*
X003038Y019726D01*
X003095Y019783D01*
X003151Y019726D01*
X003038Y019726D02*
X002981Y019783D01*
X002924Y019783D01*
X002924Y019556D01*
X002783Y019613D02*
X002726Y019670D01*
X002613Y019670D01*
X002556Y019726D01*
X002613Y019783D01*
X002783Y019783D01*
X002783Y019613D02*
X002726Y019556D01*
X002556Y019556D01*
X002901Y021831D02*
X003401Y021831D01*
X003651Y022081D01*
X003901Y021831D01*
X004401Y021831D01*
X004651Y022081D01*
X004901Y021831D01*
X005401Y021831D01*
X005651Y022081D01*
X005901Y021831D01*
X006401Y021831D01*
X006651Y022081D01*
X006901Y021831D01*
X007401Y021831D01*
X007651Y022081D01*
X007901Y021831D01*
X008401Y021831D01*
X008651Y022081D01*
X008901Y021831D01*
X009401Y021831D01*
X009651Y022081D01*
X009651Y023581D01*
X009401Y023831D01*
X008901Y023831D01*
X008651Y023581D01*
X008401Y023831D01*
X007901Y023831D01*
X007651Y023581D01*
X007401Y023831D01*
X006901Y023831D01*
X006651Y023581D01*
X006401Y023831D01*
X005901Y023831D01*
X005651Y023581D01*
X005401Y023831D01*
X004901Y023831D01*
X004651Y023581D01*
X004401Y023831D01*
X003901Y023831D01*
X003651Y023581D01*
X003401Y023831D01*
X002901Y023831D01*
X002651Y023581D01*
X002651Y022081D01*
X002901Y021831D01*
X005946Y020856D02*
X005946Y020556D01*
X005994Y019783D02*
X005994Y019613D01*
X006830Y020856D02*
X006880Y020856D01*
X009431Y019783D02*
X009431Y019556D01*
X009545Y019556D02*
X009545Y019726D01*
X009601Y019783D01*
X009658Y019726D01*
X009658Y019556D01*
X009545Y019726D02*
X009488Y019783D01*
X009431Y019783D01*
X010213Y008988D02*
X010156Y008932D01*
X010156Y008762D01*
X010496Y008762D01*
X010496Y008932D01*
X010439Y008988D01*
X010213Y008988D01*
X010213Y008620D02*
X010156Y008563D01*
X010156Y008450D01*
X010213Y008393D01*
X010269Y008393D01*
X010326Y008450D01*
X010326Y008563D01*
X010383Y008620D01*
X010439Y008620D01*
X010496Y008563D01*
X010496Y008450D01*
X010439Y008393D01*
X010326Y008252D02*
X010326Y008025D01*
X010213Y007883D02*
X010156Y007827D01*
X010156Y007713D01*
X010213Y007657D01*
X010439Y007657D01*
X010496Y007713D01*
X010496Y007827D01*
X010439Y007883D01*
X010213Y007883D01*
X010213Y007515D02*
X010156Y007458D01*
X010156Y007288D01*
X010496Y007288D01*
X010383Y007288D02*
X010383Y007458D01*
X010326Y007515D01*
X010213Y007515D01*
X010383Y007402D02*
X010496Y007515D01*
X010439Y007147D02*
X010496Y007090D01*
X010496Y006977D01*
X010439Y006920D01*
X010213Y006920D01*
X010156Y006977D01*
X010156Y007090D01*
X010213Y007147D01*
X010156Y006788D02*
X010156Y006674D01*
X010156Y006731D02*
X010496Y006731D01*
X010496Y006674D02*
X010496Y006788D01*
X010496Y006533D02*
X010156Y006533D01*
X010269Y006420D01*
X010156Y006306D01*
X010496Y006306D01*
D11*
X001081Y002901D02*
X000901Y002901D01*
X000991Y002901D02*
X000991Y003171D01*
X000901Y003081D01*
X001196Y003126D02*
X001196Y002946D01*
X001376Y003126D01*
X001376Y002946D01*
X001331Y002901D01*
X001241Y002901D01*
X001196Y002946D01*
X001196Y003126D02*
X001241Y003171D01*
X001331Y003171D01*
X001376Y003126D01*
X001785Y003171D02*
X001785Y002901D01*
X001785Y002991D02*
X001920Y003081D01*
X001785Y002991D02*
X001920Y002901D01*
X002776Y005151D02*
X002956Y005151D01*
X002866Y005151D02*
X002866Y005421D01*
X002776Y005331D01*
X003071Y005376D02*
X003071Y005196D01*
X003251Y005376D01*
X003251Y005196D01*
X003206Y005151D01*
X003116Y005151D01*
X003071Y005196D01*
X003071Y005376D02*
X003116Y005421D01*
X003206Y005421D01*
X003251Y005376D01*
X003365Y005421D02*
X003365Y005151D01*
X003365Y005241D02*
X003501Y005331D01*
X003365Y005241D02*
X003501Y005151D01*
X004667Y004651D02*
X010336Y004651D01*
X010336Y005045D01*
X010439Y004809D02*
X010480Y004811D01*
X010521Y004816D01*
X010561Y004825D01*
X010600Y004837D01*
X010638Y004853D01*
X010675Y004872D01*
X010710Y004894D01*
X010742Y004919D01*
X010773Y004947D01*
X010801Y004978D01*
X010826Y005010D01*
X010848Y005045D01*
X010867Y005082D01*
X010883Y005120D01*
X010895Y005159D01*
X010904Y005199D01*
X010909Y005240D01*
X010911Y005281D01*
X010911Y008903D01*
X011265Y008904D02*
X011267Y008945D01*
X011265Y008986D01*
X011259Y009027D01*
X011250Y009068D01*
X011238Y009107D01*
X011222Y009145D01*
X011203Y009182D01*
X011180Y009216D01*
X011155Y009249D01*
X011127Y009280D01*
X011096Y009307D01*
X011063Y009332D01*
X011028Y009354D01*
X010992Y009373D01*
X010953Y009389D01*
X010914Y009401D01*
X010873Y009410D01*
X010832Y009415D01*
X010612Y009769D02*
X010563Y009767D01*
X010513Y009761D01*
X010465Y009752D01*
X010417Y009738D01*
X010371Y009721D01*
X010326Y009700D01*
X010283Y009676D01*
X010242Y009649D01*
X010203Y009618D01*
X010167Y009584D01*
X010133Y009548D01*
X010102Y009509D01*
X010075Y009468D01*
X010051Y009425D01*
X010030Y009380D01*
X010013Y009334D01*
X009999Y009286D01*
X009990Y009238D01*
X009984Y009188D01*
X009982Y009139D01*
X009982Y005320D01*
X009982Y005321D02*
X009988Y005288D01*
X009997Y005256D01*
X010010Y005225D01*
X010026Y005196D01*
X010044Y005169D01*
X010066Y005143D01*
X010090Y005120D01*
X010116Y005100D01*
X010144Y005082D01*
X010174Y005068D01*
X010205Y005057D01*
X010237Y005049D01*
X010270Y005044D01*
X010303Y005043D01*
X010336Y005045D01*
X010793Y004809D02*
X010834Y004811D01*
X010875Y004816D01*
X010915Y004825D01*
X010954Y004837D01*
X010992Y004853D01*
X011029Y004872D01*
X011064Y004894D01*
X011096Y004919D01*
X011127Y004947D01*
X011155Y004978D01*
X011180Y005010D01*
X011202Y005045D01*
X011221Y005082D01*
X011237Y005120D01*
X011249Y005159D01*
X011258Y005199D01*
X011263Y005240D01*
X011265Y005281D01*
X011265Y008903D01*
X010612Y009769D02*
X010612Y010163D01*
X004667Y010163D01*
X004667Y004651D01*
X004606Y001071D02*
X004606Y000801D01*
X004426Y001071D01*
X004426Y000801D01*
X004721Y000846D02*
X004766Y000801D01*
X004856Y000801D01*
X004901Y000846D01*
X004721Y000846D02*
X004721Y001026D01*
X004766Y001071D01*
X004856Y001071D01*
X004901Y001026D01*
X005301Y000936D02*
X005481Y000936D01*
X005596Y000936D02*
X005596Y001071D01*
X005776Y001071D01*
X005731Y000981D02*
X005776Y000936D01*
X005776Y000846D01*
X005731Y000801D01*
X005641Y000801D01*
X005596Y000846D01*
X005596Y000936D02*
X005686Y000981D01*
X005731Y000981D01*
X005890Y001071D02*
X005890Y000891D01*
X005981Y000801D01*
X006071Y000891D01*
X006071Y001071D01*
X006301Y001071D02*
X006481Y001071D01*
X006391Y001071D02*
X006391Y000801D01*
X006596Y000801D02*
X006776Y001071D01*
X006890Y001071D02*
X006890Y000801D01*
X007026Y000801D01*
X007071Y000846D01*
X007071Y001026D01*
X007026Y001071D01*
X006890Y001071D01*
X006776Y000801D02*
X006596Y001071D01*
X007301Y001071D02*
X007301Y000801D01*
X007301Y000891D02*
X007436Y000891D01*
X007481Y000936D01*
X007481Y001026D01*
X007436Y001071D01*
X007301Y001071D01*
X007391Y000891D02*
X007481Y000801D01*
X007596Y000801D02*
X007776Y001071D01*
X007890Y001071D02*
X007890Y000801D01*
X008026Y000801D01*
X008071Y000846D01*
X008071Y001026D01*
X008026Y001071D01*
X007890Y001071D01*
X007776Y000801D02*
X007596Y001071D01*
X008426Y001071D02*
X008426Y000801D01*
X008606Y000801D02*
X008426Y001071D01*
X008606Y001071D02*
X008606Y000801D01*
X008721Y000846D02*
X008721Y001026D01*
X008766Y001071D01*
X008856Y001071D01*
X008901Y001026D01*
X008901Y000846D02*
X008856Y000801D01*
X008766Y000801D01*
X008721Y000846D01*
X009401Y001036D02*
X009581Y001036D01*
X009536Y000901D02*
X009536Y001171D01*
X009401Y001036D01*
X009696Y000946D02*
X009741Y000946D01*
X009741Y000901D01*
X009696Y000901D01*
X009696Y000946D01*
X009843Y000946D02*
X009843Y000901D01*
X009843Y000946D02*
X010023Y001126D01*
X010023Y001171D01*
X009843Y001171D01*
X010432Y001171D02*
X010432Y000901D01*
X010432Y000991D02*
X010568Y001081D01*
X010432Y000991D02*
X010568Y000901D01*
X011319Y002782D02*
X011229Y002873D01*
X011499Y002873D01*
X011499Y002963D02*
X011499Y002782D01*
X011454Y003077D02*
X011274Y003257D01*
X011454Y003257D01*
X011499Y003212D01*
X011499Y003122D01*
X011454Y003077D01*
X011274Y003077D01*
X011229Y003122D01*
X011229Y003212D01*
X011274Y003257D01*
X011274Y003372D02*
X011229Y003417D01*
X011229Y003507D01*
X011274Y003552D01*
X011454Y003372D01*
X011499Y003417D01*
X011499Y003507D01*
X011454Y003552D01*
X011274Y003552D01*
X011274Y003372D02*
X011454Y003372D01*
X011499Y003961D02*
X011319Y003961D01*
X011319Y004096D01*
X011364Y004141D01*
X011499Y004141D01*
X011499Y004256D02*
X011229Y004256D01*
X011229Y004436D01*
X011364Y004346D02*
X011364Y004256D01*
X012289Y004809D02*
X012330Y004811D01*
X012371Y004816D01*
X012411Y004825D01*
X012450Y004837D01*
X012488Y004853D01*
X012525Y004872D01*
X012560Y004894D01*
X012592Y004919D01*
X012623Y004947D01*
X012651Y004978D01*
X012676Y005010D01*
X012698Y005045D01*
X012717Y005082D01*
X012733Y005120D01*
X012745Y005159D01*
X012754Y005199D01*
X012759Y005240D01*
X012761Y005281D01*
X012761Y008903D01*
X012761Y008904D02*
X012763Y008945D01*
X012761Y008986D01*
X012755Y009027D01*
X012746Y009068D01*
X012734Y009107D01*
X012718Y009145D01*
X012699Y009182D01*
X012676Y009216D01*
X012651Y009249D01*
X012623Y009280D01*
X012592Y009307D01*
X012559Y009332D01*
X012524Y009354D01*
X012488Y009373D01*
X012449Y009389D01*
X012410Y009401D01*
X012369Y009410D01*
X012328Y009415D01*
X010911Y008904D02*
X010913Y008945D01*
X010911Y008986D01*
X010905Y009027D01*
X010896Y009068D01*
X010884Y009107D01*
X010868Y009145D01*
X010849Y009182D01*
X010826Y009216D01*
X010801Y009249D01*
X010773Y009280D01*
X010742Y009307D01*
X010709Y009332D01*
X010674Y009354D01*
X010638Y009373D01*
X010599Y009389D01*
X010560Y009401D01*
X010519Y009410D01*
X010478Y009415D01*
X008876Y013151D02*
X008740Y013241D01*
X008876Y013331D01*
X008740Y013421D02*
X008740Y013151D01*
X008626Y013196D02*
X008581Y013151D01*
X008491Y013151D01*
X008446Y013196D01*
X008626Y013376D01*
X008626Y013196D01*
X008446Y013196D02*
X008446Y013376D01*
X008491Y013421D01*
X008581Y013421D01*
X008626Y013376D01*
X008331Y013151D02*
X008151Y013151D01*
X008241Y013151D02*
X008241Y013421D01*
X008151Y013331D01*
X008776Y017526D02*
X008956Y017526D01*
X008866Y017526D02*
X008866Y017796D01*
X008776Y017706D01*
X008463Y017921D02*
X008418Y017876D01*
X008328Y017876D01*
X008283Y017921D01*
X008463Y018101D01*
X008463Y017921D01*
X008283Y017921D02*
X008283Y018101D01*
X008328Y018146D01*
X008418Y018146D01*
X008463Y018101D01*
X008169Y017876D02*
X007989Y017876D01*
X008079Y017876D02*
X008079Y018146D01*
X007989Y018056D01*
X007874Y018146D02*
X007874Y017876D01*
X007784Y017966D01*
X007694Y017876D01*
X007694Y018146D01*
X007580Y018146D02*
X007399Y018146D01*
X007399Y018011D01*
X007489Y018056D01*
X007534Y018056D01*
X007580Y018011D01*
X007580Y017921D01*
X007534Y017876D01*
X007444Y017876D01*
X007399Y017921D01*
X007285Y017921D02*
X007285Y018101D01*
X007240Y018146D01*
X007150Y018146D01*
X007105Y018101D01*
X007105Y018056D01*
X007150Y018011D01*
X007285Y018011D01*
X007285Y017921D02*
X007240Y017876D01*
X007150Y017876D01*
X007105Y017921D01*
X006990Y018101D02*
X006990Y018146D01*
X006810Y018146D01*
X006696Y018101D02*
X006696Y018011D01*
X006651Y017966D01*
X006515Y017966D01*
X006515Y017876D02*
X006515Y018146D01*
X006651Y018146D01*
X006696Y018101D01*
X006810Y017921D02*
X006810Y017876D01*
X006810Y017921D02*
X006990Y018101D01*
X006401Y018101D02*
X006356Y018146D01*
X006266Y018146D01*
X006221Y018101D01*
X006221Y017921D01*
X006266Y017876D01*
X006356Y017876D01*
X006401Y017921D01*
X006106Y017876D02*
X006106Y018146D01*
X006016Y018056D01*
X005926Y018146D01*
X005926Y017876D01*
X005073Y016151D02*
X005071Y016133D01*
X005066Y016115D01*
X005057Y016099D01*
X005045Y016085D01*
X005031Y016073D01*
X005015Y016064D01*
X004997Y016059D01*
X004979Y016057D01*
X004964Y016057D01*
X004176Y016155D02*
X004131Y016110D01*
X004041Y016110D01*
X004041Y016245D01*
X004086Y016290D01*
X004131Y016290D01*
X004176Y016245D01*
X004176Y016155D01*
X004041Y016110D02*
X003951Y016200D01*
X003906Y016290D01*
X003951Y016405D02*
X003996Y016405D01*
X004041Y016450D01*
X004041Y016540D01*
X004086Y016585D01*
X004131Y016585D01*
X004176Y016540D01*
X004176Y016450D01*
X004131Y016405D01*
X004086Y016405D01*
X004041Y016450D01*
X004041Y016540D02*
X003996Y016585D01*
X003951Y016585D01*
X003906Y016540D01*
X003906Y016450D01*
X003951Y016405D01*
X003951Y015996D02*
X004131Y015815D01*
X004176Y015815D01*
X004176Y015701D02*
X004176Y015521D01*
X003996Y015701D01*
X003951Y015701D01*
X003906Y015656D01*
X003906Y015566D01*
X003951Y015521D01*
X003951Y015406D02*
X003996Y015406D01*
X004041Y015361D01*
X004086Y015406D01*
X004131Y015406D01*
X004176Y015361D01*
X004176Y015271D01*
X004131Y015226D01*
X004041Y015316D02*
X004041Y015361D01*
X003951Y015406D02*
X003906Y015361D01*
X003906Y015271D01*
X003951Y015226D01*
X003906Y015815D02*
X003906Y015996D01*
X003951Y015996D01*
X003906Y016994D02*
X004176Y016994D01*
X004041Y016994D02*
X004041Y017174D01*
X003996Y017289D02*
X003996Y017469D01*
X004176Y017289D01*
X004176Y017469D01*
X004176Y017174D02*
X003906Y017174D01*
X003126Y017081D02*
X002990Y016991D01*
X003126Y016901D01*
X002990Y016901D02*
X002990Y017171D01*
X002581Y016901D02*
X002401Y016901D01*
X002491Y016901D02*
X002491Y017171D01*
X002401Y017081D01*
X003032Y019053D02*
X003213Y019053D01*
X003123Y019053D02*
X003123Y019323D01*
X003032Y019233D01*
X003327Y019278D02*
X003327Y019098D01*
X003507Y019278D01*
X003507Y019098D01*
X003462Y019053D01*
X003372Y019053D01*
X003327Y019098D01*
X003327Y019278D02*
X003372Y019323D01*
X003462Y019323D01*
X003507Y019278D01*
X003622Y019278D02*
X003622Y019098D01*
X003802Y019278D01*
X003802Y019098D01*
X003757Y019053D01*
X003667Y019053D01*
X003622Y019098D01*
X003622Y019278D02*
X003667Y019323D01*
X003757Y019323D01*
X003802Y019278D01*
X004211Y019233D02*
X004211Y019053D01*
X004211Y019233D02*
X004346Y019233D01*
X004391Y019188D01*
X004391Y019053D01*
X004506Y019053D02*
X004506Y019323D01*
X004686Y019323D01*
X004596Y019188D02*
X004506Y019188D01*
X004490Y020051D02*
X004310Y020051D01*
X004310Y020321D01*
X004605Y020231D02*
X004605Y020096D01*
X004650Y020051D01*
X004785Y020051D01*
X004785Y020231D01*
X004899Y020141D02*
X005034Y020231D01*
X005145Y020186D02*
X005190Y020231D01*
X005280Y020231D01*
X005325Y020186D01*
X005325Y020141D01*
X005145Y020141D01*
X005145Y020096D02*
X005145Y020186D01*
X005145Y020096D02*
X005190Y020051D01*
X005280Y020051D01*
X005034Y020051D02*
X004899Y020141D01*
X004899Y020051D02*
X004899Y020321D01*
X005734Y020321D02*
X005734Y020051D01*
X005824Y020141D01*
X005914Y020051D01*
X005914Y020321D01*
X006029Y020186D02*
X006074Y020231D01*
X006164Y020231D01*
X006209Y020186D01*
X006209Y020141D01*
X006029Y020141D01*
X006029Y020096D02*
X006029Y020186D01*
X006029Y020096D02*
X006074Y020051D01*
X006164Y020051D01*
X006324Y020051D02*
X006459Y020051D01*
X006504Y020096D01*
X006459Y020141D01*
X006369Y020141D01*
X006324Y020186D01*
X006369Y020231D01*
X006504Y020231D01*
X006618Y020231D02*
X006708Y020231D01*
X006663Y020276D02*
X006663Y020096D01*
X006708Y020051D01*
X006815Y020096D02*
X006860Y020051D01*
X006950Y020051D01*
X006995Y020096D01*
X006995Y020186D01*
X006950Y020231D01*
X006860Y020231D01*
X006815Y020186D01*
X006815Y020096D01*
X007109Y020051D02*
X007109Y020231D01*
X007244Y020231D01*
X007289Y020186D01*
X007289Y020051D01*
X007404Y019961D02*
X007494Y020051D01*
X007449Y020051D01*
X007449Y020096D01*
X007494Y020096D01*
X007494Y020051D01*
X007895Y020051D02*
X008075Y020231D01*
X008075Y020276D01*
X008030Y020321D01*
X007940Y020321D01*
X007895Y020276D01*
X007895Y020051D02*
X008075Y020051D01*
X008190Y020096D02*
X008370Y020276D01*
X008370Y020096D01*
X008325Y020051D01*
X008235Y020051D01*
X008190Y020096D01*
X008190Y020276D01*
X008235Y020321D01*
X008325Y020321D01*
X008370Y020276D01*
X008484Y020231D02*
X008574Y020321D01*
X008574Y020051D01*
X008484Y020051D02*
X008664Y020051D01*
X008779Y020051D02*
X008959Y020231D01*
X008959Y020276D01*
X008914Y020321D01*
X008824Y020321D01*
X008779Y020276D01*
X008779Y020051D02*
X008959Y020051D01*
X009365Y017796D02*
X009365Y017526D01*
X009365Y017616D02*
X009501Y017706D01*
X009365Y017616D02*
X009501Y017526D01*
X003901Y020006D02*
X003856Y019961D01*
X003811Y019961D01*
X003901Y020006D02*
X003901Y020231D01*
X003901Y020051D02*
X003766Y020051D01*
X003721Y020096D01*
X003721Y020231D01*
X003606Y020186D02*
X003561Y020231D01*
X003426Y020231D01*
X003426Y020321D02*
X003426Y020051D01*
X003561Y020051D01*
X003606Y020096D01*
X003606Y020186D01*
X002424Y021684D02*
X002289Y021684D01*
X002244Y021729D01*
X002244Y021819D01*
X002289Y021864D01*
X002424Y021864D01*
X002130Y021819D02*
X002085Y021864D01*
X001994Y021864D01*
X001949Y021819D01*
X001949Y021729D01*
X001994Y021684D01*
X002085Y021684D01*
X002130Y021729D01*
X002130Y021819D01*
X001835Y021864D02*
X001700Y021864D01*
X001655Y021819D01*
X001700Y021774D01*
X001790Y021774D01*
X001835Y021729D01*
X001790Y021684D01*
X001655Y021684D01*
X001540Y021729D02*
X001495Y021774D01*
X001405Y021774D01*
X001360Y021819D01*
X001405Y021864D01*
X001540Y021864D01*
X001540Y021729D02*
X001495Y021684D01*
X001360Y021684D01*
X001246Y021684D02*
X001246Y021864D01*
X001156Y021954D01*
X001066Y021864D01*
X001066Y021684D01*
X001066Y021819D02*
X001246Y021819D01*
X001201Y019704D02*
X001066Y019704D01*
X001066Y019434D01*
X001066Y019524D02*
X001201Y019524D01*
X001246Y019569D01*
X001246Y019659D01*
X001201Y019704D01*
X001360Y019659D02*
X001360Y019614D01*
X001405Y019569D01*
X001495Y019569D01*
X001540Y019524D01*
X001540Y019479D01*
X001495Y019434D01*
X001405Y019434D01*
X001360Y019479D01*
X001246Y019434D02*
X001156Y019524D01*
X001360Y019659D02*
X001405Y019704D01*
X001495Y019704D01*
X001540Y019659D01*
X001655Y019659D02*
X001655Y019614D01*
X001700Y019569D01*
X001790Y019569D01*
X001835Y019524D01*
X001835Y019479D01*
X001790Y019434D01*
X001700Y019434D01*
X001655Y019479D01*
X001655Y019659D02*
X001700Y019704D01*
X001790Y019704D01*
X001835Y019659D01*
X001949Y019704D02*
X002040Y019704D01*
X001994Y019704D02*
X001994Y019434D01*
X001949Y019434D02*
X002040Y019434D01*
X003346Y001071D02*
X003301Y001026D01*
X003301Y000846D01*
X003346Y000801D01*
X003436Y000801D01*
X003481Y000846D01*
X003481Y000936D01*
X003391Y000936D01*
X003481Y001026D02*
X003436Y001071D01*
X003346Y001071D01*
X003596Y001071D02*
X003596Y000801D01*
X003776Y000801D02*
X003596Y001071D01*
X003776Y001071D02*
X003776Y000801D01*
X003890Y000801D02*
X003890Y001071D01*
X004026Y001071D01*
X004071Y001026D01*
X004071Y000846D01*
X004026Y000801D01*
X003890Y000801D01*
X005391Y000846D02*
X005391Y001026D01*
D12*
X001387Y008338D02*
X010915Y008338D01*
X010915Y018796D01*
X008487Y021224D01*
X003815Y021224D01*
X001387Y018796D01*
X001387Y008338D01*
X005073Y016151D02*
X005071Y016169D01*
X005066Y016187D01*
X005058Y016203D01*
X005046Y016217D01*
X005033Y016229D01*
X005017Y016238D01*
X005000Y016244D01*
X004982Y016246D01*
X004963Y016245D01*
X005073Y016151D02*
X005071Y016133D01*
X005066Y016115D01*
X005057Y016099D01*
X005045Y016085D01*
X005031Y016073D01*
X005015Y016064D01*
X004997Y016059D01*
X004979Y016057D01*
X002406Y019797D02*
X002406Y020506D01*
X001873Y020506D01*
X001719Y020387D02*
X001583Y020151D01*
X001719Y019915D01*
X001719Y020387D01*
X001583Y020502D02*
X001583Y020151D01*
X001583Y019801D01*
X001379Y019797D02*
X000896Y019797D01*
X000896Y020506D01*
X001379Y020506D01*
X001379Y020797D02*
X000896Y020797D01*
X000896Y021506D01*
X001379Y021506D01*
X001583Y021502D02*
X001583Y021151D01*
X001719Y021387D01*
X001719Y020915D01*
X001583Y021151D01*
X001583Y020801D01*
X001864Y020797D02*
X002406Y020797D01*
X002406Y021506D01*
X001873Y021506D01*
X001864Y019797D02*
X002406Y019797D01*
D13*
X003826Y015041D03*
X004226Y015041D03*
D14*
X004226Y014976D02*
X004226Y014889D01*
X003826Y014889D02*
X003826Y015026D01*
D15*
X005079Y012237D02*
X005060Y012047D01*
X004996Y012026D01*
X004936Y011996D01*
X004788Y012117D01*
X004686Y012015D01*
X004807Y011866D01*
X004776Y011807D01*
X004756Y011743D01*
X004565Y011723D01*
X004565Y011579D01*
X004756Y011560D01*
X004776Y011496D01*
X004807Y011436D01*
X004686Y011288D01*
X004788Y011186D01*
X004936Y011307D01*
X004996Y011276D01*
X005081Y011481D01*
X005043Y011502D01*
X005011Y011531D01*
X004987Y011567D01*
X004972Y011608D01*
X004967Y011651D01*
X004972Y011695D01*
X004987Y011736D01*
X005012Y011773D01*
X005045Y011802D01*
X005084Y011823D01*
X005127Y011834D01*
X005171Y011835D01*
X005214Y011825D01*
X005254Y011805D01*
X005287Y011776D01*
X005313Y011740D01*
X005329Y011699D01*
X005336Y011655D01*
X005331Y011611D01*
X005317Y011570D01*
X005293Y011533D01*
X005260Y011502D01*
X005222Y011481D01*
X005307Y011276D01*
X005366Y011307D01*
X005515Y011186D01*
X005617Y011288D01*
X005496Y011436D01*
X005526Y011496D01*
X005547Y011560D01*
X005737Y011579D01*
X005737Y011723D01*
X005547Y011743D01*
X005526Y011807D01*
X005496Y011866D01*
X005617Y012015D01*
X005515Y012117D01*
X005366Y011996D01*
X005307Y012026D01*
X005243Y012047D01*
X005223Y012237D01*
X005079Y012237D01*
X005074Y012189D02*
X005228Y012189D01*
X005234Y012132D02*
X005069Y012132D01*
X005063Y012074D02*
X005240Y012074D01*
X005326Y012016D02*
X004977Y012016D01*
X004910Y012016D02*
X004688Y012016D01*
X004731Y011959D02*
X005571Y011959D01*
X005615Y012016D02*
X005392Y012016D01*
X005463Y012074D02*
X005557Y012074D01*
X005524Y011901D02*
X004778Y011901D01*
X004795Y011844D02*
X005507Y011844D01*
X005533Y011786D02*
X005275Y011786D01*
X005317Y011728D02*
X005685Y011728D01*
X005737Y011671D02*
X005333Y011671D01*
X005332Y011613D02*
X005737Y011613D01*
X005586Y011325D02*
X005286Y011325D01*
X005262Y011383D02*
X005539Y011383D01*
X005498Y011440D02*
X005238Y011440D01*
X005253Y011498D02*
X005527Y011498D01*
X005545Y011556D02*
X005308Y011556D01*
X005414Y011268D02*
X005597Y011268D01*
X005539Y011210D02*
X005485Y011210D01*
X005040Y011383D02*
X004764Y011383D01*
X004805Y011440D02*
X005064Y011440D01*
X005049Y011498D02*
X004775Y011498D01*
X004757Y011556D02*
X004995Y011556D01*
X004971Y011613D02*
X004565Y011613D01*
X004565Y011671D02*
X004969Y011671D01*
X004984Y011728D02*
X004617Y011728D01*
X004770Y011786D02*
X005027Y011786D01*
X004840Y012074D02*
X004745Y012074D01*
X004717Y011325D02*
X005016Y011325D01*
X004888Y011268D02*
X004706Y011268D01*
X004763Y011210D02*
X004817Y011210D01*
M02*
